<?xml version="1.0" encoding="UTF-8" standalone="no"?>
<svg
   xmlns:dc="http://purl.org/dc/elements/1.1/"
   xmlns:cc="http://creativecommons.org/ns#"
   xmlns:rdf="http://www.w3.org/1999/02/22-rdf-syntax-ns#"
   xmlns:svg="http://www.w3.org/2000/svg"
   xmlns="http://www.w3.org/2000/svg"
   xmlns:sodipodi="http://sodipodi.sourceforge.net/DTD/sodipodi-0.dtd"
   xmlns:inkscape="http://www.inkscape.org/namespaces/inkscape"
   version="1.1"
   viewBox="0 0 750.01587 152.01047"
   stroke-miterlimit="10"
   id="svg77"
   sodipodi:docname="concurrentAccessScheme.svg"
   width="750.01587"
   height="152.01047"
   style="fill:none;stroke:none;stroke-linecap:square;stroke-miterlimit:10"
   inkscape:export-filename="/home/alexds9/Thesis/ThesisToLatex/ThesisToLatex/Figures/concurrentAccessScheme.png"
   inkscape:export-xdpi="400"
   inkscape:export-ydpi="400"
   inkscape:version="0.92.1 r15371">
  <metadata
     id="metadata83">
    <rdf:RDF>
      <cc:Work
         rdf:about="">
        <dc:format>image/svg+xml</dc:format>
        <dc:type
           rdf:resource="http://purl.org/dc/dcmitype/StillImage" />
        <dc:title></dc:title>
      </cc:Work>
    </rdf:RDF>
  </metadata>
  <defs
     id="defs81" />
  <sodipodi:namedview
     pagecolor="#ffffff"
     bordercolor="#666666"
     borderopacity="1"
     objecttolerance="10"
     gridtolerance="10"
     guidetolerance="10"
     inkscape:pageopacity="0"
     inkscape:pageshadow="2"
     inkscape:window-width="768"
     inkscape:window-height="848"
     id="namedview79"
     showgrid="false"
     fit-margin-top="5"
     fit-margin-right="5"
     fit-margin-bottom="5"
     fit-margin-left="5"
     inkscape:zoom="0.7325"
     inkscape:cx="350.04233"
     inkscape:cy="11.469492"
     inkscape:window-x="832"
     inkscape:window-y="24"
     inkscape:window-maximized="0"
     inkscape:current-layer="g75" />
  <clipPath
     id="p.0">
    <path
       d="M 0,0 H 800 V 600 H 0 Z"
       id="path2"
       inkscape:connector-curvature="0"
       style="clip-rule:nonzero" />
  </clipPath>
  <g
     clip-path="url(#p.0)"
     id="g75"
     transform="translate(-16.036447,-212.73197)">
    <path
       inkscape:connector-curvature="0"
       style="fill:#000000;fill-opacity:0;fill-rule:evenodd"
       d="M 22.036447,218.73197 H 143.92622 V 358.73195 H 22.036447 Z"
       id="path7" />
    <path
       inkscape:connector-curvature="0"
       style="fill-rule:evenodd;stroke:#000000;stroke-width:2;stroke-linecap:butt;stroke-linejoin:round"
       d="M 22.036447,218.73197 H 143.92622 V 358.73195 H 22.036447 Z"
       id="path9" />
    <path
       inkscape:connector-curvature="0"
       style="fill:#000000;fill-rule:nonzero"
       d="m 36.161447,256.94884 v 3.5 q 0,1.01562 0.125,1.28125 0.125,0.26562 0.4375,0.42187 0.328125,0.15625 1.1875,0.15625 v 0.34375 h -6.390625 v -0.34375 q 0.875,0 1.171875,-0.15625 0.3125,-0.17187 0.4375,-0.42187 0.140625,-0.26563 0.140625,-1.28125 v -8.17188 q 0,-1.01562 -0.140625,-1.28125 -0.125,-0.26562 -0.4375,-0.42187 -0.3125,-0.15625 -1.171875,-0.15625 v -0.34375 h 5.484375 q 2.703125,0 3.875,0.96875 1.1875,0.95312 1.1875,2.40625 0,1.21875 -0.765625,2.09375 -0.75,0.875 -2.09375,1.1875 -0.890625,0.21875 -3.046875,0.21875 z m 0,-6.15625 v 5.4375 q 0.3125,0.0156 0.46875,0.0156 1.125,0 1.734375,-0.67187 0.625,-0.67188 0.625,-2.07813 0,-1.40625 -0.625,-2.04687 -0.609375,-0.65625 -1.8125,-0.65625 z m 10.505356,3.1875 v 1.96875 q 0.875,-1.34375 1.515625,-1.78125 0.65625,-0.45313 1.25,-0.45313 0.53125,0 0.828125,0.32813 0.3125,0.3125 0.3125,0.90625 0,0.60937 -0.296875,0.95312 -0.296875,0.34375 -0.734375,0.34375 -0.484375,0 -0.84375,-0.3125 -0.359375,-0.3125 -0.4375,-0.34375 -0.07813,-0.0625 -0.203125,-0.0625 -0.265625,0 -0.515625,0.20313 -0.375,0.3125 -0.578125,0.90625 -0.296875,0.89062 -0.296875,1.98437 v 1.98438 l 0.01563,0.53125 q 0,0.51562 0.0625,0.67187 0.109375,0.25 0.328125,0.375 0.21875,0.10938 0.734375,0.14063 v 0.32812 h -4.671875 v -0.32812 q 0.5625,-0.0469 0.75,-0.3125 0.203125,-0.26563 0.203125,-1.40625 v -4.79688 q 0,-0.73437 -0.0625,-0.9375 -0.09375,-0.26562 -0.28125,-0.375 -0.171875,-0.125 -0.609375,-0.17187 v -0.34375 z m 12.030533,4.03125 h -4.75 q 0.07813,1.71875 0.90625,2.71875 0.640625,0.76562 1.546875,0.76562 0.5625,0 1.015625,-0.29687 0.453125,-0.3125 0.96875,-1.125 l 0.3125,0.20312 q -0.703125,1.4375 -1.5625,2.04688 -0.84375,0.59375 -1.96875,0.59375 -1.921875,0 -2.921875,-1.48438 -0.796875,-1.20312 -0.796875,-2.96875 0,-2.17187 1.171875,-3.45312 1.171875,-1.29688 2.75,-1.29688 1.3125,0 2.28125,1.09375 0.96875,1.07813 1.046875,3.20313 z m -2.28125,-0.625 q 0,-1.5 -0.171875,-2.04688 -0.15625,-0.5625 -0.5,-0.85937 -0.1875,-0.15625 -0.515625,-0.15625 -0.484375,0 -0.78125,0.46875 -0.546875,0.82812 -0.546875,2.26562 v 0.32813 z m 6.608658,-7.3125 v 10.78125 q 0,0.92187 0.21875,1.17187 0.21875,0.25 0.828125,0.29688 v 0.32812 h -4.671875 v -0.32812 q 0.5625,-0.0312 0.84375,-0.34375 0.1875,-0.20313 0.1875,-1.125 v -8.98438 q 0,-0.90625 -0.21875,-1.15625 -0.203125,-0.26562 -0.8125,-0.29687 v -0.34375 z m 3.886429,-0.29688 q 0.59375,0 1.015625,0.42188 0.421875,0.42187 0.421875,1.01562 0,0.59375 -0.421875,1.01563 -0.421875,0.40625 -1.015625,0.40625 -0.59375,0 -1.015625,-0.40625 -0.421875,-0.42188 -0.421875,-1.01563 0,-0.59375 0.421875,-1.01562 0.421875,-0.42188 1.015625,-0.42188 z m 1.296875,4.20313 v 6.875 q 0,0.92187 0.203125,1.17187 0.21875,0.25 0.84375,0.29688 v 0.32812 h -4.6875 v -0.32812 q 0.578125,-0.0312 0.859375,-0.34375 0.171875,-0.20313 0.171875,-1.125 v -5.0625 q 0,-0.92188 -0.21875,-1.17188 -0.203125,-0.26562 -0.8125,-0.29687 v -0.34375 z m 5.386429,0 v 1.14062 q 0.71875,-0.78125 1.328125,-1.09375 0.609375,-0.3125 1.328125,-0.3125 0.84375,0 1.40625,0.39063 0.5625,0.39062 0.875,1.1875 0.734375,-0.82813 1.40625,-1.20313 0.6875,-0.375 1.4375,-0.375 0.90625,0 1.4375,0.42188 0.53125,0.40625 0.734375,1.04687 0.21875,0.625 0.21875,2.01563 v 3.5625 q 0,1 0.171875,1.25 0.1875,0.23437 0.75,0.3125 v 0.32812 h -4.46875 v -0.32812 q 0.53125,-0.0469 0.78125,-0.42188 0.15625,-0.25 0.15625,-1.14062 v -3.73438 q 0,-1.15625 -0.09375,-1.46875 -0.09375,-0.3125 -0.296875,-0.46875 -0.1875,-0.15625 -0.453125,-0.15625 -0.40625,0 -0.8125,0.29688 -0.40625,0.28125 -0.828125,0.875 v 4.65625 q 0,0.9375 0.15625,1.17187 0.21875,0.34375 0.8125,0.39063 v 0.32812 h -4.484375 v -0.32812 q 0.359375,-0.0312 0.5625,-0.1875 0.21875,-0.15625 0.28125,-0.375 0.07813,-0.23438 0.07813,-1 v -3.73438 q 0,-1.17187 -0.09375,-1.46875 -0.09375,-0.29687 -0.3125,-0.46875 -0.21875,-0.17187 -0.46875,-0.17187 -0.375,0 -0.671875,0.20312 -0.4375,0.28125 -0.9375,0.98438 v 4.65625 q 0,0.92187 0.1875,1.21875 0.1875,0.28125 0.75,0.34375 v 0.32812 h -4.46875 v -0.32812 q 0.546875,-0.0625 0.78125,-0.35938 0.15625,-0.20312 0.15625,-1.20312 v -4.90625 q 0,-0.98438 -0.1875,-1.21875 -0.171875,-0.23438 -0.75,-0.3125 v -0.34375 z m 14.0408,-4.20313 q 0.59375,0 1.01563,0.42188 0.42187,0.42187 0.42187,1.01562 0,0.59375 -0.42187,1.01563 -0.42188,0.40625 -1.01563,0.40625 -0.59375,0 -1.01562,-0.40625 -0.42188,-0.42188 -0.42188,-1.01563 0,-0.59375 0.42188,-1.01562 0.42187,-0.42188 1.01562,-0.42188 z m 1.29688,4.20313 v 6.875 q 0,0.92187 0.20312,1.17187 0.21875,0.25 0.84375,0.29688 v 0.32812 h -4.6875 v -0.32812 q 0.57813,-0.0312 0.85938,-0.34375 0.17187,-0.20313 0.17187,-1.125 v -5.0625 q 0,-0.92188 -0.21875,-1.17188 -0.20312,-0.26562 -0.8125,-0.29687 v -0.34375 z m 5.33955,0 v 1.125 q 0.67188,-0.73438 1.28125,-1.0625 0.60938,-0.32813 1.3125,-0.32813 0.84375,0 1.39063,0.46875 0.5625,0.46875 0.75,1.17188 0.15625,0.53125 0.15625,2.03125 v 3.375 q 0,1 0.17187,1.25 0.1875,0.23437 0.765633,0.3125 v 0.32812 h -4.390633 v -0.32812 q 0.48438,-0.0781 0.70313,-0.42188 0.14062,-0.21875 0.14062,-1.14062 v -3.85938 q 0,-1.0625 -0.0781,-1.34375 -0.0781,-0.28125 -0.28125,-0.4375 -0.20313,-0.15625 -0.4375,-0.15625 -0.79688,0 -1.48438,1.14063 v 4.65625 q 0,0.96875 0.17188,1.23437 0.1875,0.25 0.67187,0.32813 v 0.32812 h -4.375 v -0.32812 q 0.54688,-0.0625 0.76563,-0.35938 0.17187,-0.20312 0.17187,-1.20312 v -4.90625 q 0,-0.98438 -0.1875,-1.21875 -0.1875,-0.23438 -0.75,-0.3125 v -0.34375 z m 11.610093,7.39062 q -1.57812,1.40625 -2.84375,1.40625 -0.73437,0 -1.23437,-0.48437 -0.48438,-0.5 -0.48438,-1.23438 0,-0.98437 0.84375,-1.78125 0.85938,-0.79687 3.71875,-2.10937 v -0.875 q 0,-0.98438 -0.10937,-1.23438 -0.0937,-0.25 -0.39063,-0.4375 -0.29687,-0.20312 -0.67187,-0.20312 -0.60938,0 -1,0.28125 -0.23438,0.15625 -0.23438,0.375 0,0.20312 0.26563,0.48437 0.34375,0.40625 0.34375,0.78125 0,0.45313 -0.34375,0.78125 -0.32813,0.3125 -0.875,0.3125 -0.59375,0 -0.98438,-0.34375 -0.39062,-0.35937 -0.39062,-0.84375 0,-0.65625 0.53125,-1.26562 0.53125,-0.60938 1.46875,-0.9375 0.95312,-0.32813 1.96875,-0.32813 1.23437,0 1.95312,0.53125 0.71875,0.51563 0.9375,1.125 0.125,0.39063 0.125,1.79688 v 3.375 q 0,0.59375 0.0469,0.75 0.0469,0.14062 0.14062,0.21875 0.0937,0.0781 0.21875,0.0781 0.23438,0 0.48438,-0.34375 l 0.28125,0.21875 q -0.46875,0.6875 -0.96875,1 -0.48438,0.3125 -1.125,0.3125 -0.73438,0 -1.15625,-0.34375 -0.42188,-0.35937 -0.51563,-1.0625 z m 0,-0.67187 v -2.90625 q -1.10937,0.65625 -1.67187,1.40625 -0.35938,0.5 -0.35938,1.01562 0,0.42188 0.3125,0.75 0.23438,0.25 0.64063,0.25 0.46875,0 1.07812,-0.51562 z m 8.14063,-6.71875 v 1.96875 q 0.875,-1.34375 1.51562,-1.78125 0.65625,-0.45313 1.25,-0.45313 0.53125,0 0.82813,0.32813 0.3125,0.3125 0.3125,0.90625 0,0.60937 -0.29688,0.95312 -0.29687,0.34375 -0.73437,0.34375 -0.48438,0 -0.84375,-0.3125 -0.35938,-0.3125 -0.4375,-0.34375 -0.0781,-0.0625 -0.20313,-0.0625 -0.26562,0 -0.51562,0.20313 -0.375,0.3125 -0.57813,0.90625 -0.29687,0.89062 -0.29687,1.98437 v 1.98438 l 0.0156,0.53125 q 0,0.51562 0.0625,0.67187 0.10938,0.25 0.32813,0.375 0.21875,0.10938 0.73437,0.14063 v 0.32812 h -4.67187 v -0.32812 q 0.5625,-0.0469 0.75,-0.3125 0.20312,-0.26563 0.20312,-1.40625 v -4.79688 q 0,-0.73437 -0.0625,-0.9375 -0.0937,-0.26562 -0.28125,-0.375 -0.17187,-0.125 -0.60937,-0.17187 v -0.34375 z m 8.67116,9.03125 -2.8125,-6.4375 q -0.625,-1.45313 -0.9375,-1.78125 -0.29688,-0.34375 -0.71875,-0.46875 v -0.34375 h 4.60937 v 0.34375 q -0.45312,0.0156 -0.64062,0.17187 -0.1875,0.15625 -0.1875,0.375 0,0.35938 0.46875,1.39063 l 1.48437,3.40625 1.01563,-2.625 q 0.54687,-1.40625 0.54687,-1.95313 0,-0.34375 -0.23437,-0.54687 -0.21875,-0.20313 -0.79688,-0.21875 v -0.34375 h 2.90625 v 0.34375 q -0.4375,0.0469 -0.70312,0.32812 -0.26563,0.28125 -0.89063,1.92188 l -2.48437,6.4375 q -0.9375,2.40625 -1.39063,2.96875 -0.64062,0.76562 -1.60937,0.76562 -0.76563,0 -1.25,-0.4375 -0.46875,-0.4375 -0.46875,-1.0625 0,-0.53125 0.32812,-0.89062 0.32813,-0.34375 0.8125,-0.34375 0.46875,0 0.75,0.29687 0.28125,0.29688 0.28125,0.90625 0.0156,0.35938 0.0937,0.46875 0.0625,0.0937 0.20313,0.0937 0.23437,0 0.48437,-0.26562 0.35938,-0.39063 0.85938,-1.78125 z"
       id="path11" />
    <path
       inkscape:connector-curvature="0"
       style="fill:#000000;fill-rule:nonzero"
       d="m 43.723947,271.77696 v 4.375 h -0.359375 q -0.421875,-1.71875 -1.53125,-2.625 -1.109375,-0.90625 -2.515625,-0.90625 -1.1875,0 -2.171875,0.6875 -0.984375,0.67187 -1.4375,1.76562 -0.578125,1.39063 -0.578125,3.10938 0,1.6875 0.421875,3.07812 0.421875,1.39063 1.328125,2.10938 0.921875,0.70312 2.359375,0.70312 1.1875,0 2.171875,-0.51562 1,-0.53125 2.09375,-1.79688 v 1.07813 q -1.0625,1.10937 -2.203125,1.60937 -1.140625,0.48438 -2.671875,0.48438 -2.015625,0 -3.578125,-0.79688 -1.5625,-0.8125 -2.421875,-2.3125 -0.84375,-1.51562 -0.84375,-3.23437 0,-1.79688 0.9375,-3.40625 0.953125,-1.625 2.546875,-2.51563 1.59375,-0.89062 3.40625,-0.89062 1.328125,0 2.796875,0.57812 0.859375,0.34375 1.078125,0.34375 0.296875,0 0.515625,-0.21875 0.21875,-0.21875 0.296875,-0.70312 z m 5.519821,3.9375 q 1.125,0 2.09375,0.59375 0.984375,0.57812 1.484375,1.65625 0.515625,1.07812 0.515625,2.35937 0,1.84375 -0.9375,3.07813 -1.140625,1.51562 -3.125,1.51562 -1.96875,0 -3.03125,-1.375 -1.046875,-1.375 -1.046875,-3.1875 0,-1.85937 1.078125,-3.25 1.078125,-1.39062 2.96875,-1.39062 z m 0.03125,0.65625 q -0.46875,0 -0.8125,0.35937 -0.328125,0.35938 -0.4375,1.42188 -0.109375,1.04687 -0.109375,2.92187 0,0.98438 0.125,1.85938 0.109375,0.65625 0.4375,1 0.34375,0.34375 0.765625,0.34375 0.421875,0 0.6875,-0.23438 0.375,-0.3125 0.484375,-0.89062 0.1875,-0.875 0.1875,-3.5625 0,-1.57813 -0.171875,-2.15625 -0.171875,-0.59375 -0.515625,-0.85938 -0.25,-0.20312 -0.640625,-0.20312 z m 8.75,-0.39063 v 1.125 q 0.671875,-0.73437 1.28125,-1.0625 0.609375,-0.32812 1.3125,-0.32812 0.84375,0 1.390625,0.46875 0.5625,0.46875 0.75,1.17187 0.15625,0.53125 0.15625,2.03125 v 3.375 q 0,1 0.171875,1.25 0.1875,0.23438 0.765625,0.3125 v 0.32813 h -4.390625 v -0.32813 q 0.484375,-0.0781 0.703125,-0.42187 0.140625,-0.21875 0.140625,-1.14063 v -3.85937 q 0,-1.0625 -0.07813,-1.34375 -0.07813,-0.28125 -0.28125,-0.4375 -0.203125,-0.15625 -0.4375,-0.15625 -0.796875,0 -1.484375,1.14062 v 4.65625 q 0,0.96875 0.171875,1.23438 0.1875,0.25 0.671875,0.32812 v 0.32813 h -4.375 v -0.32813 q 0.546875,-0.0625 0.765625,-0.35937 0.171875,-0.20313 0.171875,-1.20313 v -4.90625 q 0,-0.98437 -0.1875,-1.21875 -0.1875,-0.23437 -0.75,-0.3125 v -0.34375 z m 13.906967,6.4375 0.28125,0.21875 q -0.609375,1.15625 -1.53125,1.71875 -0.90625,0.5625 -1.9375,0.5625 -1.734375,0 -2.78125,-1.3125 -1.03125,-1.3125 -1.03125,-3.14062 0,-1.78125 0.953125,-3.125 1.140625,-1.625 3.140625,-1.625 1.34375,0 2.140625,0.6875 0.796875,0.67187 0.796875,1.5 0,0.53125 -0.328125,0.85937 -0.3125,0.3125 -0.828125,0.3125 -0.546875,0 -0.90625,-0.35937 -0.359375,-0.375 -0.453125,-1.29688 -0.04687,-0.59375 -0.265625,-0.8125 -0.203125,-0.23437 -0.5,-0.23437 -0.4375,0 -0.75,0.46875 -0.484375,0.71875 -0.484375,2.1875 0,1.23437 0.390625,2.35937 0.390625,1.10938 1.0625,1.65625 0.515625,0.39063 1.203125,0.39063 0.453125,0 0.859375,-0.20313 0.40625,-0.21875 0.96875,-0.8125 z m 9.577408,-6.4375 v 6.78125 q 0,1 0.1875,1.25 0.1875,0.23438 0.75,0.3125 v 0.32813 h -3.53125 v -1.15625 q -0.625,0.73437 -1.25,1.07812 -0.609375,0.34375 -1.390625,0.34375 -0.734375,0 -1.3125,-0.45312 -0.5625,-0.45313 -0.765625,-1.04688 -0.1875,-0.60937 -0.1875,-2.10937 v -3.45313 q 0,-0.98437 -0.1875,-1.21875 -0.171875,-0.23437 -0.75,-0.3125 v -0.34375 h 3.546875 v 5.92188 q 0,0.9375 0.07813,1.20312 0.09375,0.26563 0.28125,0.40625 0.1875,0.14063 0.4375,0.14063 0.34375,0 0.609375,-0.17188 0.375,-0.25 0.890625,-0.98437 v -4.64063 q 0,-0.98437 -0.1875,-1.21875 -0.171875,-0.23437 -0.75,-0.3125 v -0.34375 z m 5.594464,0 v 1.96875 q 0.875,-1.34375 1.51563,-1.78125 0.65625,-0.45312 1.25,-0.45312 0.53125,0 0.82812,0.32812 0.3125,0.3125 0.3125,0.90625 0,0.60938 -0.29687,0.95313 -0.29688,0.34375 -0.73438,0.34375 -0.48437,0 -0.84375,-0.3125 -0.35937,-0.3125 -0.4375,-0.34375 -0.0781,-0.0625 -0.20312,-0.0625 -0.26563,0 -0.51563,0.20312 -0.375,0.3125 -0.57812,0.90625 -0.29688,0.89063 -0.29688,1.98438 v 1.98437 l 0.0156,0.53125 q 0,0.51563 0.0625,0.67188 0.10937,0.25 0.32812,0.375 0.21875,0.10937 0.73438,0.14062 v 0.32813 H 83.57258 v -0.32813 q 0.562497,-0.0469 0.749997,-0.3125 0.20313,-0.26562 0.20313,-1.40625 v -4.79687 q 0,-0.73438 -0.0625,-0.9375 -0.0937,-0.26563 -0.28125,-0.375 -0.171877,-0.125 -0.609377,-0.17188 v -0.34375 z m 8.28054,0 v 1.96875 q 0.875,-1.34375 1.51562,-1.78125 0.65625,-0.45312 1.25,-0.45312 0.53125,0 0.82813,0.32812 0.3125,0.3125 0.3125,0.90625 0,0.60938 -0.29688,0.95313 -0.29687,0.34375 -0.73437,0.34375 -0.48438,0 -0.84375,-0.3125 -0.35938,-0.3125 -0.4375,-0.34375 -0.0781,-0.0625 -0.20313,-0.0625 -0.26562,0 -0.51562,0.20312 -0.375,0.3125 -0.57813,0.90625 -0.29687,0.89063 -0.29687,1.98438 v 1.98437 l 0.0156,0.53125 q 0,0.51563 0.0625,0.67188 0.10938,0.25 0.32813,0.375 0.21875,0.10937 0.73437,0.14062 v 0.32813 h -4.67187 v -0.32813 q 0.5625,-0.0469 0.75,-0.3125 0.20312,-0.26562 0.20312,-1.40625 v -4.79687 q 0,-0.73438 -0.0625,-0.9375 -0.0937,-0.26563 -0.28125,-0.375 -0.17187,-0.125 -0.60937,-0.17188 v -0.34375 z m 12.030533,4.03125 h -4.75 q 0.0781,1.71875 0.90625,2.71875 0.64062,0.76563 1.54687,0.76563 0.5625,0 1.01563,-0.29688 0.45312,-0.3125 0.96875,-1.125 l 0.3125,0.20313 q -0.70313,1.4375 -1.5625,2.04687 -0.84375,0.59375 -1.96875,0.59375 -1.92188,0 -2.92188,-1.48437 -0.79687,-1.20313 -0.79687,-2.96875 0,-2.17188 1.17187,-3.45313 1.17188,-1.29687 2.75,-1.29687 1.3125,0 2.28125,1.09375 0.96875,1.07812 1.04688,3.20312 z m -2.28125,-0.625 q 0,-1.5 -0.17188,-2.04687 -0.15625,-0.5625 -0.5,-0.85938 -0.1875,-0.15625 -0.51562,-0.15625 -0.48438,0 -0.78125,0.46875 -0.54688,0.82813 -0.54688,2.26563 v 0.32812 z m 6.76491,-3.40625 v 1.125 q 0.67187,-0.73437 1.28125,-1.0625 0.60937,-0.32812 1.3125,-0.32812 0.84375,0 1.39062,0.46875 0.5625,0.46875 0.75,1.17187 0.15625,0.53125 0.15625,2.03125 v 3.375 q 0,1 0.17188,1.25 0.1875,0.23438 0.76562,0.3125 v 0.32813 h -4.39062 v -0.32813 q 0.48437,-0.0781 0.70312,-0.42187 0.14063,-0.21875 0.14063,-1.14063 v -3.85937 q 0,-1.0625 -0.0781,-1.34375 -0.0781,-0.28125 -0.28125,-0.4375 -0.20312,-0.15625 -0.4375,-0.15625 -0.79687,0 -1.48437,1.14062 v 4.65625 q 0,0.96875 0.17187,1.23438 0.1875,0.25 0.67188,0.32812 v 0.32813 h -4.375 v -0.32813 q 0.54687,-0.0625 0.76562,-0.35937 0.17188,-0.20313 0.17188,-1.20313 v -4.90625 q 0,-0.98437 -0.1875,-1.21875 -0.1875,-0.23437 -0.75,-0.3125 v -0.34375 z m 10.26634,-3.17187 v 3.17187 h 2.0625 v 0.92188 h -2.0625 v 5.34375 q 0,0.75 0.0625,0.96875 0.0781,0.21875 0.25,0.35937 0.1875,0.125 0.32812,0.125 0.60938,0 1.14063,-0.90625 l 0.28125,0.20313 q -0.75,1.78125 -2.4375,1.78125 -0.82813,0 -1.40625,-0.45313 -0.5625,-0.46875 -0.71875,-1.03125 -0.0937,-0.3125 -0.0937,-1.71875 v -4.67187 h -1.125 v -0.32813 q 1.15625,-0.82812 1.96875,-1.73437 0.82812,-0.90625 1.45312,-2.03125 z"
       id="path13" />
    <path
       inkscape:connector-curvature="0"
       style="fill:#000000;fill-rule:nonzero"
       d="m 40.098947,302.37071 3.40625,-8.29688 h 5.125 v 0.34375 h -0.40625 q -0.5625,0 -0.890625,0.1875 -0.234375,0.14063 -0.375,0.4375 -0.109375,0.21875 -0.109375,1.15625 v 8.29688 q 0,0.96875 0.09375,1.21875 0.109375,0.23437 0.421875,0.42187 0.328125,0.17188 0.859375,0.17188 h 0.40625 v 0.34375 h -6.578125 v -0.34375 h 0.421875 q 0.546875,0 0.890625,-0.1875 0.21875,-0.14063 0.359375,-0.45313 0.109375,-0.21875 0.109375,-1.17187 v -9.3125 l -4.828125,11.46875 h -0.21875 l -4.90625,-11.39063 v 8.85938 q 0,0.92187 0.04687,1.14062 0.125,0.46875 0.53125,0.76563 0.40625,0.28125 1.265625,0.28125 v 0.34375 h -4.312495 v -0.34375 h 0.140625 q 0.40625,0.0156 0.765625,-0.125 0.375,-0.15625 0.546875,-0.39063 0.1875,-0.25 0.296875,-0.6875 0.01563,-0.0937 0.01563,-0.9375 v -7.96875 q 0,-0.95312 -0.109375,-1.1875 -0.09375,-0.23437 -0.40625,-0.40625 -0.3125,-0.1875 -0.84375,-0.1875 h -0.406255 v -0.34375 h 5.140625 z m 16.530533,-0.35938 h -4.75 q 0.07813,1.71875 0.90625,2.71875 0.640625,0.76563 1.546875,0.76563 0.5625,0 1.015625,-0.29688 0.453125,-0.3125 0.96875,-1.125 l 0.3125,0.20313 q -0.703125,1.4375 -1.5625,2.04687 -0.84375,0.59375 -1.96875,0.59375 -1.921875,0 -2.921875,-1.48437 -0.796875,-1.20313 -0.796875,-2.96875 0,-2.17188 1.171875,-3.45313 1.171875,-1.29687 2.75,-1.29687 1.3125,0 2.28125,1.09375 0.96875,1.07812 1.046875,3.20312 z m -2.28125,-0.625 q 0,-1.5 -0.171875,-2.04687 -0.15625,-0.5625 -0.5,-0.85938 -0.1875,-0.15625 -0.515625,-0.15625 -0.484375,0 -0.78125,0.46875 -0.546875,0.82813 -0.546875,2.26563 v 0.32812 z m 6.811783,-3.40625 v 1.14063 q 0.71875,-0.78125 1.328125,-1.09375 0.609375,-0.3125 1.328125,-0.3125 0.84375,0 1.40625,0.39062 0.5625,0.39063 0.875,1.1875 0.734375,-0.82812 1.40625,-1.20312 0.6875,-0.375 1.4375,-0.375 0.90625,0 1.4375,0.42187 0.53125,0.40625 0.734375,1.04688 0.21875,0.625 0.21875,2.01562 v 3.5625 q 0,1 0.171875,1.25 0.1875,0.23438 0.75,0.3125 v 0.32813 h -4.46875 v -0.32813 q 0.53125,-0.0469 0.78125,-0.42187 0.15625,-0.25 0.15625,-1.14063 v -3.73437 q 0,-1.15625 -0.09375,-1.46875 -0.09375,-0.3125 -0.296875,-0.46875 -0.1875,-0.15625 -0.453125,-0.15625 -0.40625,0 -0.8125,0.29687 -0.40625,0.28125 -0.828125,0.875 v 4.65625 q 0,0.9375 0.15625,1.17188 0.21875,0.34375 0.8125,0.39062 v 0.32813 h -4.484375 v -0.32813 q 0.359375,-0.0312 0.5625,-0.1875 0.21875,-0.15625 0.28125,-0.375 0.07813,-0.23437 0.07813,-1 v -3.73437 q 0,-1.17188 -0.09375,-1.46875 -0.09375,-0.29688 -0.3125,-0.46875 -0.21875,-0.17188 -0.46875,-0.17188 -0.375,0 -0.671875,0.20313 -0.4375,0.28125 -0.9375,0.98437 v 4.65625 q 0,0.92188 0.1875,1.21875 0.1875,0.28125 0.75,0.34375 v 0.32813 h -4.46875 v -0.32813 q 0.546875,-0.0625 0.78125,-0.35937 0.15625,-0.20313 0.15625,-1.20313 v -4.90625 q 0,-0.98437 -0.1875,-1.21875 -0.171875,-0.23437 -0.75,-0.3125 v -0.34375 z m 16.040802,-0.26562 q 1.125,0 2.09375,0.59375 0.984375,0.57812 1.484375,1.65625 0.515625,1.07812 0.515625,2.35937 0,1.84375 -0.9375,3.07813 -1.140625,1.51562 -3.125,1.51562 -1.96875,0 -3.03125,-1.375 -1.046875,-1.375 -1.046875,-3.1875 0,-1.85937 1.078125,-3.25 1.078125,-1.39062 2.96875,-1.39062 z m 0.03125,0.65625 q -0.46875,0 -0.8125,0.35937 -0.328125,0.35938 -0.4375,1.42188 -0.109375,1.04687 -0.109375,2.92187 0,0.98438 0.125,1.85938 0.109375,0.65625 0.4375,1 0.34375,0.34375 0.765625,0.34375 0.421875,0 0.6875,-0.23438 0.375,-0.3125 0.484375,-0.89062 0.1875,-0.875 0.1875,-3.5625 0,-1.57813 -0.171875,-2.15625 -0.171875,-0.59375 -0.515625,-0.85938 -0.25,-0.20312 -0.640625,-0.20312 z m 8.796872,-0.39063 v 1.96875 q 0.875,-1.34375 1.51563,-1.78125 0.65625,-0.45312 1.25,-0.45312 0.53125,0 0.82812,0.32812 0.3125,0.3125 0.3125,0.90625 0,0.60938 -0.29687,0.95313 -0.29688,0.34375 -0.73438,0.34375 -0.48437,0 -0.84375,-0.3125 -0.35937,-0.3125 -0.4375,-0.34375 -0.0781,-0.0625 -0.20312,-0.0625 -0.26563,0 -0.51563,0.20312 -0.375,0.3125 -0.57812,0.90625 -0.29688,0.89063 -0.29688,1.98438 v 1.98437 l 0.0156,0.53125 q 0,0.51563 0.0625,0.67188 0.10937,0.25 0.32812,0.375 0.21875,0.10937 0.73438,0.14062 v 0.32813 H 82.49766 v -0.32813 q 0.5625,-0.0469 0.75,-0.3125 0.203125,-0.26562 0.203125,-1.40625 v -4.79687 q 0,-0.73438 -0.0625,-0.9375 -0.09375,-0.26563 -0.28125,-0.375 -0.171875,-0.125 -0.609375,-0.17188 v -0.34375 z m 8.67116,9.03125 -2.8125,-6.4375 q -0.625,-1.45312 -0.9375,-1.78125 -0.29687,-0.34375 -0.71875,-0.46875 v -0.34375 h 4.60938 v 0.34375 q -0.45313,0.0156 -0.64063,0.17188 -0.1875,0.15625 -0.1875,0.375 0,0.35937 0.46875,1.39062 l 1.48438,3.40625 1.01562,-2.625 q 0.54688,-1.40625 0.54688,-1.95312 0,-0.34375 -0.23438,-0.54688 -0.21875,-0.20312 -0.79687,-0.21875 v -0.34375 h 2.90625 v 0.34375 q -0.4375,0.0469 -0.70313,0.32813 -0.26562,0.28125 -0.89062,1.92187 l -2.48438,6.4375 q -0.9375,2.40625 -1.39062,2.96875 -0.64063,0.76563 -1.60938,0.76563 -0.76562,0 -1.25,-0.4375 -0.46875,-0.4375 -0.46875,-1.0625 0,-0.53125 0.32813,-0.89063 0.32812,-0.34375 0.8125,-0.34375 0.46875,0 0.75,0.29688 0.28125,0.29687 0.28125,0.90625 0.0156,0.35937 0.0937,0.46875 0.0625,0.0937 0.20312,0.0937 0.23438,0 0.48438,-0.26563 0.35937,-0.39062 0.85937,-1.78125 z"
       id="path15" />
    <path
       inkscape:connector-curvature="0"
       style="fill:#000000;fill-rule:nonzero"
       d="m 36.458322,327.37071 q -1.578125,1.40625 -2.84375,1.40625 -0.734375,0 -1.234375,-0.48438 -0.484375,-0.5 -0.484375,-1.23437 0,-0.98438 0.84375,-1.78125 0.859375,-0.79688 3.71875,-2.10938 v -0.875 q 0,-0.98437 -0.109375,-1.23437 -0.09375,-0.25 -0.390625,-0.4375 -0.296875,-0.20313 -0.671875,-0.20313 -0.609375,0 -1,0.28125 -0.234375,0.15625 -0.234375,0.375 0,0.20313 0.265625,0.48438 0.34375,0.40625 0.34375,0.78125 0,0.45312 -0.34375,0.78125 -0.328125,0.3125 -0.875,0.3125 -0.59375,0 -0.984375,-0.34375 -0.390625,-0.35938 -0.390625,-0.84375 0,-0.65625 0.53125,-1.26563 0.53125,-0.60937 1.46875,-0.9375 0.953125,-0.32812 1.96875,-0.32812 1.234375,0 1.953125,0.53125 0.71875,0.51562 0.9375,1.125 0.125,0.39062 0.125,1.79687 v 3.375 q 0,0.59375 0.04687,0.75 0.04687,0.14063 0.140625,0.21875 0.09375,0.0781 0.21875,0.0781 0.234375,0 0.484375,-0.34375 l 0.28125,0.21875 q -0.46875,0.6875 -0.96875,1 -0.484375,0.3125 -1.125,0.3125 -0.734375,0 -1.15625,-0.34375 -0.421875,-0.35938 -0.515625,-1.0625 z m 0,-0.67188 v -2.90625 q -1.109375,0.65625 -1.671875,1.40625 -0.359375,0.5 -0.359375,1.01563 0,0.42187 0.3125,0.75 0.234375,0.25 0.640625,0.25 0.46875,0 1.078125,-0.51563 z m 11.625,-0.28125 0.28125,0.21875 q -0.609375,1.15625 -1.53125,1.71875 -0.90625,0.5625 -1.9375,0.5625 -1.734375,0 -2.78125,-1.3125 -1.03125,-1.3125 -1.03125,-3.14062 0,-1.78125 0.953125,-3.125 1.140625,-1.625 3.140625,-1.625 1.34375,0 2.140625,0.6875 0.796875,0.67187 0.796875,1.5 0,0.53125 -0.328125,0.85937 -0.3125,0.3125 -0.828125,0.3125 -0.546875,0 -0.90625,-0.35937 -0.359375,-0.375 -0.453125,-1.29688 -0.04687,-0.59375 -0.265625,-0.8125 -0.203125,-0.23437 -0.5,-0.23437 -0.4375,0 -0.75,0.46875 -0.484375,0.71875 -0.484375,2.1875 0,1.23437 0.390625,2.35937 0.390625,1.10938 1.0625,1.65625 0.515625,0.39063 1.203125,0.39063 0.453125,0 0.859375,-0.20313 0.40625,-0.21875 0.96875,-0.8125 z m 8.280533,0 0.28125,0.21875 q -0.609375,1.15625 -1.53125,1.71875 -0.90625,0.5625 -1.9375,0.5625 -1.734375,0 -2.78125,-1.3125 -1.03125,-1.3125 -1.03125,-3.14062 0,-1.78125 0.953125,-3.125 1.140625,-1.625 3.140625,-1.625 1.34375,0 2.140625,0.6875 0.796875,0.67187 0.796875,1.5 0,0.53125 -0.328125,0.85937 -0.3125,0.3125 -0.828125,0.3125 -0.546875,0 -0.90625,-0.35937 -0.359375,-0.375 -0.453125,-1.29688 -0.04687,-0.59375 -0.265625,-0.8125 -0.203125,-0.23437 -0.5,-0.23437 -0.4375,0 -0.75,0.46875 -0.484375,0.71875 -0.484375,2.1875 0,1.23437 0.390625,2.35937 0.390625,1.10938 1.0625,1.65625 0.515625,0.39063 1.203125,0.39063 0.453125,0 0.859375,-0.20313 0.40625,-0.21875 0.96875,-0.8125 z m 8.546158,-2.40625 h -4.75 q 0.07813,1.71875 0.90625,2.71875 0.640625,0.76563 1.546875,0.76563 0.5625,0 1.015625,-0.29688 0.453125,-0.3125 0.96875,-1.125 l 0.3125,0.20313 q -0.703125,1.4375 -1.5625,2.04687 -0.84375,0.59375 -1.96875,0.59375 -1.921875,0 -2.921875,-1.48437 -0.796875,-1.20313 -0.796875,-2.96875 0,-2.17188 1.171875,-3.45313 1.171875,-1.29687 2.75,-1.29687 1.3125,0 2.28125,1.09375 0.96875,1.07812 1.046875,3.20312 z m -2.28125,-0.625 q 0,-1.5 -0.171875,-2.04687 -0.15625,-0.5625 -0.5,-0.85938 -0.1875,-0.15625 -0.515625,-0.15625 -0.484375,0 -0.78125,0.46875 -0.546875,0.82813 -0.546875,2.26563 v 0.32812 z m 8.702408,-3.65625 0.140625,2.96875 h -0.3125 q -0.578125,-1.32812 -1.1875,-1.79687 -0.59375,-0.48438 -1.203125,-0.48438 -0.375,0 -0.65625,0.25 -0.265625,0.25 -0.265625,0.59375 0,0.25 0.1875,0.48438 0.296875,0.375 1.65625,1.29687 1.375,0.92188 1.796875,1.57813 0.4375,0.64062 0.4375,1.4375 0,0.71875 -0.359375,1.42187 -0.359375,0.6875 -1.03125,1.0625 -0.65625,0.375 -1.453125,0.375 -0.625,0 -1.65625,-0.39062 -0.28125,-0.10938 -0.375,-0.10938 -0.3125,0 -0.515625,0.46875 h -0.3125 l -0.140625,-3.125 h 0.3125 q 0.421875,1.23438 1.140625,1.84375 0.734375,0.60938 1.390625,0.60938 0.4375,0 0.71875,-0.26563 0.28125,-0.28125 0.28125,-0.67187 0,-0.4375 -0.28125,-0.76563 -0.265625,-0.32812 -1.234375,-0.98437 -1.421875,-0.98438 -1.84375,-1.5 -0.609375,-0.76563 -0.609375,-1.6875 0,-1 0.6875,-1.8125 0.703125,-0.8125 2,-0.8125 0.703125,0 1.375,0.34375 0.25,0.14062 0.40625,0.14062 0.15625,0 0.25,-0.0625 0.109375,-0.0781 0.34375,-0.40625 z m 7.260269,0 0.140625,2.96875 h -0.3125 q -0.578125,-1.32812 -1.1875,-1.79687 -0.59375,-0.48438 -1.203125,-0.48438 -0.375,0 -0.65625,0.25 -0.265625,0.25 -0.265625,0.59375 0,0.25 0.1875,0.48438 0.296875,0.375 1.65625,1.29687 1.375,0.92188 1.796875,1.57813 0.4375,0.64062 0.4375,1.4375 0,0.71875 -0.359375,1.42187 -0.359375,0.6875 -1.03125,1.0625 -0.65625,0.375 -1.453125,0.375 -0.625,0 -1.65625,-0.39062 -0.28125,-0.10938 -0.375,-0.10938 -0.3125,0 -0.515625,0.46875 h -0.3125 l -0.140625,-3.125 h 0.3125 q 0.421875,1.23438 1.140625,1.84375 0.734375,0.60938 1.390625,0.60938 0.4375,0 0.71875,-0.26563 0.28125,-0.28125 0.28125,-0.67187 0,-0.4375 -0.28125,-0.76563 -0.265625,-0.32812 -1.234375,-0.98437 -1.421875,-0.98438 -1.84375,-1.5 -0.609375,-0.76563 -0.609375,-1.6875 0,-1 0.6875,-1.8125 0.703125,-0.8125 2,-0.8125 0.703125,0 1.375,0.34375 0.25,0.14062 0.40625,0.14062 0.15625,0 0.25,-0.0625 0.109375,-0.0781 0.34375,-0.40625 z"
       id="path17" />
    <path
       inkscape:connector-curvature="0"
       style="fill:#000000;fill-opacity:0;fill-rule:evenodd"
       d="m 143.92622,288.73197 h 62.86613"
       id="path19" />
    <path
       inkscape:connector-curvature="0"
       style="fill-rule:evenodd;stroke:#000000;stroke-width:2;stroke-linecap:butt;stroke-linejoin:round"
       d="m 143.92622,288.73197 h 50.86613"
       id="path21" />
    <path
       inkscape:connector-curvature="0"
       style="fill:#000000;fill-rule:evenodd;stroke:#000000;stroke-width:2;stroke-linecap:butt"
       d="m 194.79235,292.03543 9.0762,-3.30347 -9.0762,-3.30346 z"
       id="path23" />
    <path
       inkscape:connector-curvature="0"
       style="fill:#000000;fill-opacity:0;fill-rule:evenodd"
       d="M 328.68185,288.72162 H 391.548"
       id="path25" />
    <path
       inkscape:connector-curvature="0"
       style="fill-rule:evenodd;stroke:#000000;stroke-width:2;stroke-linecap:butt;stroke-linejoin:round"
       d="M 328.68185,288.7216 H 379.548"
       id="path27" />
    <path
       inkscape:connector-curvature="0"
       style="fill:#000000;fill-rule:evenodd;stroke:#000000;stroke-width:2;stroke-linecap:butt"
       d="m 379.54799,292.02507 9.07617,-3.30347 -9.07617,-3.30346 z"
       id="path29" />
    <path
       inkscape:connector-curvature="0"
       style="fill:#000000;fill-opacity:0;fill-rule:evenodd"
       d="M 513.43395,288.72162 H 576.3001"
       id="path31" />
    <path
       inkscape:connector-curvature="0"
       style="fill-rule:evenodd;stroke:#000000;stroke-width:2;stroke-linecap:butt;stroke-linejoin:round"
       d="M 513.43395,288.7216 H 564.3001"
       id="path33" />
    <path
       inkscape:connector-curvature="0"
       style="fill:#000000;fill-rule:evenodd;stroke:#000000;stroke-width:2;stroke-linecap:butt"
       d="m 564.30015,292.02507 9.07617,-3.30347 -9.07617,-3.30346 z"
       id="path35" />
    <path
       inkscape:connector-curvature="0"
       style="fill:#000000;fill-opacity:0;fill-rule:evenodd"
       d="m 698.18611,288.73197 h 62.86615"
       id="path37" />
    <path
       inkscape:connector-curvature="0"
       style="fill-rule:evenodd;stroke:#000000;stroke-width:2;stroke-linecap:butt;stroke-linejoin:round"
       d="m 698.18611,288.73197 h 50.86615"
       id="path39" />
    <path
       inkscape:connector-curvature="0"
       style="fill:#000000;fill-rule:evenodd;stroke:#000000;stroke-width:2;stroke-linecap:butt"
       d="m 749.05225,292.03543 9.07623,-3.30347 -9.07623,-3.30346 z"
       id="path41" />
    <path
       inkscape:connector-curvature="0"
       style="fill:#000000;fill-opacity:0;fill-rule:evenodd"
       d="M 206.79235,218.74246 H 328.6821 V 358.74244 H 206.79235 Z"
       id="path43" />
    <path
       inkscape:connector-curvature="0"
       style="fill-rule:evenodd;stroke:#000000;stroke-width:2;stroke-linecap:butt;stroke-linejoin:round"
       d="M 206.79235,218.74246 H 328.6821 V 358.74244 H 206.79235 Z"
       id="path45" />
    <path
       inkscape:connector-curvature="0"
       style="fill:#000000;fill-rule:nonzero"
       d="m 220.91735,278.95933 v 3.5 q 0,1.01562 0.125,1.28125 0.125,0.26562 0.4375,0.42187 0.32812,0.15625 1.1875,0.15625 v 0.34375 h -6.39063 v -0.34375 q 0.875,0 1.17188,-0.15625 0.3125,-0.17187 0.4375,-0.42187 0.14062,-0.26563 0.14062,-1.28125 v -8.17188 q 0,-1.01562 -0.14062,-1.28125 -0.125,-0.26562 -0.4375,-0.42187 -0.3125,-0.15625 -1.17188,-0.15625 v -0.34375 h 5.48438 q 2.70312,0 3.875,0.96875 1.1875,0.95312 1.1875,2.40625 0,1.21875 -0.76563,2.09375 -0.75,0.875 -2.09375,1.1875 -0.89062,0.21875 -3.04687,0.21875 z m 0,-6.15625 v 5.4375 q 0.3125,0.0156 0.46875,0.0156 1.125,0 1.73437,-0.67187 0.625,-0.67188 0.625,-2.07813 0,-1.40625 -0.625,-2.04687 -0.60937,-0.65625 -1.8125,-0.65625 z m 18.25536,-0.71875 v 3.40625 h -0.32813 q -0.29687,-1.1875 -0.67187,-1.70313 -0.35938,-0.51562 -0.98438,-0.8125 -0.34375,-0.17187 -1.23437,-0.17187 h -0.9375 v 9.70312 q 0,0.96875 0.10937,1.21875 0.10938,0.23438 0.42188,0.42188 0.3125,0.17187 0.84375,0.17187 h 0.42187 v 0.34375 h -6.59375 v -0.34375 h 0.42188 q 0.54687,0 0.875,-0.1875 0.25,-0.14062 0.39062,-0.45312 0.0937,-0.21875 0.0937,-1.17188 v -9.70312 h -0.90625 q -1.26562,0 -1.84375,0.54687 -0.8125,0.75 -1.01562,2.14063 h -0.35938 v -3.40625 z m 8.36544,9 h -4.45312 l -0.51563,1.21875 q -0.26562,0.60937 -0.26562,1.01562 0,0.53125 0.42187,0.78125 0.25,0.14063 1.23438,0.21875 v 0.34375 h -4.17188 v -0.34375 q 0.67188,-0.10937 1.10938,-0.5625 0.4375,-0.45312 1.07812,-1.89062 l 4.5,-10.04688 h 0.17188 l 4.53125,10.3125 q 0.65625,1.46875 1.07812,1.85938 0.3125,0.28125 0.89063,0.32812 v 0.34375 h -6.09375 v -0.34375 h 0.25 q 0.73437,0 1.03125,-0.20312 0.20312,-0.15625 0.20312,-0.42188 0,-0.17187 -0.0625,-0.34375 -0.0156,-0.0937 -0.26562,-0.70312 z m -0.3125,-0.6875 -1.875,-4.32813 -1.9375,4.32813 z"
       id="path47" />
    <path
       inkscape:connector-curvature="0"
       style="fill:#000000;fill-rule:nonzero"
       d="m 256.33925,288.06871 v 2.20312 q 0,0.64063 0.0781,0.8125 0.0937,0.15625 0.28125,0.26563 0.20313,0.0937 0.75,0.0937 v 0.21875 h -4.03125 v -0.21875 q 0.54688,0 0.73438,-0.0937 0.20312,-0.10938 0.28125,-0.26563 0.0781,-0.17187 0.0781,-0.8125 v -5.15625 q 0,-0.65625 -0.0781,-0.8125 -0.0781,-0.17187 -0.28125,-0.26562 -0.20313,-0.10938 -0.73438,-0.10938 v -0.21875 h 3.45313 q 1.71875,0 2.45312,0.60938 0.75,0.60937 0.75,1.53125 0,0.76562 -0.48437,1.32812 -0.48438,0.54688 -1.32813,0.75 -0.5625,0.14063 -1.92187,0.14063 z m 0,-3.89063 v 3.42188 q 0.20312,0.0156 0.29687,0.0156 0.71875,0 1.09375,-0.42187 0.39063,-0.42188 0.39063,-1.3125 0,-0.89063 -0.39063,-1.29688 -0.375,-0.40625 -1.14062,-0.40625 z m 11.94095,4.6875 -0.29688,2.79688 h -7.0625 v -0.21875 h 0.26563 q 0.34375,0 0.5625,-0.125 0.15625,-0.0781 0.23437,-0.28125 0.0625,-0.14063 0.0625,-0.73438 v -5.23437 q 0,-0.60938 -0.0625,-0.75 -0.0625,-0.15625 -0.26562,-0.26563 -0.1875,-0.125 -0.53125,-0.125 h -0.26563 v -0.21875 h 4.23438 v 0.21875 h -0.34375 q -0.34375,0 -0.54688,0.125 -0.15625,0.0781 -0.25,0.28125 -0.0625,0.14063 -0.0625,0.73438 v 5.0625 q 0,0.60937 0.0625,0.78125 0.0781,0.17187 0.28125,0.25 0.15625,0.0469 0.71875,0.0469 h 0.65625 q 0.64063,0 1.0625,-0.21875 0.42188,-0.21875 0.71875,-0.70312 0.3125,-0.48438 0.59375,-1.42188 z m 3.95184,-0.79687 v 2.20312 q 0,0.64063 0.0781,0.8125 0.0937,0.15625 0.28125,0.26563 0.20312,0.0937 0.75,0.0937 v 0.21875 h -4.03125 v -0.21875 q 0.54687,0 0.73437,-0.0937 0.20313,-0.10938 0.28125,-0.26563 0.0781,-0.17187 0.0781,-0.8125 v -5.15625 q 0,-0.65625 -0.0781,-0.8125 -0.0781,-0.17187 -0.28125,-0.26562 -0.20312,-0.10938 -0.73437,-0.10938 v -0.21875 h 3.45312 q 1.71875,0 2.45313,0.60938 0.75,0.60937 0.75,1.53125 0,0.76562 -0.48438,1.32812 -0.48437,0.54688 -1.32812,0.75 -0.5625,0.14063 -1.92188,0.14063 z m 0,-3.89063 v 3.42188 q 0.20313,0.0156 0.29688,0.0156 0.71875,0 1.09375,-0.42187 0.39062,-0.42188 0.39062,-1.3125 0,-0.89063 -0.39062,-1.29688 -0.375,-0.40625 -1.14063,-0.40625 z"
       id="path49" />
    <path
       inkscape:connector-curvature="0"
       style="fill:#000000;fill-rule:nonzero"
       d="m 285.33705,272.81871 v 3.17187 h 2.0625 v 0.92188 h -2.0625 v 5.34375 q 0,0.75 0.0625,0.96875 0.0781,0.21875 0.25,0.35937 0.1875,0.125 0.32812,0.125 0.60938,0 1.14063,-0.90625 l 0.28125,0.20313 q -0.75,1.78125 -2.4375,1.78125 -0.82813,0 -1.40625,-0.45313 -0.5625,-0.46875 -0.71875,-1.03125 -0.0937,-0.3125 -0.0937,-1.71875 v -4.67187 h -1.125 v -0.32813 q 1.15625,-0.82812 1.96875,-1.73437 0.82812,-0.90625 1.45312,-2.03125 z m 4.86893,-1.03125 q 0.59375,0 1.01562,0.42187 0.42188,0.42188 0.42188,1.01563 0,0.59375 -0.42188,1.01562 -0.42187,0.40625 -1.01562,0.40625 -0.59375,0 -1.01563,-0.40625 -0.42187,-0.42187 -0.42187,-1.01562 0,-0.59375 0.42187,-1.01563 0.42188,-0.42187 1.01563,-0.42187 z m 1.29687,4.20312 v 6.875 q 0,0.92188 0.20313,1.17188 0.21875,0.25 0.84375,0.29687 v 0.32813 h -4.6875 v -0.32813 q 0.57812,-0.0312 0.85937,-0.34375 0.17188,-0.20312 0.17188,-1.125 v -5.0625 q 0,-0.92187 -0.21875,-1.17187 -0.20313,-0.26563 -0.8125,-0.29688 v -0.34375 z m 5.38642,0 v 1.14063 q 0.71875,-0.78125 1.32812,-1.09375 0.60938,-0.3125 1.32813,-0.3125 0.84375,0 1.40625,0.39062 0.5625,0.39063 0.875,1.1875 0.73437,-0.82812 1.40625,-1.20312 0.6875,-0.375 1.4375,-0.375 0.90625,0 1.4375,0.42187 0.53125,0.40625 0.73437,1.04688 0.21875,0.625 0.21875,2.01562 v 3.5625 q 0,1 0.17188,1.25 0.1875,0.23438 0.75,0.3125 v 0.32813 h -4.46875 v -0.32813 q 0.53125,-0.0469 0.78125,-0.42187 0.15625,-0.25 0.15625,-1.14063 v -3.73437 q 0,-1.15625 -0.0937,-1.46875 -0.0937,-0.3125 -0.29688,-0.46875 -0.1875,-0.15625 -0.45312,-0.15625 -0.40625,0 -0.8125,0.29687 -0.40625,0.28125 -0.82813,0.875 v 4.65625 q 0,0.9375 0.15625,1.17188 0.21875,0.34375 0.8125,0.39062 v 0.32813 h -4.48437 v -0.32813 q 0.35937,-0.0312 0.5625,-0.1875 0.21875,-0.15625 0.28125,-0.375 0.0781,-0.23437 0.0781,-1 v -3.73437 q 0,-1.17188 -0.0937,-1.46875 -0.0937,-0.29688 -0.3125,-0.46875 -0.21875,-0.17188 -0.46875,-0.17188 -0.375,0 -0.67187,0.20313 -0.4375,0.28125 -0.9375,0.98437 v 4.65625 q 0,0.92188 0.1875,1.21875 0.1875,0.28125 0.75,0.34375 v 0.32813 h -4.46875 v -0.32813 q 0.54687,-0.0625 0.78125,-0.35937 0.15625,-0.20313 0.15625,-1.20313 v -4.90625 q 0,-0.98437 -0.1875,-1.21875 -0.17188,-0.23437 -0.75,-0.3125 v -0.34375 z m 19.2908,4.03125 h -4.75 q 0.0781,1.71875 0.90625,2.71875 0.64062,0.76563 1.54687,0.76563 0.5625,0 1.01563,-0.29688 0.45312,-0.3125 0.96875,-1.125 l 0.3125,0.20313 q -0.70313,1.4375 -1.5625,2.04687 -0.84375,0.59375 -1.96875,0.59375 -1.92188,0 -2.92188,-1.48437 -0.79687,-1.20313 -0.79687,-2.96875 0,-2.17188 1.17187,-3.45313 1.17188,-1.29687 2.75,-1.29687 1.3125,0 2.28125,1.09375 0.96875,1.07812 1.04688,3.20312 z m -2.28125,-0.625 q 0,-1.5 -0.17188,-2.04687 -0.15625,-0.5625 -0.5,-0.85938 -0.1875,-0.15625 -0.51562,-0.15625 -0.48438,0 -0.78125,0.46875 -0.54688,0.82813 -0.54688,2.26563 v 0.32812 z"
       id="path51" />
    <path
       inkscape:connector-curvature="0"
       style="fill:#000000;fill-rule:nonzero"
       d="m 219.79235,305.78746 v 3.21875 q 0,0.67187 0.10937,0.90625 0.10938,0.25 0.32813,0.35937 0.21875,0.10938 0.875,0.10938 v 0.34375 h -4.95313 v -0.34375 q 0.57813,-0.0156 0.85938,-0.32813 0.1875,-0.20312 0.1875,-1.09375 v -9.15625 q 0,-0.92187 -0.21875,-1.17187 -0.21875,-0.26563 -0.82813,-0.29688 v -0.34375 h 3.64063 v 1.14063 q 0.45312,-0.67188 0.92187,-0.96875 0.6875,-0.4375 1.48438,-0.4375 0.95312,0 1.73437,0.60937 0.78125,0.59375 1.1875,1.65625 0.40625,1.0625 0.40625,2.29688 0,1.3125 -0.42187,2.40625 -0.42188,1.09375 -1.21875,1.67187 -0.79688,0.5625 -1.78125,0.5625 -0.71875,0 -1.34375,-0.32812 -0.45313,-0.23438 -0.96875,-0.8125 z m 0,-0.9375 q 0.79687,1.125 1.70312,1.125 0.5,0 0.82813,-0.53125 0.48437,-0.78125 0.48437,-2.96875 0,-2.23438 -0.53125,-3.0625 -0.35937,-0.54688 -0.95312,-0.54688 -0.92188,0 -1.53125,1.34375 z m 11.79759,0.53125 q -1.57812,1.40625 -2.84375,1.40625 -0.73437,0 -1.23437,-0.48438 -0.48438,-0.5 -0.48438,-1.23437 0,-0.98438 0.84375,-1.78125 0.85938,-0.79688 3.71875,-2.10938 v -0.875 q 0,-0.98437 -0.10937,-1.23437 -0.0937,-0.25 -0.39063,-0.4375 -0.29687,-0.20313 -0.67187,-0.20313 -0.60938,0 -1,0.28125 -0.23438,0.15625 -0.23438,0.375 0,0.20313 0.26563,0.48438 0.34375,0.40625 0.34375,0.78125 0,0.45312 -0.34375,0.78125 -0.32813,0.3125 -0.875,0.3125 -0.59375,0 -0.98438,-0.34375 -0.39062,-0.35938 -0.39062,-0.84375 0,-0.65625 0.53125,-1.26563 0.53125,-0.60937 1.46875,-0.9375 0.95312,-0.32812 1.96875,-0.32812 1.23437,0 1.95312,0.53125 0.71875,0.51562 0.9375,1.125 0.125,0.39062 0.125,1.79687 v 3.375 q 0,0.59375 0.0469,0.75 0.0469,0.14063 0.14062,0.21875 0.0937,0.0781 0.21875,0.0781 0.23438,0 0.48438,-0.34375 l 0.28125,0.21875 q -0.46875,0.6875 -0.96875,1 -0.48438,0.3125 -1.125,0.3125 -0.73438,0 -1.15625,-0.34375 -0.42188,-0.35938 -0.51563,-1.0625 z m 0,-0.67188 v -2.90625 q -1.10937,0.65625 -1.67187,1.40625 -0.35938,0.5 -0.35938,1.01563 0,0.42187 0.3125,0.75 0.23438,0.25 0.64063,0.25 0.46875,0 1.07812,-0.51563 z m 10.03125,-6.96875 0.14063,2.96875 h -0.3125 q -0.57813,-1.32812 -1.1875,-1.79687 -0.59375,-0.48438 -1.20313,-0.48438 -0.375,0 -0.65625,0.25 -0.26562,0.25 -0.26562,0.59375 0,0.25 0.1875,0.48438 0.29687,0.375 1.65625,1.29687 1.375,0.92188 1.79687,1.57813 0.4375,0.64062 0.4375,1.4375 0,0.71875 -0.35937,1.42187 -0.35938,0.6875 -1.03125,1.0625 -0.65625,0.375 -1.45313,0.375 -0.625,0 -1.65625,-0.39062 -0.28125,-0.10938 -0.375,-0.10938 -0.3125,0 -0.51562,0.46875 h -0.3125 l -0.14063,-3.125 h 0.3125 q 0.42188,1.23438 1.14063,1.84375 0.73437,0.60938 1.39062,0.60938 0.4375,0 0.71875,-0.26563 0.28125,-0.28125 0.28125,-0.67187 0,-0.4375 -0.28125,-0.76563 -0.26562,-0.32812 -1.23437,-0.98437 -1.42188,-0.98438 -1.84375,-1.5 -0.60938,-0.76563 -0.60938,-1.6875 0,-1 0.6875,-1.8125 0.70313,-0.8125 2,-0.8125 0.70313,0 1.375,0.34375 0.25,0.14062 0.40625,0.14062 0.15625,0 0.25,-0.0625 0.10938,-0.0781 0.34375,-0.40625 z m 7.26029,0 0.14062,2.96875 h -0.3125 q -0.57812,-1.32812 -1.1875,-1.79687 -0.59375,-0.48438 -1.20312,-0.48438 -0.375,0 -0.65625,0.25 -0.26563,0.25 -0.26563,0.59375 0,0.25 0.1875,0.48438 0.29688,0.375 1.65625,1.29687 1.375,0.92188 1.79688,1.57813 0.4375,0.64062 0.4375,1.4375 0,0.71875 -0.35938,1.42187 -0.35937,0.6875 -1.03125,1.0625 -0.65625,0.375 -1.45312,0.375 -0.625,0 -1.65625,-0.39062 -0.28125,-0.10938 -0.375,-0.10938 -0.3125,0 -0.51563,0.46875 h -0.3125 l -0.14062,-3.125 h 0.3125 q 0.42187,1.23438 1.14062,1.84375 0.73438,0.60938 1.39063,0.60938 0.4375,0 0.71875,-0.26563 0.28125,-0.28125 0.28125,-0.67187 0,-0.4375 -0.28125,-0.76563 -0.26563,-0.32812 -1.23438,-0.98437 -1.42187,-0.98438 -1.84375,-1.5 -0.60937,-0.76563 -0.60937,-1.6875 0,-1 0.6875,-1.8125 0.70312,-0.8125 2,-0.8125 0.70312,0 1.375,0.34375 0.25,0.14062 0.40625,0.14062 0.15625,0 0.25,-0.0625 0.10937,-0.0781 0.34375,-0.40625 z m 6.55713,7.64063 q -1.57813,1.40625 -2.84375,1.40625 -0.73438,0 -1.23438,-0.48438 -0.48437,-0.5 -0.48437,-1.23437 0,-0.98438 0.84375,-1.78125 0.85937,-0.79688 3.71875,-2.10938 v -0.875 q 0,-0.98437 -0.10938,-1.23437 -0.0937,-0.25 -0.39062,-0.4375 -0.29688,-0.20313 -0.67188,-0.20313 -0.60937,0 -1,0.28125 -0.23437,0.15625 -0.23437,0.375 0,0.20313 0.26562,0.48438 0.34375,0.40625 0.34375,0.78125 0,0.45312 -0.34375,0.78125 -0.32812,0.3125 -0.875,0.3125 -0.59375,0 -0.98437,-0.34375 -0.39063,-0.35938 -0.39063,-0.84375 0,-0.65625 0.53125,-1.26563 0.53125,-0.60937 1.46875,-0.9375 0.95313,-0.32812 1.96875,-0.32812 1.23438,0 1.95313,0.53125 0.71875,0.51562 0.9375,1.125 0.125,0.39062 0.125,1.79687 v 3.375 q 0,0.59375 0.0469,0.75 0.0469,0.14063 0.14063,0.21875 0.0937,0.0781 0.21875,0.0781 0.23437,0 0.48437,-0.34375 l 0.28125,0.21875 q -0.46875,0.6875 -0.96875,1 -0.48437,0.3125 -1.125,0.3125 -0.73437,0 -1.15625,-0.34375 -0.42187,-0.35938 -0.51562,-1.0625 z m 0,-0.67188 v -2.90625 q -1.10938,0.65625 -1.67188,1.40625 -0.35937,0.5 -0.35937,1.01563 0,0.42187 0.3125,0.75 0.23437,0.25 0.64062,0.25 0.46875,0 1.07813,-0.51563 z m 10.10937,-6.625 h 2.92188 v 1.03125 h -1.65625 q 0.45312,0.45313 0.625,0.82813 0.23437,0.5 0.23437,1.04687 0,0.92188 -0.51562,1.60938 -0.51563,0.67187 -1.40625,1.0625 -0.89063,0.39062 -1.57813,0.39062 -0.0469,0 -1.10937,-0.0469 -0.42188,0 -0.70313,0.28125 -0.28125,0.26562 -0.28125,0.64062 0,0.32813 0.25,0.54688 0.26563,0.21875 0.84375,0.21875 l 1.59375,-0.0312 q 1.95313,0 2.6875,0.4375 1.04688,0.59375 1.04688,1.82812 0,0.78125 -0.48438,1.42188 -0.48437,0.65625 -1.26562,0.95312 -1.20313,0.45313 -2.76563,0.45313 -1.15625,0 -2.125,-0.23438 -0.96875,-0.21875 -1.39062,-0.625 -0.40625,-0.39062 -0.40625,-0.84375 0,-0.42187 0.3125,-0.76562 0.32812,-0.32813 1.20312,-0.5625 -1.21875,-0.59375 -1.21875,-1.65625 0,-0.64063 0.48438,-1.23438 0.5,-0.60937 1.57812,-1.0625 -1.25,-0.45312 -1.8125,-1.1875 -0.54687,-0.75 -0.54687,-1.71875 0,-1.26562 1.03125,-2.20312 1.04687,-0.9375 2.67187,-0.9375 0.85938,0 1.78125,0.35937 z m -1.59375,0.21875 q -0.54687,0 -0.92187,0.54688 -0.35938,0.53125 -0.35938,2.25 0,1.375 0.35938,1.89062 0.35937,0.51563 0.875,0.51563 0.54687,0 0.92187,-0.5 0.375,-0.51563 0.375,-2 0,-1.65625 -0.42187,-2.25 -0.29688,-0.45313 -0.82813,-0.45313 z m -0.5625,9.64063 q -0.9375,0 -1.25,0.15625 -0.53125,0.28125 -0.53125,0.78125 0,0.46875 0.54688,0.84375 0.5625,0.39062 2.0625,0.39062 1.29687,0 2.03125,-0.34375 0.73437,-0.32812 0.73437,-0.95312 0,-0.23438 -0.14062,-0.39063 -0.25,-0.28125 -0.75,-0.39062 -0.5,-0.0937 -2.70313,-0.0937 z m 13.26563,-5.92188 h -4.75 q 0.0781,1.71875 0.90625,2.71875 0.64062,0.76563 1.54687,0.76563 0.5625,0 1.01563,-0.29688 0.45312,-0.3125 0.96875,-1.125 l 0.3125,0.20313 q -0.70313,1.4375 -1.5625,2.04687 -0.84375,0.59375 -1.96875,0.59375 -1.92188,0 -2.92188,-1.48437 -0.79687,-1.20313 -0.79687,-2.96875 0,-2.17188 1.17187,-3.45313 1.17188,-1.29687 2.75,-1.29687 1.3125,0 2.28125,1.09375 0.96875,1.07812 1.04688,3.20312 z m -2.28125,-0.625 q 0,-1.5 -0.17188,-2.04687 -0.15625,-0.5625 -0.5,-0.85938 -0.1875,-0.15625 -0.51562,-0.15625 -0.48438,0 -0.78125,0.46875 -0.54688,0.82813 -0.54688,2.26563 v 0.32812 z"
       id="path53" />
    <path
       inkscape:connector-curvature="0"
       style="fill:#000000;fill-opacity:0;fill-rule:evenodd"
       d="M 391.54301,218.74246 H 513.43275 V 358.74244 H 391.54301 Z"
       id="path55" />
    <path
       inkscape:connector-curvature="0"
       style="fill-rule:evenodd;stroke:#000000;stroke-width:2;stroke-linecap:butt;stroke-linejoin:round"
       d="M 391.54301,218.74246 H 513.43275 V 358.74244 H 391.54301 Z"
       id="path57" />
    <path
       inkscape:connector-curvature="0"
       style="fill:#000000;fill-rule:nonzero"
       d="m 413.23051,249.78746 v 4.375 h -0.35938 q -0.42187,-1.71875 -1.53125,-2.625 -1.10937,-0.90625 -2.51562,-0.90625 -1.1875,0 -2.17188,0.6875 -0.98437,0.67187 -1.4375,1.76562 -0.57812,1.39063 -0.57812,3.10938 0,1.6875 0.42187,3.07812 0.42188,1.39063 1.32813,2.10938 0.92187,0.70312 2.35937,0.70312 1.1875,0 2.17188,-0.51562 1,-0.53125 2.09375,-1.79688 v 1.07813 q -1.0625,1.10937 -2.20313,1.60937 -1.14062,0.48438 -2.67187,0.48438 -2.01563,0 -3.57813,-0.79688 -1.5625,-0.8125 -2.42187,-2.3125 -0.84375,-1.51562 -0.84375,-3.23437 0,-1.79688 0.9375,-3.40625 0.95312,-1.625 2.54687,-2.51563 1.59375,-0.89062 3.40625,-0.89062 1.32813,0 2.79688,0.57812 0.85937,0.34375 1.07812,0.34375 0.29688,0 0.51563,-0.21875 0.21875,-0.21875 0.29687,-0.70312 z m 5.51984,3.9375 q 1.125,0 2.09375,0.59375 0.98437,0.57812 1.48437,1.65625 0.51563,1.07812 0.51563,2.35937 0,1.84375 -0.9375,3.07813 -1.14063,1.51562 -3.125,1.51562 -1.96875,0 -3.03125,-1.375 -1.04688,-1.375 -1.04688,-3.1875 0,-1.85937 1.07813,-3.25 1.07812,-1.39062 2.96875,-1.39062 z m 0.0312,0.65625 q -0.46875,0 -0.8125,0.35937 -0.32813,0.35938 -0.4375,1.42188 -0.10938,1.04687 -0.10938,2.92187 0,0.98438 0.125,1.85938 0.10938,0.65625 0.4375,1 0.34375,0.34375 0.76563,0.34375 0.42187,0 0.6875,-0.23438 0.375,-0.3125 0.48437,-0.89062 0.1875,-0.875 0.1875,-3.5625 0,-1.57813 -0.17187,-2.15625 -0.17188,-0.59375 -0.51563,-0.85938 -0.25,-0.20312 -0.64062,-0.20312 z m 8.75,-0.39063 v 1.125 q 0.67187,-0.73437 1.28125,-1.0625 0.60937,-0.32812 1.3125,-0.32812 0.84375,0 1.39062,0.46875 0.5625,0.46875 0.75,1.17187 0.15625,0.53125 0.15625,2.03125 v 3.375 q 0,1 0.17188,1.25 0.1875,0.23438 0.76562,0.3125 v 0.32813 h -4.39062 v -0.32813 q 0.48437,-0.0781 0.70312,-0.42187 0.14063,-0.21875 0.14063,-1.14063 v -3.85937 q 0,-1.0625 -0.0781,-1.34375 -0.0781,-0.28125 -0.28125,-0.4375 -0.20312,-0.15625 -0.4375,-0.15625 -0.79687,0 -1.48437,1.14062 v 4.65625 q 0,0.96875 0.17187,1.23438 0.1875,0.25 0.67188,0.32812 v 0.32813 h -4.375 v -0.32813 q 0.54687,-0.0625 0.76562,-0.35937 0.17188,-0.20313 0.17188,-1.20313 v -4.90625 q 0,-0.98437 -0.1875,-1.21875 -0.1875,-0.23437 -0.75,-0.3125 v -0.34375 z m 13.90695,6.4375 0.28125,0.21875 q -0.60938,1.15625 -1.53125,1.71875 -0.90625,0.5625 -1.9375,0.5625 -1.73438,0 -2.78125,-1.3125 -1.03125,-1.3125 -1.03125,-3.14062 0,-1.78125 0.95312,-3.125 1.14063,-1.625 3.14063,-1.625 1.34375,0 2.14062,0.6875 0.79688,0.67187 0.79688,1.5 0,0.53125 -0.32813,0.85937 -0.3125,0.3125 -0.82812,0.3125 -0.54688,0 -0.90625,-0.35937 -0.35938,-0.375 -0.45313,-1.29688 -0.0469,-0.59375 -0.26562,-0.8125 -0.20313,-0.23437 -0.5,-0.23437 -0.4375,0 -0.75,0.46875 -0.48438,0.71875 -0.48438,2.1875 0,1.23437 0.39063,2.35937 0.39062,1.10938 1.0625,1.65625 0.51562,0.39063 1.20312,0.39063 0.45313,0 0.85938,-0.20313 0.40625,-0.21875 0.96875,-0.8125 z m 4.59305,-10.34375 v 10.78125 q 0,0.92188 0.21875,1.17188 0.21875,0.25 0.82812,0.29687 v 0.32813 h -4.67187 v -0.32813 q 0.5625,-0.0312 0.84375,-0.34375 0.1875,-0.20312 0.1875,-1.125 v -8.98437 q 0,-0.90625 -0.21875,-1.15625 -0.20313,-0.26563 -0.8125,-0.29688 v -0.34375 z m 10.16766,3.90625 v 6.78125 q 0,1 0.1875,1.25 0.1875,0.23438 0.75,0.3125 v 0.32813 h -3.53125 v -1.15625 q -0.625,0.73437 -1.25,1.07812 -0.60937,0.34375 -1.39062,0.34375 -0.73438,0 -1.3125,-0.45312 -0.5625,-0.45313 -0.76563,-1.04688 -0.1875,-0.60937 -0.1875,-2.10937 v -3.45313 q 0,-0.98437 -0.1875,-1.21875 -0.17187,-0.23437 -0.75,-0.3125 v -0.34375 h 3.54688 v 5.92188 q 0,0.9375 0.0781,1.20312 0.0937,0.26563 0.28125,0.40625 0.1875,0.14063 0.4375,0.14063 0.34375,0 0.60938,-0.17188 0.375,-0.25 0.89062,-0.98437 v -4.64063 q 0,-0.98437 -0.1875,-1.21875 -0.17187,-0.23437 -0.75,-0.3125 v -0.34375 z m 10.43823,-3.90625 v 9.98438 q 0,1 0.0469,1.1875 0.0781,0.3125 0.28125,0.46875 0.21875,0.14062 0.73437,0.17187 v 0.3125 l -3.67187,0.71875 v -1.375 q -0.65625,0.79688 -1.17188,1.09375 -0.51562,0.28125 -1.15625,0.28125 -1.65625,0 -2.625,-1.48437 -0.78125,-1.21875 -0.78125,-2.96875 0,-1.39063 0.48438,-2.5 0.48437,-1.10938 1.3125,-1.67188 0.84375,-0.57812 1.8125,-0.57812 0.625,0 1.09375,0.25 0.48437,0.23437 1.03125,0.84375 v -2.625 q 0,-0.98438 -0.0781,-1.1875 -0.10937,-0.28125 -0.34375,-0.40625 -0.21875,-0.125 -0.82812,-0.125 v -0.39063 z m -2.60937,5.875 q -0.67188,-1.3125 -1.67188,-1.3125 -0.34375,0 -0.5625,0.1875 -0.34375,0.28125 -0.5625,1.01563 -0.21875,0.71875 -0.21875,2.20312 0,1.65625 0.23438,2.45313 0.25,0.78125 0.65625,1.125 0.21875,0.17187 0.59375,0.17187 0.8125,0 1.53125,-1.28125 z m 6.64132,-6.17187 q 0.59375,0 1.01563,0.42187 0.42187,0.42188 0.42187,1.01563 0,0.59375 -0.42187,1.01562 -0.42188,0.40625 -1.01563,0.40625 -0.59375,0 -1.01562,-0.40625 -0.42188,-0.42187 -0.42188,-1.01562 0,-0.59375 0.42188,-1.01563 0.42187,-0.42187 1.01562,-0.42187 z m 1.29688,4.20312 v 6.875 q 0,0.92188 0.20312,1.17188 0.21875,0.25 0.84375,0.29687 v 0.32813 h -4.6875 v -0.32813 q 0.57813,-0.0312 0.85938,-0.34375 0.17187,-0.20312 0.17187,-1.125 v -5.0625 q 0,-0.92187 -0.21875,-1.17187 -0.20312,-0.26563 -0.8125,-0.29688 v -0.34375 z m 5.33957,0 v 1.125 q 0.67187,-0.73437 1.28125,-1.0625 0.60937,-0.32812 1.3125,-0.32812 0.84375,0 1.39062,0.46875 0.5625,0.46875 0.75,1.17187 0.15625,0.53125 0.15625,2.03125 v 3.375 q 0,1 0.17188,1.25 0.1875,0.23438 0.76562,0.3125 v 0.32813 h -4.39062 v -0.32813 q 0.48437,-0.0781 0.70312,-0.42187 0.14063,-0.21875 0.14063,-1.14063 v -3.85937 q 0,-1.0625 -0.0781,-1.34375 -0.0781,-0.28125 -0.28125,-0.4375 -0.20312,-0.15625 -0.4375,-0.15625 -0.79687,0 -1.48437,1.14062 v 4.65625 q 0,0.96875 0.17187,1.23438 0.1875,0.25 0.67188,0.32812 v 0.32813 h -4.375 v -0.32813 q 0.54687,-0.0625 0.76562,-0.35937 0.17188,-0.20313 0.17188,-1.20313 v -4.90625 q 0,-0.98437 -0.1875,-1.21875 -0.1875,-0.23437 -0.75,-0.3125 v -0.34375 z m 12.39133,0.0937 h 2.92187 v 1.03125 h -1.65625 q 0.45313,0.45313 0.625,0.82813 0.23438,0.5 0.23438,1.04687 0,0.92188 -0.51563,1.60938 -0.51562,0.67187 -1.40625,1.0625 -0.89062,0.39062 -1.57812,0.39062 -0.0469,0 -1.10938,-0.0469 -0.42187,0 -0.70312,0.28125 -0.28125,0.26562 -0.28125,0.64062 0,0.32813 0.25,0.54688 0.26562,0.21875 0.84375,0.21875 l 1.59375,-0.0312 q 1.95312,0 2.6875,0.4375 1.04687,0.59375 1.04687,1.82812 0,0.78125 -0.48437,1.42188 -0.48438,0.65625 -1.26563,0.95312 -1.20312,0.45313 -2.76562,0.45313 -1.15625,0 -2.125,-0.23438 -0.96875,-0.21875 -1.39063,-0.625 -0.40625,-0.39062 -0.40625,-0.84375 0,-0.42187 0.3125,-0.76562 0.32813,-0.32813 1.20313,-0.5625 -1.21875,-0.59375 -1.21875,-1.65625 0,-0.64063 0.48437,-1.23438 0.5,-0.60937 1.57813,-1.0625 -1.25,-0.45312 -1.8125,-1.1875 -0.54688,-0.75 -0.54688,-1.71875 0,-1.26562 1.03125,-2.20312 1.04688,-0.9375 2.67188,-0.9375 0.85937,0 1.78125,0.35937 z m -1.59375,0.21875 q -0.54688,0 -0.92188,0.54688 -0.35937,0.53125 -0.35937,2.25 0,1.375 0.35937,1.89062 0.35938,0.51563 0.875,0.51563 0.54688,0 0.92188,-0.5 0.375,-0.51563 0.375,-2 0,-1.65625 -0.42188,-2.25 -0.29687,-0.45313 -0.82812,-0.45313 z m -0.5625,9.64063 q -0.9375,0 -1.25,0.15625 -0.53125,0.28125 -0.53125,0.78125 0,0.46875 0.54687,0.84375 0.5625,0.39062 2.0625,0.39062 1.29688,0 2.03125,-0.34375 0.73438,-0.32812 0.73438,-0.95312 0,-0.23438 -0.14063,-0.39063 -0.25,-0.28125 -0.75,-0.39062 -0.5,-0.0937 -2.70312,-0.0937 z"
       id="path59" />
    <path
       inkscape:connector-curvature="0"
       style="fill:#000000;fill-rule:nonzero"
       d="m 413.23051,271.78746 v 4.375 h -0.35938 q -0.42187,-1.71875 -1.53125,-2.625 -1.10937,-0.90625 -2.51562,-0.90625 -1.1875,0 -2.17188,0.6875 -0.98437,0.67187 -1.4375,1.76562 -0.57812,1.39063 -0.57812,3.10938 0,1.6875 0.42187,3.07812 0.42188,1.39063 1.32813,2.10938 0.92187,0.70312 2.35937,0.70312 1.1875,0 2.17188,-0.51562 1,-0.53125 2.09375,-1.79688 v 1.07813 q -1.0625,1.10937 -2.20313,1.60937 -1.14062,0.48438 -2.67187,0.48438 -2.01563,0 -3.57813,-0.79688 -1.5625,-0.8125 -2.42187,-2.3125 -0.84375,-1.51562 -0.84375,-3.23437 0,-1.79688 0.9375,-3.40625 0.95312,-1.625 2.54687,-2.51563 1.59375,-0.89062 3.40625,-0.89062 1.32813,0 2.79688,0.57812 0.85937,0.34375 1.07812,0.34375 0.29688,0 0.51563,-0.21875 0.21875,-0.21875 0.29687,-0.70312 z m 5.51984,3.9375 q 1.125,0 2.09375,0.59375 0.98437,0.57812 1.48437,1.65625 0.51563,1.07812 0.51563,2.35937 0,1.84375 -0.9375,3.07813 -1.14063,1.51562 -3.125,1.51562 -1.96875,0 -3.03125,-1.375 -1.04688,-1.375 -1.04688,-3.1875 0,-1.85937 1.07813,-3.25 1.07812,-1.39062 2.96875,-1.39062 z m 0.0312,0.65625 q -0.46875,0 -0.8125,0.35937 -0.32813,0.35938 -0.4375,1.42188 -0.10938,1.04687 -0.10938,2.92187 0,0.98438 0.125,1.85938 0.10938,0.65625 0.4375,1 0.34375,0.34375 0.76563,0.34375 0.42187,0 0.6875,-0.23438 0.375,-0.3125 0.48437,-0.89062 0.1875,-0.875 0.1875,-3.5625 0,-1.57813 -0.17187,-2.15625 -0.17188,-0.59375 -0.51563,-0.85938 -0.25,-0.20312 -0.64062,-0.20312 z m 8.75,-0.39063 v 1.125 q 0.67187,-0.73437 1.28125,-1.0625 0.60937,-0.32812 1.3125,-0.32812 0.84375,0 1.39062,0.46875 0.5625,0.46875 0.75,1.17187 0.15625,0.53125 0.15625,2.03125 v 3.375 q 0,1 0.17188,1.25 0.1875,0.23438 0.76562,0.3125 v 0.32813 h -4.39062 v -0.32813 q 0.48437,-0.0781 0.70312,-0.42187 0.14063,-0.21875 0.14063,-1.14063 v -3.85937 q 0,-1.0625 -0.0781,-1.34375 -0.0781,-0.28125 -0.28125,-0.4375 -0.20312,-0.15625 -0.4375,-0.15625 -0.79687,0 -1.48437,1.14062 v 4.65625 q 0,0.96875 0.17187,1.23438 0.1875,0.25 0.67188,0.32812 v 0.32813 h -4.375 v -0.32813 q 0.54687,-0.0625 0.76562,-0.35937 0.17188,-0.20313 0.17188,-1.20313 v -4.90625 q 0,-0.98437 -0.1875,-1.21875 -0.1875,-0.23437 -0.75,-0.3125 v -0.34375 z m 13.90695,6.4375 0.28125,0.21875 q -0.60938,1.15625 -1.53125,1.71875 -0.90625,0.5625 -1.9375,0.5625 -1.73438,0 -2.78125,-1.3125 -1.03125,-1.3125 -1.03125,-3.14062 0,-1.78125 0.95312,-3.125 1.14063,-1.625 3.14063,-1.625 1.34375,0 2.14062,0.6875 0.79688,0.67187 0.79688,1.5 0,0.53125 -0.32813,0.85937 -0.3125,0.3125 -0.82812,0.3125 -0.54688,0 -0.90625,-0.35937 -0.35938,-0.375 -0.45313,-1.29688 -0.0469,-0.59375 -0.26562,-0.8125 -0.20313,-0.23437 -0.5,-0.23437 -0.4375,0 -0.75,0.46875 -0.48438,0.71875 -0.48438,2.1875 0,1.23437 0.39063,2.35937 0.39062,1.10938 1.0625,1.65625 0.51562,0.39063 1.20312,0.39063 0.45313,0 0.85938,-0.20313 0.40625,-0.21875 0.96875,-0.8125 z m 9.57742,-6.4375 v 6.78125 q 0,1 0.1875,1.25 0.1875,0.23438 0.75,0.3125 v 0.32813 h -3.53125 v -1.15625 q -0.625,0.73437 -1.25,1.07812 -0.60937,0.34375 -1.39062,0.34375 -0.73438,0 -1.3125,-0.45312 -0.5625,-0.45313 -0.76563,-1.04688 -0.1875,-0.60937 -0.1875,-2.10937 v -3.45313 q 0,-0.98437 -0.1875,-1.21875 -0.17187,-0.23437 -0.75,-0.3125 v -0.34375 h 3.54688 v 5.92188 q 0,0.9375 0.0781,1.20312 0.0937,0.26563 0.28125,0.40625 0.1875,0.14063 0.4375,0.14063 0.34375,0 0.60938,-0.17188 0.375,-0.25 0.89062,-0.98437 v -4.64063 q 0,-0.98437 -0.1875,-1.21875 -0.17187,-0.23437 -0.75,-0.3125 v -0.34375 z m 5.59445,0 v 1.96875 q 0.875,-1.34375 1.51563,-1.78125 0.65625,-0.45312 1.25,-0.45312 0.53125,0 0.82812,0.32812 0.3125,0.3125 0.3125,0.90625 0,0.60938 -0.29687,0.95313 -0.29688,0.34375 -0.73438,0.34375 -0.48437,0 -0.84375,-0.3125 -0.35937,-0.3125 -0.4375,-0.34375 -0.0781,-0.0625 -0.20312,-0.0625 -0.26563,0 -0.51563,0.20312 -0.375,0.3125 -0.57812,0.90625 -0.29688,0.89063 -0.29688,1.98438 v 1.98437 l 0.0156,0.53125 q 0,0.51563 0.0625,0.67188 0.10937,0.25 0.32812,0.375 0.21875,0.10937 0.73438,0.14062 v 0.32813 h -4.67188 v -0.32813 q 0.5625,-0.0469 0.75,-0.3125 0.20313,-0.26562 0.20313,-1.40625 v -4.79687 q 0,-0.73438 -0.0625,-0.9375 -0.0937,-0.26563 -0.28125,-0.375 -0.17188,-0.125 -0.60938,-0.17188 v -0.34375 z m 8.28055,0 v 1.96875 q 0.875,-1.34375 1.51563,-1.78125 0.65625,-0.45312 1.25,-0.45312 0.53125,0 0.82812,0.32812 0.3125,0.3125 0.3125,0.90625 0,0.60938 -0.29687,0.95313 -0.29688,0.34375 -0.73438,0.34375 -0.48437,0 -0.84375,-0.3125 -0.35937,-0.3125 -0.4375,-0.34375 -0.0781,-0.0625 -0.20312,-0.0625 -0.26563,0 -0.51563,0.20312 -0.375,0.3125 -0.57812,0.90625 -0.29688,0.89063 -0.29688,1.98438 v 1.98437 l 0.0156,0.53125 q 0,0.51563 0.0625,0.67188 0.10937,0.25 0.32812,0.375 0.21875,0.10937 0.73438,0.14062 v 0.32813 h -4.67188 v -0.32813 q 0.5625,-0.0469 0.75,-0.3125 0.20313,-0.26562 0.20313,-1.40625 v -4.79687 q 0,-0.73438 -0.0625,-0.9375 -0.0937,-0.26563 -0.28125,-0.375 -0.17188,-0.125 -0.60938,-0.17188 v -0.34375 z m 12.03052,4.03125 h -4.75 q 0.0781,1.71875 0.90625,2.71875 0.64062,0.76563 1.54687,0.76563 0.5625,0 1.01563,-0.29688 0.45312,-0.3125 0.96875,-1.125 l 0.3125,0.20313 q -0.70313,1.4375 -1.5625,2.04687 -0.84375,0.59375 -1.96875,0.59375 -1.92188,0 -2.92188,-1.48437 -0.79687,-1.20313 -0.79687,-2.96875 0,-2.17188 1.17187,-3.45313 1.17188,-1.29687 2.75,-1.29687 1.3125,0 2.28125,1.09375 0.96875,1.07812 1.04688,3.20312 z m -2.28125,-0.625 q 0,-1.5 -0.17188,-2.04687 -0.15625,-0.5625 -0.5,-0.85938 -0.1875,-0.15625 -0.51562,-0.15625 -0.48438,0 -0.78125,0.46875 -0.54688,0.82813 -0.54688,2.26563 v 0.32812 z m 6.76492,-3.40625 v 1.125 q 0.67188,-0.73437 1.28125,-1.0625 0.60938,-0.32812 1.3125,-0.32812 0.84375,0 1.39063,0.46875 0.5625,0.46875 0.75,1.17187 0.15625,0.53125 0.15625,2.03125 v 3.375 q 0,1 0.17187,1.25 0.1875,0.23438 0.76563,0.3125 v 0.32813 h -4.39063 v -0.32813 q 0.48438,-0.0781 0.70313,-0.42187 0.14062,-0.21875 0.14062,-1.14063 v -3.85937 q 0,-1.0625 -0.0781,-1.34375 -0.0781,-0.28125 -0.28125,-0.4375 -0.20313,-0.15625 -0.4375,-0.15625 -0.79688,0 -1.48438,1.14062 v 4.65625 q 0,0.96875 0.17188,1.23438 0.1875,0.25 0.67187,0.32812 v 0.32813 h -4.375 v -0.32813 q 0.54688,-0.0625 0.76563,-0.35937 0.17187,-0.20313 0.17187,-1.20313 v -4.90625 q 0,-0.98437 -0.1875,-1.21875 -0.1875,-0.23437 -0.75,-0.3125 v -0.34375 z m 10.26633,-3.17187 v 3.17187 h 2.0625 v 0.92188 h -2.0625 v 5.34375 q 0,0.75 0.0625,0.96875 0.0781,0.21875 0.25,0.35937 0.1875,0.125 0.32812,0.125 0.60938,0 1.14063,-0.90625 l 0.28125,0.20313 q -0.75,1.78125 -2.4375,1.78125 -0.82813,0 -1.40625,-0.45313 -0.5625,-0.46875 -0.71875,-1.03125 -0.0937,-0.3125 -0.0937,-1.71875 v -4.67187 h -1.125 v -0.32813 q 1.15625,-0.82812 1.96875,-1.73437 0.82812,-0.90625 1.45312,-2.03125 z"
       id="path61" />
    <path
       inkscape:connector-curvature="0"
       style="fill:#000000;fill-rule:nonzero"
       d="m 409.60551,302.38121 3.40625,-8.29688 h 5.125 v 0.34375 h -0.40625 q -0.5625,0 -0.89063,0.1875 -0.23437,0.14063 -0.375,0.4375 -0.10937,0.21875 -0.10937,1.15625 v 8.29688 q 0,0.96875 0.0937,1.21875 0.10937,0.23437 0.42187,0.42187 0.32813,0.17188 0.85938,0.17188 h 0.40625 v 0.34375 h -6.57813 v -0.34375 h 0.42188 q 0.54687,0 0.89062,-0.1875 0.21875,-0.14063 0.35938,-0.45313 0.10937,-0.21875 0.10937,-1.17187 v -9.3125 l -4.82812,11.46875 h -0.21875 l -4.90625,-11.39063 v 8.85938 q 0,0.92187 0.0469,1.14062 0.125,0.46875 0.53125,0.76563 0.40625,0.28125 1.26563,0.28125 v 0.34375 h -4.3125 v -0.34375 h 0.14062 q 0.40625,0.0156 0.76563,-0.125 0.375,-0.15625 0.54687,-0.39063 0.1875,-0.25 0.29688,-0.6875 0.0156,-0.0937 0.0156,-0.9375 v -7.96875 q 0,-0.95312 -0.10937,-1.1875 -0.0937,-0.23437 -0.40625,-0.40625 -0.3125,-0.1875 -0.84375,-0.1875 h -0.40625 v -0.34375 h 5.14062 z m 16.53055,-0.35938 h -4.75 q 0.0781,1.71875 0.90625,2.71875 0.64062,0.76563 1.54687,0.76563 0.5625,0 1.01563,-0.29688 0.45312,-0.3125 0.96875,-1.125 l 0.3125,0.20313 q -0.70313,1.4375 -1.5625,2.04687 -0.84375,0.59375 -1.96875,0.59375 -1.92188,0 -2.92188,-1.48437 -0.79687,-1.20313 -0.79687,-2.96875 0,-2.17188 1.17187,-3.45313 1.17188,-1.29687 2.75,-1.29687 1.3125,0 2.28125,1.09375 0.96875,1.07812 1.04688,3.20312 z m -2.28125,-0.625 q 0,-1.5 -0.17188,-2.04687 -0.15625,-0.5625 -0.5,-0.85938 -0.1875,-0.15625 -0.51562,-0.15625 -0.48438,0 -0.78125,0.46875 -0.54688,0.82813 -0.54688,2.26563 v 0.32812 z m 6.81177,-3.40625 v 1.14063 q 0.71875,-0.78125 1.32812,-1.09375 0.60938,-0.3125 1.32813,-0.3125 0.84375,0 1.40625,0.39062 0.5625,0.39063 0.875,1.1875 0.73437,-0.82812 1.40625,-1.20312 0.6875,-0.375 1.4375,-0.375 0.90625,0 1.4375,0.42187 0.53125,0.40625 0.73437,1.04688 0.21875,0.625 0.21875,2.01562 v 3.5625 q 0,1 0.17188,1.25 0.1875,0.23438 0.75,0.3125 v 0.32813 h -4.46875 v -0.32813 q 0.53125,-0.0469 0.78125,-0.42187 0.15625,-0.25 0.15625,-1.14063 v -3.73437 q 0,-1.15625 -0.0937,-1.46875 -0.0937,-0.3125 -0.29688,-0.46875 -0.1875,-0.15625 -0.45312,-0.15625 -0.40625,0 -0.8125,0.29687 -0.40625,0.28125 -0.82813,0.875 v 4.65625 q 0,0.9375 0.15625,1.17188 0.21875,0.34375 0.8125,0.39062 v 0.32813 h -4.48437 v -0.32813 q 0.35937,-0.0312 0.5625,-0.1875 0.21875,-0.15625 0.28125,-0.375 0.0781,-0.23437 0.0781,-1 v -3.73437 q 0,-1.17188 -0.0937,-1.46875 -0.0937,-0.29688 -0.3125,-0.46875 -0.21875,-0.17188 -0.46875,-0.17188 -0.375,0 -0.67187,0.20313 -0.4375,0.28125 -0.9375,0.98437 v 4.65625 q 0,0.92188 0.1875,1.21875 0.1875,0.28125 0.75,0.34375 v 0.32813 h -4.46875 v -0.32813 q 0.54687,-0.0625 0.78125,-0.35937 0.15625,-0.20313 0.15625,-1.20313 v -4.90625 q 0,-0.98437 -0.1875,-1.21875 -0.17188,-0.23437 -0.75,-0.3125 v -0.34375 z m 16.0408,-0.26562 q 1.125,0 2.09375,0.59375 0.98437,0.57812 1.48437,1.65625 0.51563,1.07812 0.51563,2.35937 0,1.84375 -0.9375,3.07813 -1.14063,1.51562 -3.125,1.51562 -1.96875,0 -3.03125,-1.375 -1.04688,-1.375 -1.04688,-3.1875 0,-1.85937 1.07813,-3.25 1.07812,-1.39062 2.96875,-1.39062 z m 0.0312,0.65625 q -0.46875,0 -0.8125,0.35937 -0.32813,0.35938 -0.4375,1.42188 -0.10938,1.04687 -0.10938,2.92187 0,0.98438 0.125,1.85938 0.10938,0.65625 0.4375,1 0.34375,0.34375 0.76563,0.34375 0.42187,0 0.6875,-0.23438 0.375,-0.3125 0.48437,-0.89062 0.1875,-0.875 0.1875,-3.5625 0,-1.57813 -0.17187,-2.15625 -0.17188,-0.59375 -0.51563,-0.85938 -0.25,-0.20312 -0.64062,-0.20312 z m 8.79687,-0.39063 v 1.96875 q 0.875,-1.34375 1.51563,-1.78125 0.65625,-0.45312 1.25,-0.45312 0.53125,0 0.82812,0.32812 0.3125,0.3125 0.3125,0.90625 0,0.60938 -0.29687,0.95313 -0.29688,0.34375 -0.73438,0.34375 -0.48437,0 -0.84375,-0.3125 -0.35937,-0.3125 -0.4375,-0.34375 -0.0781,-0.0625 -0.20312,-0.0625 -0.26563,0 -0.51563,0.20312 -0.375,0.3125 -0.57812,0.90625 -0.29688,0.89063 -0.29688,1.98438 v 1.98437 l 0.0156,0.53125 q 0,0.51563 0.0625,0.67188 0.10937,0.25 0.32812,0.375 0.21875,0.10937 0.73438,0.14062 v 0.32813 h -4.67188 v -0.32813 q 0.5625,-0.0469 0.75,-0.3125 0.20313,-0.26562 0.20313,-1.40625 v -4.79687 q 0,-0.73438 -0.0625,-0.9375 -0.0937,-0.26563 -0.28125,-0.375 -0.17188,-0.125 -0.60938,-0.17188 v -0.34375 z m 8.67118,9.03125 -2.8125,-6.4375 q -0.625,-1.45312 -0.9375,-1.78125 -0.29688,-0.34375 -0.71875,-0.46875 v -0.34375 h 4.60937 v 0.34375 q -0.45312,0.0156 -0.64062,0.17188 -0.1875,0.15625 -0.1875,0.375 0,0.35937 0.46875,1.39062 l 1.48437,3.40625 1.01563,-2.625 q 0.54687,-1.40625 0.54687,-1.95312 0,-0.34375 -0.23437,-0.54688 -0.21875,-0.20312 -0.79688,-0.21875 v -0.34375 h 2.90625 v 0.34375 q -0.4375,0.0469 -0.70312,0.32813 -0.26563,0.28125 -0.89063,1.92187 l -2.48437,6.4375 q -0.9375,2.40625 -1.39063,2.96875 -0.64062,0.76563 -1.60937,0.76563 -0.76563,0 -1.25,-0.4375 -0.46875,-0.4375 -0.46875,-1.0625 0,-0.53125 0.32812,-0.89063 0.32813,-0.34375 0.8125,-0.34375 0.46875,0 0.75,0.29688 0.28125,0.29687 0.28125,0.90625 0.0156,0.35937 0.0937,0.46875 0.0625,0.0937 0.20313,0.0937 0.23437,0 0.48437,-0.26563 0.35938,-0.39062 0.85938,-1.78125 z"
       id="path63" />
    <path
       inkscape:connector-curvature="0"
       style="fill:#000000;fill-rule:nonzero"
       d="m 405.96489,327.38121 q -1.57812,1.40625 -2.84375,1.40625 -0.73437,0 -1.23437,-0.48438 -0.48438,-0.5 -0.48438,-1.23437 0,-0.98438 0.84375,-1.78125 0.85938,-0.79688 3.71875,-2.10938 v -0.875 q 0,-0.98437 -0.10937,-1.23437 -0.0937,-0.25 -0.39063,-0.4375 -0.29687,-0.20313 -0.67187,-0.20313 -0.60938,0 -1,0.28125 -0.23438,0.15625 -0.23438,0.375 0,0.20313 0.26563,0.48438 0.34375,0.40625 0.34375,0.78125 0,0.45312 -0.34375,0.78125 -0.32813,0.3125 -0.875,0.3125 -0.59375,0 -0.98438,-0.34375 -0.39062,-0.35938 -0.39062,-0.84375 0,-0.65625 0.53125,-1.26563 0.53125,-0.60937 1.46875,-0.9375 0.95312,-0.32812 1.96875,-0.32812 1.23437,0 1.95312,0.53125 0.71875,0.51562 0.9375,1.125 0.125,0.39062 0.125,1.79687 v 3.375 q 0,0.59375 0.0469,0.75 0.0469,0.14063 0.14062,0.21875 0.0937,0.0781 0.21875,0.0781 0.23438,0 0.48438,-0.34375 l 0.28125,0.21875 q -0.46875,0.6875 -0.96875,1 -0.48438,0.3125 -1.125,0.3125 -0.73438,0 -1.15625,-0.34375 -0.42188,-0.35938 -0.51563,-1.0625 z m 0,-0.67188 v -2.90625 q -1.10937,0.65625 -1.67187,1.40625 -0.35938,0.5 -0.35938,1.01563 0,0.42187 0.3125,0.75 0.23438,0.25 0.64063,0.25 0.46875,0 1.07812,-0.51563 z m 11.625,-0.28125 0.28125,0.21875 q -0.60937,1.15625 -1.53125,1.71875 -0.90625,0.5625 -1.9375,0.5625 -1.73437,0 -2.78125,-1.3125 -1.03125,-1.3125 -1.03125,-3.14062 0,-1.78125 0.95313,-3.125 1.14062,-1.625 3.14062,-1.625 1.34375,0 2.14063,0.6875 0.79687,0.67187 0.79687,1.5 0,0.53125 -0.32812,0.85937 -0.3125,0.3125 -0.82813,0.3125 -0.54687,0 -0.90625,-0.35937 -0.35937,-0.375 -0.45312,-1.29688 -0.0469,-0.59375 -0.26563,-0.8125 -0.20312,-0.23437 -0.5,-0.23437 -0.4375,0 -0.75,0.46875 -0.48437,0.71875 -0.48437,2.1875 0,1.23437 0.39062,2.35937 0.39063,1.10938 1.0625,1.65625 0.51563,0.39063 1.20313,0.39063 0.45312,0 0.85937,-0.20313 0.40625,-0.21875 0.96875,-0.8125 z m 8.28055,0 0.28125,0.21875 q -0.60938,1.15625 -1.53125,1.71875 -0.90625,0.5625 -1.9375,0.5625 -1.73438,0 -2.78125,-1.3125 -1.03125,-1.3125 -1.03125,-3.14062 0,-1.78125 0.95312,-3.125 1.14063,-1.625 3.14063,-1.625 1.34375,0 2.14062,0.6875 0.79688,0.67187 0.79688,1.5 0,0.53125 -0.32813,0.85937 -0.3125,0.3125 -0.82812,0.3125 -0.54688,0 -0.90625,-0.35937 -0.35938,-0.375 -0.45313,-1.29688 -0.0469,-0.59375 -0.26562,-0.8125 -0.20313,-0.23437 -0.5,-0.23437 -0.4375,0 -0.75,0.46875 -0.48438,0.71875 -0.48438,2.1875 0,1.23437 0.39063,2.35937 0.39062,1.10938 1.0625,1.65625 0.51562,0.39063 1.20312,0.39063 0.45313,0 0.85938,-0.20313 0.40625,-0.21875 0.96875,-0.8125 z m 8.54614,-2.40625 h -4.75 q 0.0781,1.71875 0.90625,2.71875 0.64063,0.76563 1.54688,0.76563 0.5625,0 1.01562,-0.29688 0.45313,-0.3125 0.96875,-1.125 l 0.3125,0.20313 q -0.70312,1.4375 -1.5625,2.04687 -0.84375,0.59375 -1.96875,0.59375 -1.92187,0 -2.92187,-1.48437 -0.79688,-1.20313 -0.79688,-2.96875 0,-2.17188 1.17188,-3.45313 1.17187,-1.29687 2.75,-1.29687 1.3125,0 2.28125,1.09375 0.96875,1.07812 1.04687,3.20312 z m -2.28125,-0.625 q 0,-1.5 -0.17187,-2.04687 -0.15625,-0.5625 -0.5,-0.85938 -0.1875,-0.15625 -0.51563,-0.15625 -0.48437,0 -0.78125,0.46875 -0.54687,0.82813 -0.54687,2.26563 v 0.32812 z m 8.70242,-3.65625 0.14063,2.96875 h -0.3125 q -0.57813,-1.32812 -1.1875,-1.79687 -0.59375,-0.48438 -1.20313,-0.48438 -0.375,0 -0.65625,0.25 -0.26562,0.25 -0.26562,0.59375 0,0.25 0.1875,0.48438 0.29687,0.375 1.65625,1.29687 1.375,0.92188 1.79687,1.57813 0.4375,0.64062 0.4375,1.4375 0,0.71875 -0.35937,1.42187 -0.35938,0.6875 -1.03125,1.0625 -0.65625,0.375 -1.45313,0.375 -0.625,0 -1.65625,-0.39062 -0.28125,-0.10938 -0.375,-0.10938 -0.3125,0 -0.51562,0.46875 h -0.3125 l -0.14063,-3.125 h 0.3125 q 0.42188,1.23438 1.14063,1.84375 0.73437,0.60938 1.39062,0.60938 0.4375,0 0.71875,-0.26563 0.28125,-0.28125 0.28125,-0.67187 0,-0.4375 -0.28125,-0.76563 -0.26562,-0.32812 -1.23437,-0.98437 -1.42188,-0.98438 -1.84375,-1.5 -0.60938,-0.76563 -0.60938,-1.6875 0,-1 0.6875,-1.8125 0.70313,-0.8125 2,-0.8125 0.70313,0 1.375,0.34375 0.25,0.14062 0.40625,0.14062 0.15625,0 0.25,-0.0625 0.10938,-0.0781 0.34375,-0.40625 z m 7.26026,0 0.14062,2.96875 h -0.3125 q -0.57812,-1.32812 -1.1875,-1.79687 -0.59375,-0.48438 -1.20312,-0.48438 -0.375,0 -0.65625,0.25 -0.26563,0.25 -0.26563,0.59375 0,0.25 0.1875,0.48438 0.29688,0.375 1.65625,1.29687 1.375,0.92188 1.79688,1.57813 0.4375,0.64062 0.4375,1.4375 0,0.71875 -0.35938,1.42187 -0.35937,0.6875 -1.03125,1.0625 -0.65625,0.375 -1.45312,0.375 -0.625,0 -1.65625,-0.39062 -0.28125,-0.10938 -0.375,-0.10938 -0.3125,0 -0.51563,0.46875 h -0.3125 l -0.14062,-3.125 h 0.3125 q 0.42187,1.23438 1.14062,1.84375 0.73438,0.60938 1.39063,0.60938 0.4375,0 0.71875,-0.26563 0.28125,-0.28125 0.28125,-0.67187 0,-0.4375 -0.28125,-0.76563 -0.26563,-0.32812 -1.23438,-0.98437 -1.42187,-0.98438 -1.84375,-1.5 -0.60937,-0.76563 -0.60937,-1.6875 0,-1 0.6875,-1.8125 0.70312,-0.8125 2,-0.8125 0.70312,0 1.375,0.34375 0.25,0.14062 0.40625,0.14062 0.15625,0 0.25,-0.0625 0.10937,-0.0781 0.34375,-0.40625 z"
       id="path65" />
    <path
       inkscape:connector-curvature="0"
       style="fill:#000000;fill-opacity:0;fill-rule:evenodd"
       d="M 576.29365,218.73197 H 698.18342 V 358.73195 H 576.29365 Z"
       id="path67" />
    <path
       inkscape:connector-curvature="0"
       style="fill-rule:evenodd;stroke:#000000;stroke-width:2;stroke-linecap:butt;stroke-linejoin:round"
       d="M 576.29365,218.73197 H 698.18342 V 358.73195 H 576.29365 Z"
       id="path69" />
    <path
       inkscape:connector-curvature="0"
       style="fill:#000000;fill-rule:nonzero"
       d="m 593.1999,281.07384 h -4.45313 l -0.51562,1.21875 q -0.26563,0.60937 -0.26563,1.01562 0,0.53125 0.42188,0.78125 0.25,0.14063 1.23437,0.21875 v 0.34375 h -4.17187 v -0.34375 q 0.67187,-0.10937 1.10937,-0.5625 0.4375,-0.45312 1.07813,-1.89062 l 4.5,-10.04688 h 0.17187 l 4.53125,10.3125 q 0.65625,1.46875 1.07813,1.85938 0.3125,0.28125 0.89062,0.32812 v 0.34375 h -6.09375 v -0.34375 h 0.25 q 0.73438,0 1.03125,-0.20312 0.20313,-0.15625 0.20313,-0.42188 0,-0.17187 -0.0625,-0.34375 -0.0156,-0.0937 -0.26563,-0.70312 z m -0.3125,-0.6875 -1.875,-4.32813 -1.9375,4.32813 z m 12.00421,-4.65625 0.14063,2.96875 h -0.3125 q -0.57813,-1.32813 -1.1875,-1.79688 -0.59375,-0.48437 -1.20313,-0.48437 -0.375,0 -0.65625,0.25 -0.26562,0.25 -0.26562,0.59375 0,0.25 0.1875,0.48437 0.29687,0.375 1.65625,1.29688 1.375,0.92187 1.79687,1.57812 0.4375,0.64063 0.4375,1.4375 0,0.71875 -0.35937,1.42188 -0.35938,0.6875 -1.03125,1.0625 -0.65625,0.375 -1.45313,0.375 -0.625,0 -1.65625,-0.39063 -0.28125,-0.10937 -0.375,-0.10937 -0.3125,0 -0.51562,0.46875 h -0.3125 l -0.14063,-3.125 h 0.3125 q 0.42188,1.23437 1.14063,1.84375 0.73437,0.60937 1.39062,0.60937 0.4375,0 0.71875,-0.26562 0.28125,-0.28125 0.28125,-0.67188 0,-0.4375 -0.28125,-0.76562 -0.26562,-0.32813 -1.23437,-0.98438 -1.42188,-0.98437 -1.84375,-1.5 -0.60938,-0.76562 -0.60938,-1.6875 0,-1 0.6875,-1.8125 0.70313,-0.8125 2,-0.8125 0.70313,0 1.375,0.34375 0.25,0.14063 0.40625,0.14063 0.15625,0 0.25,-0.0625 0.10938,-0.0781 0.34375,-0.40625 z m 7.26026,0 0.14062,2.96875 h -0.3125 q -0.57812,-1.32813 -1.1875,-1.79688 -0.59375,-0.48437 -1.20312,-0.48437 -0.375,0 -0.65625,0.25 -0.26563,0.25 -0.26563,0.59375 0,0.25 0.1875,0.48437 0.29688,0.375 1.65625,1.29688 1.375,0.92187 1.79688,1.57812 0.4375,0.64063 0.4375,1.4375 0,0.71875 -0.35938,1.42188 -0.35937,0.6875 -1.03125,1.0625 -0.65625,0.375 -1.45312,0.375 -0.625,0 -1.65625,-0.39063 -0.28125,-0.10937 -0.375,-0.10937 -0.3125,0 -0.51563,0.46875 h -0.3125 l -0.14062,-3.125 h 0.3125 q 0.42187,1.23437 1.14062,1.84375 0.73438,0.60937 1.39063,0.60937 0.4375,0 0.71875,-0.26562 0.28125,-0.28125 0.28125,-0.67188 0,-0.4375 -0.28125,-0.76562 -0.26563,-0.32813 -1.23438,-0.98438 -1.42187,-0.98437 -1.84375,-1.5 -0.60937,-0.76562 -0.60937,-1.6875 0,-1 0.6875,-1.8125 0.70312,-0.8125 2,-0.8125 0.70312,0 1.375,0.34375 0.25,0.14063 0.40625,0.14063 0.15625,0 0.25,-0.0625 0.10937,-0.0781 0.34375,-0.40625 z m 9.11969,4.28125 h -4.75 q 0.0781,1.71875 0.90625,2.71875 0.64062,0.76562 1.54687,0.76562 0.5625,0 1.01563,-0.29687 0.45312,-0.3125 0.96875,-1.125 l 0.3125,0.20312 q -0.70313,1.4375 -1.5625,2.04688 -0.84375,0.59375 -1.96875,0.59375 -1.92188,0 -2.92188,-1.48438 -0.79687,-1.20312 -0.79687,-2.96875 0,-2.17187 1.17187,-3.45312 1.17188,-1.29688 2.75,-1.29688 1.3125,0 2.28125,1.09375 0.96875,1.07813 1.04688,3.20313 z m -2.28125,-0.625 q 0,-1.5 -0.17188,-2.04688 -0.15625,-0.5625 -0.5,-0.85937 -0.1875,-0.15625 -0.51562,-0.15625 -0.48438,0 -0.78125,0.46875 -0.54688,0.82812 -0.54688,2.26562 v 0.32813 z m 8.70239,-3.65625 0.14062,2.96875 h -0.3125 q -0.57812,-1.32813 -1.1875,-1.79688 -0.59375,-0.48437 -1.20312,-0.48437 -0.375,0 -0.65625,0.25 -0.26563,0.25 -0.26563,0.59375 0,0.25 0.1875,0.48437 0.29688,0.375 1.65625,1.29688 1.375,0.92187 1.79688,1.57812 0.4375,0.64063 0.4375,1.4375 0,0.71875 -0.35938,1.42188 -0.35937,0.6875 -1.03125,1.0625 -0.65625,0.375 -1.45312,0.375 -0.625,0 -1.65625,-0.39063 -0.28125,-0.10937 -0.375,-0.10937 -0.3125,0 -0.51563,0.46875 h -0.3125 l -0.14062,-3.125 h 0.3125 q 0.42187,1.23437 1.14062,1.84375 0.73438,0.60937 1.39063,0.60937 0.4375,0 0.71875,-0.26562 0.28125,-0.28125 0.28125,-0.67188 0,-0.4375 -0.28125,-0.76562 -0.26563,-0.32813 -1.23438,-0.98438 -1.42187,-0.98437 -1.84375,-1.5 -0.60937,-0.76562 -0.60937,-1.6875 0,-1 0.6875,-1.8125 0.70312,-0.8125 2,-0.8125 0.70312,0 1.375,0.34375 0.25,0.14063 0.40625,0.14063 0.15625,0 0.25,-0.0625 0.10937,-0.0781 0.34375,-0.40625 z m 7.26025,0 0.14063,2.96875 h -0.3125 q -0.57813,-1.32813 -1.1875,-1.79688 -0.59375,-0.48437 -1.20313,-0.48437 -0.375,0 -0.65625,0.25 -0.26562,0.25 -0.26562,0.59375 0,0.25 0.1875,0.48437 0.29687,0.375 1.65625,1.29688 1.375,0.92187 1.79687,1.57812 0.4375,0.64063 0.4375,1.4375 0,0.71875 -0.35937,1.42188 -0.35938,0.6875 -1.03125,1.0625 -0.65625,0.375 -1.45313,0.375 -0.625,0 -1.65625,-0.39063 -0.28125,-0.10937 -0.375,-0.10937 -0.3125,0 -0.51562,0.46875 h -0.3125 l -0.14063,-3.125 h 0.3125 q 0.42188,1.23437 1.14063,1.84375 0.73437,0.60937 1.39062,0.60937 0.4375,0 0.71875,-0.26562 0.28125,-0.28125 0.28125,-0.67188 0,-0.4375 -0.28125,-0.76562 -0.26562,-0.32813 -1.23437,-0.98438 -1.42188,-0.98437 -1.84375,-1.5 -0.60938,-0.76562 -0.60938,-1.6875 0,-1 0.6875,-1.8125 0.70313,-0.8125 2,-0.8125 0.70313,0 1.375,0.34375 0.25,0.14063 0.40625,0.14063 0.15625,0 0.25,-0.0625 0.10938,-0.0781 0.34375,-0.40625 z m 3.86963,-3.95313 q 0.59375,0 1.01563,0.42188 0.42187,0.42187 0.42187,1.01562 0,0.59375 -0.42187,1.01563 -0.42188,0.40625 -1.01563,0.40625 -0.59375,0 -1.01562,-0.40625 -0.42188,-0.42188 -0.42188,-1.01563 0,-0.59375 0.42188,-1.01562 0.42187,-0.42188 1.01562,-0.42188 z m 1.29688,4.20313 v 6.875 q 0,0.92187 0.20312,1.17187 0.21875,0.25 0.84375,0.29688 v 0.32812 h -4.6875 v -0.32812 q 0.57813,-0.0312 0.85938,-0.34375 0.17187,-0.20313 0.17187,-1.125 v -5.0625 q 0,-0.92188 -0.21875,-1.17188 -0.20312,-0.26562 -0.8125,-0.29687 v -0.34375 z m 5.3396,0 v 1.125 q 0.67187,-0.73438 1.28125,-1.0625 0.60937,-0.32813 1.3125,-0.32813 0.84375,0 1.39062,0.46875 0.5625,0.46875 0.75,1.17188 0.15625,0.53125 0.15625,2.03125 v 3.375 q 0,1 0.17188,1.25 0.1875,0.23437 0.76562,0.3125 v 0.32812 h -4.39062 v -0.32812 q 0.48437,-0.0781 0.70312,-0.42188 0.14063,-0.21875 0.14063,-1.14062 v -3.85938 q 0,-1.0625 -0.0781,-1.34375 -0.0781,-0.28125 -0.28125,-0.4375 -0.20312,-0.15625 -0.4375,-0.15625 -0.79687,0 -1.48437,1.14063 v 4.65625 q 0,0.96875 0.17187,1.23437 0.1875,0.25 0.67188,0.32813 v 0.32812 h -4.375 v -0.32812 q 0.54687,-0.0625 0.76562,-0.35938 0.17188,-0.20312 0.17188,-1.20312 v -4.90625 q 0,-0.98438 -0.1875,-1.21875 -0.1875,-0.23438 -0.75,-0.3125 v -0.34375 z m 12.39129,0.0937 h 2.92188 v 1.03125 h -1.65625 q 0.45312,0.45312 0.625,0.82812 0.23437,0.5 0.23437,1.04688 0,0.92187 -0.51562,1.60937 -0.51563,0.67188 -1.40625,1.0625 -0.89063,0.39063 -1.57813,0.39063 -0.0469,0 -1.10937,-0.0469 -0.42188,0 -0.70313,0.28125 -0.28125,0.26563 -0.28125,0.64063 0,0.32812 0.25,0.54687 0.26563,0.21875 0.84375,0.21875 l 1.59375,-0.0312 q 1.95313,0 2.6875,0.4375 1.04688,0.59375 1.04688,1.82813 0,0.78125 -0.48438,1.42187 -0.48437,0.65625 -1.26562,0.95313 -1.20313,0.45312 -2.76563,0.45312 -1.15625,0 -2.125,-0.23437 -0.96875,-0.21875 -1.39062,-0.625 -0.40625,-0.39063 -0.40625,-0.84375 0,-0.42188 0.3125,-0.76563 0.32812,-0.32812 1.20312,-0.5625 -1.21875,-0.59375 -1.21875,-1.65625 0,-0.64062 0.48438,-1.23437 0.5,-0.60938 1.57812,-1.0625 -1.25,-0.45313 -1.8125,-1.1875 -0.54687,-0.75 -0.54687,-1.71875 0,-1.26563 1.03125,-2.20313 1.04687,-0.9375 2.67187,-0.9375 0.85938,0 1.78125,0.35938 z m -1.59375,0.21875 q -0.54687,0 -0.92187,0.54687 -0.35938,0.53125 -0.35938,2.25 0,1.375 0.35938,1.89063 0.35937,0.51562 0.875,0.51562 0.54687,0 0.92187,-0.5 0.375,-0.51562 0.375,-2 0,-1.65625 -0.42187,-2.25 -0.29688,-0.45312 -0.82813,-0.45312 z m -0.5625,9.64062 q -0.9375,0 -1.25,0.15625 -0.53125,0.28125 -0.53125,0.78125 0,0.46875 0.54688,0.84375 0.5625,0.39063 2.0625,0.39063 1.29687,0 2.03125,-0.34375 0.73437,-0.32813 0.73437,-0.95313 0,-0.23437 -0.14062,-0.39062 -0.25,-0.28125 -0.75,-0.39063 -0.5,-0.0937 -2.70313,-0.0937 z"
       id="path71" />
    <path
       inkscape:connector-curvature="0"
       style="fill:#000000;fill-rule:nonzero"
       d="m 589.52805,297.98009 v 1.96875 q 0.875,-1.34375 1.51562,-1.78125 0.65625,-0.45312 1.25,-0.45312 0.53125,0 0.82813,0.32812 0.3125,0.3125 0.3125,0.90625 0,0.60938 -0.29688,0.95313 -0.29687,0.34375 -0.73437,0.34375 -0.48438,0 -0.84375,-0.3125 -0.35938,-0.3125 -0.4375,-0.34375 -0.0781,-0.0625 -0.20313,-0.0625 -0.26562,0 -0.51562,0.20312 -0.375,0.3125 -0.57813,0.90625 -0.29687,0.89063 -0.29687,1.98438 v 1.98437 l 0.0156,0.53125 q 0,0.51563 0.0625,0.67188 0.10938,0.25 0.32813,0.375 0.21875,0.10937 0.73437,0.14062 v 0.32813 h -4.67187 v -0.32813 q 0.5625,-0.0469 0.75,-0.3125 0.20312,-0.26562 0.20312,-1.40625 v -4.79687 q 0,-0.73438 -0.0625,-0.9375 -0.0937,-0.26563 -0.28125,-0.375 -0.17187,-0.125 -0.60937,-0.17188 v -0.34375 z m 12.03058,4.03125 h -4.75 q 0.0781,1.71875 0.90625,2.71875 0.64062,0.76563 1.54687,0.76563 0.5625,0 1.01563,-0.29688 0.45312,-0.3125 0.96875,-1.125 l 0.3125,0.20313 q -0.70313,1.4375 -1.5625,2.04687 -0.84375,0.59375 -1.96875,0.59375 -1.92188,0 -2.92188,-1.48437 -0.79687,-1.20313 -0.79687,-2.96875 0,-2.17188 1.17187,-3.45313 1.17188,-1.29687 2.75,-1.29687 1.3125,0 2.28125,1.09375 0.96875,1.07812 1.04688,3.20312 z m -2.28125,-0.625 q 0,-1.5 -0.17188,-2.04687 -0.15625,-0.5625 -0.5,-0.85938 -0.1875,-0.15625 -0.51562,-0.15625 -0.48438,0 -0.78125,0.46875 -0.54688,0.82813 -0.54688,2.26563 v 0.32812 z m 8.70239,-3.65625 0.14063,2.96875 h -0.3125 q -0.57813,-1.32812 -1.1875,-1.79687 -0.59375,-0.48438 -1.20313,-0.48438 -0.375,0 -0.65625,0.25 -0.26562,0.25 -0.26562,0.59375 0,0.25 0.1875,0.48438 0.29687,0.375 1.65625,1.29687 1.375,0.92188 1.79687,1.57813 0.4375,0.64062 0.4375,1.4375 0,0.71875 -0.35937,1.42187 -0.35938,0.6875 -1.03125,1.0625 -0.65625,0.375 -1.45313,0.375 -0.625,0 -1.65625,-0.39062 -0.28125,-0.10938 -0.375,-0.10938 -0.3125,0 -0.51562,0.46875 h -0.3125 l -0.14063,-3.125 h 0.3125 q 0.42188,1.23438 1.14063,1.84375 0.73437,0.60938 1.39062,0.60938 0.4375,0 0.71875,-0.26563 0.28125,-0.28125 0.28125,-0.67187 0,-0.4375 -0.28125,-0.76563 -0.26562,-0.32812 -1.23437,-0.98437 -1.42188,-0.98438 -1.84375,-1.5 -0.60938,-0.76563 -0.60938,-1.6875 0,-1 0.6875,-1.8125 0.70313,-0.8125 2,-0.8125 0.70313,0 1.375,0.34375 0.25,0.14062 0.40625,0.14062 0.15625,0 0.25,-0.0625 0.10938,-0.0781 0.34375,-0.40625 z m 10.15088,0.25 v 6.78125 q 0,1 0.1875,1.25 0.1875,0.23438 0.75,0.3125 v 0.32813 h -3.53125 v -1.15625 q -0.625,0.73437 -1.25,1.07812 -0.60937,0.34375 -1.39062,0.34375 -0.73438,0 -1.3125,-0.45312 -0.5625,-0.45313 -0.76563,-1.04688 -0.1875,-0.60937 -0.1875,-2.10937 v -3.45313 q 0,-0.98437 -0.1875,-1.21875 -0.17187,-0.23437 -0.75,-0.3125 v -0.34375 h 3.54688 v 5.92188 q 0,0.9375 0.0781,1.20312 0.0937,0.26563 0.28125,0.40625 0.1875,0.14063 0.4375,0.14063 0.34375,0 0.60938,-0.17188 0.375,-0.25 0.89062,-0.98437 v -4.64063 q 0,-0.98437 -0.1875,-1.21875 -0.17187,-0.23437 -0.75,-0.3125 v -0.34375 z m 5.39136,-3.90625 v 10.78125 q 0,0.92188 0.21875,1.17188 0.21875,0.25 0.82812,0.29687 v 0.32813 h -4.67187 v -0.32813 q 0.5625,-0.0312 0.84375,-0.34375 0.1875,-0.20312 0.1875,-1.125 v -8.98437 q 0,-0.90625 -0.21875,-1.15625 -0.20313,-0.26563 -0.8125,-0.29688 v -0.34375 z m 5.23016,0.73438 v 3.17187 h 2.0625 v 0.92188 h -2.0625 v 5.34375 q 0,0.75 0.0625,0.96875 0.0781,0.21875 0.25,0.35937 0.1875,0.125 0.32813,0.125 0.60937,0 1.14062,-0.90625 l 0.28125,0.20313 q -0.75,1.78125 -2.4375,1.78125 -0.82812,0 -1.40625,-0.45313 -0.5625,-0.46875 -0.71875,-1.03125 -0.0937,-0.3125 -0.0937,-1.71875 v -4.67187 h -1.125 v -0.32813 q 1.15625,-0.82812 1.96875,-1.73437 0.82813,-0.90625 1.45313,-2.03125 z m 8.25958,2.92187 0.14063,2.96875 h -0.3125 q -0.57813,-1.32812 -1.1875,-1.79687 -0.59375,-0.48438 -1.20313,-0.48438 -0.375,0 -0.65625,0.25 -0.26562,0.25 -0.26562,0.59375 0,0.25 0.1875,0.48438 0.29687,0.375 1.65625,1.29687 1.375,0.92188 1.79687,1.57813 0.4375,0.64062 0.4375,1.4375 0,0.71875 -0.35937,1.42187 -0.35938,0.6875 -1.03125,1.0625 -0.65625,0.375 -1.45313,0.375 -0.625,0 -1.65625,-0.39062 -0.28125,-0.10938 -0.375,-0.10938 -0.3125,0 -0.51562,0.46875 h -0.3125 l -0.14063,-3.125 h 0.3125 q 0.42188,1.23438 1.14063,1.84375 0.73437,0.60938 1.39062,0.60938 0.4375,0 0.71875,-0.26563 0.28125,-0.28125 0.28125,-0.67187 0,-0.4375 -0.28125,-0.76563 -0.26562,-0.32812 -1.23437,-0.98437 -1.42188,-0.98438 -1.84375,-1.5 -0.60938,-0.76563 -0.60938,-1.6875 0,-1 0.6875,-1.8125 0.70313,-0.8125 2,-0.8125 0.70313,0 1.375,0.34375 0.25,0.14062 0.40625,0.14062 0.15625,0 0.25,-0.0625 0.10938,-0.0781 0.34375,-0.40625 z"
       id="path73" />
  </g>
</svg>
