<?xml version="1.0" encoding="UTF-8" standalone="no"?>
<svg
   xmlns:dc="http://purl.org/dc/elements/1.1/"
   xmlns:cc="http://creativecommons.org/ns#"
   xmlns:rdf="http://www.w3.org/1999/02/22-rdf-syntax-ns#"
   xmlns:svg="http://www.w3.org/2000/svg"
   xmlns="http://www.w3.org/2000/svg"
   xmlns:sodipodi="http://sodipodi.sourceforge.net/DTD/sodipodi-0.dtd"
   xmlns:inkscape="http://www.inkscape.org/namespaces/inkscape"
   version="1.1"
   viewBox="0 0 831.35919 465.79468"
   stroke-miterlimit="10"
   id="svg153"
   sodipodi:docname="concurrentNodes.svg"
   width="831.35919"
   height="465.79468"
   style="fill:none;stroke:none;stroke-linecap:square;stroke-miterlimit:10"
   inkscape:export-filename="/home/alexds9/Thesis/ThesisToLatex/ThesisToLatex/Figures/concurrentNodes.png"
   inkscape:export-xdpi="400"
   inkscape:export-ydpi="400"
   inkscape:version="0.92.1 r15371">
  <metadata
     id="metadata159">
    <rdf:RDF>
      <cc:Work
         rdf:about="">
        <dc:format>image/svg+xml</dc:format>
        <dc:type
           rdf:resource="http://purl.org/dc/dcmitype/StillImage" />
        <dc:title></dc:title>
      </cc:Work>
    </rdf:RDF>
  </metadata>
  <defs
     id="defs157" />
  <sodipodi:namedview
     pagecolor="#ffffff"
     bordercolor="#666666"
     borderopacity="1"
     objecttolerance="10"
     gridtolerance="10"
     guidetolerance="10"
     inkscape:pageopacity="0"
     inkscape:pageshadow="2"
     inkscape:window-width="1535"
     inkscape:window-height="876"
     id="namedview155"
     showgrid="false"
     fit-margin-top="5"
     fit-margin-right="5"
     fit-margin-bottom="5"
     fit-margin-left="5"
     inkscape:zoom="0.86325953"
     inkscape:cx="386.60115"
     inkscape:cy="195.84837"
     inkscape:window-x="65"
     inkscape:window-y="24"
     inkscape:window-maximized="1"
     inkscape:current-layer="g151" />
  <clipPath
     id="p.0">
    <path
       d="M 0,0 H 960 V 720 H 0 Z"
       id="path2"
       inkscape:connector-curvature="0"
       style="clip-rule:nonzero" />
  </clipPath>
  <g
     clip-path="url(#p.0)"
     id="g151"
     transform="translate(-43.046889,-132.63221)">
    <path
       inkscape:connector-curvature="0"
       style="fill:#000000;fill-opacity:0;fill-rule:evenodd"
       d="M 766.17361,480.26153 671.18148,583.03317"
       id="path7" />
    <path
       inkscape:connector-curvature="0"
       style="fill-rule:evenodd;stroke:#000000;stroke-width:2;stroke-linecap:butt;stroke-linejoin:round;stroke-dasharray:8, 6"
       d="m 766.17361,480.26153 -86.84692,93.95944"
       id="path9" />
    <path
       inkscape:connector-curvature="0"
       style="fill:#000000;fill-rule:evenodd;stroke:#000000;stroke-width:2;stroke-linecap:butt"
       d="m 676.90077,571.97865 -3.73468,8.90741 8.58649,-4.42285 z"
       id="path11" />
    <path
       inkscape:connector-curvature="0"
       style="fill:#000000;fill-opacity:0;fill-rule:evenodd"
       d="m 766.17361,480.26153 99.55908,102.77164"
       id="path13" />
    <path
       inkscape:connector-curvature="0"
       style="fill-rule:evenodd;stroke:#000000;stroke-width:2;stroke-linecap:butt;stroke-linejoin:round;stroke-dasharray:8, 6"
       d="m 766.17361,480.26153 91.2096,94.15274"
       id="path15" />
    <path
       inkscape:connector-curvature="0"
       style="fill:#000000;fill-rule:evenodd;stroke:#000000;stroke-width:2;stroke-linecap:butt"
       d="m 855.01045,576.71279 8.68787,4.2204 -3.94245,-8.81745 z"
       id="path17" />
    <path
       inkscape:connector-curvature="0"
       style="fill:#ff00ff;fill-rule:evenodd"
       d="m 663.94111,358.30205 102.23248,-74.11926 102.23248,74.11926 -39.04938,119.92749 H 702.99042 Z"
       id="path19" />
    <path
       inkscape:connector-curvature="0"
       style="fill-rule:evenodd;stroke:#000000;stroke-width:2;stroke-linecap:butt;stroke-linejoin:round"
       d="m 663.94111,358.30205 102.23248,-74.11926 102.23248,74.11926 -39.04938,119.92749 H 702.99042 Z"
       id="path21" />
    <path
       inkscape:connector-curvature="0"
       style="fill:#000000;fill-opacity:0;fill-rule:evenodd"
       d="m 677.34908,364.566 h 177.64899 v 40 H 677.34908 Z"
       id="path23" />
    <path
       inkscape:connector-curvature="0"
       style="fill:#000000;fill-rule:nonzero"
       d="m 702.72961,384.76725 q 0,-2.07813 0.625,-3.48438 0.45313,-1.04687 1.25,-1.85937 0.8125,-0.82813 1.76563,-1.23438 1.28125,-0.53125 2.9375,-0.53125 3,0 4.79687,1.85938 1.8125,1.85937 1.8125,5.1875 0,3.29687 -1.79687,5.15625 -1.78125,1.85937 -4.78125,1.85937 -3.03125,0 -4.82813,-1.84375 -1.78125,-1.85937 -1.78125,-5.10937 z m 2.82813,-0.0937 q 0,2.3125 1.0625,3.51562 1.07812,1.1875 2.71875,1.1875 1.64062,0 2.6875,-1.1875 1.04687,-1.1875 1.04687,-3.54687 0,-2.34375 -1.03125,-3.48438 -1.01562,-1.15625 -2.70312,-1.15625 -1.70313,0 -2.75,1.17188 -1.03125,1.15625 -1.03125,3.5 z m 12.1521,-3.04688 h 2.42187 v 1.45313 q 0.46875,-0.73438 1.28125,-1.20313 0.8125,-0.46875 1.79688,-0.46875 1.70312,0 2.90625,1.34375 1.20312,1.34375 1.20312,3.75 0,2.46875 -1.21875,3.84375 -1.20312,1.35938 -2.92187,1.35938 -0.8125,0 -1.48438,-0.3125 -0.65625,-0.32813 -1.39062,-1.125 v 4.96875 h -2.59375 z m 2.57812,4.76563 q 0,1.65625 0.65625,2.45312 0.65625,0.79688 1.59375,0.79688 0.92188,0 1.51563,-0.71875 0.60937,-0.73438 0.60937,-2.40625 0,-1.54688 -0.625,-2.29688 -0.625,-0.75 -1.53125,-0.75 -0.96875,0 -1.59375,0.73438 -0.625,0.73437 -0.625,2.1875 z m 13.39594,-4.76563 v 2.07813 h -1.78125 v 3.98437 q 0,1.20313 0.0469,1.40625 0.0625,0.1875 0.23438,0.32813 0.1875,0.125 0.45312,0.125 0.35938,0 1.04688,-0.25 l 0.21875,2.01562 q -0.90625,0.39063 -2.0625,0.39063 -0.70313,0 -1.26563,-0.23438 -0.5625,-0.23437 -0.82812,-0.60937 -0.26563,-0.375 -0.375,-1.01563 -0.0781,-0.45312 -0.0781,-1.84375 v -4.29692 h -1.20312 v -2.07813 h 1.20312 v -1.95312 l 2.60938,-1.51563 v 3.46875 z m 1.69708,-1.32812 v -2.40625 h 2.60937 v 2.40625 z m 0,11.1875 v -9.85938 h 2.60937 v 9.85938 z m 4.58954,-5.0625 q 0,-1.29688 0.64062,-2.51563 0.64063,-1.21875 1.8125,-1.85937 1.17188,-0.64063 2.60938,-0.64063 2.25,0 3.67187,1.45313 1.42188,1.45312 1.42188,3.67187 0,2.23438 -1.4375,3.70313 -1.4375,1.46875 -3.625,1.46875 -1.35938,0 -2.59375,-0.60938 -1.21875,-0.60937 -1.85938,-1.79687 -0.64062,-1.1875 -0.64062,-2.875 z m 2.67187,0.14062 q 0,1.46875 0.6875,2.25 0.70313,0.76563 1.71875,0.76563 1.01563,0 1.70313,-0.76563 0.70312,-0.78125 0.70312,-2.26562 0,-1.45313 -0.70312,-2.23438 -0.6875,-0.78125 -1.70313,-0.78125 -1.01562,0 -1.71875,0.78125 -0.6875,0.78125 -0.6875,2.25 z m 18.28662,4.92188 h -2.60937 v -5.0313 q 0,-1.59375 -0.17188,-2.0625 -0.15625,-0.46875 -0.53125,-0.71875 -0.375,-0.26563 -0.90625,-0.26563 -0.6875,0 -1.23437,0.375 -0.53125,0.35938 -0.73438,0.98438 -0.1875,0.60937 -0.1875,2.25 v 4.46875 h -2.60937 v -9.85938 h 2.42187 v 1.45313 q 1.29688,-1.67188 3.25,-1.67188 0.85938,0 1.57813,0.3125 0.71875,0.3125 1.07812,0.79688 0.35938,0.48437 0.5,1.09375 0.15625,0.60937 0.15625,1.75 z m 4.38037,-6.84375 -2.35937,-0.4375 q 0.39062,-1.42188 1.35937,-2.10938 0.98438,-0.6875 2.90625,-0.6875 1.73438,0 2.59375,0.42188 0.85938,0.40625 1.20313,1.04687 0.34375,0.625 0.34375,2.32813 l -0.0312,3.04687 q 0,1.29688 0.125,1.92188 0.125,0.60937 0.46875,1.3125 h -2.57813 q -0.0937,-0.26563 -0.25,-0.76563 -0.0625,-0.23437 -0.0937,-0.3125 -0.65625,0.65625 -1.42187,0.98438 -0.76563,0.3125 -1.625,0.3125 -1.51563,0 -2.40625,-0.8125 -0.875,-0.82813 -0.875,-2.09375 0,-0.84375 0.39062,-1.48438 0.40625,-0.65625 1.125,-1 0.71875,-0.35937 2.07813,-0.625 1.82812,-0.32812 2.53125,-0.625 v -0.26562 q 0,-0.75 -0.375,-1.0625 -0.35938,-0.32813 -1.39063,-0.32813 -0.70312,0 -1.09375,0.28125 -0.39062,0.26563 -0.625,0.95313 z m 3.48438,2.10937 q -0.5,0.17188 -1.59375,0.40625 -1.07813,0.23438 -1.40625,0.45313 -0.51563,0.35937 -0.51563,0.92187 0,0.54688 0.40625,0.95313 0.40625,0.39062 1.04688,0.39062 0.70312,0 1.34375,-0.46875 0.46875,-0.35937 0.625,-0.85937 0.0937,-0.34375 0.0937,-1.28125 z m 4.93817,4.73438 v -13.5938 h 2.60937 V 391.486 Z m 19.41351,0 h -2.42187 v -1.45313 q -0.60938,0.84375 -1.4375,1.26563 -0.8125,0.40625 -1.64063,0.40625 -1.70312,0 -2.92187,-1.35938 -1.20313,-1.375 -1.20313,-3.82812 0,-2.5 1.17188,-3.79688 1.1875,-1.3125 2.98437,-1.3125 1.65625,0 2.85938,1.375 v -4.89062 h 2.60937 z m -6.96875,-5.14063 q 0,1.57813 0.4375,2.28125 0.64063,1.01563 1.76563,1.01563 0.90625,0 1.53125,-0.76563 0.625,-0.76562 0.625,-2.28125 0,-1.70312 -0.60938,-2.4375 -0.60937,-0.75 -1.5625,-0.75 -0.9375,0 -1.5625,0.73438 -0.625,0.73437 -0.625,2.20312 z m 15.021,2 2.60937,0.4375 q -0.5,1.4375 -1.59375,2.1875 -1.07812,0.73438 -2.70312,0.73438 -2.5625,0 -3.79688,-1.67188 -0.96875,-1.34375 -0.96875,-3.40625 0,-2.4375 1.26563,-3.82812 1.28125,-1.39063 3.25,-1.39063 2.1875,0 3.45312,1.45313 1.28125,1.45312 1.23438,4.45312 h -6.53125 q 0.0156,1.15625 0.625,1.8125 0.60937,0.64063 1.5,0.64063 0.60937,0 1.03125,-0.32813 0.42187,-0.34375 0.625,-1.09375 z m 0.15625,-2.625 q -0.0312,-1.14062 -0.59375,-1.71875 -0.54688,-0.59375 -1.34375,-0.59375 -0.85938,0 -1.40625,0.625 -0.5625,0.60938 -0.54688,1.6875 z m 4.51629,5.76563 v -13.5938 h 2.60938 V 391.486 Z m 7.13648,-6.84375 -2.35938,-0.4375 q 0.39063,-1.42188 1.35938,-2.10938 0.98437,-0.6875 2.90625,-0.6875 1.73437,0 2.59375,0.42188 0.85937,0.40625 1.20312,1.04687 0.34375,0.625 0.34375,2.32813 l -0.0312,3.04687 q 0,1.29688 0.125,1.92188 0.125,0.60937 0.46875,1.3125 h -2.57812 q -0.0937,-0.26563 -0.25,-0.76563 -0.0625,-0.23437 -0.0937,-0.3125 -0.65625,0.65625 -1.42188,0.98438 -0.76562,0.3125 -1.625,0.3125 -1.51562,0 -2.40625,-0.8125 -0.875,-0.82813 -0.875,-2.09375 0,-0.84375 0.39063,-1.48438 0.40625,-0.65625 1.125,-1 0.71875,-0.35937 2.07812,-0.625 1.82813,-0.32812 2.53125,-0.625 v -0.26562 q 0,-0.75 -0.375,-1.0625 -0.35937,-0.32813 -1.39062,-0.32813 -0.70313,0 -1.09375,0.28125 -0.39063,0.26563 -0.625,0.95313 z m 3.48437,2.10937 q -0.5,0.17188 -1.59375,0.40625 -1.07812,0.23438 -1.40625,0.45313 -0.51562,0.35937 -0.51562,0.92187 0,0.54688 0.40625,0.95313 0.40625,0.39062 1.04687,0.39062 0.70313,0 1.34375,-0.46875 0.46875,-0.35937 0.625,-0.85937 0.0937,-0.34375 0.0937,-1.28125 z m 3.7038,-5.125 h 2.78125 l 2.35938,7 2.29687,-7 h 2.70313 l -3.48438,9.48438 -0.625,1.71875 q -0.34375,0.85937 -0.65625,1.3125 -0.29687,0.46875 -0.70312,0.75 -0.40625,0.28125 -1,0.4375 -0.59375,0.15625 -1.32813,0.15625 -0.75,0 -1.46875,-0.15625 l -0.23437,-2.04688 q 0.60937,0.125 1.09375,0.125 0.92187,0 1.34375,-0.53125 0.4375,-0.53125 0.67187,-1.35937 z"
       id="path25" />
    <path
       inkscape:connector-curvature="0"
       style="fill:#000000;fill-opacity:0;fill-rule:evenodd"
       d="m 692.25761,552.16705 h 76.40948 v 41.25983 h -76.40948 z"
       id="path27" />
    <path
       inkscape:connector-curvature="0"
       style="fill:#000000;fill-rule:nonzero"
       d="m 702.41381,565.07395 h 2.3125 v 6.20312 q 0,1.46875 0.0781,1.90625 0.15625,0.70313 0.70313,1.14063 0.5625,0.42187 1.53125,0.42187 0.98437,0 1.48437,-0.40625 0.5,-0.40625 0.59375,-0.98437 0.10938,-0.59375 0.10938,-1.95313 v -6.32812 h 2.3125 v 6.01562 q 0,2.0625 -0.1875,2.92188 -0.1875,0.84375 -0.6875,1.4375 -0.5,0.57812 -1.34375,0.9375 -0.84375,0.34375 -2.20313,0.34375 -1.64062,0 -2.5,-0.375 -0.84375,-0.39063 -1.34375,-1 -0.48437,-0.60938 -0.64062,-1.26563 -0.21875,-0.98437 -0.21875,-2.90625 z m 11.49219,3.15625 h 2.04687 v 1.21875 q 0.39063,-0.625 1.0625,-1.01563 0.6875,-0.39062 1.51563,-0.39062 1.45312,0 2.45312,1.14062 1.01563,1.125 1.01563,3.14063 0,2.07812 -1.01563,3.23437 -1.01562,1.15625 -2.46875,1.15625 -0.6875,0 -1.25,-0.26562 -0.54687,-0.28125 -1.17187,-0.95313 v 4.1875 h -2.1875 z m 2.17187,4 q 0,1.40625 0.54688,2.07812 0.5625,0.65625 1.35937,0.65625 0.76563,0 1.26563,-0.60937 0.51562,-0.60938 0.51562,-2.01563 0,-1.29687 -0.53125,-1.92187 -0.51562,-0.64063 -1.29687,-0.64063 -0.79688,0 -1.32813,0.625 -0.53125,0.60938 -0.53125,1.82813 z m 15.27344,4.29687 h -2.04688 v -1.21875 q -0.5,0.70313 -1.20312,1.0625 -0.6875,0.34375 -1.39063,0.34375 -1.42187,0 -2.45312,-1.15625 -1.01563,-1.15625 -1.01563,-3.21875 0,-2.10937 0.98438,-3.20312 1,-1.09375 2.51562,-1.09375 1.39063,0 2.40625,1.15625 v -4.125 h 2.20313 z m -5.85938,-4.32812 q 0,1.32812 0.35938,1.92187 0.53125,0.85938 1.48437,0.85938 0.76563,0 1.29688,-0.64063 0.53125,-0.65625 0.53125,-1.9375 0,-1.42187 -0.51563,-2.04687 -0.51562,-0.64063 -1.32812,-0.64063 -0.78125,0 -1.3125,0.625 -0.51563,0.625 -0.51563,1.85938 z m 9.66407,-1.4375 -2,-0.35938 q 0.34375,-1.20312 1.15625,-1.78125 0.82812,-0.57812 2.4375,-0.57812 1.46875,0 2.1875,0.34375 0.71875,0.34375 1.01562,0.89062 0.29688,0.53125 0.29688,1.95313 l -0.0312,2.5625 q 0,1.09375 0.10937,1.625 0.10938,0.51562 0.39063,1.10937 h -2.17188 q -0.0781,-0.21875 -0.20312,-0.65625 -0.0625,-0.1875 -0.0781,-0.25 -0.5625,0.54688 -1.20312,0.82813 -0.64063,0.26562 -1.375,0.26562 -1.28125,0 -2.01563,-0.6875 -0.73437,-0.70312 -0.73437,-1.76562 0,-0.70313 0.32812,-1.25 0.34375,-0.5625 0.9375,-0.84375 0.60938,-0.29688 1.75,-0.51563 1.54688,-0.29687 2.14063,-0.54687 v -0.21875 q 0,-0.625 -0.3125,-0.89063 -0.3125,-0.28125 -1.1875,-0.28125 -0.57813,0 -0.90625,0.23438 -0.32813,0.23437 -0.53125,0.8125 z m 2.9375,1.78125 q -0.42188,0.14062 -1.34375,0.34375 -0.90625,0.1875 -1.1875,0.375 -0.4375,0.29687 -0.4375,0.76562 0,0.46875 0.34375,0.8125 0.34375,0.32813 0.875,0.32813 0.59375,0 1.14062,-0.39063 0.39063,-0.29687 0.51563,-0.73437 0.0937,-0.28125 0.0937,-1.0625 z m 8.11718,-4.3125 v 1.75 h -1.5 v 3.34375 q 0,1.01562 0.0469,1.1875 0.0469,0.15625 0.1875,0.26562 0.15625,0.10938 0.375,0.10938 0.3125,0 0.89062,-0.20313 l 0.1875,1.70313 q -0.76562,0.32812 -1.73437,0.32812 -0.59375,0 -1.07813,-0.20312 -0.46875,-0.20313 -0.70312,-0.51563 -0.21875,-0.3125 -0.29688,-0.85937 -0.0781,-0.375 -0.0781,-1.54688 v -3.60937 h -1 v -1.75 h 1 v -1.65625 l 2.20312,-1.28125 v 2.9375 z m 6.32813,5.65625 2.1875,0.35937 q -0.42188,1.20313 -1.32813,1.84375 -0.90625,0.625 -2.28125,0.625 -2.15625,0 -3.20312,-1.42187 -0.8125,-1.125 -0.8125,-2.85938 0,-2.0625 1.07812,-3.21875 1.07813,-1.17187 2.71875,-1.17187 1.85938,0 2.92188,1.21875 1.07812,1.21875 1.03125,3.75 h -5.5 q 0.0156,0.96875 0.51562,1.51562 0.51563,0.54688 1.28125,0.54688 0.51563,0 0.85938,-0.28125 0.35937,-0.28125 0.53125,-0.90625 z m 0.125,-2.21875 q -0.0156,-0.95313 -0.48438,-1.45313 -0.46875,-0.5 -1.14062,-0.5 -0.71875,0 -1.1875,0.53125 -0.46875,0.51563 -0.46875,1.42188 z"
       id="path29" />
    <path
       inkscape:connector-curvature="0"
       style="fill:#000000;fill-opacity:0;fill-rule:evenodd"
       d="m 782.92427,552.16705 h 76.40942 v 41.25983 h -76.40942 z"
       id="path31" />
    <path
       inkscape:connector-curvature="0"
       style="fill:#000000;fill-rule:nonzero"
       d="m 793.08051,565.07395 h 2.3125 v 6.20312 q 0,1.46875 0.0781,1.90625 0.15625,0.70313 0.70313,1.14063 0.5625,0.42187 1.53125,0.42187 0.98437,0 1.48437,-0.40625 0.5,-0.40625 0.59375,-0.98437 0.10938,-0.59375 0.10938,-1.95313 v -6.32812 h 2.3125 v 6.01562 q 0,2.0625 -0.1875,2.92188 -0.1875,0.84375 -0.6875,1.4375 -0.5,0.57812 -1.34375,0.9375 -0.84375,0.34375 -2.20313,0.34375 -1.64062,0 -2.5,-0.375 -0.84375,-0.39063 -1.34375,-1 -0.48437,-0.60938 -0.64062,-1.26563 -0.21875,-0.98437 -0.21875,-2.90625 z m 11.49219,3.15625 h 2.04687 v 1.21875 q 0.39063,-0.625 1.0625,-1.01563 0.6875,-0.39062 1.51563,-0.39062 1.45312,0 2.45312,1.14062 1.01563,1.125 1.01563,3.14063 0,2.07812 -1.01563,3.23437 -1.01562,1.15625 -2.46875,1.15625 -0.6875,0 -1.25,-0.26562 -0.54687,-0.28125 -1.17187,-0.95313 v 4.1875 h -2.1875 z m 2.17187,4 q 0,1.40625 0.54688,2.07812 0.5625,0.65625 1.35937,0.65625 0.76563,0 1.26563,-0.60937 0.51562,-0.60938 0.51562,-2.01563 0,-1.29687 -0.53125,-1.92187 -0.51562,-0.64063 -1.29687,-0.64063 -0.79688,0 -1.32813,0.625 -0.53125,0.60938 -0.53125,1.82813 z m 15.27344,4.29687 h -2.04688 v -1.21875 q -0.5,0.70313 -1.20312,1.0625 -0.6875,0.34375 -1.39063,0.34375 -1.42187,0 -2.45312,-1.15625 -1.01563,-1.15625 -1.01563,-3.21875 0,-2.10937 0.98438,-3.20312 1,-1.09375 2.51562,-1.09375 1.39063,0 2.40625,1.15625 v -4.125 h 2.20313 z m -5.85938,-4.32812 q 0,1.32812 0.35938,1.92187 0.53125,0.85938 1.48437,0.85938 0.76563,0 1.29688,-0.64063 0.53125,-0.65625 0.53125,-1.9375 0,-1.42187 -0.51563,-2.04687 -0.51562,-0.64063 -1.32812,-0.64063 -0.78125,0 -1.3125,0.625 -0.51563,0.625 -0.51563,1.85938 z m 9.66407,-1.4375 -2,-0.35938 q 0.34375,-1.20312 1.15625,-1.78125 0.82812,-0.57812 2.4375,-0.57812 1.46875,0 2.1875,0.34375 0.71875,0.34375 1.01562,0.89062 0.29688,0.53125 0.29688,1.95313 l -0.0312,2.5625 q 0,1.09375 0.10937,1.625 0.10938,0.51562 0.39063,1.10937 h -2.17188 q -0.0781,-0.21875 -0.20312,-0.65625 -0.0625,-0.1875 -0.0781,-0.25 -0.5625,0.54688 -1.20312,0.82813 -0.64063,0.26562 -1.375,0.26562 -1.28125,0 -2.01563,-0.6875 -0.73437,-0.70312 -0.73437,-1.76562 0,-0.70313 0.32812,-1.25 0.34375,-0.5625 0.9375,-0.84375 0.60938,-0.29688 1.75,-0.51563 1.54688,-0.29687 2.14063,-0.54687 v -0.21875 q 0,-0.625 -0.3125,-0.89063 -0.3125,-0.28125 -1.1875,-0.28125 -0.57813,0 -0.90625,0.23438 -0.32813,0.23437 -0.53125,0.8125 z m 2.9375,1.78125 q -0.42188,0.14062 -1.34375,0.34375 -0.90625,0.1875 -1.1875,0.375 -0.4375,0.29687 -0.4375,0.76562 0,0.46875 0.34375,0.8125 0.34375,0.32813 0.875,0.32813 0.59375,0 1.14062,-0.39063 0.39063,-0.29687 0.51563,-0.73437 0.0937,-0.28125 0.0937,-1.0625 z m 8.11718,-4.3125 v 1.75 h -1.5 v 3.34375 q 0,1.01562 0.0469,1.1875 0.0469,0.15625 0.1875,0.26562 0.15625,0.10938 0.375,0.10938 0.3125,0 0.89062,-0.20313 l 0.1875,1.70313 q -0.76562,0.32812 -1.73437,0.32812 -0.59375,0 -1.07813,-0.20312 -0.46875,-0.20313 -0.70312,-0.51563 -0.21875,-0.3125 -0.29688,-0.85937 -0.0781,-0.375 -0.0781,-1.54688 v -3.60937 h -1 v -1.75 h 1 v -1.65625 l 2.20312,-1.28125 v 2.9375 z m 6.32813,5.65625 2.1875,0.35937 q -0.42188,1.20313 -1.32813,1.84375 -0.90625,0.625 -2.28125,0.625 -2.15625,0 -3.20312,-1.42187 -0.8125,-1.125 -0.8125,-2.85938 0,-2.0625 1.07812,-3.21875 1.07813,-1.17187 2.71875,-1.17187 1.85938,0 2.92188,1.21875 1.07812,1.21875 1.03125,3.75 h -5.5 q 0.0156,0.96875 0.51562,1.51562 0.51563,0.54688 1.28125,0.54688 0.51563,0 0.85938,-0.28125 0.35937,-0.28125 0.53125,-0.90625 z m 0.125,-2.21875 q -0.0156,-0.95313 -0.48438,-1.45313 -0.46875,-0.5 -1.14062,-0.5 -0.71875,0 -1.1875,0.53125 -0.46875,0.51563 -0.46875,1.42188 z"
       id="path33" />
    <path
       inkscape:connector-curvature="0"
       style="fill:#ff00ff;fill-rule:evenodd"
       d="m 220.74164,358.30205 102.23247,-74.11926 102.23248,74.11926 -39.04935,119.92749 H 259.79097 Z"
       id="path35" />
    <path
       inkscape:connector-curvature="0"
       style="fill-rule:evenodd;stroke:#000000;stroke-width:2;stroke-linecap:butt;stroke-linejoin:round"
       d="m 220.74164,358.30205 102.23247,-74.11926 102.23248,74.11926 -39.04935,119.92749 H 259.79097 Z"
       id="path37" />
    <path
       inkscape:connector-curvature="0"
       style="fill:#000000;fill-opacity:0;fill-rule:evenodd"
       d="M 234.14961,364.566 H 411.7986 v 40 H 234.14961 Z"
       id="path39" />
    <path
       inkscape:connector-curvature="0"
       style="fill:#000000;fill-rule:nonzero"
       d="m 259.53018,384.76725 q 0,-2.07813 0.625,-3.48438 0.45312,-1.04687 1.25,-1.85937 0.8125,-0.82813 1.76562,-1.23438 1.28125,-0.53125 2.9375,-0.53125 3,0 4.79688,1.85938 1.8125,1.85937 1.8125,5.1875 0,3.29687 -1.79688,5.15625 -1.78125,1.85937 -4.78125,1.85937 -3.03125,0 -4.82812,-1.84375 -1.78125,-1.85937 -1.78125,-5.10937 z m 2.82812,-0.0937 q 0,2.3125 1.0625,3.51562 1.07813,1.1875 2.71875,1.1875 1.64063,0 2.6875,-1.1875 1.04688,-1.1875 1.04688,-3.54687 0,-2.34375 -1.03125,-3.48438 -1.01563,-1.15625 -2.70313,-1.15625 -1.70312,0 -2.75,1.17188 -1.03125,1.15625 -1.03125,3.5 z m 12.15206,-3.04688 h 2.42187 v 1.45313 q 0.46875,-0.73438 1.28125,-1.20313 0.8125,-0.46875 1.79688,-0.46875 1.70312,0 2.90625,1.34375 1.20312,1.34375 1.20312,3.75 0,2.46875 -1.21875,3.84375 -1.20312,1.35938 -2.92187,1.35938 -0.8125,0 -1.48438,-0.3125 -0.65625,-0.32813 -1.39062,-1.125 v 4.96875 h -2.59375 z m 2.57812,4.76563 q 0,1.65625 0.65625,2.45312 0.65625,0.79688 1.59375,0.79688 0.92188,0 1.51563,-0.71875 0.60937,-0.73438 0.60937,-2.40625 0,-1.54688 -0.625,-2.29688 -0.625,-0.75 -1.53125,-0.75 -0.96875,0 -1.59375,0.73438 -0.625,0.73437 -0.625,2.1875 z m 13.39598,-4.76563 v 2.07813 h -1.78125 v 3.98437 q 0,1.20313 0.0469,1.40625 0.0625,0.1875 0.23437,0.32813 0.1875,0.125 0.45313,0.125 0.35937,0 1.04687,-0.25 l 0.21875,2.01562 q -0.90625,0.39063 -2.0625,0.39063 -0.70312,0 -1.26562,-0.23438 -0.5625,-0.23437 -0.82813,-0.60937 -0.26562,-0.375 -0.375,-1.01563 -0.0781,-0.45312 -0.0781,-1.84375 v -4.29692 h -1.20313 v -2.07813 h 1.20313 v -1.95312 l 2.60937,-1.51563 v 3.46875 z m 1.69706,-1.32812 v -2.40625 h 2.60937 v 2.40625 z m 0,11.1875 v -9.85938 h 2.60937 v 9.85938 z m 4.58955,-5.0625 q 0,-1.29688 0.64063,-2.51563 0.64062,-1.21875 1.8125,-1.85937 1.17187,-0.64063 2.60937,-0.64063 2.25,0 3.67188,1.45313 1.42187,1.45312 1.42187,3.67187 0,2.23438 -1.4375,3.70313 -1.4375,1.46875 -3.625,1.46875 -1.35937,0 -2.59375,-0.60938 -1.21875,-0.60937 -1.85937,-1.79687 -0.64063,-1.1875 -0.64063,-2.875 z m 2.67188,0.14062 q 0,1.46875 0.6875,2.25 0.70312,0.76563 1.71875,0.76563 1.01562,0 1.70312,-0.76563 0.70313,-0.78125 0.70313,-2.26562 0,-1.45313 -0.70313,-2.23438 -0.6875,-0.78125 -1.70312,-0.78125 -1.01563,0 -1.71875,0.78125 -0.6875,0.78125 -0.6875,2.25 z m 18.28659,4.92188 h -2.60938 v -5.0313 q 0,-1.59375 -0.17187,-2.0625 -0.15625,-0.46875 -0.53125,-0.71875 -0.375,-0.26563 -0.90625,-0.26563 -0.6875,0 -1.23438,0.375 -0.53125,0.35938 -0.73437,0.98438 -0.1875,0.60937 -0.1875,2.25 v 4.46875 h -2.60938 v -9.85938 h 2.42188 v 1.45313 q 1.29687,-1.67188 3.25,-1.67188 0.85937,0 1.57812,0.3125 0.71875,0.3125 1.07813,0.79688 0.35937,0.48437 0.5,1.09375 0.15625,0.60937 0.15625,1.75 z m 4.38037,-6.84375 -2.35938,-0.4375 q 0.39063,-1.42188 1.35938,-2.10938 0.98437,-0.6875 2.90625,-0.6875 1.73437,0 2.59375,0.42188 0.85937,0.40625 1.20312,1.04687 0.34375,0.625 0.34375,2.32813 l -0.0312,3.04687 q 0,1.29688 0.125,1.92188 0.125,0.60937 0.46875,1.3125 h -2.57812 q -0.0937,-0.26563 -0.25,-0.76563 -0.0625,-0.23437 -0.0937,-0.3125 -0.65625,0.65625 -1.42188,0.98438 -0.76562,0.3125 -1.625,0.3125 -1.51562,0 -2.40625,-0.8125 -0.875,-0.82813 -0.875,-2.09375 0,-0.84375 0.39063,-1.48438 0.40625,-0.65625 1.125,-1 0.71875,-0.35937 2.07812,-0.625 1.82813,-0.32812 2.53125,-0.625 v -0.26562 q 0,-0.75 -0.375,-1.0625 -0.35937,-0.32813 -1.39062,-0.32813 -0.70313,0 -1.09375,0.28125 -0.39063,0.26563 -0.625,0.95313 z m 3.48437,2.10937 q -0.5,0.17188 -1.59375,0.40625 -1.07812,0.23438 -1.40625,0.45313 -0.51562,0.35937 -0.51562,0.92187 0,0.54688 0.40625,0.95313 0.40625,0.39062 1.04687,0.39062 0.70313,0 1.34375,-0.46875 0.46875,-0.35937 0.625,-0.85937 0.0937,-0.34375 0.0937,-1.28125 z m 4.9382,4.73438 v -13.5938 h 2.60938 V 391.486 Z m 19.41349,0 h -2.42188 v -1.45313 q -0.60937,0.84375 -1.4375,1.26563 -0.8125,0.40625 -1.64062,0.40625 -1.70313,0 -2.92188,-1.35938 -1.20312,-1.375 -1.20312,-3.82812 0,-2.5 1.17187,-3.79688 1.1875,-1.3125 2.98438,-1.3125 1.65625,0 2.85937,1.375 v -4.89062 h 2.60938 z m -6.96875,-5.14063 q 0,1.57813 0.4375,2.28125 0.64062,1.01563 1.76562,1.01563 0.90625,0 1.53125,-0.76563 0.625,-0.76562 0.625,-2.28125 0,-1.70312 -0.60937,-2.4375 -0.60938,-0.75 -1.5625,-0.75 -0.9375,0 -1.5625,0.73438 -0.625,0.73437 -0.625,2.20312 z m 15.02099,2 2.60938,0.4375 q -0.5,1.4375 -1.59375,2.1875 -1.07813,0.73438 -2.70313,0.73438 -2.5625,0 -3.79687,-1.67188 -0.96875,-1.34375 -0.96875,-3.40625 0,-2.4375 1.26562,-3.82812 1.28125,-1.39063 3.25,-1.39063 2.1875,0 3.45313,1.45313 1.28125,1.45312 1.23437,4.45312 h -6.53125 q 0.0156,1.15625 0.625,1.8125 0.60938,0.64063 1.5,0.64063 0.60938,0 1.03125,-0.32813 0.42188,-0.34375 0.625,-1.09375 z m 0.15625,-2.625 q -0.0312,-1.14062 -0.59375,-1.71875 -0.54687,-0.59375 -1.34375,-0.59375 -0.85937,0 -1.40625,0.625 -0.5625,0.60938 -0.54687,1.6875 z m 4.51633,5.76563 v -13.5938 h 2.60937 V 391.486 Z m 7.13644,-6.84375 -2.35937,-0.4375 q 0.39062,-1.42188 1.35937,-2.10938 0.98438,-0.6875 2.90625,-0.6875 1.73438,0 2.59375,0.42188 0.85938,0.40625 1.20313,1.04687 0.34375,0.625 0.34375,2.32813 l -0.0312,3.04687 q 0,1.29688 0.125,1.92188 0.125,0.60937 0.46875,1.3125 h -2.57813 q -0.0937,-0.26563 -0.25,-0.76563 -0.0625,-0.23437 -0.0937,-0.3125 -0.65625,0.65625 -1.42187,0.98438 -0.76563,0.3125 -1.625,0.3125 -1.51563,0 -2.40625,-0.8125 -0.875,-0.82813 -0.875,-2.09375 0,-0.84375 0.39062,-1.48438 0.40625,-0.65625 1.125,-1 0.71875,-0.35937 2.07813,-0.625 1.82812,-0.32812 2.53125,-0.625 v -0.26562 q 0,-0.75 -0.375,-1.0625 -0.35938,-0.32813 -1.39063,-0.32813 -0.70312,0 -1.09375,0.28125 -0.39062,0.26563 -0.625,0.95313 z m 3.48438,2.10937 q -0.5,0.17188 -1.59375,0.40625 -1.07813,0.23438 -1.40625,0.45313 -0.51563,0.35937 -0.51563,0.92187 0,0.54688 0.40625,0.95313 0.40625,0.39062 1.04688,0.39062 0.70312,0 1.34375,-0.46875 0.46875,-0.35937 0.625,-0.85937 0.0937,-0.34375 0.0937,-1.28125 z m 3.70383,-5.125 h 2.78125 l 2.35937,7 2.29688,-7 h 2.70312 l -3.48437,9.48438 -0.625,1.71875 q -0.34375,0.85937 -0.65625,1.3125 -0.29688,0.46875 -0.70313,0.75 -0.40625,0.28125 -1,0.4375 -0.59375,0.15625 -1.32812,0.15625 -0.75,0 -1.46875,-0.15625 l -0.23438,-2.04688 q 0.60938,0.125 1.09375,0.125 0.92188,0 1.34375,-0.53125 0.4375,-0.53125 0.67188,-1.35937 z"
       id="path41" />
    <path
       inkscape:connector-curvature="0"
       style="fill:#000000;fill-opacity:0;fill-rule:evenodd"
       d="M 322.97414,480.26153 227.98201,583.03317"
       id="path43" />
    <path
       inkscape:connector-curvature="0"
       style="fill-rule:evenodd;stroke:#000000;stroke-width:2;stroke-linecap:butt;stroke-linejoin:round;stroke-dasharray:8, 6"
       d="m 322.97414,480.26153 -86.84692,93.95944"
       id="path45" />
    <path
       inkscape:connector-curvature="0"
       style="fill:#000000;fill-rule:evenodd;stroke:#000000;stroke-width:2;stroke-linecap:butt"
       d="m 233.7013,571.97865 -3.73471,8.90741 8.58653,-4.42285 z"
       id="path47" />
    <path
       inkscape:connector-curvature="0"
       style="fill:#000000;fill-rule:nonzero"
       d="m 48.125014,520.97588 v -11.45313 h 8.484375 v 1.9375 h -6.171875 v 2.53125 h 5.75 v 1.9375 h -5.75 v 3.10938 h 6.390625 v 1.9375 z m 9.59375,0 2.999999,-4.28125 -2.874999,-4.01563 h 2.687499 l 1.46875,2.28125 1.546875,-2.28125 h 2.578125 l -2.8125,3.92188 3.0625,4.375 h -2.6875 l -1.6875,-2.57813 -1.703125,2.57813 z m 14.757812,-2.64063 2.187502,0.35938 q -0.421875,1.20312 -1.328127,1.84375 -0.90625,0.625 -2.28125,0.625 -2.15625,0 -3.203125,-1.42188 -0.8125,-1.125 -0.8125,-2.85937 0,-2.0625 1.078125,-3.21875 1.078125,-1.17188 2.71875,-1.17188 1.859375,0 2.921875,1.21875 1.078127,1.21875 1.031252,3.75 h -5.500002 q 0.01563,0.96875 0.515625,1.51563 0.515625,0.54687 1.28125,0.54687 0.515625,0 0.859375,-0.28125 0.359375,-0.28125 0.53125,-0.90625 z m 0.125,-2.21875 q -0.01563,-0.95312 -0.484375,-1.45312 -0.46875,-0.5 -1.140625,-0.5 -0.71875,0 -1.1875,0.53125 -0.46875,0.51562 -0.46875,1.42187 z m 11.210938,-0.98437 -2.171875,0.39062 q -0.109375,-0.65625 -0.5,-0.98437 -0.375,-0.32813 -1,-0.32813 -0.8125,0 -1.312499,0.57813 -0.484375,0.5625 -0.484375,1.89062 0,1.46875 0.5,2.07813 0.499999,0.60937 1.328124,0.60937 0.625,0 1.015625,-0.34375 0.40625,-0.35937 0.578125,-1.23437 l 2.15625,0.375 q -0.34375,1.48437 -1.296875,2.25 -0.953125,0.75 -2.546875,0.75 -1.828124,0 -2.906249,-1.14063 -1.078125,-1.15625 -1.078125,-3.1875 0,-2.0625 1.078125,-3.20312 1.09375,-1.14063 2.937499,-1.14063 1.515625,0 2.40625,0.65625 0.90625,0.64063 1.296875,1.98438 z m 7.117187,5.84375 v -1.25 q -0.453125,0.67187 -1.1875,1.0625 -0.734375,0.375 -1.5625,0.375 -0.828125,0 -1.5,-0.35938 -0.65625,-0.375 -0.953125,-1.03125 -0.296875,-0.67187 -0.296875,-1.84375 v -5.25 h 2.1875 v 3.8125 q 0,1.75 0.125,2.14063 0.125,0.39062 0.4375,0.625 0.328125,0.23437 0.8125,0.23437 0.5625,0 1,-0.3125 0.453125,-0.3125 0.609375,-0.76562 0.171875,-0.45313 0.171875,-2.23438 v -3.5 h 2.203125 v 8.29688 z m 8.117188,-8.29688 v 1.75 h -1.5 v 3.34375 q 0,1.01563 0.04687,1.1875 0.04687,0.15625 0.1875,0.26563 0.15625,0.10937 0.375,0.10937 0.3125,0 0.890625,-0.20312 l 0.187501,1.70312 q -0.765626,0.32813 -1.734376,0.32813 -0.59375,0 -1.078125,-0.20313 -0.46875,-0.20312 -0.703125,-0.51562 -0.21875,-0.3125 -0.296875,-0.85938 -0.07813,-0.375 -0.07813,-1.54687 V 514.429 h -1 v -1.75 h 1 v -1.65625 l 2.203125,-1.28125 v 2.9375 z m 6.328121,5.65625 2.1875,0.35938 q -0.42187,1.20312 -1.32812,1.84375 -0.90625,0.625 -2.28125,0.625 -2.15625,0 -3.20313,-1.42188 -0.812495,-1.125 -0.812495,-2.85937 0,-2.0625 1.078125,-3.21875 1.07812,-1.17188 2.71875,-1.17188 1.85937,0 2.92187,1.21875 1.07813,1.21875 1.03125,3.75 h -5.5 q 0.0156,0.96875 0.51563,1.51563 0.51562,0.54687 1.28125,0.54687 0.51562,0 0.85937,-0.28125 0.35938,-0.28125 0.53125,-0.90625 z m 0.125,-2.21875 q -0.0156,-0.95312 -0.48437,-1.45312 -0.46875,-0.5 -1.14063,-0.5 -0.71875,0 -1.1875,0.53125 -0.46875,0.51562 -0.46875,1.42187 z m 10.0625,-0.90625 -2,-0.35937 q 0.34375,-1.20313 1.15625,-1.78125 0.82813,-0.57813 2.4375,-0.57813 1.46875,0 2.1875,0.34375 0.71875,0.34375 1.01563,0.89063 0.29687,0.53125 0.29687,1.95312 l -0.0312,2.5625 q 0,1.09375 0.10938,1.625 0.10937,0.51563 0.39062,1.10938 h -2.17187 q -0.0781,-0.21875 -0.20313,-0.65625 -0.0625,-0.1875 -0.0781,-0.25 -0.5625,0.54687 -1.20312,0.82812 -0.64063,0.26563 -1.375,0.26563 -1.28125,0 -2.01563,-0.6875 -0.73437,-0.70313 -0.73437,-1.76563 0,-0.70312 0.32812,-1.25 0.34375,-0.5625 0.9375,-0.84375 0.60938,-0.29687 1.75,-0.51562 1.54688,-0.29688 2.14063,-0.54688 v -0.21875 q 0,-0.625 -0.3125,-0.89062 -0.3125,-0.28125 -1.1875,-0.28125 -0.57813,0 -0.90625,0.23437 -0.32813,0.23438 -0.53125,0.8125 z m 2.9375,1.78125 q -0.42187,0.14063 -1.34375,0.34375 -0.90625,0.1875 -1.1875,0.375 -0.4375,0.29688 -0.4375,0.76563 0,0.46875 0.34375,0.8125 0.34375,0.32812 0.875,0.32812 0.59375,0 1.14063,-0.39062 0.39062,-0.29688 0.51562,-0.73438 0.0937,-0.28125 0.0937,-1.0625 z m 4.32032,3.98438 v -11.45313 h 2.1875 v 11.45313 z m 4.44531,0 v -11.45313 h 2.1875 v 11.45313 z m 12.6875,-8.29688 v 1.75 h -1.5 v 3.34375 q 0,1.01563 0.0469,1.1875 0.0469,0.15625 0.1875,0.26563 0.15625,0.10937 0.375,0.10937 0.3125,0 0.89062,-0.20312 l 0.1875,1.70312 q -0.76562,0.32813 -1.73437,0.32813 -0.59375,0 -1.07813,-0.20313 -0.46875,-0.20312 -0.70312,-0.51562 -0.21875,-0.3125 -0.29688,-0.85938 -0.0781,-0.375 -0.0781,-1.54687 V 514.429 h -1 v -1.75 h 1 v -1.65625 l 2.20313,-1.28125 v 2.9375 z m 3.71875,-3.15625 v 4.20313 q 1.0625,-1.23438 2.53125,-1.23438 0.76562,0 1.375,0.28125 0.60937,0.28125 0.90625,0.71875 0.3125,0.4375 0.42187,0.96875 0.125,0.53125 0.125,1.64063 v 4.875 h -2.20312 v -4.39063 q 0,-1.29687 -0.125,-1.64062 -0.125,-0.35938 -0.4375,-0.5625 -0.3125,-0.21875 -0.79688,-0.21875 -0.54687,0 -0.98437,0.26562 -0.42188,0.26563 -0.625,0.8125 -0.1875,0.53125 -0.1875,1.57813 v 4.15625 h -2.20313 v -11.45313 z m 12.38281,8.8125 2.1875,0.35938 q -0.42188,1.20312 -1.32813,1.84375 -0.90625,0.625 -2.28125,0.625 -2.15625,0 -3.20312,-1.42188 -0.8125,-1.125 -0.8125,-2.85937 0,-2.0625 1.07812,-3.21875 1.07813,-1.17188 2.71875,-1.17188 1.85938,0 2.92188,1.21875 1.07812,1.21875 1.03125,3.75 h -5.5 q 0.0156,0.96875 0.51562,1.51563 0.51563,0.54687 1.28125,0.54687 0.51563,0 0.85938,-0.28125 0.35937,-0.28125 0.53125,-0.90625 z m 0.125,-2.21875 q -0.0156,-0.95312 -0.48438,-1.45312 -0.46875,-0.5 -1.14062,-0.5 -0.71875,0 -1.1875,0.53125 -0.46875,0.51562 -0.46875,1.42187 z"
       id="path51" />
    <path
       inkscape:connector-curvature="0"
       style="fill:#000000;fill-rule:nonzero"
       d="m 48.046889,537.67901 h 2.046875 v 1.21875 q 0.390625,-0.625 1.0625,-1.01562 0.6875,-0.39063 1.515625,-0.39063 1.453125,0 2.453125,1.14063 1.015625,1.125 1.015625,3.14062 0,2.07813 -1.015625,3.23438 -1.015625,1.15625 -2.46875,1.15625 -0.6875,0 -1.25,-0.26563 -0.546875,-0.28125 -1.171875,-0.95312 v 4.1875 h -2.1875 z m 2.171875,4 q 0,1.40625 0.546875,2.07813 0.5625,0.65625 1.359375,0.65625 0.765625,0 1.265625,-0.60938 0.515625,-0.60937 0.515625,-2.01562 0,-1.29688 -0.53125,-1.92188 -0.515625,-0.64062 -1.296875,-0.64062 -0.796875,0 -1.328125,0.625 -0.53125,0.60937 -0.53125,1.82812 z m 9.304687,-1.46875 -1.999999,-0.35937 q 0.34375,-1.20313 1.156249,-1.78125 0.828125,-0.57813 2.4375,-0.57813 1.46875,0 2.1875,0.34375 0.71875,0.34375 1.015625,0.89063 0.296875,0.53125 0.296875,1.95312 l -0.03125,2.5625 q 0,1.09375 0.109375,1.625 0.109375,0.51563 0.390625,1.10938 h -2.171875 q -0.07813,-0.21875 -0.203125,-0.65625 -0.0625,-0.1875 -0.07813,-0.25 -0.5625,0.54687 -1.203125,0.82812 -0.640625,0.26563 -1.375,0.26563 -1.28125,0 -2.015625,-0.6875 -0.734374,-0.70313 -0.734374,-1.76563 0,-0.70312 0.328125,-1.25 0.34375,-0.5625 0.937499,-0.84375 0.609375,-0.29687 1.75,-0.51562 1.546875,-0.29688 2.140625,-0.54688 v -0.21875 q 0,-0.625 -0.3125,-0.89062 -0.3125,-0.28125 -1.1875,-0.28125 -0.578125,0 -0.90625,0.23437 -0.328125,0.23438 -0.53125,0.8125 z m 2.9375,1.78125 q -0.421875,0.14063 -1.34375,0.34375 -0.90625,0.1875 -1.1875,0.375 -0.4375,0.29688 -0.4375,0.76563 0,0.46875 0.34375,0.8125 0.34375,0.32812 0.875,0.32812 0.59375,0 1.140625,-0.39062 0.390625,-0.29688 0.515625,-0.73438 0.09375,-0.28125 0.09375,-1.0625 z m 8.117187,-4.3125 v 1.75 h -1.5 v 3.34375 q 0,1.01563 0.04687,1.1875 0.04687,0.15625 0.1875,0.26563 0.15625,0.10937 0.375,0.10937 0.3125,0 0.890625,-0.20312 l 0.1875,1.70312 q -0.765625,0.32813 -1.734375,0.32813 -0.59375,0 -1.078125,-0.20313 -0.46875,-0.20312 -0.703125,-0.51562 -0.21875,-0.3125 -0.296875,-0.85938 -0.07813,-0.375 -0.07813,-1.54687 v -3.60938 h -1 v -1.75 h 1 v -1.65625 l 2.203125,-1.28125 v 2.9375 z m 3.718752,-3.15625 v 4.20313 q 1.0625,-1.23438 2.53125,-1.23438 0.765625,0 1.375,0.28125 0.609375,0.28125 0.90625,0.71875 0.312499,0.4375 0.421874,0.96875 0.125,0.53125 0.125,1.64063 v 4.875 H 77.45314 v -4.39063 q 0,-1.29687 -0.125,-1.64062 -0.125,-0.35938 -0.4375,-0.5625 -0.3125,-0.21875 -0.796875,-0.21875 -0.546875,0 -0.984375,0.26562 -0.421875,0.26563 -0.625,0.8125 -0.1875,0.53125 -0.1875,1.57813 v 4.15625 h -2.203127 v -11.45313 z m 6.804687,9.07813 2.203125,-0.32813 q 0.140625,0.64063 0.5625,0.96875 0.4375,0.32813 1.21875,0.32813 0.84375,0 1.28125,-0.3125 0.28125,-0.21875 0.28125,-0.57813 0,-0.25 -0.15625,-0.42187 -0.15625,-0.15625 -0.734375,-0.28125 -2.65625,-0.59375 -3.359375,-1.07813 -0.984375,-0.67187 -0.984375,-1.85937 0,-1.07813 0.84375,-1.8125 0.859375,-0.73438 2.640625,-0.73438 1.703125,0 2.53125,0.5625 0.828125,0.54688 1.140625,1.625 l -2.0625,0.39063 q -0.140625,-0.48438 -0.515625,-0.73438 -0.359375,-0.26562 -1.046875,-0.26562 -0.875,0 -1.25,0.23437 -0.25,0.17188 -0.25,0.45313 0,0.23437 0.21875,0.39062 0.296875,0.21875 2.046875,0.625 1.765625,0.39063 2.453125,0.96875 0.6875,0.59375 0.6875,1.64063 0,1.14062 -0.953125,1.96875 -0.953125,0.8125 -2.8125,0.8125 -1.703125,0 -2.6875,-0.6875 -0.984375,-0.6875 -1.296875,-1.875 z m 21.359373,-3.46875 -2.17187,0.39062 q -0.10938,-0.65625 -0.500002,-0.98437 -0.375,-0.32813 -1.000001,-0.32813 -0.8125,0 -1.3125,0.57813 -0.484375,0.5625 -0.484375,1.89062 0,1.46875 0.5,2.07813 0.5,0.60937 1.328125,0.60937 0.625001,0 1.015626,-0.34375 0.406247,-0.35937 0.578127,-1.23437 l 2.15625,0.375 q -0.34375,1.48437 -1.29688,2.25 -0.95312,0.75 -2.546873,0.75 -1.828125,0 -2.90625,-1.14063 -1.078125,-1.15625 -1.078125,-3.1875 0,-2.0625 1.078125,-3.20312 1.09375,-1.14063 2.9375,-1.14063 1.515623,0 2.406253,0.65625 0.90625,0.64063 1.29687,1.98438 z m 1.14844,1.57812 q 0,-1.09375 0.53125,-2.10937 0.54687,-1.03125 1.53125,-1.5625 1,-0.54688 2.21875,-0.54688 1.875,0 3.07812,1.21875 1.20313,1.21875 1.20313,3.09375 0,1.875 -1.21875,3.125 -1.20313,1.23438 -3.04688,1.23438 -1.14062,0 -2.1875,-0.51563 -1.03125,-0.51562 -1.57812,-1.51562 -0.53125,-1 -0.53125,-2.42188 z m 2.25,0.10938 q 0,1.23437 0.57812,1.89062 0.59375,0.65625 1.45313,0.65625 0.85937,0 1.4375,-0.65625 0.59375,-0.65625 0.59375,-1.90625 0,-1.21875 -0.59375,-1.875 -0.57813,-0.65625 -1.4375,-0.65625 -0.85938,0 -1.45313,0.65625 -0.57812,0.65625 -0.57812,1.89063 z m 15.58594,4.15625 h -2.20313 v -4.23438 q 0,-1.34375 -0.14062,-1.73437 -0.14063,-0.40625 -0.45313,-0.625 -0.3125,-0.21875 -0.76562,-0.21875 -0.5625,0 -1.01563,0.3125 -0.45312,0.3125 -0.625,0.82812 -0.17187,0.51563 -0.17187,1.90625 v 3.76563 h -2.1875 v -8.29688 h 2.03125 v 1.21875 q 1.09375,-1.40625 2.73437,-1.40625 0.73438,0 1.32813,0.26563 0.60937,0.25 0.90625,0.65625 0.3125,0.40625 0.4375,0.92187 0.125,0.51563 0.125,1.48438 z m 9.46093,-5.84375 -2.17187,0.39062 q -0.10938,-0.65625 -0.5,-0.98437 -0.375,-0.32813 -1,-0.32813 -0.8125,0 -1.3125,0.57813 -0.48438,0.5625 -0.48438,1.89062 0,1.46875 0.5,2.07813 0.5,0.60937 1.32813,0.60937 0.625,0 1.01562,-0.34375 0.40625,-0.35937 0.57813,-1.23437 l 2.15625,0.375 q -0.34375,1.48437 -1.29688,2.25 -0.95312,0.75 -2.54687,0.75 -1.82813,0 -2.90625,-1.14063 -1.07813,-1.15625 -1.07813,-3.1875 0,-2.0625 1.07813,-3.20312 1.09375,-1.14063 2.9375,-1.14063 1.51562,0 2.40625,0.65625 0.90625,0.64063 1.29687,1.98438 z m 7.11719,5.84375 v -1.25 q -0.45312,0.67187 -1.1875,1.0625 -0.73437,0.375 -1.5625,0.375 -0.82812,0 -1.5,-0.35938 -0.65625,-0.375 -0.95312,-1.03125 -0.29688,-0.67187 -0.29688,-1.84375 v -5.25 h 2.1875 v 3.8125 q 0,1.75 0.125,2.14063 0.125,0.39062 0.4375,0.625 0.32813,0.23437 0.8125,0.23437 0.5625,0 1,-0.3125 0.45313,-0.3125 0.60938,-0.76562 0.17187,-0.45313 0.17187,-2.23438 v -3.5 h 2.20313 v 8.29688 z m 6.41406,0 h -2.1875 v -8.29688 h 2.03125 v 1.17188 q 0.53125,-0.82813 0.9375,-1.09375 0.42188,-0.26563 0.95313,-0.26563 0.75,0 1.45312,0.40625 l -0.6875,1.92188 q -0.54687,-0.35938 -1.03125,-0.35938 -0.45312,0 -0.78125,0.25 -0.3125,0.25 -0.5,0.92188 -0.1875,0.65625 -0.1875,2.78125 z m 6.22656,0 h -2.1875 v -8.29688 h 2.03125 v 1.17188 q 0.53125,-0.82813 0.9375,-1.09375 0.42188,-0.26563 0.95313,-0.26563 0.75,0 1.45312,0.40625 l -0.6875,1.92188 q -0.54687,-0.35938 -1.03125,-0.35938 -0.45312,0 -0.78125,0.25 -0.3125,0.25 -0.5,0.92188 -0.1875,0.65625 -0.1875,2.78125 z m 8.92969,-2.64063 2.1875,0.35938 q -0.42187,1.20312 -1.32812,1.84375 -0.90625,0.625 -2.28125,0.625 -2.15625,0 -3.20313,-1.42188 -0.8125,-1.125 -0.8125,-2.85937 0,-2.0625 1.07813,-3.21875 1.07812,-1.17188 2.71875,-1.17188 1.85937,0 2.92187,1.21875 1.07813,1.21875 1.03125,3.75 h -5.5 q 0.0156,0.96875 0.51563,1.51563 0.51562,0.54687 1.28125,0.54687 0.51562,0 0.85937,-0.28125 0.35938,-0.28125 0.53125,-0.90625 z m 0.125,-2.21875 q -0.0156,-0.95312 -0.48437,-1.45312 -0.46875,-0.5 -1.14063,-0.5 -0.71875,0 -1.1875,0.53125 -0.46875,0.51562 -0.46875,1.42187 z m 11.52344,4.85938 h -2.20312 v -4.23438 q 0,-1.34375 -0.14063,-1.73437 -0.14062,-0.40625 -0.45312,-0.625 -0.3125,-0.21875 -0.76563,-0.21875 -0.5625,0 -1.01562,0.3125 -0.45313,0.3125 -0.625,0.82812 -0.17188,0.51563 -0.17188,1.90625 v 3.76563 h -2.1875 v -8.29688 h 2.03125 v 1.21875 q 1.09375,-1.40625 2.73438,-1.40625 0.73437,0 1.32812,0.26563 0.60937,0.25 0.90625,0.65625 0.3125,0.40625 0.4375,0.92187 0.125,0.51563 0.125,1.48438 z m 6.02344,-8.29688 v 1.75 h -1.5 v 3.34375 q 0,1.01563 0.0469,1.1875 0.0469,0.15625 0.1875,0.26563 0.15625,0.10937 0.375,0.10937 0.3125,0 0.89063,-0.20312 l 0.1875,1.70312 q -0.76563,0.32813 -1.73438,0.32813 -0.59375,0 -1.07812,-0.20313 -0.46875,-0.20312 -0.70313,-0.51562 -0.21875,-0.3125 -0.29687,-0.85938 -0.0781,-0.375 -0.0781,-1.54687 v -3.60938 h -1 v -1.75 h 1 v -1.65625 l 2.20313,-1.28125 v 2.9375 z m 1.53125,8.29688 v -11.45313 h 2.1875 v 11.45313 z m 3.39843,-8.29688 h 2.34375 l 1.98438,5.89063 1.9375,-5.89063 h 2.26561 l -2.92186,7.98438 -0.53125,1.45312 q -0.28125,0.71875 -0.54688,1.09375 -0.26562,0.39063 -0.60937,0.625 -0.32813,0.25 -0.82813,0.375 -0.5,0.14063 -1.125,0.14063 -0.625,0 -1.23437,-0.14063 l -0.20313,-1.71875 q 0.51563,0.10938 0.9375,0.10938 0.76563,0 1.125,-0.45313 0.375,-0.45312 0.5625,-1.14062 z"
       id="path53" />
    <path
       inkscape:connector-curvature="0"
       style="fill:#000000;fill-opacity:0;fill-rule:evenodd"
       d="m 220.74101,582.9623 c -11.6181,0 -21.03644,-1.56964 -21.03644,-3.50592 v -47.94876 c 0,-1.93628 -9.41833,-3.50592 -21.03643,-3.50592 v 0 c 11.6181,0 21.03643,-1.56967 21.03643,-3.50595 v -47.94876 0 c 0,-1.93625 9.41834,-3.50592 21.03644,-3.50592 z"
       id="path55" />
    <path
       inkscape:connector-curvature="0"
       style="fill:#000000;fill-opacity:0;fill-rule:evenodd"
       d="m 220.74101,582.9623 c -11.6181,0 -21.03644,-1.56964 -21.03644,-3.50592 v -47.94876 c 0,-1.93628 -9.41833,-3.50592 -21.03643,-3.50592 v 0 c 11.6181,0 21.03643,-1.56967 21.03643,-3.50595 v -47.94876 0 c 0,-1.93625 9.41834,-3.50592 21.03644,-3.50592"
       id="path57" />
    <path
       inkscape:connector-curvature="0"
       style="fill-rule:evenodd;stroke:#000000;stroke-width:2;stroke-linecap:butt;stroke-linejoin:round"
       d="m 220.74101,582.9623 c -11.6181,0 -21.03644,-1.56964 -21.03644,-3.50592 v -47.94876 c 0,-1.93628 -9.41833,-3.50592 -21.03643,-3.50592 v 0 c 11.6181,0 21.03643,-1.56967 21.03643,-3.50595 v -47.94876 0 c 0,-1.93625 9.41834,-3.50592 21.03644,-3.50592"
       id="path59" />
    <path
       inkscape:connector-curvature="0"
       style="fill:#000000;fill-opacity:0;fill-rule:evenodd"
       d="m 322.97414,480.26153 99.55905,102.77164"
       id="path61" />
    <path
       inkscape:connector-curvature="0"
       style="fill-rule:evenodd;stroke:#000000;stroke-width:2;stroke-linecap:butt;stroke-linejoin:round;stroke-dasharray:8, 6"
       d="m 322.97414,480.26153 91.20956,94.15274"
       id="path63" />
    <path
       inkscape:connector-curvature="0"
       style="fill:#000000;fill-rule:evenodd;stroke:#000000;stroke-width:2;stroke-linecap:butt"
       d="m 411.81099,576.71279 8.68784,4.2204 -3.94245,-8.81745 z"
       id="path65" />
    <path
       inkscape:connector-curvature="0"
       style="fill:#000000;fill-opacity:0;fill-rule:evenodd"
       d="m 244.2576,552.16705 h 76.40944 v 41.25983 H 244.2576 Z"
       id="path67" />
    <path
       inkscape:connector-curvature="0"
       style="fill:#000000;fill-rule:nonzero"
       d="m 254.41385,565.07395 h 2.3125 v 6.20312 q 0,1.46875 0.0781,1.90625 0.15625,0.70313 0.70313,1.14063 0.5625,0.42187 1.53125,0.42187 0.98437,0 1.48437,-0.40625 0.5,-0.40625 0.59375,-0.98437 0.10938,-0.59375 0.10938,-1.95313 v -6.32812 h 2.3125 v 6.01562 q 0,2.0625 -0.1875,2.92188 -0.1875,0.84375 -0.6875,1.4375 -0.5,0.57812 -1.34375,0.9375 -0.84375,0.34375 -2.20313,0.34375 -1.64062,0 -2.5,-0.375 -0.84375,-0.39063 -1.34375,-1 -0.48437,-0.60938 -0.64062,-1.26563 -0.21875,-0.98437 -0.21875,-2.90625 z m 11.49219,3.15625 h 2.04687 v 1.21875 q 0.39063,-0.625 1.0625,-1.01563 0.6875,-0.39062 1.51563,-0.39062 1.45312,0 2.45312,1.14062 1.01563,1.125 1.01563,3.14063 0,2.07812 -1.01563,3.23437 -1.01562,1.15625 -2.46875,1.15625 -0.6875,0 -1.25,-0.26562 -0.54687,-0.28125 -1.17187,-0.95313 v 4.1875 h -2.1875 z m 2.17187,4 q 0,1.40625 0.54688,2.07812 0.5625,0.65625 1.35937,0.65625 0.76563,0 1.26563,-0.60937 0.51562,-0.60938 0.51562,-2.01563 0,-1.29687 -0.53125,-1.92187 -0.51562,-0.64063 -1.29687,-0.64063 -0.79688,0 -1.32813,0.625 -0.53125,0.60938 -0.53125,1.82813 z m 15.27344,4.29687 h -2.04688 v -1.21875 q -0.5,0.70313 -1.20312,1.0625 -0.6875,0.34375 -1.39063,0.34375 -1.42187,0 -2.45312,-1.15625 -1.01563,-1.15625 -1.01563,-3.21875 0,-2.10937 0.98438,-3.20312 1,-1.09375 2.51562,-1.09375 1.39063,0 2.40625,1.15625 v -4.125 h 2.20313 z m -5.85938,-4.32812 q 0,1.32812 0.35938,1.92187 0.53125,0.85938 1.48437,0.85938 0.76563,0 1.29688,-0.64063 0.53125,-0.65625 0.53125,-1.9375 0,-1.42187 -0.51563,-2.04687 -0.51562,-0.64063 -1.32812,-0.64063 -0.78125,0 -1.3125,0.625 -0.51563,0.625 -0.51563,1.85938 z m 9.66407,-1.4375 -2,-0.35938 q 0.34375,-1.20312 1.15625,-1.78125 0.82812,-0.57812 2.4375,-0.57812 1.46875,0 2.1875,0.34375 0.71875,0.34375 1.01562,0.89062 0.29688,0.53125 0.29688,1.95313 l -0.0312,2.5625 q 0,1.09375 0.10937,1.625 0.10938,0.51562 0.39063,1.10937 h -2.17188 q -0.0781,-0.21875 -0.20312,-0.65625 -0.0625,-0.1875 -0.0781,-0.25 -0.5625,0.54688 -1.20312,0.82813 -0.64063,0.26562 -1.375,0.26562 -1.28125,0 -2.01563,-0.6875 -0.73437,-0.70312 -0.73437,-1.76562 0,-0.70313 0.32812,-1.25 0.34375,-0.5625 0.9375,-0.84375 0.60938,-0.29688 1.75,-0.51563 1.54688,-0.29687 2.14063,-0.54687 v -0.21875 q 0,-0.625 -0.3125,-0.89063 -0.3125,-0.28125 -1.1875,-0.28125 -0.57813,0 -0.90625,0.23438 -0.32813,0.23437 -0.53125,0.8125 z m 2.9375,1.78125 q -0.42188,0.14062 -1.34375,0.34375 -0.90625,0.1875 -1.1875,0.375 -0.4375,0.29687 -0.4375,0.76562 0,0.46875 0.34375,0.8125 0.34375,0.32813 0.875,0.32813 0.59375,0 1.14062,-0.39063 0.39063,-0.29687 0.51563,-0.73437 0.0937,-0.28125 0.0937,-1.0625 z m 8.1172,-4.3125 v 1.75 h -1.50001 v 3.34375 q 0,1.01562 0.0469,1.1875 0.0469,0.15625 0.1875,0.26562 0.15625,0.10938 0.375,0.10938 0.3125,0 0.89064,-0.20313 l 0.1875,1.70313 q -0.76564,0.32812 -1.73439,0.32812 -0.59375,0 -1.07812,-0.20312 -0.46875,-0.20313 -0.70313,-0.51563 -0.21875,-0.3125 -0.29687,-0.85937 -0.0781,-0.375 -0.0781,-1.54688 v -3.60937 h -1 v -1.75 h 1 v -1.65625 l 2.20313,-1.28125 v 2.9375 z m 6.32813,5.65625 2.1875,0.35937 q -0.42188,1.20313 -1.32813,1.84375 -0.90625,0.625 -2.28125,0.625 -2.15625,0 -3.20312,-1.42187 -0.8125,-1.125 -0.8125,-2.85938 0,-2.0625 1.07812,-3.21875 1.07813,-1.17187 2.71875,-1.17187 1.85938,0 2.92188,1.21875 1.07812,1.21875 1.03125,3.75 h -5.5 q 0.0156,0.96875 0.51562,1.51562 0.51563,0.54688 1.28125,0.54688 0.51563,0 0.85938,-0.28125 0.35937,-0.28125 0.53125,-0.90625 z m 0.125,-2.21875 q -0.0156,-0.95313 -0.48438,-1.45313 -0.46875,-0.5 -1.14062,-0.5 -0.71875,0 -1.1875,0.53125 -0.46875,0.51563 -0.46875,1.42188 z"
       id="path69" />
    <path
       inkscape:connector-curvature="0"
       style="fill:#000000;fill-opacity:0;fill-rule:evenodd"
       d="m 334.92427,552.16705 h 76.40945 v 41.25983 h -76.40945 z"
       id="path71" />
    <path
       inkscape:connector-curvature="0"
       style="fill:#000000;fill-rule:nonzero"
       d="m 345.08051,565.07395 h 2.3125 v 6.20312 q 0,1.46875 0.0781,1.90625 0.15625,0.70313 0.70312,1.14063 0.5625,0.42187 1.53125,0.42187 0.98438,0 1.48438,-0.40625 0.5,-0.40625 0.59375,-0.98437 0.10937,-0.59375 0.10937,-1.95313 v -6.32812 h 2.3125 v 6.01562 q 0,2.0625 -0.1875,2.92188 -0.1875,0.84375 -0.6875,1.4375 -0.5,0.57812 -1.34375,0.9375 -0.84375,0.34375 -2.20312,0.34375 -1.64063,0 -2.5,-0.375 -0.84375,-0.39063 -1.34375,-1 -0.48438,-0.60938 -0.64063,-1.26563 -0.21875,-0.98437 -0.21875,-2.90625 z m 11.49219,3.15625 h 2.04687 v 1.21875 q 0.39063,-0.625 1.0625,-1.01563 0.6875,-0.39062 1.51563,-0.39062 1.45312,0 2.45312,1.14062 1.01563,1.125 1.01563,3.14063 0,2.07812 -1.01563,3.23437 -1.01562,1.15625 -2.46875,1.15625 -0.6875,0 -1.25,-0.26562 -0.54687,-0.28125 -1.17187,-0.95313 v 4.1875 h -2.1875 z m 2.17187,4 q 0,1.40625 0.54688,2.07812 0.5625,0.65625 1.35937,0.65625 0.76563,0 1.26563,-0.60937 0.51562,-0.60938 0.51562,-2.01563 0,-1.29687 -0.53125,-1.92187 -0.51562,-0.64063 -1.29687,-0.64063 -0.79688,0 -1.32813,0.625 -0.53125,0.60938 -0.53125,1.82813 z m 15.27344,4.29687 h -2.04687 v -1.21875 q -0.5,0.70313 -1.20313,1.0625 -0.6875,0.34375 -1.39062,0.34375 -1.42188,0 -2.45313,-1.15625 -1.01562,-1.15625 -1.01562,-3.21875 0,-2.10937 0.98437,-3.20312 1,-1.09375 2.51563,-1.09375 1.39062,0 2.40625,1.15625 v -4.125 h 2.20312 z m -5.85937,-4.32812 q 0,1.32812 0.35937,1.92187 0.53125,0.85938 1.48438,0.85938 0.76562,0 1.29687,-0.64063 0.53125,-0.65625 0.53125,-1.9375 0,-1.42187 -0.51562,-2.04687 -0.51563,-0.64063 -1.32813,-0.64063 -0.78125,0 -1.3125,0.625 -0.51562,0.625 -0.51562,1.85938 z m 9.66406,-1.4375 -2,-0.35938 q 0.34375,-1.20312 1.15625,-1.78125 0.82812,-0.57812 2.4375,-0.57812 1.46875,0 2.1875,0.34375 0.71875,0.34375 1.01562,0.89062 0.29688,0.53125 0.29688,1.95313 l -0.0312,2.5625 q 0,1.09375 0.10937,1.625 0.10938,0.51562 0.39063,1.10937 h -2.17188 q -0.0781,-0.21875 -0.20312,-0.65625 -0.0625,-0.1875 -0.0781,-0.25 -0.5625,0.54688 -1.20312,0.82813 -0.64063,0.26562 -1.375,0.26562 -1.28125,0 -2.01563,-0.6875 -0.73437,-0.70312 -0.73437,-1.76562 0,-0.70313 0.32812,-1.25 0.34375,-0.5625 0.9375,-0.84375 0.60938,-0.29688 1.75,-0.51563 1.54688,-0.29687 2.14063,-0.54687 v -0.21875 q 0,-0.625 -0.3125,-0.89063 -0.3125,-0.28125 -1.1875,-0.28125 -0.57813,0 -0.90625,0.23438 -0.32813,0.23437 -0.53125,0.8125 z m 2.9375,1.78125 q -0.42188,0.14062 -1.34375,0.34375 -0.90625,0.1875 -1.1875,0.375 -0.4375,0.29687 -0.4375,0.76562 0,0.46875 0.34375,0.8125 0.34375,0.32813 0.875,0.32813 0.59375,0 1.14062,-0.39063 0.39063,-0.29687 0.51563,-0.73437 0.0937,-0.28125 0.0937,-1.0625 z m 8.11719,-4.3125 v 1.75 h -1.5 v 3.34375 q 0,1.01562 0.0469,1.1875 0.0469,0.15625 0.1875,0.26562 0.15625,0.10938 0.375,0.10938 0.3125,0 0.89063,-0.20313 l 0.1875,1.70313 q -0.76563,0.32812 -1.73438,0.32812 -0.59375,0 -1.07812,-0.20312 -0.46875,-0.20313 -0.70313,-0.51563 -0.21875,-0.3125 -0.29687,-0.85937 -0.0781,-0.375 -0.0781,-1.54688 v -3.60937 h -1 v -1.75 h 1 v -1.65625 l 2.20313,-1.28125 v 2.9375 z m 6.32812,5.65625 2.1875,0.35937 q -0.42187,1.20313 -1.32812,1.84375 -0.90625,0.625 -2.28125,0.625 -2.15625,0 -3.20313,-1.42187 -0.8125,-1.125 -0.8125,-2.85938 0,-2.0625 1.07813,-3.21875 1.07812,-1.17187 2.71875,-1.17187 1.85937,0 2.92187,1.21875 1.07813,1.21875 1.03125,3.75 h -5.5 q 0.0156,0.96875 0.51563,1.51562 0.51562,0.54688 1.28125,0.54688 0.51562,0 0.85937,-0.28125 0.35938,-0.28125 0.53125,-0.90625 z m 0.125,-2.21875 q -0.0156,-0.95313 -0.48437,-1.45313 -0.46875,-0.5 -1.14063,-0.5 -0.71875,0 -1.1875,0.53125 -0.46875,0.51563 -0.46875,1.42188 z"
       id="path73" />
    <path
       inkscape:connector-curvature="0"
       style="fill:#000000;fill-opacity:0;fill-rule:evenodd"
       d="M 93.181802,154.13334 H 177.5125 v 65.00297 H 93.181802 Z"
       id="path75" />
    <path
       inkscape:connector-curvature="0"
       style="fill:#000000;fill-rule:nonzero"
       d="m 110.6818,193.27459 2.23438,0.71875 q -0.51563,1.875 -1.71875,2.79687 -1.1875,0.90625 -3.03125,0.90625 -2.28125,0 -3.75,-1.5625 -1.46875,-1.5625 -1.46875,-4.26562 0,-2.85938 1.46875,-4.4375 1.48438,-1.59375 3.89062,-1.59375 2.09375,0 3.40625,1.25 0.78125,0.73437 1.17188,2.10937 l -2.28125,0.54688 q -0.20313,-0.89063 -0.85938,-1.40625 -0.64062,-0.51563 -1.5625,-0.51563 -1.26562,0 -2.0625,0.92188 -0.79687,0.90625 -0.79687,2.95312 0,2.17188 0.78125,3.09375 0.78125,0.92188 2.03125,0.92188 0.92187,0 1.57812,-0.57813 0.67188,-0.59375 0.96875,-1.85937 z m 5.85156,-1.54688 -2,-0.35937 q 0.34375,-1.20313 1.15625,-1.78125 0.82813,-0.57813 2.4375,-0.57813 1.46875,0 2.1875,0.34375 0.71875,0.34375 1.01563,0.89063 0.29687,0.53125 0.29687,1.95312 l -0.0312,2.5625 q 0,1.09375 0.10938,1.625 0.10937,0.51563 0.39062,1.10938 h -2.17187 q -0.0781,-0.21875 -0.20313,-0.65625 -0.0625,-0.1875 -0.0781,-0.25 -0.5625,0.54687 -1.20312,0.82812 -0.64063,0.26563 -1.375,0.26563 -1.28125,0 -2.01563,-0.6875 -0.73437,-0.70313 -0.73437,-1.76563 0,-0.70312 0.32812,-1.25 0.34375,-0.5625 0.9375,-0.84375 0.60938,-0.29687 1.75,-0.51562 1.54688,-0.29688 2.14063,-0.54688 v -0.21875 q 0,-0.625 -0.3125,-0.89062 -0.3125,-0.28125 -1.1875,-0.28125 -0.57813,0 -0.90625,0.23437 -0.32813,0.23438 -0.53125,0.8125 z m 2.9375,1.78125 q -0.42187,0.14063 -1.34375,0.34375 -0.90625,0.1875 -1.1875,0.375 -0.4375,0.29688 -0.4375,0.76563 0,0.46875 0.34375,0.8125 0.34375,0.32812 0.875,0.32812 0.59375,0 1.14063,-0.39062 0.39062,-0.29688 0.51562,-0.73438 0.0937,-0.28125 0.0937,-1.0625 z m 9.77344,3.98438 v -1.25 q -0.45312,0.67187 -1.1875,1.0625 -0.73437,0.375 -1.5625,0.375 -0.82812,0 -1.5,-0.35938 -0.65625,-0.375 -0.95312,-1.03125 -0.29688,-0.67187 -0.29688,-1.84375 v -5.25 h 2.1875 v 3.8125 q 0,1.75 0.125,2.14063 0.125,0.39062 0.4375,0.625 0.32813,0.23437 0.8125,0.23437 0.5625,0 1,-0.3125 0.45313,-0.3125 0.60938,-0.76562 0.17187,-0.45313 0.17187,-2.23438 v -3.5 h 2.20313 v 8.29688 z m 3.53906,-2.375 2.20313,-0.32813 q 0.14062,0.64063 0.5625,0.96875 0.4375,0.32813 1.21875,0.32813 0.84375,0 1.28125,-0.3125 0.28125,-0.21875 0.28125,-0.57813 0,-0.25 -0.15625,-0.42187 -0.15625,-0.15625 -0.73438,-0.28125 -2.65625,-0.59375 -3.35937,-1.07813 -0.98438,-0.67187 -0.98438,-1.85937 0,-1.07813 0.84375,-1.8125 0.85938,-0.73438 2.64063,-0.73438 1.70312,0 2.53125,0.5625 0.82812,0.54688 1.14062,1.625 l -2.0625,0.39063 q -0.14062,-0.48438 -0.51562,-0.73438 -0.35938,-0.26562 -1.04688,-0.26562 -0.875,0 -1.25,0.23437 -0.25,0.17188 -0.25,0.45313 0,0.23437 0.21875,0.39062 0.29688,0.21875 2.04688,0.625 1.76562,0.39063 2.45312,0.96875 0.6875,0.59375 0.6875,1.64063 0,1.14062 -0.95312,1.96875 -0.95313,0.8125 -2.8125,0.8125 -1.70313,0 -2.6875,-0.6875 -0.98438,-0.6875 -1.29688,-1.875 z m 14.47656,-0.26563 2.1875,0.35938 q -0.42187,1.20312 -1.32812,1.84375 -0.90625,0.625 -2.28125,0.625 -2.15625,0 -3.20313,-1.42188 -0.81249,-1.125 -0.81249,-2.85937 0,-2.0625 1.07812,-3.21875 1.07812,-1.17188 2.71875,-1.17188 1.85937,0 2.92187,1.21875 1.07813,1.21875 1.03125,3.75 h -5.5 q 0.0156,0.96875 0.51563,1.51563 0.51562,0.54687 1.28125,0.54687 0.51562,0 0.85937,-0.28125 0.35938,-0.28125 0.53125,-0.90625 z m 0.125,-2.21875 q -0.0156,-0.95312 -0.48437,-1.45312 -0.46875,-0.5 -1.14063,-0.5 -0.71875,0 -1.1875,0.53125 -0.46875,0.51562 -0.46875,1.42187 z m 3.19532,2.48438 2.20312,-0.32813 q 0.14063,0.64063 0.5625,0.96875 0.4375,0.32813 1.21875,0.32813 0.84375,0 1.28125,-0.3125 0.28125,-0.21875 0.28125,-0.57813 0,-0.25 -0.15625,-0.42187 -0.15625,-0.15625 -0.73437,-0.28125 -2.65625,-0.59375 -3.35938,-1.07813 -0.98437,-0.67187 -0.98437,-1.85937 0,-1.07813 0.84375,-1.8125 0.85937,-0.73438 2.64062,-0.73438 1.70313,0 2.53125,0.5625 0.82813,0.54688 1.14063,1.625 l -2.0625,0.39063 q -0.14063,-0.48438 -0.51563,-0.73438 -0.35937,-0.26562 -1.04687,-0.26562 -0.875,0 -1.25,0.23437 -0.25,0.17188 -0.25,0.45313 0,0.23437 0.21875,0.39062 0.29687,0.21875 2.04687,0.625 1.76563,0.39063 2.45313,0.96875 0.6875,0.59375 0.6875,1.64063 0,1.14062 -0.95313,1.96875 -0.95312,0.8125 -2.8125,0.8125 -1.70312,0 -2.6875,-0.6875 -0.98437,-0.6875 -1.29687,-1.875 z"
       id="path77" />
    <path
       inkscape:connector-curvature="0"
       style="fill:#000000;fill-opacity:0;fill-rule:evenodd"
       d="m 206.46872,234.63744 c -11.15129,0 -20.19117,-1.50659 -20.19117,-3.36507 v -41.27249 c 0,-1.85847 -9.0399,-3.36505 -20.19118,-3.36505 v 0 c 11.15128,0 20.19118,-1.50659 20.19118,-3.36506 v -41.27249 0 c 0,-1.85848 9.03988,-3.36507 20.19117,-3.36507 z"
       id="path79" />
    <path
       inkscape:connector-curvature="0"
       style="fill:#000000;fill-opacity:0;fill-rule:evenodd"
       d="m 206.46872,234.63744 c -11.15129,0 -20.19117,-1.50659 -20.19117,-3.36507 v -41.27249 c 0,-1.85847 -9.0399,-3.36505 -20.19118,-3.36505 v 0 c 11.15128,0 20.19118,-1.50659 20.19118,-3.36506 v -41.27249 0 c 0,-1.85848 9.03988,-3.36507 20.19117,-3.36507"
       id="path81" />
    <path
       inkscape:connector-curvature="0"
       style="fill-rule:evenodd;stroke:#000000;stroke-width:2;stroke-linecap:butt;stroke-linejoin:round"
       d="m 206.46872,234.63744 c -11.15129,0 -20.19117,-1.50659 -20.19117,-3.36507 v -41.27249 c 0,-1.85847 -9.0399,-3.36505 -20.19118,-3.36505 v 0 c 11.15128,0 20.19118,-1.50659 20.19118,-3.36506 v -41.27249 0 c 0,-1.85848 9.03988,-3.36507 20.19117,-3.36507"
       id="path83" />
    <path
       inkscape:connector-curvature="0"
       style="fill:#38ae17;fill-rule:evenodd"
       d="m 401.73003,283.06469 v 23.5433 0 c 0,13.00263 -35.26019,23.54331 -78.75589,23.54331 -43.49568,0 -78.75591,-10.54068 -78.75591,-23.54331 v -23.5433 z"
       id="path85" />
    <path
       inkscape:connector-curvature="0"
       style="fill-rule:evenodd;stroke:#000000;stroke-width:2;stroke-linecap:butt;stroke-linejoin:round"
       d="m 401.73003,283.06469 v 23.5433 0 c 0,13.00263 -35.26019,23.54331 -78.75589,23.54331 -43.49568,0 -78.75591,-10.54068 -78.75591,-23.54331 v -23.5433 z"
       id="path87" />
    <path
       inkscape:connector-curvature="0"
       style="fill:#000000;fill-opacity:0;fill-rule:evenodd"
       d="m 268.91115,261.39539 h 124.22046 v 74.42522 H 268.91115 Z"
       id="path89" />
    <path
       inkscape:connector-curvature="0"
       style="fill:#000000;fill-rule:nonzero"
       d="m 280.70803,304.75539 -2.73438,-11.45313 h 2.35938 l 1.73437,7.85938 2.09375,-7.85938 h 2.75 l 2,8 1.76563,-8 h 2.32812 l -2.78125,11.45313 h -2.45312 l -2.28125,-8.5625 -2.28125,8.5625 z m 15.10156,-5.76563 -2,-0.35937 q 0.34375,-1.20313 1.15625,-1.78125 0.82813,-0.57813 2.4375,-0.57813 1.46875,0 2.1875,0.34375 0.71875,0.34375 1.01563,0.89063 0.29687,0.53125 0.29687,1.95312 l -0.0312,2.5625 q 0,1.09375 0.10938,1.625 0.10937,0.51563 0.39062,1.10938 h -2.17187 q -0.0781,-0.21875 -0.20313,-0.65625 -0.0625,-0.1875 -0.0781,-0.25 -0.5625,0.54687 -1.20313,0.82812 -0.64062,0.26563 -1.375,0.26563 -1.28125,0 -2.01562,-0.6875 -0.73438,-0.70313 -0.73438,-1.76563 0,-0.70312 0.32813,-1.25 0.34375,-0.5625 0.9375,-0.84375 0.60937,-0.29687 1.75,-0.51562 1.54687,-0.29688 2.14062,-0.54688 v -0.21875 q 0,-0.625 -0.3125,-0.89062 -0.3125,-0.28125 -1.1875,-0.28125 -0.57812,0 -0.90625,0.23437 -0.32812,0.23438 -0.53125,0.8125 z m 2.9375,1.78125 q -0.42187,0.14063 -1.34375,0.34375 -0.90625,0.1875 -1.1875,0.375 -0.4375,0.29688 -0.4375,0.76563 0,0.46875 0.34375,0.8125 0.34375,0.32812 0.875,0.32812 0.59375,0 1.14063,-0.39062 0.39062,-0.29688 0.51562,-0.73438 0.0937,-0.28125 0.0937,-1.0625 z m 4.32031,-5.4375 v -2.03125 h 2.1875 v 2.03125 z m 0,9.42188 v -8.29688 h 2.1875 v 8.29688 z m 8.24219,-8.29688 v 1.75 h -1.5 v 3.34375 q 0,1.01563 0.0469,1.1875 0.0469,0.15625 0.1875,0.26563 0.15625,0.10937 0.375,0.10937 0.3125,0 0.89062,-0.20312 l 0.1875,1.70312 q -0.76562,0.32813 -1.73437,0.32813 -0.59375,0 -1.07813,-0.20313 -0.46875,-0.20312 -0.70312,-0.51562 -0.21875,-0.3125 -0.29688,-0.85938 -0.0781,-0.375 -0.0781,-1.54687 v -3.60938 h -1 v -1.75 h 1 v -1.65625 l 2.20312,-1.28125 v 2.9375 z m 5.00781,0 h 1.21875 v -0.625 q 0,-1.04687 0.21875,-1.5625 0.23438,-0.51562 0.82813,-0.84375 0.59375,-0.32812 1.51562,-0.32812 0.9375,0 1.82813,0.28125 l -0.29688,1.53125 q -0.51562,-0.125 -1,-0.125 -0.48437,0 -0.6875,0.23437 -0.20312,0.21875 -0.20312,0.84375 v 0.59375 h 1.64062 v 1.71875 h -1.64062 v 6.57813 h -2.20313 v -6.57813 h -1.21875 z m 5.78125,4.03125 q 0,-1.09375 0.53125,-2.10937 0.54688,-1.03125 1.53125,-1.5625 1,-0.54688 2.21875,-0.54688 1.875,0 3.07813,1.21875 1.20312,1.21875 1.20312,3.09375 0,1.875 -1.21875,3.125 -1.20312,1.23438 -3.04687,1.23438 -1.14063,0 -2.1875,-0.51563 -1.03125,-0.51562 -1.57813,-1.51562 -0.53125,-1 -0.53125,-2.42188 z m 2.25,0.10938 q 0,1.23437 0.57813,1.89062 0.59375,0.65625 1.45312,0.65625 0.85938,0 1.4375,-0.65625 0.59375,-0.65625 0.59375,-1.90625 0,-1.21875 -0.59375,-1.875 -0.57812,-0.65625 -1.4375,-0.65625 -0.85937,0 -1.45312,0.65625 -0.57813,0.65625 -0.57813,1.89063 z m 10.13282,4.15625 h -2.1875 v -8.29688 h 2.03125 v 1.17188 q 0.53125,-0.82813 0.9375,-1.09375 0.42187,-0.26563 0.95312,-0.26563 0.75,0 1.45313,0.40625 l -0.6875,1.92188 q -0.54688,-0.35938 -1.03125,-0.35938 -0.45313,0 -0.78125,0.25 -0.3125,0.25 -0.5,0.92188 -0.1875,0.65625 -0.1875,2.78125 z m 18.92187,0 h -2.51562 l -1,-2.60938 h -4.57813 l -0.95312,2.60938 h -2.45313 l 4.46875,-11.45313 h 2.4375 z m -4.26562,-4.53125 -1.57813,-4.25 -1.54687,4.25 z m 5.55468,4.53125 v -11.35938 h 2.3125 v 9.42188 h 5.75 v 1.9375 z m 9.77344,0 v -11.35938 h 2.3125 v 9.42188 h 5.75 v 1.9375 z"
       id="path91" />
    <path
       inkscape:connector-curvature="0"
       style="fill:#000000;fill-rule:nonzero"
       d="m 341.90334,306.0154 h 31.10156 v 1 h -31.10156 z"
       id="path93" />
    <path
       inkscape:connector-curvature="0"
       style="fill:#000000;fill-opacity:0;fill-rule:evenodd"
       d="M 359.59355,137.83371 V 281.39276"
       id="path95" />
    <path
       inkscape:connector-curvature="0"
       style="fill-rule:evenodd;stroke:#000000;stroke-width:2;stroke-linecap:butt;stroke-linejoin:round"
       d="M 359.59355,137.83371 V 269.39276"
       id="path97" />
    <path
       inkscape:connector-curvature="0"
       style="fill:#000000;fill-rule:evenodd;stroke:#000000;stroke-width:2;stroke-linecap:butt"
       d="m 356.29009,269.39277 3.30347,9.0762 3.30346,-9.0762 z"
       id="path99" />
    <path
       inkscape:connector-curvature="0"
       style="fill:#000000;fill-opacity:0;fill-rule:evenodd"
       d="m 536.38127,154.13334 h 84.33072 v 65.00297 h -84.33072 z"
       id="path101" />
    <path
       inkscape:connector-curvature="0"
       style="fill:#000000;fill-rule:nonzero"
       d="m 553.88127,193.27459 2.23434,0.71875 q -0.51562,1.875 -1.71875,2.79687 -1.18747,0.90625 -3.03122,0.90625 -2.28125,0 -3.75,-1.5625 -1.46875,-1.5625 -1.46875,-4.26562 0,-2.85938 1.46875,-4.4375 1.48438,-1.59375 3.89063,-1.59375 2.09375,0 3.40622,1.25 0.78125,0.73437 1.17187,2.10937 l -2.28122,0.54688 q -0.20312,-0.89063 -0.85937,-1.40625 -0.64063,-0.51563 -1.5625,-0.51563 -1.26563,0 -2.0625,0.92188 -0.79688,0.90625 -0.79688,2.95312 0,2.17188 0.78125,3.09375 0.78125,0.92188 2.03125,0.92188 0.92188,0 1.57813,-0.57813 0.67187,-0.59375 0.96875,-1.85937 z m 5.85153,-1.54688 -2,-0.35937 q 0.34375,-1.20313 1.15625,-1.78125 0.82813,-0.57813 2.4375,-0.57813 1.46875,0 2.1875,0.34375 0.71875,0.34375 1.01563,0.89063 0.29687,0.53125 0.29687,1.95312 l -0.0312,2.5625 q 0,1.09375 0.10938,1.625 0.10937,0.51563 0.39062,1.10938 h -2.17187 q -0.0781,-0.21875 -0.20313,-0.65625 -0.0625,-0.1875 -0.0781,-0.25 -0.5625,0.54687 -1.20313,0.82812 -0.64062,0.26563 -1.375,0.26563 -1.28125,0 -2.01562,-0.6875 -0.73438,-0.70313 -0.73438,-1.76563 0,-0.70312 0.32813,-1.25 0.34375,-0.5625 0.9375,-0.84375 0.60937,-0.29687 1.75,-0.51562 1.54687,-0.29688 2.14062,-0.54688 v -0.21875 q 0,-0.625 -0.3125,-0.89062 -0.3125,-0.28125 -1.1875,-0.28125 -0.57812,0 -0.90625,0.23437 -0.32812,0.23438 -0.53125,0.8125 z m 2.9375,1.78125 q -0.42187,0.14063 -1.34375,0.34375 -0.90625,0.1875 -1.1875,0.375 -0.4375,0.29688 -0.4375,0.76563 0,0.46875 0.34375,0.8125 0.34375,0.32812 0.875,0.32812 0.59375,0 1.14063,-0.39062 0.39062,-0.29688 0.51562,-0.73438 0.0937,-0.28125 0.0937,-1.0625 z m 9.77344,3.98438 v -1.25 q -0.45313,0.67187 -1.1875,1.0625 -0.73438,0.375 -1.5625,0.375 -0.82813,0 -1.5,-0.35938 -0.65625,-0.375 -0.95313,-1.03125 -0.29687,-0.67187 -0.29687,-1.84375 v -5.25 h 2.1875 v 3.8125 q 0,1.75 0.125,2.14063 0.125,0.39062 0.4375,0.625 0.32812,0.23437 0.8125,0.23437 0.5625,0 1,-0.3125 0.45312,-0.3125 0.60937,-0.76562 0.17188,-0.45313 0.17188,-2.23438 v -3.5 h 2.20312 v 8.29688 z m 3.53906,-2.375 2.20313,-0.32813 q 0.14062,0.64063 0.5625,0.96875 0.4375,0.32813 1.21875,0.32813 0.84375,0 1.28125,-0.3125 0.28125,-0.21875 0.28125,-0.57813 0,-0.25 -0.15625,-0.42187 -0.15625,-0.15625 -0.73438,-0.28125 -2.65625,-0.59375 -3.35937,-1.07813 -0.98438,-0.67187 -0.98438,-1.85937 0,-1.07813 0.84375,-1.8125 0.85938,-0.73438 2.64063,-0.73438 1.70312,0 2.53125,0.5625 0.82812,0.54688 1.14062,1.625 l -2.0625,0.39063 q -0.14062,-0.48438 -0.51562,-0.73438 -0.35938,-0.26562 -1.04688,-0.26562 -0.875,0 -1.25,0.23437 -0.25,0.17188 -0.25,0.45313 0,0.23437 0.21875,0.39062 0.29688,0.21875 2.04688,0.625 1.76562,0.39063 2.45312,0.96875 0.6875,0.59375 0.6875,1.64063 0,1.14062 -0.95312,1.96875 -0.95313,0.8125 -2.8125,0.8125 -1.70313,0 -2.6875,-0.6875 -0.98438,-0.6875 -1.29688,-1.875 z m 14.47656,-0.26563 2.1875,0.35938 q -0.42187,1.20312 -1.32812,1.84375 -0.90625,0.625 -2.28125,0.625 -2.15625,0 -3.20313,-1.42188 -0.8125,-1.125 -0.8125,-2.85937 0,-2.0625 1.07813,-3.21875 1.07812,-1.17188 2.71875,-1.17188 1.85937,0 2.92187,1.21875 1.07813,1.21875 1.03125,3.75 h -5.5 q 0.0156,0.96875 0.51563,1.51563 0.51562,0.54687 1.28125,0.54687 0.51562,0 0.85937,-0.28125 0.35938,-0.28125 0.53125,-0.90625 z m 0.125,-2.21875 q -0.0156,-0.95312 -0.48437,-1.45312 -0.46875,-0.5 -1.14063,-0.5 -0.71875,0 -1.1875,0.53125 -0.46875,0.51562 -0.46875,1.42187 z m 3.19532,2.48438 2.20312,-0.32813 q 0.14063,0.64063 0.5625,0.96875 0.4375,0.32813 1.21875,0.32813 0.84375,0 1.28125,-0.3125 0.28125,-0.21875 0.28125,-0.57813 0,-0.25 -0.15625,-0.42187 -0.15625,-0.15625 -0.73437,-0.28125 -2.65625,-0.59375 -3.35938,-1.07813 -0.98437,-0.67187 -0.98437,-1.85937 0,-1.07813 0.84375,-1.8125 0.85937,-0.73438 2.64062,-0.73438 1.70313,0 2.53125,0.5625 0.82813,0.54688 1.14063,1.625 l -2.0625,0.39063 q -0.14063,-0.48438 -0.51563,-0.73438 -0.35937,-0.26562 -1.04687,-0.26562 -0.875,0 -1.25,0.23437 -0.25,0.17188 -0.25,0.45313 0,0.23437 0.21875,0.39062 0.29687,0.21875 2.04687,0.625 1.76563,0.39063 2.45313,0.96875 0.6875,0.59375 0.6875,1.64063 0,1.14062 -0.95313,1.96875 -0.95312,0.8125 -2.8125,0.8125 -1.70312,0 -2.6875,-0.6875 -0.98437,-0.6875 -1.29687,-1.875 z"
       id="path103" />
    <path
       inkscape:connector-curvature="0"
       style="fill:#000000;fill-opacity:0;fill-rule:evenodd"
       d="m 649.66817,234.63744 c -11.15125,0 -20.19116,-1.50659 -20.19116,-3.36507 v -41.27249 c 0,-1.85847 -9.03992,-3.36505 -20.19116,-3.36505 v 0 c 11.15124,0 20.19116,-1.50659 20.19116,-3.36506 v -41.27249 0 c 0,-1.85848 9.03991,-3.36507 20.19116,-3.36507 z"
       id="path105" />
    <path
       inkscape:connector-curvature="0"
       style="fill:#000000;fill-opacity:0;fill-rule:evenodd"
       d="m 649.66817,234.63744 c -11.15125,0 -20.19116,-1.50659 -20.19116,-3.36507 v -41.27249 c 0,-1.85847 -9.03992,-3.36505 -20.19116,-3.36505 v 0 c 11.15124,0 20.19116,-1.50659 20.19116,-3.36506 v -41.27249 0 c 0,-1.85848 9.03991,-3.36507 20.19116,-3.36507"
       id="path107" />
    <path
       inkscape:connector-curvature="0"
       style="fill-rule:evenodd;stroke:#000000;stroke-width:2;stroke-linecap:butt;stroke-linejoin:round"
       d="m 649.66817,234.63744 c -11.15125,0 -20.19116,-1.50659 -20.19116,-3.36507 v -41.27249 c 0,-1.85847 -9.03992,-3.36505 -20.19116,-3.36505 v 0 c 11.15124,0 20.19116,-1.50659 20.19116,-3.36506 v -41.27249 0 c 0,-1.85848 9.03991,-3.36507 20.19116,-3.36507"
       id="path109" />
    <path
       inkscape:connector-curvature="0"
       style="fill:#000000;fill-opacity:0;fill-rule:evenodd"
       d="m 802.79305,145.83371 1.3858,135.55905"
       id="path111" />
    <path
       inkscape:connector-curvature="0"
       style="fill-rule:evenodd;stroke:#000000;stroke-width:2;stroke-linecap:butt;stroke-linejoin:round"
       d="m 802.79305,145.83371 1.26312,123.55969"
       id="path113" />
    <path
       inkscape:connector-curvature="0"
       style="fill:#000000;fill-rule:evenodd;stroke:#000000;stroke-width:2;stroke-linecap:butt"
       d="m 800.75291,269.42717 3.39606,9.04195 3.21051,-9.1095 z"
       id="path115" />
    <path
       inkscape:connector-curvature="0"
       style="fill:#96ceda;fill-rule:evenodd"
       d="m 688.46491,314.20818 v -39.00044 c 0,4.30786 34.79138,7.80008 77.70868,7.80008 42.9173,0 77.70868,-3.49222 77.70868,-7.80008 v 39.00044 0 c 0,4.30786 -34.79138,7.80008 -77.70868,7.80008 -42.9173,0 -77.70868,-3.49222 -77.70868,-7.80008 z"
       id="path117" />
    <path
       inkscape:connector-curvature="0"
       style="fill-rule:evenodd;stroke:#000000;stroke-width:2;stroke-linecap:butt;stroke-linejoin:round"
       d="m 688.46491,314.20818 v -39.00044 c 0,4.30786 34.79138,7.80008 77.70868,7.80008 42.9173,0 77.70868,-3.49222 77.70868,-7.80008 v 39.00044 0 c 0,4.30786 -34.79138,7.80008 -77.70868,7.80008 -42.9173,0 -77.70868,-3.49222 -77.70868,-7.80008 z"
       id="path119" />
    <path
       inkscape:connector-curvature="0"
       style="fill:#000000;fill-opacity:0;fill-rule:evenodd"
       d="m 705.14736,261.39539 h 123.08661 v 74.42522 H 705.14736 Z"
       id="path121" />
    <path
       inkscape:connector-curvature="0"
       style="fill:#000000;fill-rule:nonzero"
       d="m 716.94421,304.75539 -2.73438,-11.45313 h 2.35938 l 1.73437,7.85938 2.09375,-7.85938 h 2.75 l 2,8 1.76563,-8 h 2.32812 l -2.78125,11.45313 h -2.45312 l -2.28125,-8.5625 -2.28125,8.5625 z m 15.10156,-5.76563 -2,-0.35937 q 0.34375,-1.20313 1.15625,-1.78125 0.82813,-0.57813 2.4375,-0.57813 1.46875,0 2.1875,0.34375 0.71875,0.34375 1.01563,0.89063 0.29687,0.53125 0.29687,1.95312 l -0.0312,2.5625 q 0,1.09375 0.10938,1.625 0.10937,0.51563 0.39062,1.10938 h -2.17187 q -0.0781,-0.21875 -0.20313,-0.65625 -0.0625,-0.1875 -0.0781,-0.25 -0.5625,0.54687 -1.20313,0.82812 -0.64062,0.26563 -1.375,0.26563 -1.28125,0 -2.01562,-0.6875 -0.73438,-0.70313 -0.73438,-1.76563 0,-0.70312 0.32813,-1.25 0.34375,-0.5625 0.9375,-0.84375 0.60937,-0.29687 1.75,-0.51562 1.54687,-0.29688 2.14062,-0.54688 v -0.21875 q 0,-0.625 -0.3125,-0.89062 -0.3125,-0.28125 -1.1875,-0.28125 -0.57812,0 -0.90625,0.23437 -0.32812,0.23438 -0.53125,0.8125 z m 2.9375,1.78125 q -0.42187,0.14063 -1.34375,0.34375 -0.90625,0.1875 -1.1875,0.375 -0.4375,0.29688 -0.4375,0.76563 0,0.46875 0.34375,0.8125 0.34375,0.32812 0.875,0.32812 0.59375,0 1.14063,-0.39062 0.39062,-0.29688 0.51562,-0.73438 0.0937,-0.28125 0.0937,-1.0625 z m 4.32031,-5.4375 v -2.03125 h 2.1875 v 2.03125 z m 0,9.42188 v -8.29688 h 2.1875 v 8.29688 z m 8.24219,-8.29688 v 1.75 h -1.5 v 3.34375 q 0,1.01563 0.0469,1.1875 0.0469,0.15625 0.1875,0.26563 0.15625,0.10937 0.375,0.10937 0.3125,0 0.89062,-0.20312 l 0.1875,1.70312 q -0.76562,0.32813 -1.73437,0.32813 -0.59375,0 -1.07813,-0.20313 -0.46875,-0.20312 -0.70312,-0.51562 -0.21875,-0.3125 -0.29688,-0.85938 -0.0781,-0.375 -0.0781,-1.54687 v -3.60938 h -1 v -1.75 h 1 v -1.65625 l 2.20312,-1.28125 v 2.9375 z m 5.00781,0 h 1.21875 v -0.625 q 0,-1.04687 0.21875,-1.5625 0.23438,-0.51562 0.82813,-0.84375 0.59375,-0.32812 1.51562,-0.32812 0.9375,0 1.82813,0.28125 l -0.29688,1.53125 q -0.51562,-0.125 -1,-0.125 -0.48437,0 -0.6875,0.23437 -0.20312,0.21875 -0.20312,0.84375 v 0.59375 h 1.64062 v 1.71875 h -1.64062 v 6.57813 h -2.20313 v -6.57813 h -1.21875 z m 5.78125,4.03125 q 0,-1.09375 0.53125,-2.10937 0.54688,-1.03125 1.53125,-1.5625 1,-0.54688 2.21875,-0.54688 1.875,0 3.07813,1.21875 1.20312,1.21875 1.20312,3.09375 0,1.875 -1.21875,3.125 -1.20312,1.23438 -3.04687,1.23438 -1.14063,0 -2.1875,-0.51563 -1.03125,-0.51562 -1.57813,-1.51562 -0.53125,-1 -0.53125,-2.42188 z m 2.25,0.10938 q 0,1.23437 0.57813,1.89062 0.59375,0.65625 1.45312,0.65625 0.85938,0 1.4375,-0.65625 0.59375,-0.65625 0.59375,-1.90625 0,-1.21875 -0.59375,-1.875 -0.57812,-0.65625 -1.4375,-0.65625 -0.85937,0 -1.45312,0.65625 -0.57813,0.65625 -0.57813,1.89063 z m 10.13282,4.15625 h -2.1875 v -8.29688 h 2.03125 v 1.17188 q 0.53125,-0.82813 0.9375,-1.09375 0.42187,-0.26563 0.95312,-0.26563 0.75,0 1.45313,0.40625 l -0.6875,1.92188 q -0.54688,-0.35938 -1.03125,-0.35938 -0.45313,0 -0.78125,0.25 -0.3125,0.25 -0.5,0.92188 -0.1875,0.65625 -0.1875,2.78125 z m 18.92187,0 h -2.51562 l -1,-2.60938 h -4.57813 l -0.95312,2.60938 h -2.45313 l 4.46875,-11.45313 h 2.4375 z m -4.26562,-4.53125 -1.57813,-4.25 -1.54687,4.25 z m 5.50781,4.53125 v -11.45313 h 2.25 l 4.6875,7.64063 v -7.64063 h 2.15625 v 11.45313 h -2.32813 l -4.60937,-7.46875 v 7.46875 z m 14.53906,0 v -4.82813 l -4.20312,-6.625 h 2.71875 l 2.70312,4.53125 2.64063,-4.53125 h 2.65625 l -4.20313,6.64063 v 4.8125 z"
       id="path123" />
    <path
       inkscape:connector-curvature="0"
       style="fill:#000000;fill-rule:nonzero"
       d="m 778.13954,306.0154 h 33.78125 v 1 h -33.78125 z"
       id="path125" />
    <path
       inkscape:connector-curvature="0"
       style="fill:#000000;fill-opacity:0;fill-rule:evenodd"
       d="m 730.79305,145.83371 1.3858,135.55905"
       id="path127" />
    <path
       inkscape:connector-curvature="0"
       style="fill-rule:evenodd;stroke:#000000;stroke-width:2;stroke-linecap:butt;stroke-linejoin:round"
       d="m 730.79305,145.83371 1.26312,123.55969"
       id="path129" />
    <path
       inkscape:connector-curvature="0"
       style="fill:#000000;fill-rule:evenodd;stroke:#000000;stroke-width:2;stroke-linecap:butt"
       d="m 728.75291,269.42717 3.39606,9.04195 3.21051,-9.1095 z"
       id="path131" />
    <path
       inkscape:connector-curvature="0"
       style="fill:#000000;fill-opacity:0;fill-rule:evenodd"
       d="M 287.59355,137.83371 V 281.39276"
       id="path133" />
    <path
       inkscape:connector-curvature="0"
       style="fill-rule:evenodd;stroke:#000000;stroke-width:2;stroke-linecap:butt;stroke-linejoin:round"
       d="M 287.59355,137.83371 V 269.39276"
       id="path135" />
    <path
       inkscape:connector-curvature="0"
       style="fill:#000000;fill-rule:evenodd;stroke:#000000;stroke-width:2;stroke-linecap:butt"
       d="m 284.2901,269.39277 3.30345,9.0762 3.30347,-9.0762 z"
       id="path137" />
    <path
       inkscape:connector-curvature="0"
       style="fill:#000000;fill-opacity:0;fill-rule:evenodd"
       d="m 477.63031,497.0017 h 167.08658 v 74.4252 H 477.63031 Z"
       id="path139" />
    <path
       inkscape:connector-curvature="0"
       style="fill:#000000;fill-rule:nonzero"
       d="m 487.80217,521.36168 v -11.45313 h 8.48437 v 1.9375 h -6.17187 v 2.53125 h 5.75 v 1.9375 h -5.75 v 3.10938 h 6.39062 v 1.9375 z m 9.59375,0 3,-4.28125 -2.875,-4.01563 h 2.6875 l 1.46875,2.28125 1.54687,-2.28125 h 2.57813 l -2.8125,3.92188 3.0625,4.375 h -2.6875 l -1.6875,-2.57813 -1.70313,2.57813 z m 14.75781,-2.64063 2.1875,0.35938 q -0.42187,1.20312 -1.32812,1.84375 -0.90625,0.625 -2.28125,0.625 -2.15625,0 -3.20313,-1.42188 -0.8125,-1.125 -0.8125,-2.85937 0,-2.0625 1.07813,-3.21875 1.07812,-1.17188 2.71875,-1.17188 1.85937,0 2.92187,1.21875 1.07813,1.21875 1.03125,3.75 h -5.5 q 0.0156,0.96875 0.51563,1.51563 0.51562,0.54687 1.28125,0.54687 0.51562,0 0.85937,-0.28125 0.35938,-0.28125 0.53125,-0.90625 z m 0.125,-2.21875 q -0.0156,-0.95312 -0.48437,-1.45312 -0.46875,-0.5 -1.14063,-0.5 -0.71875,0 -1.1875,0.53125 -0.46875,0.51562 -0.46875,1.42187 z m 11.21094,-0.98437 -2.17188,0.39062 q -0.10937,-0.65625 -0.5,-0.98437 -0.375,-0.32813 -1,-0.32813 -0.8125,0 -1.3125,0.57813 -0.48437,0.5625 -0.48437,1.89062 0,1.46875 0.5,2.07813 0.5,0.60937 1.32812,0.60937 0.625,0 1.01563,-0.34375 0.40625,-0.35937 0.57812,-1.23437 l 2.15625,0.375 q -0.34375,1.48437 -1.29687,2.25 -0.95313,0.75 -2.54688,0.75 -1.82812,0 -2.90625,-1.14063 -1.07812,-1.15625 -1.07812,-3.1875 0,-2.0625 1.07812,-3.20312 1.09375,-1.14063 2.9375,-1.14063 1.51563,0 2.40625,0.65625 0.90625,0.64063 1.29688,1.98438 z m 7.11719,5.84375 v -1.25 q -0.45313,0.67187 -1.1875,1.0625 -0.73438,0.375 -1.5625,0.375 -0.82813,0 -1.5,-0.35938 -0.65625,-0.375 -0.95313,-1.03125 -0.29687,-0.67187 -0.29687,-1.84375 v -5.25 h 2.1875 v 3.8125 q 0,1.75 0.125,2.14063 0.125,0.39062 0.4375,0.625 0.32812,0.23437 0.8125,0.23437 0.5625,0 1,-0.3125 0.45312,-0.3125 0.60937,-0.76562 0.17188,-0.45313 0.17188,-2.23438 v -3.5 h 2.20312 v 8.29688 z m 8.11718,-8.29688 v 1.75 h -1.5 v 3.34375 q 0,1.01563 0.0469,1.1875 0.0469,0.15625 0.1875,0.26563 0.15625,0.10937 0.375,0.10937 0.3125,0 0.89062,-0.20312 l 0.1875,1.70312 q -0.76562,0.32813 -1.73437,0.32813 -0.59375,0 -1.07813,-0.20313 -0.46875,-0.20312 -0.70312,-0.51562 -0.21875,-0.3125 -0.29688,-0.85938 -0.0781,-0.375 -0.0781,-1.54687 v -3.60938 h -1 v -1.75 h 1 v -1.65625 l 2.20312,-1.28125 v 2.9375 z m 6.32813,5.65625 2.1875,0.35938 q -0.42188,1.20312 -1.32813,1.84375 -0.90625,0.625 -2.28125,0.625 -2.15625,0 -3.20312,-1.42188 -0.8125,-1.125 -0.8125,-2.85937 0,-2.0625 1.07812,-3.21875 1.07813,-1.17188 2.71875,-1.17188 1.85938,0 2.92188,1.21875 1.07812,1.21875 1.03125,3.75 h -5.5 q 0.0156,0.96875 0.51562,1.51563 0.51563,0.54687 1.28125,0.54687 0.51563,0 0.85938,-0.28125 0.35937,-0.28125 0.53125,-0.90625 z m 0.125,-2.21875 q -0.0156,-0.95312 -0.48438,-1.45312 -0.46875,-0.5 -1.14062,-0.5 -0.71875,0 -1.1875,0.53125 -0.46875,0.51562 -0.46875,1.42187 z m 10.06247,-0.90625 -1.99997,-0.35937 q 0.34375,-1.20313 1.15622,-1.78125 0.82812,-0.57813 2.4375,-0.57813 1.46875,0 2.1875,0.34375 0.71875,0.34375 1.01562,0.89063 0.29688,0.53125 0.29688,1.95312 l -0.0312,2.5625 q 0,1.09375 0.10937,1.625 0.10938,0.51563 0.39063,1.10938 h -2.17188 q -0.0781,-0.21875 -0.20312,-0.65625 -0.0625,-0.1875 -0.0781,-0.25 -0.5625,0.54687 -1.20312,0.82812 -0.64063,0.26563 -1.375,0.26563 -1.28125,0 -2.0156,-0.6875 -0.73437,-0.70313 -0.73437,-1.76563 0,-0.70312 0.32812,-1.25 0.34375,-0.5625 0.93747,-0.84375 0.60938,-0.29687 1.75,-0.51562 1.54688,-0.29688 2.14063,-0.54688 v -0.21875 q 0,-0.625 -0.3125,-0.89062 -0.3125,-0.28125 -1.1875,-0.28125 -0.57813,0 -0.90625,0.23437 -0.32813,0.23438 -0.53125,0.8125 z m 2.9375,1.78125 q -0.42188,0.14063 -1.34375,0.34375 -0.90625,0.1875 -1.1875,0.375 -0.4375,0.29688 -0.4375,0.76563 0,0.46875 0.34375,0.8125 0.34375,0.32812 0.875,0.32812 0.59375,0 1.14062,-0.39062 0.39063,-0.29688 0.51563,-0.73438 0.0937,-0.28125 0.0937,-1.0625 z m 4.32031,3.98438 v -11.45313 h 2.1875 v 11.45313 z m 4.44531,0 v -11.45313 h 2.1875 v 11.45313 z m 12.6875,-8.29688 v 1.75 h -1.5 v 3.34375 q 0,1.01563 0.0469,1.1875 0.0469,0.15625 0.1875,0.26563 0.15625,0.10937 0.375,0.10937 0.3125,0 0.89062,-0.20312 l 0.1875,1.70312 q -0.76562,0.32813 -1.73437,0.32813 -0.59375,0 -1.07813,-0.20313 -0.46875,-0.20312 -0.70312,-0.51562 -0.21875,-0.3125 -0.29688,-0.85938 -0.0781,-0.375 -0.0781,-1.54687 v -3.60938 h -1 v -1.75 h 1 v -1.65625 l 2.20312,-1.28125 v 2.9375 z m 3.71875,-3.15625 v 4.20313 q 1.0625,-1.23438 2.53125,-1.23438 0.76563,0 1.375,0.28125 0.60938,0.28125 0.90625,0.71875 0.3125,0.4375 0.42188,0.96875 0.125,0.53125 0.125,1.64063 v 4.875 h -2.20313 v -4.39063 q 0,-1.29687 -0.125,-1.64062 -0.125,-0.35938 -0.4375,-0.5625 -0.3125,-0.21875 -0.79687,-0.21875 -0.54688,0 -0.98438,0.26562 -0.42187,0.26563 -0.625,0.8125 -0.1875,0.53125 -0.1875,1.57813 v 4.15625 h -2.20312 v -11.45313 z m 12.38282,8.8125 2.1875,0.35938 q -0.42188,1.20312 -1.32813,1.84375 -0.90625,0.625 -2.28125,0.625 -2.15625,0 -3.20312,-1.42188 -0.8125,-1.125 -0.8125,-2.85937 0,-2.0625 1.07812,-3.21875 1.07813,-1.17188 2.71875,-1.17188 1.85938,0 2.92188,1.21875 1.07812,1.21875 1.03125,3.75 h -5.5 q 0.0156,0.96875 0.51562,1.51563 0.51563,0.54687 1.28125,0.54687 0.51563,0 0.85938,-0.28125 0.35937,-0.28125 0.53125,-0.90625 z m 0.125,-2.21875 q -0.0156,-0.95312 -0.48438,-1.45312 -0.46875,-0.5 -1.14062,-0.5 -0.71875,0 -1.1875,0.53125 -0.46875,0.51562 -0.46875,1.42187 z"
       id="path141" />
    <path
       inkscape:connector-curvature="0"
       style="fill:#000000;fill-rule:nonzero"
       d="m 487.72405,538.06481 h 2.04687 v 1.21875 q 0.39063,-0.625 1.0625,-1.01563 0.6875,-0.39062 1.51563,-0.39062 1.45312,0 2.45312,1.14062 1.01563,1.125 1.01563,3.14063 0,2.07812 -1.01563,3.23437 -1.01562,1.15625 -2.46875,1.15625 -0.6875,0 -1.25,-0.26562 -0.54687,-0.28125 -1.17187,-0.95313 v 4.1875 h -2.1875 z m 2.17187,4 q 0,1.40625 0.54688,2.07812 0.5625,0.65625 1.35937,0.65625 0.76563,0 1.26563,-0.60937 0.51562,-0.60938 0.51562,-2.01563 0,-1.29687 -0.53125,-1.92187 -0.51562,-0.64063 -1.29687,-0.64063 -0.79688,0 -1.32813,0.625 -0.53125,0.60938 -0.53125,1.82813 z m 9.30469,-1.46875 -2,-0.35938 q 0.34375,-1.20312 1.15625,-1.78125 0.82813,-0.57812 2.4375,-0.57812 1.46875,0 2.1875,0.34375 0.71875,0.34375 1.01563,0.89062 0.29687,0.53125 0.29687,1.95313 l -0.0312,2.5625 q 0,1.09375 0.10938,1.625 0.10937,0.51562 0.39062,1.10937 h -2.17187 q -0.0781,-0.21875 -0.20313,-0.65625 -0.0625,-0.1875 -0.0781,-0.25 -0.5625,0.54688 -1.20313,0.82813 -0.64062,0.26562 -1.375,0.26562 -1.28125,0 -2.01562,-0.6875 -0.73438,-0.70312 -0.73438,-1.76562 0,-0.70313 0.32813,-1.25 0.34375,-0.5625 0.9375,-0.84375 0.60937,-0.29688 1.75,-0.51563 1.54687,-0.29687 2.14062,-0.54687 v -0.21875 q 0,-0.625 -0.3125,-0.89063 -0.3125,-0.28125 -1.1875,-0.28125 -0.57812,0 -0.90625,0.23438 -0.32812,0.23437 -0.53125,0.8125 z m 2.9375,1.78125 q -0.42187,0.14062 -1.34375,0.34375 -0.90625,0.1875 -1.1875,0.375 -0.4375,0.29687 -0.4375,0.76562 0,0.46875 0.34375,0.8125 0.34375,0.32813 0.875,0.32813 0.59375,0 1.14063,-0.39063 0.39062,-0.29687 0.51562,-0.73437 0.0937,-0.28125 0.0937,-1.0625 z m 8.11719,-4.3125 v 1.75 h -1.5 v 3.34375 q 0,1.01562 0.0469,1.1875 0.0469,0.15625 0.1875,0.26562 0.15625,0.10938 0.375,0.10938 0.3125,0 0.89063,-0.20313 l 0.1875,1.70313 q -0.76563,0.32812 -1.73438,0.32812 -0.59375,0 -1.07812,-0.20312 -0.46875,-0.20313 -0.70313,-0.51563 -0.21875,-0.3125 -0.29687,-0.85937 -0.0781,-0.375 -0.0781,-1.54688 v -3.60937 h -1 v -1.75 h 1 v -1.65625 l 2.20313,-1.28125 v 2.9375 z m 3.71875,-3.15625 v 4.20312 q 1.0625,-1.23437 2.53125,-1.23437 0.76562,0 1.375,0.28125 0.60937,0.28125 0.90625,0.71875 0.3125,0.4375 0.42187,0.96875 0.125,0.53125 0.125,1.64062 v 4.875 h -2.20312 v -4.39062 q 0,-1.29688 -0.125,-1.64063 -0.125,-0.35937 -0.4375,-0.5625 -0.3125,-0.21875 -0.79688,-0.21875 -0.54687,0 -0.98437,0.26563 -0.42188,0.26562 -0.625,0.8125 -0.1875,0.53125 -0.1875,1.57812 v 4.15625 h -2.20313 v -11.45312 z m 6.80469,9.07812 2.20312,-0.32812 q 0.14063,0.64062 0.5625,0.96875 0.4375,0.32812 1.21875,0.32812 0.84375,0 1.28125,-0.3125 0.28125,-0.21875 0.28125,-0.57812 0,-0.25 -0.15625,-0.42188 -0.15625,-0.15625 -0.73437,-0.28125 -2.65625,-0.59375 -3.35938,-1.07812 -0.98437,-0.67188 -0.98437,-1.85938 0,-1.07812 0.84375,-1.8125 0.85937,-0.73437 2.64062,-0.73437 1.70313,0 2.53125,0.5625 0.82813,0.54687 1.14063,1.625 l -2.0625,0.39062 q -0.14063,-0.48437 -0.51563,-0.73437 -0.35937,-0.26563 -1.04687,-0.26563 -0.875,0 -1.25,0.23438 -0.25,0.17187 -0.25,0.45312 0,0.23438 0.21875,0.39063 0.29687,0.21875 2.04687,0.625 1.76563,0.39062 2.45313,0.96875 0.6875,0.59375 0.6875,1.64062 0,1.14063 -0.95313,1.96875 -0.95312,0.8125 -2.8125,0.8125 -1.70312,0 -2.6875,-0.6875 -0.98437,-0.6875 -1.29687,-1.875 z m 21.35937,-3.46875 -2.17187,0.39063 q -0.10938,-0.65625 -0.5,-0.98438 -0.375,-0.32812 -1,-0.32812 -0.8125,0 -1.3125,0.57812 -0.48438,0.5625 -0.48438,1.89063 0,1.46875 0.5,2.07812 0.5,0.60938 1.32813,0.60938 0.625,0 1.01562,-0.34375 0.40625,-0.35938 0.57813,-1.23438 l 2.15625,0.375 q -0.34375,1.48438 -1.29688,2.25 -0.95312,0.75 -2.54687,0.75 -1.82813,0 -2.90625,-1.14062 -1.07813,-1.15625 -1.07813,-3.1875 0,-2.0625 1.07813,-3.20313 1.09375,-1.14062 2.9375,-1.14062 1.51562,0 2.40625,0.65625 0.90625,0.64062 1.29687,1.98437 z m 1.14844,1.57813 q 0,-1.09375 0.53125,-2.10938 0.54687,-1.03125 1.53125,-1.5625 1,-0.54687 2.21875,-0.54687 1.875,0 3.07812,1.21875 1.20313,1.21875 1.20313,3.09375 0,1.875 -1.21875,3.125 -1.20313,1.23437 -3.04688,1.23437 -1.14062,0 -2.1875,-0.51562 -1.03125,-0.51563 -1.57812,-1.51563 -0.53125,-1 -0.53125,-2.42187 z m 2.25,0.10937 q 0,1.23438 0.57812,1.89063 0.59375,0.65625 1.45313,0.65625 0.85937,0 1.4375,-0.65625 0.59375,-0.65625 0.59375,-1.90625 0,-1.21875 -0.59375,-1.875 -0.57813,-0.65625 -1.4375,-0.65625 -0.85938,0 -1.45313,0.65625 -0.57812,0.65625 -0.57812,1.89062 z m 15.58591,4.15625 h -2.20313 v -4.23437 q 0,-1.34375 -0.14062,-1.73438 -0.14063,-0.40625 -0.45313,-0.625 -0.3125,-0.21875 -0.76562,-0.21875 -0.5625,0 -1.01563,0.3125 -0.45312,0.3125 -0.625,0.82813 -0.17187,0.51562 -0.17187,1.90625 v 3.76562 h -2.18747 v -8.29687 h 2.03122 v 1.21875 q 1.09375,-1.40625 2.73437,-1.40625 0.73438,0 1.32813,0.26562 0.60937,0.25 0.90625,0.65625 0.3125,0.40625 0.4375,0.92188 0.125,0.51562 0.125,1.48437 z m 9.46093,-5.84375 -2.17187,0.39063 q -0.10938,-0.65625 -0.5,-0.98438 -0.375,-0.32812 -1,-0.32812 -0.8125,0 -1.3125,0.57812 -0.48438,0.5625 -0.48438,1.89063 0,1.46875 0.5,2.07812 0.5,0.60938 1.32813,0.60938 0.625,0 1.01562,-0.34375 0.40625,-0.35938 0.57813,-1.23438 l 2.15625,0.375 q -0.34375,1.48438 -1.29688,2.25 -0.95312,0.75 -2.54687,0.75 -1.82813,0 -2.90625,-1.14062 -1.07813,-1.15625 -1.07813,-3.1875 0,-2.0625 1.07813,-3.20313 1.09375,-1.14062 2.9375,-1.14062 1.51562,0 2.40625,0.65625 0.90625,0.64062 1.29687,1.98437 z m 7.11719,5.84375 v -1.25 q -0.45312,0.67188 -1.1875,1.0625 -0.73437,0.375 -1.5625,0.375 -0.82812,0 -1.5,-0.35937 -0.65625,-0.375 -0.95312,-1.03125 -0.29688,-0.67188 -0.29688,-1.84375 v -5.25 h 2.1875 v 3.8125 q 0,1.75 0.125,2.14062 0.125,0.39063 0.4375,0.625 0.32813,0.23438 0.8125,0.23438 0.5625,0 1,-0.3125 0.45313,-0.3125 0.60938,-0.76563 0.17187,-0.45312 0.17187,-2.23437 v -3.5 h 2.20313 v 8.29687 z m 6.41406,0 h -2.1875 v -8.29687 h 2.03125 v 1.17187 q 0.53125,-0.82812 0.9375,-1.09375 0.42188,-0.26562 0.95313,-0.26562 0.75,0 1.45312,0.40625 l -0.6875,1.92187 q -0.54687,-0.35937 -1.03125,-0.35937 -0.45312,0 -0.78125,0.25 -0.3125,0.25 -0.5,0.92187 -0.1875,0.65625 -0.1875,2.78125 z m 6.22657,0 h -2.1875 v -8.29687 h 2.03125 v 1.17187 q 0.53125,-0.82812 0.9375,-1.09375 0.42187,-0.26562 0.95312,-0.26562 0.75,0 1.45313,0.40625 l -0.6875,1.92187 q -0.54688,-0.35937 -1.03125,-0.35937 -0.45313,0 -0.78125,0.25 -0.3125,0.25 -0.5,0.92187 -0.1875,0.65625 -0.1875,2.78125 z m 8.92968,-2.64062 2.1875,0.35937 q -0.42187,1.20313 -1.32812,1.84375 -0.90625,0.625 -2.28125,0.625 -2.15625,0 -3.20313,-1.42187 -0.8125,-1.125 -0.8125,-2.85938 0,-2.0625 1.07813,-3.21875 1.07812,-1.17187 2.71875,-1.17187 1.85937,0 2.92187,1.21875 1.07813,1.21875 1.03125,3.75 h -5.5 q 0.0156,0.96875 0.51563,1.51562 0.51562,0.54688 1.28125,0.54688 0.51562,0 0.85937,-0.28125 0.35938,-0.28125 0.53125,-0.90625 z m 0.125,-2.21875 q -0.0156,-0.95313 -0.48437,-1.45313 -0.46875,-0.5 -1.14063,-0.5 -0.71875,0 -1.1875,0.53125 -0.46875,0.51563 -0.46875,1.42188 z m 11.52344,4.85937 h -2.20312 v -4.23437 q 0,-1.34375 -0.14063,-1.73438 -0.14062,-0.40625 -0.45312,-0.625 -0.3125,-0.21875 -0.76563,-0.21875 -0.5625,0 -1.01562,0.3125 -0.45313,0.3125 -0.625,0.82813 -0.17188,0.51562 -0.17188,1.90625 v 3.76562 h -2.1875 v -8.29687 h 2.03125 v 1.21875 q 1.09375,-1.40625 2.73438,-1.40625 0.73437,0 1.32812,0.26562 0.60938,0.25 0.90625,0.65625 0.3125,0.40625 0.4375,0.92188 0.125,0.51562 0.125,1.48437 z m 6.02344,-8.29687 v 1.75 h -1.5 v 3.34375 q 0,1.01562 0.0469,1.1875 0.0469,0.15625 0.1875,0.26562 0.15625,0.10938 0.375,0.10938 0.3125,0 0.89063,-0.20313 l 0.1875,1.70313 q -0.76563,0.32812 -1.73438,0.32812 -0.59375,0 -1.07812,-0.20312 -0.46875,-0.20313 -0.70313,-0.51563 -0.21875,-0.3125 -0.29687,-0.85937 -0.0781,-0.375 -0.0781,-1.54688 v -3.60937 h -1 v -1.75 h 1 v -1.65625 l 2.20313,-1.28125 v 2.9375 z m 1.53125,8.29687 v -11.45312 h 2.1875 v 11.45312 z m 3.39844,-8.29687 h 2.34375 l 1.98437,5.89062 1.9375,-5.89062 h 2.26563 l -2.92188,7.98437 -0.53125,1.45313 q -0.28125,0.71875 -0.54687,1.09375 -0.26563,0.39062 -0.60938,0.625 -0.32812,0.25 -0.82812,0.375 -0.5,0.14062 -1.125,0.14062 -0.625,0 -1.23438,-0.14062 l -0.20312,-1.71875 q 0.51562,0.10937 0.9375,0.10937 0.76562,0 1.125,-0.45312 0.375,-0.45313 0.5625,-1.14063 z"
       id="path143" />
    <path
       inkscape:connector-curvature="0"
       style="fill:#000000;fill-opacity:0;fill-rule:evenodd"
       d="m 660.41817,583.34815 c -11.6181,0 -21.03644,-1.5697 -21.03644,-3.50592 v -47.94879 c 0,-1.93628 -9.41833,-3.50592 -21.03644,-3.50592 v 0 c 11.61811,0 21.03644,-1.56967 21.03644,-3.50595 v -47.94876 0 c 0,-1.93628 9.41834,-3.50592 21.03644,-3.50592 z"
       id="path145" />
    <path
       inkscape:connector-curvature="0"
       style="fill:#000000;fill-opacity:0;fill-rule:evenodd"
       d="m 660.41817,583.34815 c -11.6181,0 -21.03644,-1.5697 -21.03644,-3.50592 v -47.94879 c 0,-1.93628 -9.41833,-3.50592 -21.03644,-3.50592 v 0 c 11.61811,0 21.03644,-1.56967 21.03644,-3.50595 v -47.94876 0 c 0,-1.93628 9.41834,-3.50592 21.03644,-3.50592"
       id="path147" />
    <path
       inkscape:connector-curvature="0"
       style="fill-rule:evenodd;stroke:#000000;stroke-width:2;stroke-linecap:butt;stroke-linejoin:round"
       d="m 660.41817,583.34815 c -11.6181,0 -21.03644,-1.5697 -21.03644,-3.50592 v -47.94879 c 0,-1.93628 -9.41833,-3.50592 -21.03644,-3.50592 v 0 c 11.61811,0 21.03644,-1.56967 21.03644,-3.50595 v -47.94876 0 c 0,-1.93628 9.41834,-3.50592 21.03644,-3.50592"
       id="path149" />
  </g>
</svg>
