<?xml version="1.0" encoding="UTF-8" standalone="no"?>
<svg
   xmlns:dc="http://purl.org/dc/elements/1.1/"
   xmlns:cc="http://creativecommons.org/ns#"
   xmlns:rdf="http://www.w3.org/1999/02/22-rdf-syntax-ns#"
   xmlns:svg="http://www.w3.org/2000/svg"
   xmlns="http://www.w3.org/2000/svg"
   xmlns:sodipodi="http://sodipodi.sourceforge.net/DTD/sodipodi-0.dtd"
   xmlns:inkscape="http://www.inkscape.org/namespaces/inkscape"
   version="1.1"
   viewBox="0 0 373.03934 530.87701"
   stroke-miterlimit="10"
   id="svg4879"
   sodipodi:docname="example1ControlGraph.svg"
   width="373.03934"
   height="530.87701"
   style="fill:none;stroke:none;stroke-linecap:square;stroke-miterlimit:10"
   inkscape:version="0.92.1 r15371"
   inkscape:export-filename="/home/alexds9/Thesis/ThesisToLatex/ThesisToLatex/Figures/example1ControlGraph.png"
   inkscape:export-xdpi="400"
   inkscape:export-ydpi="400">
  <metadata
     id="metadata4885">
    <rdf:RDF>
      <cc:Work
         rdf:about="">
        <dc:format>image/svg+xml</dc:format>
        <dc:type
           rdf:resource="http://purl.org/dc/dcmitype/StillImage" />
        <dc:title></dc:title>
      </cc:Work>
    </rdf:RDF>
  </metadata>
  <defs
     id="defs4883" />
  <sodipodi:namedview
     pagecolor="#ffffff"
     bordercolor="#666666"
     borderopacity="1"
     objecttolerance="10"
     gridtolerance="10"
     guidetolerance="10"
     inkscape:pageopacity="0"
     inkscape:pageshadow="2"
     inkscape:window-width="1535"
     inkscape:window-height="876"
     id="namedview4881"
     showgrid="false"
     fit-margin-top="5"
     fit-margin-right="5"
     fit-margin-bottom="5"
     fit-margin-left="5"
     inkscape:zoom="0.61041667"
     inkscape:cx="14.922838"
     inkscape:cy="320.52192"
     inkscape:window-x="65"
     inkscape:window-y="24"
     inkscape:window-maximized="1"
     inkscape:current-layer="g4877" />
  <clipPath
     id="p.0">
    <path
       d="M 0,0 H 960 V 720 H 0 Z"
       id="path4782"
       inkscape:connector-curvature="0"
       style="clip-rule:nonzero" />
  </clipPath>
  <g
     clip-path="url(#p.0)"
     id="g4877"
     transform="translate(-191.91036,-67.940344)">
    <path
       inkscape:connector-curvature="0"
       style="fill:#ffcc00;fill-rule:evenodd"
       d="m 262.92628,125.8931 v 0 c 0,-28.692715 22.97098,-51.952756 51.3071,-51.952756 v 0 c 13.60748,0 26.65765,5.473579 36.27957,15.21661 9.62195,9.743031 15.0275,22.957416 15.0275,36.736146 v 0 c 0,28.69271 -22.97095,51.95276 -51.30707,51.95276 v 0 c -28.33612,0 -51.3071,-23.26005 -51.3071,-51.95276 z"
       id="path4787" />
    <path
       inkscape:connector-curvature="0"
       style="fill-rule:evenodd;stroke:#000000;stroke-width:2;stroke-linecap:butt;stroke-linejoin:round"
       d="m 262.92628,125.8931 v 0 c 0,-28.692715 22.97098,-51.952756 51.3071,-51.952756 v 0 c 13.60748,0 26.65765,5.473579 36.27957,15.21661 9.62195,9.743031 15.0275,22.957416 15.0275,36.736146 v 0 c 0,28.69271 -22.97095,51.95276 -51.30707,51.95276 v 0 c -28.33612,0 -51.3071,-23.26005 -51.3071,-51.95276 z"
       id="path4789" />
    <path
       inkscape:connector-curvature="0"
       style="fill:#000000;fill-opacity:0;fill-rule:evenodd"
       d="M 258.98123,89.592851 H 377.68988 V 142.0023 H 258.98123 Z"
       id="path4791" />
    <path
       inkscape:connector-curvature="0"
       style="fill:#000000;fill-rule:nonzero"
       d="m 271.66062,121.83285 v -5.70313 h 0.875 v 0.79688 q 0.26562,-0.42188 0.70312,-0.67188 0.45313,-0.25 1.01563,-0.25 0.64062,0 1.04687,0.26563 0.40625,0.25 0.57813,0.73437 0.67187,-1 1.75,-1 0.85937,0 1.3125,0.46875 0.45312,0.46875 0.45312,1.4375 v 3.92188 h -0.95312 v -3.59375 q 0,-0.57813 -0.0937,-0.82813 -0.0937,-0.26562 -0.34375,-0.42187 -0.25,-0.15625 -0.57813,-0.15625 -0.60937,0 -1.01562,0.40625 -0.39063,0.40625 -0.39063,1.28125 v 3.3125 h -0.96875 v -3.70313 q 0,-0.64062 -0.23437,-0.96875 -0.23438,-0.32812 -0.76563,-0.32812 -0.40625,0 -0.76562,0.21875 -0.34375,0.21875 -0.5,0.64062 -0.15625,0.40625 -0.15625,1.1875 v 2.95313 z m 8.51736,-2.85938 q 0,-1.57812 0.89063,-2.34375 0.73437,-0.625 1.79687,-0.625 1.17188,0 1.90625,0.76563 0.75,0.76562 0.75,2.125 0,1.10937 -0.32812,1.75 -0.32813,0.625 -0.96875,0.96875 -0.625,0.34375 -1.35938,0.34375 -1.20312,0 -1.95312,-0.76563 -0.73438,-0.76562 -0.73438,-2.21875 z m 1,0 q 0,1.10938 0.46875,1.65625 0.48438,0.53125 1.21875,0.53125 0.71875,0 1.1875,-0.54687 0.48438,-0.54688 0.48438,-1.67188 0,-1.04687 -0.48438,-1.59375 -0.48437,-0.54687 -1.1875,-0.54687 -0.73437,0 -1.21875,0.54687 -0.46875,0.53125 -0.46875,1.625 z m 6.87964,2.85938 -2.17187,-5.70313 h 1.01562 l 1.23438,3.42188 q 0.1875,0.54687 0.35937,1.14062 0.125,-0.45312 0.35938,-1.07812 l 1.26562,-3.48438 h 1 l -2.15625,5.70313 z m 7.64063,-1.84375 1,0.125 q -0.23438,0.875 -0.875,1.35937 -0.64063,0.48438 -1.625,0.48438 -1.25,0 -1.98438,-0.76563 -0.73437,-0.76562 -0.73437,-2.15625 0,-1.45312 0.73437,-2.23437 0.75,-0.79688 1.92188,-0.79688 1.15625,0 1.875,0.78125 0.71875,0.76563 0.71875,2.1875 0,0.0781 0,0.25 h -4.25 q 0.0469,0.9375 0.51562,1.4375 0.48438,0.5 1.20313,0.5 0.53125,0 0.90625,-0.26562 0.375,-0.28125 0.59375,-0.90625 z m -3.17188,-1.5625 h 3.1875 q -0.0625,-0.71875 -0.35937,-1.07813 -0.46875,-0.54687 -1.20313,-0.54687 -0.67187,0 -1.125,0.45312 -0.45312,0.4375 -0.5,1.17188 z m 4.30149,5.59375 v -0.70313 h 6.40625 v 0.70313 z m 8.94214,-3.04688 0.125,0.84375 q -0.40625,0.0937 -0.71875,0.0937 -0.53125,0 -0.82813,-0.17187 -0.28125,-0.17188 -0.40625,-0.4375 -0.10937,-0.26563 -0.10937,-1.14063 v -3.28125 h -0.71875 v -0.75 h 0.71875 v -1.40625 l 0.95312,-0.59375 v 2 H 305.77 v 0.75 h -0.98438 v 3.34375 q 0,0.40625 0.0469,0.53125 0.0625,0.10938 0.17187,0.1875 0.125,0.0625 0.32813,0.0625 0.17187,0 0.4375,-0.0312 z m 0.47625,-2 q 0,-1.57812 0.89063,-2.34375 0.73437,-0.625 1.79687,-0.625 1.17188,0 1.90625,0.76563 0.75,0.76562 0.75,2.125 0,1.10937 -0.32812,1.75 -0.32813,0.625 -0.96875,0.96875 -0.625,0.34375 -1.35938,0.34375 -1.20312,0 -1.95312,-0.76563 -0.73438,-0.76562 -0.73438,-2.21875 z m 1,0 q 0,1.10938 0.46875,1.65625 0.48438,0.53125 1.21875,0.53125 0.71875,0 1.1875,-0.54687 0.48438,-0.54688 0.48438,-1.67188 0,-1.04687 -0.48438,-1.59375 -0.48437,-0.54687 -1.1875,-0.54687 -0.73437,0 -1.21875,0.54687 -0.46875,0.53125 -0.46875,1.625 z m 7.14527,5.17188 q -0.8125,-1 -1.35938,-2.35938 -0.54687,-1.35937 -0.54687,-2.8125 0,-1.26562 0.40625,-2.4375 0.48437,-1.35937 1.5,-2.71875 h 0.6875 q -0.65625,1.125 -0.85938,1.60938 -0.32812,0.73437 -0.51562,1.54687 -0.23438,1 -0.23438,2.01563 0,2.57812 1.60938,5.15625 z m 5.39236,-2.3125 v -0.71875 q -0.53125,0.84375 -1.59375,0.84375 -0.67187,0 -1.25,-0.375 -0.57812,-0.375 -0.89062,-1.04688 -0.3125,-0.67187 -0.3125,-1.54687 0,-0.85938 0.28125,-1.54688 0.29687,-0.70312 0.85937,-1.0625 0.5625,-0.375 1.26563,-0.375 0.51562,0 0.92187,0.21875 0.40625,0.21875 0.65625,0.5625 v -2.82812 h 0.96875 v 7.875 z m -3.04687,-2.84375 q 0,1.09375 0.45312,1.64062 0.46875,0.53125 1.09375,0.53125 0.64063,0 1.07813,-0.51562 0.4375,-0.51563 0.4375,-1.57813 0,-1.17187 -0.45313,-1.71875 -0.4375,-0.54687 -1.10937,-0.54687 -0.64063,0 -1.07813,0.53125 -0.42187,0.51562 -0.42187,1.65625 z m 4.91085,-0.0156 q 0,-1.57813 0.89063,-2.34375 0.73437,-0.625 1.79687,-0.625 1.17188,0 1.90625,0.76562 0.75,0.76563 0.75,2.125 0,1.10938 -0.32812,1.75 -0.32813,0.625 -0.96875,0.96875 -0.625,0.34375 -1.35938,0.34375 -1.20312,0 -1.95312,-0.76562 -0.73438,-0.76563 -0.73438,-2.21875 z m 1,0 q 0,1.10937 0.46875,1.65625 0.48438,0.53125 1.21875,0.53125 0.71875,0 1.1875,-0.54688 0.48438,-0.54687 0.48438,-1.67187 0,-1.04688 -0.48438,-1.59375 -0.48437,-0.54688 -1.1875,-0.54688 -0.73437,0 -1.21875,0.54688 -0.46875,0.53125 -0.46875,1.625 z m 4.92652,0 q 0,-1.57813 0.89062,-2.34375 0.73438,-0.625 1.79688,-0.625 1.17187,0 1.90625,0.76562 0.75,0.76563 0.75,2.125 0,1.10938 -0.32813,1.75 -0.32812,0.625 -0.96875,0.96875 -0.625,0.34375 -1.35937,0.34375 -1.20313,0 -1.95313,-0.76562 -0.73437,-0.76563 -0.73437,-2.21875 z m 1,0 q 0,1.10937 0.46875,1.65625 0.48437,0.53125 1.21875,0.53125 0.71875,0 1.1875,-0.54688 0.48437,-0.54687 0.48437,-1.67187 0,-1.04688 -0.48437,-1.59375 -0.48438,-0.54688 -1.1875,-0.54688 -0.73438,0 -1.21875,0.54688 -0.46875,0.53125 -0.46875,1.625 z m 5.28586,2.85937 v -5.70312 h 0.85937 v 0.85938 q 0.34375,-0.60938 0.625,-0.79688 0.28125,-0.1875 0.60938,-0.1875 0.5,0 1,0.3125 l -0.32813,0.89063 q -0.35937,-0.20313 -0.71875,-0.20313 -0.3125,0 -0.5625,0.1875 -0.25,0.1875 -0.35937,0.53125 -0.15625,0.51563 -0.15625,1.125 v 2.98438 z m 4.61111,0 -1.75,-5.70312 h 1 l 0.90625,3.29687 0.34375,1.21875 q 0.0156,-0.0937 0.29687,-1.17187 l 0.90625,-3.34375 h 0.98438 l 0.85937,3.3125 0.28125,1.07812 0.32813,-1.09375 0.98437,-3.29687 h 0.9375 l -1.78125,5.70312 h -1 l -0.92187,-3.42187 -0.21875,-0.96875 -1.15625,4.39062 z m 10.36749,-0.70312 q -0.54687,0.45312 -1.04687,0.64062 -0.48438,0.1875 -1.0625,0.1875 -0.9375,0 -1.45313,-0.45312 -0.5,-0.46875 -0.5,-1.17188 0,-0.42187 0.1875,-0.76562 0.20313,-0.34375 0.5,-0.54688 0.3125,-0.21875 0.70313,-0.32812 0.28125,-0.0781 0.85937,-0.14063 1.17188,-0.14062 1.71875,-0.34375 0.0156,-0.1875 0.0156,-0.25 0,-0.59375 -0.28125,-0.82812 -0.35938,-0.32813 -1.09375,-0.32813 -0.6875,0 -1.01563,0.23438 -0.3125,0.23437 -0.46875,0.84375 l -0.95312,-0.125 q 0.125,-0.60938 0.42187,-0.98438 0.29688,-0.375 0.85938,-0.5625 0.5625,-0.20312 1.29687,-0.20312 0.73438,0 1.1875,0.17187 0.45313,0.17188 0.65625,0.4375 0.21875,0.25 0.3125,0.64063 0.0469,0.25 0.0469,0.90625 v 1.28125 q 0,1.34375 0.0625,1.70312 0.0625,0.35938 0.25,0.6875 h -1.01563 q -0.15625,-0.29687 -0.1875,-0.70312 z m -0.0937,-2.15625 q -0.51562,0.21875 -1.57812,0.35937 -0.59375,0.0937 -0.84375,0.20313 -0.23438,0.0937 -0.375,0.3125 -0.14063,0.20312 -0.14063,0.45312 0,0.39063 0.29688,0.65625 0.29687,0.25 0.85937,0.25 0.5625,0 0.98438,-0.25 0.4375,-0.25 0.65625,-0.67187 0.14062,-0.32813 0.14062,-0.96875 z m 2.25461,5.0625 -0.10937,-0.90625 q 0.3125,0.0781 0.54687,0.0781 0.32813,0 0.51563,-0.10938 0.20312,-0.10937 0.3125,-0.29687 0.0937,-0.14063 0.29687,-0.71875 0.0312,-0.0781 0.0937,-0.23438 l -2.17187,-5.71875 h 1.04687 l 1.1875,3.29688 q 0.23438,0.64062 0.40625,1.32812 0.17188,-0.67187 0.40625,-1.29687 l 1.21875,-3.32813 h 0.96875 l -2.17187,5.79688 q -0.34375,0.9375 -0.54688,1.29687 -0.25,0.48438 -0.59375,0.70313 -0.32812,0.21875 -0.78125,0.21875 -0.28125,0 -0.625,-0.10938 z m 6,0.10937 h -0.6875 q 1.59375,-2.57812 1.59375,-5.15625 0,-1.01562 -0.21875,-2 -0.1875,-0.8125 -0.51562,-1.54687 -0.20313,-0.48438 -0.85938,-1.625 h 0.6875 q 1.01563,1.35937 1.5,2.71875 0.40625,1.17187 0.40625,2.4375 0,1.45312 -0.5625,2.8125 -0.54687,1.35937 -1.34375,2.35937 z"
       id="path4793" />
    <path
       inkscape:connector-curvature="0"
       style="fill:#000000;fill-rule:nonzero"
       d="m 280.5582,128.06722 v -1.10937 h 0.96875 v 1.10937 z m 0,6.76563 v -5.70313 h 0.96875 v 5.70313 z m 1.97684,-1.70313 0.95312,-0.15625 q 0.0781,0.57813 0.4375,0.89063 0.375,0.29687 1.03125,0.29687 0.67188,0 0.98438,-0.26562 0.32812,-0.26563 0.32812,-0.64063 0,-0.32812 -0.28125,-0.51562 -0.20312,-0.125 -0.98437,-0.32813 -1.0625,-0.26562 -1.48438,-0.45312 -0.40625,-0.20313 -0.625,-0.54688 -0.20312,-0.34375 -0.20312,-0.76562 0,-0.39063 0.17187,-0.70313 0.17188,-0.32812 0.48438,-0.54687 0.21875,-0.17188 0.60937,-0.28125 0.39063,-0.10938 0.82813,-0.10938 0.67187,0 1.17187,0.1875 0.51563,0.1875 0.75,0.53125 0.25,0.32813 0.34375,0.875 l -0.9375,0.125 q -0.0781,-0.4375 -0.39062,-0.67187 -0.29688,-0.25 -0.85938,-0.25 -0.67187,0 -0.95312,0.21875 -0.28125,0.21875 -0.28125,0.51562 0,0.1875 0.10937,0.32813 0.125,0.15625 0.375,0.26562 0.14063,0.0469 0.85938,0.25 1.01562,0.26563 1.42187,0.4375 0.40625,0.17188 0.64063,0.51563 0.23437,0.32812 0.23437,0.82812 0,0.48438 -0.28125,0.90625 -0.28125,0.42188 -0.8125,0.65625 -0.53125,0.23438 -1.20312,0.23438 -1.10938,0 -1.70313,-0.45313 -0.57812,-0.46875 -0.73437,-1.375 z m 4.8125,3.89063 v -0.70313 h 6.40625 v 0.70313 z m 10.52026,-2.1875 v -0.71875 q -0.53125,0.84375 -1.59375,0.84375 -0.67187,0 -1.25,-0.375 -0.57812,-0.375 -0.89062,-1.04688 -0.3125,-0.67187 -0.3125,-1.54687 0,-0.85938 0.28125,-1.54688 0.29687,-0.70312 0.85937,-1.0625 0.5625,-0.375 1.26563,-0.375 0.51562,0 0.92187,0.21875 0.40625,0.21875 0.65625,0.5625 v -2.82812 h 0.96875 v 7.875 z m -3.04687,-2.84375 q 0,1.09375 0.45312,1.64062 0.46875,0.53125 1.09375,0.53125 0.64063,0 1.07813,-0.51562 0.4375,-0.51563 0.4375,-1.57813 0,-1.17187 -0.45313,-1.71875 -0.4375,-0.54687 -1.10937,-0.54687 -0.64063,0 -1.07813,0.53125 -0.42187,0.51562 -0.42187,1.65625 z m 4.91085,-0.0156 q 0,-1.57813 0.89063,-2.34375 0.73437,-0.625 1.79687,-0.625 1.17188,0 1.90625,0.76562 0.75,0.76563 0.75,2.125 0,1.10938 -0.32812,1.75 -0.32813,0.62501 -0.96875,0.96876 -0.625,0.34375 -1.35938,0.34375 -1.20312,0 -1.95312,-0.76563 -0.73438,-0.76563 -0.73438,-2.21875 z m 1,0 q 0,1.10937 0.46875,1.65625 0.48438,0.53125 1.21875,0.53125 0.71875,0 1.1875,-0.54688 0.48438,-0.54687 0.48438,-1.67187 0,-1.04688 -0.48438,-1.59375 -0.48437,-0.54688 -1.1875,-0.54688 -0.73437,0 -1.21875,0.54688 -0.46875,0.53125 -0.46875,1.625 z m 4.92652,0 q 0,-1.57813 0.89062,-2.34375 0.73438,-0.625 1.79688,-0.625 1.17187,0 1.90625,0.76562 0.75,0.76563 0.75,2.125 0,1.10938 -0.32813,1.75 -0.32812,0.62501 -0.96875,0.96876 -0.625,0.34375 -1.35937,0.34375 -1.20313,0 -1.95313,-0.76563 -0.73437,-0.76563 -0.73437,-2.21875 z m 1,0 q 0,1.10937 0.46875,1.65625 0.48437,0.53125 1.21875,0.53125 0.71875,0 1.1875,-0.54688 0.48437,-0.54687 0.48437,-1.67187 0,-1.04688 -0.48437,-1.59375 -0.48438,-0.54688 -1.1875,-0.54688 -0.73438,0 -1.21875,0.54688 -0.46875,0.53125 -0.46875,1.625 z m 5.28586,2.85938 v -5.70313 h 0.85937 v 0.85937 q 0.34375,-0.60937 0.625,-0.79687 0.28125,-0.1875 0.60938,-0.1875 0.5,0 1,0.3125 l -0.32813,0.89062 q -0.35937,-0.20312 -0.71875,-0.20312 -0.3125,0 -0.5625,0.1875 -0.25,0.1875 -0.35937,0.53125 -0.15625,0.51562 -0.15625,1.125 v 2.98438 z m 2.65799,2.1875 v -0.70313 h 6.40625 v 0.70313 z m 6.45776,-5.04688 q 0,-1.57813 0.89062,-2.34375 0.73438,-0.625 1.79688,-0.625 1.17187,0 1.90625,0.76562 0.75,0.76563 0.75,2.125 0,1.10938 -0.32813,1.75 -0.32812,0.62501 -0.96875,0.96876 -0.625,0.34375 -1.35937,0.34375 -1.20313,0 -1.95313,-0.76563 -0.73437,-0.76563 -0.73437,-2.21875 z m 1,0 q 0,1.10937 0.46875,1.65625 0.48437,0.53125 1.21875,0.53125 0.71875,0 1.1875,-0.54688 0.48437,-0.54687 0.48437,-1.67187 0,-1.04688 -0.48437,-1.59375 -0.48438,-0.54688 -1.1875,-0.54688 -0.73438,0 -1.21875,0.54688 -0.46875,0.53125 -0.46875,1.625 z m 5.28586,5.04688 v -7.89063 h 0.89062 v 0.73437 q 0.3125,-0.42187 0.70313,-0.64062 0.39062,-0.21875 0.95312,-0.21875 0.71875,0 1.28125,0.375 0.5625,0.375 0.84375,1.0625 0.28125,0.67187 0.28125,1.5 0,0.875 -0.3125,1.57812 -0.3125,0.68751 -0.92187,1.06251 -0.59375,0.375 -1.25,0.375 -0.48438,0 -0.875,-0.20313 -0.375,-0.20312 -0.625,-0.51562 v 2.78125 z m 0.875,-5.00001 q 0,1.09375 0.45312,1.625 0.45313,0.51563 1.07813,0.51563 0.64062,0 1.09375,-0.53125 0.46875,-0.54688 0.46875,-1.70313 0,-1.07812 -0.45313,-1.625 -0.4375,-0.54687 -1.0625,-0.54687 -0.625,0 -1.10937,0.57812 -0.46875,0.57813 -0.46875,1.6875 z m 8.95776,0.96875 1,0.125 q -0.23437,0.875 -0.875,1.35938 -0.64062,0.48438 -1.625,0.48438 -1.25,0 -1.98437,-0.76563 -0.73438,-0.76563 -0.73438,-2.15625 0,-1.45313 0.73438,-2.23438 0.75,-0.79687 1.92187,-0.79687 1.15625,0 1.875,0.78125 0.71875,0.76562 0.71875,2.1875 0,0.0781 0,0.25 h -4.25 q 0.0469,0.9375 0.51563,1.4375 0.48437,0.5 1.20312,0.5 0.53125,0 0.90625,-0.26563 0.375,-0.28125 0.59375,-0.90625 z m -3.17187,-1.5625 h 3.1875 q -0.0625,-0.71875 -0.35938,-1.07812 -0.46875,-0.54688 -1.20312,-0.54688 -0.67188,0 -1.125,0.45313 -0.45313,0.4375 -0.5,1.17187 z m 5.1921,3.40626 v -5.70313 h 0.875 v 0.8125 q 0.625,-0.9375 1.8125,-0.9375 0.51563,0 0.95313,0.1875 0.4375,0.17187 0.64062,0.48437 0.21875,0.29688 0.3125,0.70313 0.0469,0.28125 0.0469,0.95312 v 3.50001 h -0.96875 v -3.46876 q 0,-0.59375 -0.10938,-0.875 -0.10937,-0.29687 -0.40625,-0.46875 -0.28125,-0.1875 -0.67187,-0.1875 -0.60938,0 -1.0625,0.39063 -0.45313,0.39062 -0.45313,1.5 v 3.10938 z"
       id="path4795" />
    <path
       inkscape:connector-curvature="0"
       style="fill:#ccff00;fill-rule:evenodd"
       d="m 280.38934,236.05207 34.26773,-33.16536 34.2677,33.16536 -34.2677,33.16534 z"
       id="path4797" />
    <path
       inkscape:connector-curvature="0"
       style="fill-rule:evenodd;stroke:#000000;stroke-width:2;stroke-linecap:butt;stroke-linejoin:round"
       d="m 280.38934,236.05207 34.26773,-33.16536 34.2677,33.16536 -34.2677,33.16534 z"
       id="path4799" />
    <path
       inkscape:connector-curvature="0"
       style="fill:#000000;fill-opacity:0;fill-rule:evenodd"
       d="m 196.91036,347.63605 h 140.88188 v 27.90552 H 196.91036 Z"
       id="path4801" />
    <path
       inkscape:connector-curvature="0"
       style="fill:#000000;fill-rule:nonzero"
       d="m 209.31661,361.17292 v 1.20312 h -1.03125 v 2.29688 q 0,0.70312 0.0312,0.82812 0.0312,0.10938 0.125,0.1875 0.10937,0.0625 0.26562,0.0625 0.20313,0 0.60938,-0.14062 l 0.125,1.17187 q -0.53125,0.21875 -1.1875,0.21875 -0.42188,0 -0.75,-0.125 -0.32813,-0.14062 -0.48438,-0.35937 -0.14062,-0.21875 -0.20312,-0.59375 -0.0469,-0.26563 -0.0469,-1.0625 v -2.48438 h -0.6875 v -1.20312 h 0.6875 v -1.14063 l 1.51563,-0.875 v 2.01563 z m 2.37674,5.70312 h -1.51563 v -5.70312 h 1.40625 v 0.8125 q 0.35938,-0.57813 0.64063,-0.75 0.29687,-0.1875 0.65625,-0.1875 0.51562,0 1,0.28125 l -0.46875,1.3125 q -0.375,-0.25 -0.70313,-0.25 -0.32812,0 -0.54687,0.1875 -0.21875,0.17187 -0.34375,0.625 -0.125,0.45312 -0.125,1.90625 z m 6.45949,0 v -0.85937 q -0.3125,0.46875 -0.82813,0.73437 -0.5,0.25 -1.0625,0.25 -0.57812,0 -1.03125,-0.25 -0.45312,-0.25 -0.67187,-0.70312 -0.20313,-0.46875 -0.20313,-1.26563 v -3.60937 h 1.51563 v 2.625 q 0,1.20312 0.0781,1.46875 0.0937,0.26562 0.3125,0.4375 0.21875,0.15625 0.5625,0.15625 0.375,0 0.6875,-0.20313 0.3125,-0.21875 0.42188,-0.53125 0.10937,-0.32812 0.10937,-1.54687 v -2.40625 h 1.51563 v 5.70312 z m 6.05613,-1.8125 1.5,0.25 q -0.28125,0.82813 -0.90625,1.26563 -0.625,0.42187 -1.57812,0.42187 -1.48438,0 -2.20313,-0.96875 -0.5625,-0.78125 -0.5625,-1.96875 0,-1.42187 0.73438,-2.21875 0.75,-0.79687 1.89062,-0.79687 1.26563,0 2,0.84375 0.73438,0.82812 0.70313,2.5625 h -3.78125 q 0.0156,0.67187 0.35937,1.04687 0.35938,0.375 0.875,0.375 0.35938,0 0.59375,-0.1875 0.25,-0.20312 0.375,-0.625 z m 0.0781,-1.53125 q -0.0156,-0.65625 -0.34375,-0.98437 -0.3125,-0.34375 -0.76563,-0.34375 -0.5,0 -0.82812,0.35937 -0.3125,0.35938 -0.3125,0.96875 z m 5.16838,-1.04687 v -1.375 h 5.51563 v 1.375 z m 0,2.39062 v -1.39062 h 5.51563 v 1.39062 z m 6.22308,-2.39062 v -1.375 h 5.51563 v 1.375 z m 0,2.39062 v -1.39062 h 5.51563 v 1.39062 z m 14.74625,2 h -1.39063 v -0.84375 q -0.35937,0.5 -0.84375,0.73438 -0.46875,0.23437 -0.9375,0.23437 -0.98437,0 -1.6875,-0.78125 -0.70312,-0.79687 -0.70312,-2.21875 0,-1.45312 0.67187,-2.20312 0.6875,-0.75 1.73438,-0.75 0.95312,0 1.65625,0.79687 v -2.84375 h 1.5 z m -4.01563,-2.96875 q 0,0.90625 0.25,1.3125 0.35938,0.59375 1.01563,0.59375 0.51562,0 0.875,-0.4375 0.375,-0.45312 0.375,-1.32812 0,-0.98438 -0.35938,-1.40625 -0.34375,-0.4375 -0.90625,-0.4375 -0.53125,0 -0.89062,0.42187 -0.35938,0.42188 -0.35938,1.28125 z m 4.94675,0.0312 q 0,-0.75 0.375,-1.45312 0.375,-0.70313 1.04688,-1.0625 0.6875,-0.375 1.51562,-0.375 1.29688,0 2.125,0.84375 0.82813,0.82812 0.82813,2.10937 0,1.29688 -0.84375,2.15625 -0.82813,0.84375 -2.09375,0.84375 -0.78125,0 -1.5,-0.34375 -0.70313,-0.35937 -1.07813,-1.04687 -0.375,-0.6875 -0.375,-1.67188 z m 1.54688,0.0781 q 0,0.85937 0.40625,1.3125 0.40625,0.45312 1,0.45312 0.57812,0 0.98437,-0.45312 0.40625,-0.45313 0.40625,-1.3125 0,-0.84375 -0.40625,-1.29688 -0.40625,-0.45312 -0.98437,-0.45312 -0.59375,0 -1,0.45312 -0.40625,0.45313 -0.40625,1.29688 z m 4.9624,-0.0781 q 0,-0.75 0.375,-1.45312 0.375,-0.70313 1.04687,-1.0625 0.6875,-0.375 1.51563,-0.375 1.29687,0 2.125,0.84375 0.82812,0.82812 0.82812,2.10937 0,1.29688 -0.84375,2.15625 -0.82812,0.84375 -2.09375,0.84375 -0.78125,0 -1.5,-0.34375 -0.70312,-0.35937 -1.07812,-1.04687 -0.375,-0.6875 -0.375,-1.67188 z m 1.54687,0.0781 q 0,0.85937 0.40625,1.3125 0.40625,0.45312 1,0.45312 0.57813,0 0.98438,-0.45312 0.40625,-0.45313 0.40625,-1.3125 0,-0.84375 -0.40625,-1.29688 -0.40625,-0.45312 -0.98438,-0.45312 -0.59375,0 -1,0.45312 -0.40625,0.45313 -0.40625,1.29688 z m 6.75925,2.85937 h -1.51562 v -5.70312 h 1.40625 v 0.8125 q 0.35937,-0.57813 0.64062,-0.75 0.29688,-0.1875 0.65625,-0.1875 0.51563,0 1,0.28125 l -0.46875,1.3125 q -0.375,-0.25 -0.70312,-0.25 -0.32813,0 -0.54688,0.1875 -0.21875,0.17187 -0.34375,0.625 -0.125,0.45312 -0.125,1.90625 z m 1.80325,2.17188 v -0.96875 h 6.28125 v 0.96875 z m 6.47336,-5.10938 q 0,-0.75 0.375,-1.45312 0.375,-0.70313 1.04688,-1.0625 0.6875,-0.375 1.51562,-0.375 1.29688,0 2.125,0.84375 0.82813,0.82812 0.82813,2.10937 0,1.29688 -0.84375,2.15625 -0.82813,0.84375 -2.09375,0.84375 -0.78125,0 -1.5,-0.34375 -0.70313,-0.35937 -1.07813,-1.04687 -0.375,-0.6875 -0.375,-1.67188 z m 1.54688,0.0781 q 0,0.85937 0.40625,1.3125 0.40625,0.45312 1,0.45312 0.57812,0 0.98437,-0.45312 0.40625,-0.45313 0.40625,-1.3125 0,-0.84375 -0.40625,-1.29688 -0.40625,-0.45312 -0.98437,-0.45312 -0.59375,0 -1,0.45312 -0.40625,0.45313 -0.40625,1.29688 z m 5.2749,-2.84375 h 1.40625 v 0.84375 q 0.26562,-0.4375 0.73437,-0.70313 0.46875,-0.26562 1.04688,-0.26562 0.98437,0 1.67187,0.78125 0.70313,0.76562 0.70313,2.15625 0,1.4375 -0.70313,2.23437 -0.6875,0.78125 -1.6875,0.78125 -0.46875,0 -0.85937,-0.1875 -0.375,-0.1875 -0.8125,-0.64062 v 2.875 h -1.5 z m 1.48437,2.75 q 0,0.96875 0.375,1.4375 0.39063,0.45312 0.9375,0.45312 0.53125,0 0.875,-0.42187 0.35938,-0.42188 0.35938,-1.39063 0,-0.89062 -0.35938,-1.32812 -0.35937,-0.4375 -0.89062,-0.4375 -0.5625,0 -0.9375,0.4375 -0.35938,0.42187 -0.35938,1.25 z m 8.36863,1.14062 1.5,0.25 q -0.28125,0.82813 -0.90625,1.26563 -0.625,0.42187 -1.57813,0.42187 -1.48437,0 -2.20312,-0.96875 -0.5625,-0.78125 -0.5625,-1.96875 0,-1.42187 0.73437,-2.21875 0.75,-0.79687 1.89063,-0.79687 1.26562,0 2,0.84375 0.73437,0.82812 0.70312,2.5625 h -3.78125 q 0.0156,0.67187 0.35938,1.04687 0.35937,0.375 0.875,0.375 0.35937,0 0.59375,-0.1875 0.25,-0.20312 0.375,-0.625 z m 0.0781,-1.53125 q -0.0156,-0.65625 -0.34375,-0.98437 -0.3125,-0.34375 -0.76562,-0.34375 -0.5,0 -0.82813,0.35937 -0.3125,0.35938 -0.3125,0.96875 z m 7.73902,3.34375 h -1.51563 v -2.90625 q 0,-0.92187 -0.0937,-1.1875 -0.0937,-0.28125 -0.3125,-0.42187 -0.21875,-0.15625 -0.53125,-0.15625 -0.39062,0 -0.70312,0.21875 -0.3125,0.20312 -0.4375,0.5625 -0.10938,0.34375 -0.10938,1.3125 v 2.57812 h -1.5 v -5.70312 h 1.40625 v 0.84375 q 0.73438,-0.96875 1.875,-0.96875 0.5,0 0.90625,0.1875 0.42188,0.17187 0.625,0.45312 0.21875,0.26563 0.29688,0.625 0.0937,0.35938 0.0937,1.01563 z"
       id="path4803" />
    <path
       inkscape:connector-curvature="0"
       style="fill:#000000;fill-opacity:0;fill-rule:evenodd"
       d="M 348.92478,236.05207 496.48383,323.0442"
       id="path4805" />
    <path
       inkscape:connector-curvature="0"
       style="fill-rule:evenodd;stroke:#000000;stroke-width:2;stroke-linecap:butt;stroke-linejoin:round"
       d="m 348.92478,236.05207 137.22177,80.89786"
       id="path4807" />
    <path
       inkscape:connector-curvature="0"
       style="fill:#000000;fill-rule:evenodd;stroke:#000000;stroke-width:2;stroke-linecap:butt"
       d="m 484.46884,319.79565 9.49631,1.76367 -6.14093,-7.45514 z"
       id="path4809" />
    <path
       inkscape:connector-curvature="0"
       style="fill:#000000;fill-opacity:0;fill-rule:evenodd"
       d="m 314.65708,269.21741 -1.00787,219.68506"
       id="path4811" />
    <path
       inkscape:connector-curvature="0"
       style="fill-rule:evenodd;stroke:#000000;stroke-width:2;stroke-linecap:butt;stroke-linejoin:round"
       d="m 314.65708,269.21741 -0.95282,207.68518"
       id="path4813" />
    <path
       inkscape:connector-curvature="0"
       style="fill:#000000;fill-rule:evenodd;stroke:#000000;stroke-width:2;stroke-linecap:butt"
       d="m 310.40082,476.88743 3.26178,9.09125 3.34509,-9.06095 z"
       id="path4815" />
    <path
       inkscape:connector-curvature="0"
       style="fill:#000000;fill-opacity:0;fill-rule:evenodd"
       d="m 314.23338,177.84586 0.8504,24.85039"
       id="path4817" />
    <path
       inkscape:connector-curvature="0"
       style="fill-rule:evenodd;stroke:#000000;stroke-width:2;stroke-linecap:butt;stroke-linejoin:round"
       d="m 314.23338,177.84585 0.43997,12.85742"
       id="path4819" />
    <path
       inkscape:connector-curvature="0"
       style="fill:#000000;fill-rule:evenodd;stroke:#000000;stroke-width:2;stroke-linecap:butt"
       d="m 311.37183,190.81625 3.61194,8.9579 2.99112,-9.18385 z"
       id="path4821" />
    <path
       inkscape:connector-curvature="0"
       style="fill:#000000;fill-opacity:0;fill-rule:evenodd"
       d="m 399.48255,236.05075 h 140.8819 v 27.9055 h -140.8819 z"
       id="path4823" />
    <path
       inkscape:connector-curvature="0"
       style="fill:#000000;fill-rule:nonzero"
       d="m 408.60755,249.58762 h 0.84375 v -0.4375 q 0,-0.71875 0.14062,-1.0625 0.15625,-0.35938 0.5625,-0.57813 0.42188,-0.23437 1.04688,-0.23437 0.65625,0 1.26562,0.20312 l -0.20312,1.04688 q -0.35938,-0.0781 -0.6875,-0.0781 -0.32813,0 -0.48438,0.15625 -0.14062,0.14063 -0.14062,0.57813 v 0.40625 h 1.14062 v 1.1875 h -1.14062 v 4.51562 h -1.5 v -4.51562 h -0.84375 z m 5.34549,1.73437 -1.375,-0.25 q 0.23437,-0.8125 0.79687,-1.20312 0.5625,-0.40625 1.67188,-0.40625 1.01562,0 1.5,0.23437 0.5,0.23438 0.70312,0.60938 0.20313,0.35937 0.20313,1.34375 l -0.0156,1.76562 q 0,0.75 0.0625,1.10938 0.0781,0.35937 0.28125,0.76562 h -1.5 q -0.0625,-0.15625 -0.14062,-0.45312 -0.0312,-0.125 -0.0469,-0.17188 -0.39062,0.375 -0.84375,0.5625 -0.4375,0.1875 -0.9375,0.1875 -0.875,0 -1.39062,-0.46875 -0.5,-0.48437 -0.5,-1.21875 0,-0.48437 0.23437,-0.85937 0.23438,-0.375 0.64063,-0.57813 0.42187,-0.20312 1.20312,-0.35937 1.0625,-0.1875 1.46875,-0.35938 v -0.15625 q 0,-0.4375 -0.21875,-0.60937 -0.21875,-0.1875 -0.8125,-0.1875 -0.39062,0 -0.625,0.15625 -0.21875,0.15625 -0.35937,0.54687 z m 2.01562,1.23438 q -0.29687,0.0937 -0.92187,0.23437 -0.625,0.125 -0.8125,0.25 -0.29688,0.21875 -0.29688,0.53125 0,0.32813 0.23438,0.5625 0.23437,0.21875 0.59375,0.21875 0.40625,0 0.78125,-0.26562 0.28125,-0.20313 0.35937,-0.5 0.0625,-0.1875 0.0625,-0.73438 z m 2.78586,2.73437 v -7.875 h 1.5 v 7.875 z m 2.42942,-1.625 1.5,-0.23437 q 0.10937,0.4375 0.39062,0.67187 0.29688,0.21875 0.82813,0.21875 0.59375,0 0.89062,-0.20312 0.20313,-0.15625 0.20313,-0.40625 0,-0.17188 -0.10938,-0.28125 -0.125,-0.10938 -0.51562,-0.20313 -1.8125,-0.40625 -2.3125,-0.73437 -0.67188,-0.46875 -0.67188,-1.28125 0,-0.75 0.57813,-1.25 0.59375,-0.5 1.82812,-0.5 1.17188,0 1.73438,0.375 0.5625,0.375 0.78125,1.125 l -1.42188,0.26562 q -0.0937,-0.32812 -0.34375,-0.5 -0.25,-0.1875 -0.73437,-0.1875 -0.59375,0 -0.84375,0.17188 -0.17188,0.10937 -0.17188,0.29687 0,0.17188 0.14063,0.28125 0.20312,0.15625 1.40625,0.4375 1.21875,0.26563 1.6875,0.65625 0.48437,0.40625 0.48437,1.125 0,0.78125 -0.65625,1.34375 -0.65625,0.5625 -1.95312,0.5625 -1.15625,0 -1.84375,-0.46875 -0.67188,-0.46875 -0.875,-1.28125 z m 9.7546,-0.1875 1.5,0.25 q -0.28125,0.82813 -0.90625,1.26563 -0.625,0.42187 -1.57812,0.42187 -1.48438,0 -2.20313,-0.96875 -0.5625,-0.78125 -0.5625,-1.96875 0,-1.42187 0.73438,-2.21875 0.75,-0.79687 1.89062,-0.79687 1.26563,0 2,0.84375 0.73438,0.82812 0.70313,2.5625 h -3.78125 q 0.0156,0.67187 0.35937,1.04687 0.35938,0.375 0.875,0.375 0.35938,0 0.59375,-0.1875 0.25,-0.20312 0.375,-0.625 z m 0.0781,-1.53125 q -0.0156,-0.65625 -0.34375,-0.98437 -0.3125,-0.34375 -0.76563,-0.34375 -0.5,0 -0.82812,0.35937 -0.3125,0.35938 -0.3125,0.96875 z m 5.16839,-1.04687 v -1.375 h 5.51563 v 1.375 z m 0,2.39062 v -1.39062 h 5.51563 v 1.39062 z m 6.22309,-2.39062 v -1.375 h 5.51562 v 1.375 z m 0,2.39062 v -1.39062 h 5.51562 v 1.39062 z m 14.74624,2 h -1.39062 v -0.84375 q -0.35938,0.5 -0.84375,0.73438 -0.46875,0.23437 -0.9375,0.23437 -0.98438,0 -1.6875,-0.78125 -0.70313,-0.79687 -0.70313,-2.21875 0,-1.45312 0.67188,-2.20312 0.6875,-0.75 1.73437,-0.75 0.95313,0 1.65625,0.79687 v -2.84375 h 1.5 z m -4.01562,-2.96875 q 0,0.90625 0.25,1.3125 0.35937,0.59375 1.01562,0.59375 0.51563,0 0.875,-0.4375 0.375,-0.45312 0.375,-1.32812 0,-0.98438 -0.35937,-1.40625 -0.34375,-0.4375 -0.90625,-0.4375 -0.53125,0 -0.89063,0.42187 -0.35937,0.42188 -0.35937,1.28125 z m 4.94675,0.0312 q 0,-0.75 0.375,-1.45312 0.375,-0.70313 1.04687,-1.0625 0.6875,-0.375 1.51563,-0.375 1.29687,0 2.125,0.84375 0.82812,0.82812 0.82812,2.10937 0,1.29688 -0.84375,2.15625 -0.82812,0.84375 -2.09375,0.84375 -0.78125,0 -1.5,-0.34375 -0.70312,-0.35937 -1.07812,-1.04687 -0.375,-0.6875 -0.375,-1.67188 z m 1.54687,0.0781 q 0,0.85937 0.40625,1.3125 0.40625,0.45312 1,0.45312 0.57813,0 0.98438,-0.45312 0.40625,-0.45313 0.40625,-1.3125 0,-0.84375 -0.40625,-1.29688 -0.40625,-0.45312 -0.98438,-0.45312 -0.59375,0 -1,0.45312 -0.40625,0.45313 -0.40625,1.29688 z m 4.9624,-0.0781 q 0,-0.75 0.375,-1.45312 0.375,-0.70313 1.04688,-1.0625 0.6875,-0.375 1.51562,-0.375 1.29688,0 2.125,0.84375 0.82813,0.82812 0.82813,2.10937 0,1.29688 -0.84375,2.15625 -0.82813,0.84375 -2.09375,0.84375 -0.78125,0 -1.5,-0.34375 -0.70313,-0.35937 -1.07813,-1.04687 -0.375,-0.6875 -0.375,-1.67188 z m 1.54688,0.0781 q 0,0.85937 0.40625,1.3125 0.40625,0.45312 1,0.45312 0.57812,0 0.98437,-0.45312 0.40625,-0.45313 0.40625,-1.3125 0,-0.84375 -0.40625,-1.29688 -0.40625,-0.45312 -0.98437,-0.45312 -0.59375,0 -1,0.45312 -0.40625,0.45313 -0.40625,1.29688 z m 6.75925,2.85937 h -1.51563 v -5.70312 h 1.40625 v 0.8125 q 0.35938,-0.57813 0.64063,-0.75 0.29687,-0.1875 0.65625,-0.1875 0.51562,0 1,0.28125 l -0.46875,1.3125 q -0.375,-0.25 -0.70313,-0.25 -0.32812,0 -0.54687,0.1875 -0.21875,0.17187 -0.34375,0.625 -0.125,0.45312 -0.125,1.90625 z m 1.80325,2.17188 v -0.96875 h 6.28125 v 0.96875 z m 6.47336,-5.10938 q 0,-0.75 0.375,-1.45312 0.375,-0.70313 1.04687,-1.0625 0.6875,-0.375 1.51563,-0.375 1.2969,0 2.12503,0.84375 0.82812,0.82812 0.82812,2.10937 0,1.29688 -0.84375,2.15625 -0.82812,0.84375 -2.09378,0.84375 -0.78125,0 -1.5,-0.34375 -0.70312,-0.35937 -1.07812,-1.04687 -0.375,-0.6875 -0.375,-1.67188 z m 1.54687,0.0781 q 0,0.85937 0.40625,1.3125 0.40625,0.45312 1,0.45312 0.57816,0 0.98441,-0.45312 0.40625,-0.45313 0.40625,-1.3125 0,-0.84375 -0.40625,-1.29688 -0.40625,-0.45312 -0.98441,-0.45312 -0.59375,0 -1,0.45312 -0.40625,0.45313 -0.40625,1.29688 z m 5.27487,-2.84375 h 1.40625 v 0.84375 q 0.26563,-0.4375 0.73438,-0.70313 0.46875,-0.26562 1.04687,-0.26562 0.98438,0 1.67188,0.78125 0.70312,0.76562 0.70312,2.15625 0,1.4375 -0.70312,2.23437 -0.6875,0.78125 -1.6875,0.78125 -0.46875,0 -0.85938,-0.1875 -0.375,-0.1875 -0.8125,-0.64062 v 2.875 h -1.5 z m 1.48438,2.75 q 0,0.96875 0.375,1.4375 0.39062,0.45312 0.9375,0.45312 0.53125,0 0.875,-0.42187 0.35937,-0.42188 0.35937,-1.39063 0,-0.89062 -0.35937,-1.32812 -0.35938,-0.4375 -0.89063,-0.4375 -0.5625,0 -0.9375,0.4375 -0.35937,0.42187 -0.35937,1.25 z m 8.36865,1.14062 1.5,0.25 q -0.28125,0.82813 -0.90625,1.26563 -0.625,0.42187 -1.57812,0.42187 -1.48438,0 -2.20313,-0.96875 -0.5625,-0.78125 -0.5625,-1.96875 0,-1.42187 0.73438,-2.21875 0.75,-0.79687 1.89062,-0.79687 1.26563,0 2,0.84375 0.73438,0.82812 0.70313,2.5625 h -3.78125 q 0.0156,0.67187 0.35937,1.04687 0.35938,0.375 0.875,0.375 0.35938,0 0.59375,-0.1875 0.25,-0.20312 0.375,-0.625 z m 0.0781,-1.53125 q -0.0156,-0.65625 -0.34375,-0.98437 -0.3125,-0.34375 -0.76563,-0.34375 -0.5,0 -0.82812,0.35937 -0.3125,0.35938 -0.3125,0.96875 z m 7.73901,3.34375 h -1.51563 v -2.90625 q 0,-0.92187 -0.0937,-1.1875 -0.0937,-0.28125 -0.3125,-0.42187 -0.21875,-0.15625 -0.53125,-0.15625 -0.39062,0 -0.70312,0.21875 -0.3125,0.20312 -0.4375,0.5625 -0.10938,0.34375 -0.10938,1.3125 v 2.57812 h -1.5 v -5.70312 h 1.40625 v 0.84375 q 0.73438,-0.96875 1.875,-0.96875 0.5,0 0.90625,0.1875 0.42188,0.17187 0.625,0.45312 0.21875,0.26563 0.29688,0.625 0.0937,0.35938 0.0937,1.01563 z"
       id="path4825" />
    <path
       inkscape:connector-curvature="0"
       style="fill:#ffcc00;fill-rule:evenodd"
       d="m 262.34113,540.86457 v 0 c 0,-28.69272 22.97098,-51.95276 51.3071,-51.95276 v 0 c 13.60748,0 26.65765,5.47357 36.2796,15.21661 9.62195,9.74302 15.0275,22.9574 15.0275,36.73615 v 0 c 0,28.69269 -22.97098,51.95276 -51.3071,51.95276 v 0 c -28.33612,0 -51.3071,-23.26007 -51.3071,-51.95276 z"
       id="path4827" />
    <path
       inkscape:connector-curvature="0"
       style="fill-rule:evenodd;stroke:#000000;stroke-width:2;stroke-linecap:butt;stroke-linejoin:round"
       d="m 262.34113,540.86457 v 0 c 0,-28.69272 22.97098,-51.95276 51.3071,-51.95276 v 0 c 13.60748,0 26.65765,5.47357 36.2796,15.21661 9.62195,9.74302 15.0275,22.9574 15.0275,36.73615 v 0 c 0,28.69269 -22.97098,51.95276 -51.3071,51.95276 v 0 c -28.33612,0 -51.3071,-23.26007 -51.3071,-51.95276 z"
       id="path4829" />
    <path
       inkscape:connector-curvature="0"
       style="fill:#000000;fill-opacity:0;fill-rule:evenodd"
       d="m 258.23862,504.38835 h 110.67715 v 80.22049 H 258.23862 Z"
       id="path4831" />
    <path
       inkscape:connector-curvature="0"
       style="fill:#000000;fill-rule:nonzero"
       d="m 267.95738,536.62833 v -5.70312 h 0.875 v 0.79687 q 0.26562,-0.42187 0.70312,-0.67187 0.45313,-0.25 1.01563,-0.25 0.64062,0 1.04687,0.26562 0.40625,0.25 0.57813,0.73438 0.67187,-1 1.75,-1 0.85937,0 1.3125,0.46875 0.45312,0.46875 0.45312,1.4375 v 3.92187 h -0.95312 v -3.59375 q 0,-0.57812 -0.0937,-0.82812 -0.0937,-0.26563 -0.34375,-0.42188 -0.25,-0.15625 -0.57813,-0.15625 -0.60937,0 -1.01562,0.40625 -0.39063,0.40625 -0.39063,1.28125 v 3.3125 h -0.96875 v -3.70312 q 0,-0.64063 -0.23437,-0.96875 -0.23438,-0.32813 -0.76563,-0.32813 -0.40625,0 -0.76562,0.21875 -0.34375,0.21875 -0.5,0.64063 -0.15625,0.40625 -0.15625,1.1875 v 2.95312 z m 8.51736,-2.85937 q 0,-1.57813 0.89063,-2.34375 0.73437,-0.625 1.79687,-0.625 1.17188,0 1.90625,0.76562 0.75,0.76563 0.75,2.125 0,1.10938 -0.32812,1.75 -0.32813,0.625 -0.96875,0.96875 -0.625,0.34375 -1.35938,0.34375 -1.20312,0 -1.95312,-0.76562 -0.73438,-0.76563 -0.73438,-2.21875 z m 1,0 q 0,1.10937 0.46875,1.65625 0.48438,0.53125 1.21875,0.53125 0.71875,0 1.1875,-0.54688 0.48438,-0.54687 0.48438,-1.67187 0,-1.04688 -0.48438,-1.59375 -0.48437,-0.54688 -1.1875,-0.54688 -0.73437,0 -1.21875,0.54688 -0.46875,0.53125 -0.46875,1.625 z m 6.87961,2.85937 -2.17187,-5.70312 h 1.01562 l 1.23438,3.42187 q 0.1875,0.54688 0.35937,1.14063 0.125,-0.45313 0.35938,-1.07813 l 1.26562,-3.48437 h 1 l -2.15625,5.70312 z m 7.64063,-1.84375 1,0.125 q -0.23438,0.875 -0.875,1.35938 -0.64063,0.48437 -1.625,0.48437 -1.25,0 -1.98438,-0.76562 -0.73437,-0.76563 -0.73437,-2.15625 0,-1.45313 0.73437,-2.23438 0.75,-0.79687 1.92188,-0.79687 1.15625,0 1.875,0.78125 0.71875,0.76562 0.71875,2.1875 0,0.0781 0,0.25 h -4.25 q 0.0469,0.9375 0.51562,1.4375 0.48438,0.5 1.20313,0.5 0.53125,0 0.90625,-0.26563 0.375,-0.28125 0.59375,-0.90625 z m -3.17188,-1.5625 h 3.1875 q -0.0625,-0.71875 -0.35937,-1.07812 -0.46875,-0.54688 -1.20313,-0.54688 -0.67187,0 -1.125,0.45313 -0.45312,0.4375 -0.5,1.17187 z m 4.30152,5.59375 v -0.70312 h 6.40625 v 0.70312 z m 8.9421,-3.04687 0.125,0.84375 q -0.40625,0.0937 -0.71875,0.0937 -0.53125,0 -0.82812,-0.17188 -0.28125,-0.17187 -0.40625,-0.4375 -0.10938,-0.26562 -0.10938,-1.14062 v -3.28125 h -0.71875 v -0.75 h 0.71875 v -1.40625 l 0.95313,-0.59375 v 2 h 0.98437 v 0.75 h -0.98437 v 3.34375 q 0,0.40625 0.0469,0.53125 0.0625,0.10937 0.17188,0.1875 0.125,0.0625 0.32812,0.0625 0.17188,0 0.4375,-0.0312 z m 0.47629,-2 q 0,-1.57813 0.89063,-2.34375 0.73437,-0.625 1.79687,-0.625 1.17188,0 1.90625,0.76562 0.75,0.76563 0.75,2.125 0,1.10938 -0.32812,1.75 -0.32813,0.625 -0.96875,0.96875 -0.625,0.34375 -1.35938,0.34375 -1.20312,0 -1.95312,-0.76562 -0.73438,-0.76563 -0.73438,-2.21875 z m 1,0 q 0,1.10937 0.46875,1.65625 0.48438,0.53125 1.21875,0.53125 0.71875,0 1.1875,-0.54688 0.48438,-0.54687 0.48438,-1.67187 0,-1.04688 -0.48438,-1.59375 -0.48437,-0.54688 -1.1875,-0.54688 -0.73437,0 -1.21875,0.54688 -0.46875,0.53125 -0.46875,1.625 z m 7.14524,5.17187 q -0.8125,-1 -1.35938,-2.35937 -0.54687,-1.35938 -0.54687,-2.8125 0,-1.26563 0.40625,-2.4375 0.48437,-1.35938 1.5,-2.71875 h 0.6875 q -0.65625,1.125 -0.85938,1.60937 -0.32812,0.73438 -0.51562,1.54688 -0.23438,1 -0.23438,2.01562 0,2.57813 1.60938,5.15625 z"
       id="path4833" />
    <path
       inkscape:connector-curvature="0"
       style="fill:#000000;fill-rule:nonzero"
       d="m 273.043,548.76899 0.125,0.84375 q -0.40625,0.0937 -0.71875,0.0937 -0.53125,0 -0.82813,-0.17188 -0.28125,-0.17187 -0.40625,-0.4375 -0.10937,-0.26562 -0.10937,-1.14062 v -3.28128 h -0.71875 v -0.75 h 0.71875 v -1.40625 l 0.95312,-0.59375 v 2 h 0.98438 v 0.75 h -0.98438 v 3.34378 q 0,0.40625 0.0469,0.53125 0.0625,0.10937 0.17187,0.1875 0.125,0.0625 0.32813,0.0625 0.17187,0 0.4375,-0.0312 z m 0.83566,0.85937 v -7.87503 h 0.96875 v 2.82813 q 0.6875,-0.78125 1.71875,-0.78125 0.625,0 1.09375,0.25 0.46875,0.25 0.67188,0.6875 0.20312,0.4375 0.20312,1.28125 v 3.6094 h -0.96875 v -3.6094 q 0,-0.73438 -0.3125,-1.0625 -0.3125,-0.32813 -0.89062,-0.32813 -0.4375,0 -0.8125,0.21875 -0.375,0.21875 -0.54688,0.60938 -0.15625,0.375 -0.15625,1.0469 v 3.125 z m 5.92649,0 v -5.70315 h 0.85937 v 0.85937 q 0.34375,-0.60937 0.625,-0.79687 0.28125,-0.1875 0.60938,-0.1875 0.5,0 1,0.3125 l -0.32813,0.89062 q -0.35937,-0.20312 -0.71875,-0.20312 -0.3125,0 -0.5625,0.1875 -0.25,0.1875 -0.35937,0.53125 -0.15625,0.51562 -0.15625,1.12503 v 2.98437 z m 3.18924,-2.85937 q 0,-1.57816 0.89062,-2.34378 0.73438,-0.625 1.79688,-0.625 1.17187,0 1.90625,0.76562 0.75,0.76563 0.75,2.12503 0,1.10938 -0.32813,1.75 -0.32812,0.625 -0.96875,0.96875 -0.625,0.34375 -1.35937,0.34375 -1.20313,0 -1.95313,-0.76562 -0.73437,-0.76563 -0.73437,-2.21875 z m 1,0 q 0,1.10937 0.46875,1.65625 0.48437,0.53125 1.21875,0.53125 0.71875,0 1.1875,-0.54688 0.48437,-0.54687 0.48437,-1.67187 0,-1.04691 -0.48437,-1.59378 -0.48438,-0.54688 -1.1875,-0.54688 -0.73438,0 -1.21875,0.54688 -0.46875,0.53125 -0.46875,1.62503 z m 9.03588,2.85937 v -0.84375 q -0.67187,0.96875 -1.8125,0.96875 -0.5,0 -0.95312,-0.1875 -0.4375,-0.20312 -0.65625,-0.48437 -0.20313,-0.29688 -0.28125,-0.71875 -0.0625,-0.28125 -0.0625,-0.90625 v -3.53128 h 0.96875 v 3.15628 q 0,0.76562 0.0625,1.03125 0.0937,0.375 0.375,0.59375 0.29687,0.21875 0.73437,0.21875 0.4375,0 0.8125,-0.21875 0.39063,-0.23438 0.54688,-0.60938 0.15625,-0.39062 0.15625,-1.10937 v -3.06253 h 0.96875 v 5.70315 z m 2.00461,0.46875 0.9375,0.14063 q 0.0625,0.4375 0.32813,0.64062 0.35937,0.26563 0.98437,0.26563 0.67188,0 1.03125,-0.26563 0.375,-0.26562 0.5,-0.75 0.0781,-0.29687 0.0781,-1.25 -0.64063,0.75 -1.59375,0.75 -1.17188,0 -1.8125,-0.84375 -0.64063,-0.85937 -0.64063,-2.04687 0,-0.81253 0.29688,-1.50003 0.29687,-0.6875 0.84375,-1.0625 0.5625,-0.375 1.32812,-0.375 1,0 1.65625,0.8125 v -0.6875 h 0.89063 v 4.9219 q 0,1.34375 -0.26563,1.89063 -0.26562,0.5625 -0.85937,0.875 -0.59375,0.32812 -1.45313,0.32812 -1.01562,0 -1.64062,-0.46875 -0.625,-0.45312 -0.60938,-1.375 z m 0.79688,-3.42187 q 0,1.125 0.4375,1.64062 0.45312,0.51563 1.125,0.51563 0.67187,0 1.125,-0.51563 0.45312,-0.51562 0.45312,-1.60937 0,-1.04691 -0.46875,-1.57816 -0.46875,-0.53125 -1.125,-0.53125 -0.64062,0 -1.09375,0.53125 -0.45312,0.51563 -0.45312,1.54691 z m 5.30151,2.95312 v -7.87503 h 0.96875 v 2.82813 q 0.6875,-0.78125 1.71875,-0.78125 0.625,0 1.09375,0.25 0.46875,0.25 0.67188,0.6875 0.20312,0.4375 0.20312,1.28125 v 3.6094 h -0.96875 v -3.6094 q 0,-0.73438 -0.3125,-1.0625 -0.3125,-0.32813 -0.89062,-0.32813 -0.4375,0 -0.8125,0.21875 -0.375,0.21875 -0.54688,0.60938 -0.15625,0.375 -0.15625,1.0469 v 3.125 z m 5.03586,2.1875 v -0.70312 h 6.40625 v 0.70312 z m 10.52026,-2.1875 v -0.71875 q -0.53125,0.84375 -1.59375,0.84375 -0.67187,0 -1.25,-0.375 -0.57812,-0.375 -0.89062,-1.04687 -0.3125,-0.67188 -0.3125,-1.54688 0,-0.8594 0.28125,-1.5469 0.29687,-0.70313 0.85937,-1.0625 0.5625,-0.375 1.26563,-0.375 0.51562,0 0.92187,0.21875 0.40625,0.21875 0.65625,0.5625 v -2.82813 h 0.96875 v 7.87503 z m -3.04687,-2.84375 q 0,1.09375 0.45312,1.64063 0.46875,0.53125 1.09375,0.53125 0.64063,0 1.07813,-0.51563 0.4375,-0.51562 0.4375,-1.57812 0,-1.17191 -0.45313,-1.71878 -0.4375,-0.54688 -1.10937,-0.54688 -0.64063,0 -1.07813,0.53125 -0.42187,0.51563 -0.42187,1.65628 z m 4.91086,-0.0156 q 0,-1.57816 0.89062,-2.34378 0.73438,-0.625 1.79688,-0.625 1.17187,0 1.90625,0.76562 0.75,0.76563 0.75,2.12503 0,1.10938 -0.32813,1.75 -0.32812,0.625 -0.96875,0.96875 -0.625,0.34375 -1.35937,0.34375 -1.20313,0 -1.95313,-0.76562 -0.73437,-0.76563 -0.73437,-2.21875 z m 1,0 q 0,1.10937 0.46875,1.65625 0.48437,0.53125 1.21875,0.53125 0.71875,0 1.1875,-0.54688 0.48437,-0.54687 0.48437,-1.67187 0,-1.04691 -0.48437,-1.59378 -0.48438,-0.54688 -1.1875,-0.54688 -0.73438,0 -1.21875,0.54688 -0.46875,0.53125 -0.46875,1.62503 z m 4.92651,0 q 0,-1.57816 0.89062,-2.34378 0.73438,-0.625 1.79688,-0.625 1.17187,0 1.90625,0.76562 0.75,0.76563 0.75,2.12503 0,1.10938 -0.32813,1.75 -0.32812,0.625 -0.96875,0.96875 -0.625,0.34375 -1.35937,0.34375 -1.20313,0 -1.95313,-0.76562 -0.73437,-0.76563 -0.73437,-2.21875 z m 1,0 q 0,1.10937 0.46875,1.65625 0.48437,0.53125 1.21875,0.53125 0.71875,0 1.1875,-0.54688 0.48437,-0.54687 0.48437,-1.67187 0,-1.04691 -0.48437,-1.59378 -0.48438,-0.54688 -1.1875,-0.54688 -0.73438,0 -1.21875,0.54688 -0.46875,0.53125 -0.46875,1.62503 z m 5.28586,2.85937 v -5.70315 h 0.85937 v 0.85937 q 0.34375,-0.60937 0.625,-0.79687 0.28125,-0.1875 0.60938,-0.1875 0.5,0 1,0.3125 l -0.32813,0.89062 q -0.35937,-0.20312 -0.71875,-0.20312 -0.3125,0 -0.5625,0.1875 -0.25,0.1875 -0.35937,0.53125 -0.15625,0.51562 -0.15625,1.12503 v 2.98437 z m 4.61111,0 -1.75,-5.70315 h 1 l 0.90625,3.2969 0.34375,1.21875 q 0.0156,-0.0937 0.29688,-1.17187 l 0.90625,-3.34378 h 0.98437 l 0.85938,3.31253 0.28125,1.07812 0.32812,-1.09375 0.98438,-3.2969 h 0.9375 l -1.78125,5.70315 h -1 l -0.92188,-3.42187 -0.21875,-0.96878 -1.15625,4.39065 z m 10.3675,-0.70312 q -0.54688,0.45312 -1.04688,0.64062 -0.48437,0.1875 -1.0625,0.1875 -0.9375,0 -1.45312,-0.45312 -0.5,-0.46875 -0.5,-1.17188 0,-0.42187 0.1875,-0.76562 0.20312,-0.34375 0.5,-0.54688 0.3125,-0.21875 0.70312,-0.32812 0.28125,-0.0781 0.85938,-0.14063 1.17187,-0.14062 1.71875,-0.34378 0.0156,-0.1875 0.0156,-0.25 0,-0.59375 -0.28125,-0.82812 -0.35937,-0.32813 -1.09375,-0.32813 -0.6875,0 -1.01562,0.23438 -0.3125,0.23437 -0.46875,0.84375 l -0.95313,-0.125 q 0.125,-0.60938 0.42188,-0.98438 0.29687,-0.375 0.85937,-0.5625 0.5625,-0.20312 1.29688,-0.20312 0.73437,0 1.1875,0.17187 0.45312,0.17188 0.65625,0.4375 0.21875,0.25 0.3125,0.64063 0.0469,0.25 0.0469,0.90625 v 1.28128 q 0,1.34375 0.0625,1.70312 0.0625,0.35938 0.25,0.6875 h -1.01562 q -0.15625,-0.29687 -0.1875,-0.70312 z m -0.0937,-2.15625 q -0.51563,0.21875 -1.57813,0.35937 -0.59375,0.0937 -0.84375,0.20313 -0.23437,0.0937 -0.375,0.3125 -0.14062,0.20312 -0.14062,0.45312 0,0.39063 0.29687,0.65625 0.29688,0.25 0.85938,0.25 0.5625,0 0.98437,-0.25 0.4375,-0.25 0.65625,-0.67187 0.14063,-0.32813 0.14063,-0.96875 z m 2.2546,5.0625 -0.10937,-0.90625 q 0.3125,0.0781 0.54687,0.0781 0.32813,0 0.51563,-0.10937 0.20312,-0.10938 0.3125,-0.29688 0.0937,-0.14062 0.29687,-0.71875 0.0312,-0.0781 0.0937,-0.23437 l -2.17187,-5.71878 h 1.04687 l 1.1875,3.2969 q 0.23438,0.64063 0.40625,1.32813 0.17188,-0.67188 0.40625,-1.29688 l 1.21875,-3.32815 h 0.96875 l -2.17187,5.7969 q -0.34375,0.9375 -0.54688,1.29688 -0.25,0.48437 -0.59375,0.70312 -0.32812,0.21875 -0.78125,0.21875 -0.28125,0 -0.625,-0.10937 z m 6,0.10937 h -0.6875 q 1.59375,-2.57812 1.59375,-5.15625 0,-1.01565 -0.21875,-2.00003 -0.1875,-0.8125 -0.51562,-1.54687 -0.20313,-0.48438 -0.85938,-1.625 h 0.6875 q 1.01563,1.35937 1.5,2.71875 0.40625,1.17187 0.40625,2.43753 0,1.45312 -0.5625,2.8125 -0.54687,1.35937 -1.34375,2.35937 z"
       id="path4835" />
    <path
       inkscape:connector-curvature="0"
       style="fill:#000000;fill-rule:nonzero"
       d="m 273.87866,562.62835 v -5.70312 h 0.875 v 0.79687 q 0.26562,-0.42187 0.70312,-0.67187 0.45313,-0.25 1.01563,-0.25 0.64062,0 1.04687,0.26562 0.40625,0.25 0.57813,0.73438 0.67187,-1 1.75,-1 0.85937,0 1.3125,0.46875 0.45312,0.46875 0.45312,1.4375 v 3.92187 h -0.95312 v -3.59375 q 0,-0.57812 -0.0937,-0.82812 -0.0937,-0.26563 -0.34375,-0.42188 -0.25,-0.15625 -0.57813,-0.15625 -0.60937,0 -1.01562,0.40625 -0.39063,0.40625 -0.39063,1.28125 v 3.3125 h -0.96875 v -3.70312 q 0,-0.64063 -0.23437,-0.96875 -0.23438,-0.32813 -0.76563,-0.32813 -0.40625,0 -0.76562,0.21875 -0.34375,0.21875 -0.5,0.64063 -0.15625,0.40625 -0.15625,1.1875 v 2.95312 z m 8.51736,-2.85937 q 0,-1.57813 0.89063,-2.34375 0.73437,-0.625 1.79687,-0.625 1.17188,0 1.90625,0.76562 0.75,0.76563 0.75,2.125 0,1.10938 -0.32812,1.75 -0.32813,0.625 -0.96875,0.96875 -0.625,0.34375 -1.35938,0.34375 -1.20312,0 -1.95312,-0.76562 -0.73438,-0.76563 -0.73438,-2.21875 z m 1,0 q 0,1.10937 0.46875,1.65625 0.48438,0.53125 1.21875,0.53125 0.71875,0 1.1875,-0.54688 0.48438,-0.54687 0.48438,-1.67187 0,-1.04688 -0.48438,-1.59375 -0.48437,-0.54688 -1.1875,-0.54688 -0.73437,0 -1.21875,0.54688 -0.46875,0.53125 -0.46875,1.625 z m 6.87961,2.85937 -2.17187,-5.70312 h 1.01562 l 1.23438,3.42187 q 0.1875,0.54688 0.35937,1.14063 0.125,-0.45313 0.35938,-1.07813 l 1.26562,-3.48437 h 1 l -2.15625,5.70312 z m 7.64063,-1.84375 1,0.125 q -0.23438,0.875 -0.875,1.35938 -0.64063,0.48437 -1.625,0.48437 -1.25,0 -1.98438,-0.76562 -0.73437,-0.76563 -0.73437,-2.15625 0,-1.45313 0.73437,-2.23438 0.75,-0.79687 1.92188,-0.79687 1.15625,0 1.875,0.78125 0.71875,0.76562 0.71875,2.1875 0,0.0781 0,0.25 h -4.25 q 0.0469,0.9375 0.51562,1.4375 0.48438,0.5 1.20313,0.5 0.53125,0 0.90625,-0.26563 0.375,-0.28125 0.59375,-0.90625 z m -3.17188,-1.5625 h 3.1875 q -0.0625,-0.71875 -0.35937,-1.07812 -0.46875,-0.54688 -1.20313,-0.54688 -0.67187,0 -1.125,0.45313 -0.45312,0.4375 -0.5,1.17187 z m 4.30152,5.59375 v -0.70312 h 6.40625 v 0.70312 z m 8.9421,-3.04687 0.125,0.84375 q -0.40625,0.0937 -0.71875,0.0937 -0.53125,0 -0.82812,-0.17188 -0.28125,-0.17187 -0.40625,-0.4375 -0.10938,-0.26562 -0.10938,-1.14062 v -3.28125 h -0.71875 v -0.75 h 0.71875 v -1.40625 l 0.95313,-0.59375 v 2 h 0.98437 v 0.75 h -0.98437 v 3.34375 q 0,0.40625 0.0469,0.53125 0.0625,0.10937 0.17188,0.1875 0.125,0.0625 0.32812,0.0625 0.17188,0 0.4375,-0.0312 z m 0.47629,-2 q 0,-1.57813 0.89063,-2.34375 0.73437,-0.625 1.79687,-0.625 1.17188,0 1.90625,0.76562 0.75,0.76563 0.75,2.125 0,1.10938 -0.32812,1.75 -0.32813,0.625 -0.96875,0.96875 -0.625,0.34375 -1.35938,0.34375 -1.20312,0 -1.95312,-0.76562 -0.73438,-0.76563 -0.73438,-2.21875 z m 1,0 q 0,1.10937 0.46875,1.65625 0.48438,0.53125 1.21875,0.53125 0.71875,0 1.1875,-0.54688 0.48438,-0.54687 0.48438,-1.67187 0,-1.04688 -0.48438,-1.59375 -0.48437,-0.54688 -1.1875,-0.54688 -0.73437,0 -1.21875,0.54688 -0.46875,0.53125 -0.46875,1.625 z m 7.14524,5.17187 q -0.8125,-1 -1.35938,-2.35937 -0.54687,-1.35938 -0.54687,-2.8125 0,-1.26563 0.40625,-2.4375 0.48437,-1.35938 1.5,-2.71875 h 0.6875 q -0.65625,1.125 -0.85938,1.60937 -0.32812,0.73438 -0.51562,1.54688 -0.23438,1 -0.23438,2.01562 0,2.57813 1.60938,5.15625 z m 3.81423,-3.17187 0.125,0.84375 q -0.40625,0.0937 -0.71875,0.0937 -0.53125,0 -0.82812,-0.17188 -0.28125,-0.17187 -0.40625,-0.4375 -0.10938,-0.26562 -0.10938,-1.14062 v -3.28125 h -0.71875 v -0.75 h 0.71875 v -1.40625 l 0.95313,-0.59375 v 2 h 0.98437 v 0.75 h -0.98437 v 3.34375 q 0,0.40625 0.0469,0.53125 0.0625,0.10937 0.17188,0.1875 0.125,0.0625 0.32812,0.0625 0.17188,0 0.4375,-0.0312 z m 4.57004,0.15625 q -0.54687,0.45312 -1.04687,0.64062 -0.48438,0.1875 -1.0625,0.1875 -0.9375,0 -1.45313,-0.45312 -0.5,-0.46875 -0.5,-1.17188 0,-0.42187 0.1875,-0.76562 0.20313,-0.34375 0.5,-0.54688 0.3125,-0.21875 0.70313,-0.32812 0.28125,-0.0781 0.85937,-0.14063 1.17188,-0.14062 1.71875,-0.34375 0.0156,-0.1875 0.0156,-0.25 0,-0.59375 -0.28125,-0.82812 -0.35938,-0.32813 -1.09375,-0.32813 -0.6875,0 -1.01563,0.23438 -0.3125,0.23437 -0.46875,0.84375 l -0.95312,-0.125 q 0.125,-0.60938 0.42187,-0.98438 0.29688,-0.375 0.85938,-0.5625 0.5625,-0.20312 1.29687,-0.20312 0.73438,0 1.1875,0.17187 0.45313,0.17188 0.65625,0.4375 0.21875,0.25 0.3125,0.64063 0.0469,0.25 0.0469,0.90625 v 1.28125 q 0,1.34375 0.0625,1.70312 0.0625,0.35938 0.25,0.6875 h -1.01563 q -0.15625,-0.29687 -0.1875,-0.70312 z m -0.0937,-2.15625 q -0.51562,0.21875 -1.57812,0.35937 -0.59375,0.0937 -0.84375,0.20313 -0.23438,0.0937 -0.375,0.3125 -0.14063,0.20312 -0.14063,0.45312 0,0.39063 0.29688,0.65625 0.29687,0.25 0.85937,0.25 0.5625,0 0.98438,-0.25 0.4375,-0.25 0.65625,-0.67187 0.14062,-0.32813 0.14062,-0.96875 z m 2.28586,2.85937 v -5.70312 h 0.85938 v 0.85937 q 0.34375,-0.60937 0.625,-0.79687 0.28125,-0.1875 0.60937,-0.1875 0.5,0 1,0.3125 l -0.32812,0.89062 q -0.35938,-0.20312 -0.71875,-0.20312 -0.3125,0 -0.5625,0.1875 -0.25,0.1875 -0.35938,0.53125 -0.15625,0.51562 -0.15625,1.125 v 2.98437 z m 3.37674,0.46875 0.9375,0.14063 q 0.0625,0.4375 0.32813,0.64062 0.35937,0.26563 0.98437,0.26563 0.67188,0 1.03125,-0.26563 0.375,-0.26562 0.5,-0.75 0.0781,-0.29687 0.0781,-1.25 -0.64063,0.75 -1.59375,0.75 -1.17188,0 -1.8125,-0.84375 -0.64063,-0.85937 -0.64063,-2.04687 0,-0.8125 0.29688,-1.5 0.29687,-0.6875 0.84375,-1.0625 0.5625,-0.375 1.32812,-0.375 1,0 1.65625,0.8125 v -0.6875 h 0.89063 v 4.92187 q 0,1.34375 -0.26563,1.89063 -0.26562,0.5625 -0.85937,0.875 -0.59375,0.32812 -1.45313,0.32812 -1.01562,0 -1.64062,-0.46875 -0.625,-0.45312 -0.60938,-1.375 z m 0.79688,-3.42187 q 0,1.125 0.4375,1.64062 0.45312,0.51563 1.125,0.51563 0.67187,0 1.125,-0.51563 0.45312,-0.51562 0.45312,-1.60937 0,-1.04688 -0.46875,-1.57813 -0.46875,-0.53125 -1.125,-0.53125 -0.64062,0 -1.09375,0.53125 -0.45312,0.51563 -0.45312,1.54688 z m 9.20776,1.10937 1,0.125 q -0.23438,0.875 -0.875,1.35938 -0.64063,0.48437 -1.625,0.48437 -1.25,0 -1.98438,-0.76562 -0.73437,-0.76563 -0.73437,-2.15625 0,-1.45313 0.73437,-2.23438 0.75,-0.79687 1.92188,-0.79687 1.15625,0 1.875,0.78125 0.71875,0.76562 0.71875,2.1875 0,0.0781 0,0.25 h -4.25 q 0.0469,0.9375 0.51562,1.4375 0.48438,0.5 1.20313,0.5 0.53125,0 0.90625,-0.26563 0.375,-0.28125 0.59375,-0.90625 z m -3.17188,-1.5625 h 3.1875 q -0.0625,-0.71875 -0.35937,-1.07812 -0.46875,-0.54688 -1.20313,-0.54688 -0.67187,0 -1.125,0.45313 -0.45312,0.4375 -0.5,1.17187 z m 7.31711,2.54688 0.125,0.84375 q -0.40625,0.0937 -0.71875,0.0937 -0.53125,0 -0.82812,-0.17188 -0.28125,-0.17187 -0.40625,-0.4375 -0.10938,-0.26562 -0.10938,-1.14062 v -3.28125 h -0.71875 v -0.75 h 0.71875 v -1.40625 l 0.95313,-0.59375 v 2 h 0.98437 v 0.75 h -0.98437 v 3.34375 q 0,0.40625 0.0469,0.53125 0.0625,0.10937 0.17188,0.1875 0.125,0.0625 0.32812,0.0625 0.17188,0 0.4375,-0.0312 z m 1.47629,3.17187 h -0.6875 q 1.59375,-2.57812 1.59375,-5.15625 0,-1.01562 -0.21875,-2 -0.1875,-0.8125 -0.51562,-1.54687 -0.20313,-0.48438 -0.85938,-1.625 h 0.6875 q 1.01563,1.35937 1.5,2.71875 0.40625,1.17187 0.40625,2.4375 0,1.45312 -0.5625,2.8125 -0.54687,1.35937 -1.34375,2.35937 z"
       id="path4837" />
    <path
       inkscape:connector-curvature="0"
       style="fill:#ffcc00;fill-rule:evenodd"
       d="m 445.18613,381.18442 v 0 c 0,-28.69269 22.97095,-51.95273 51.3071,-51.95273 v 0 c 13.60748,0 26.65765,5.47357 36.27954,15.21658 9.62195,9.74305 15.02753,22.95743 15.02753,36.73615 v 0 c 0,28.69272 -22.97095,51.95276 -51.30707,51.95276 v 0 c -28.33615,0 -51.3071,-23.26004 -51.3071,-51.95276 z"
       id="path4839" />
    <path
       inkscape:connector-curvature="0"
       style="fill-rule:evenodd;stroke:#000000;stroke-width:2;stroke-linecap:butt;stroke-linejoin:round"
       d="m 445.18613,381.18442 v 0 c 0,-28.69269 22.97095,-51.95273 51.3071,-51.95273 v 0 c 13.60748,0 26.65765,5.47357 36.27954,15.21658 9.62195,9.74305 15.02753,22.95743 15.02753,36.73615 v 0 c 0,28.69272 -22.97095,51.95276 -51.30707,51.95276 v 0 c -28.33615,0 -51.3071,-23.26004 -51.3071,-51.95276 z"
       id="path4841" />
    <path
       inkscape:connector-curvature="0"
       style="fill:#000000;fill-opacity:0;fill-rule:evenodd"
       d="m 441.24106,344.88419 h 118.70865 v 52.40945 H 441.24106 Z"
       id="path4843" />
    <path
       inkscape:connector-curvature="0"
       style="fill:#000000;fill-rule:nonzero"
       d="m 468.36432,374.26481 q 0,-1.57812 0.89063,-2.34375 0.73437,-0.625 1.79687,-0.625 1.17188,0 1.90625,0.76563 0.75,0.76562 0.75,2.125 0,1.10937 -0.32812,1.75 -0.32813,0.625 -0.96875,0.96875 -0.625,0.34375 -1.35938,0.34375 -1.20312,0 -1.95312,-0.76563 -0.73438,-0.76562 -0.73438,-2.21875 z m 1,0 q 0,1.10938 0.46875,1.65625 0.48438,0.53125 1.21875,0.53125 0.71875,0 1.1875,-0.54687 0.48438,-0.54688 0.48438,-1.67188 0,-1.04687 -0.48438,-1.59375 -0.48437,-0.54687 -1.1875,-0.54687 -0.73437,0 -1.21875,0.54687 -0.46875,0.53125 -0.46875,1.625 z m 5.28589,5.04688 v -7.89063 h 0.89062 v 0.73438 q 0.3125,-0.42188 0.70313,-0.64063 0.39062,-0.21875 0.95312,-0.21875 0.71875,0 1.28125,0.375 0.5625,0.375 0.84375,1.0625 0.28125,0.67188 0.28125,1.5 0,0.875 -0.3125,1.57813 -0.3125,0.6875 -0.92187,1.0625 -0.59375,0.375 -1.25,0.375 -0.48438,0 -0.875,-0.20313 -0.375,-0.20312 -0.625,-0.51562 v 2.78125 z m 0.875,-5 q 0,1.09375 0.45312,1.625 0.45313,0.51562 1.07813,0.51562 0.64062,0 1.09375,-0.53125 0.46875,-0.54687 0.46875,-1.70312 0,-1.07813 -0.45313,-1.625 -0.4375,-0.54688 -1.0625,-0.54688 -0.625,0 -1.10937,0.57813 -0.46875,0.57812 -0.46875,1.6875 z m 8.95773,0.96875 1.00003,0.125 q -0.23437,0.875 -0.87503,1.35937 -0.64062,0.48438 -1.625,0.48438 -1.25,0 -1.98437,-0.76563 -0.73438,-0.76562 -0.73438,-2.15625 0,-1.45312 0.73438,-2.23437 0.75,-0.79688 1.92187,-0.79688 1.15625,0 1.87503,0.78125 0.71875,0.76563 0.71875,2.1875 0,0.0781 0,0.25 h -4.25003 q 0.0469,0.9375 0.51563,1.4375 0.48437,0.5 1.20312,0.5 0.53125,0 0.90625,-0.26562 0.375,-0.28125 0.59375,-0.90625 z m -3.17187,-1.5625 h 3.1875 q -0.0625,-0.71875 -0.35938,-1.07813 -0.46875,-0.54687 -1.20312,-0.54687 -0.67188,0 -1.125,0.45312 -0.45313,0.4375 -0.5,1.17188 z m 5.1921,3.40625 v -5.70313 h 0.875 v 0.8125 q 0.625,-0.9375 1.8125,-0.9375 0.51563,0 0.95313,0.1875 0.4375,0.17188 0.64062,0.48438 0.21875,0.29687 0.3125,0.70312 0.0469,0.28125 0.0469,0.95313 v 3.5 h -0.96875 v -3.46875 q 0,-0.59375 -0.10938,-0.875 -0.10937,-0.29688 -0.40625,-0.46875 -0.28125,-0.1875 -0.67187,-0.1875 -0.60938,0 -1.0625,0.39062 -0.45313,0.39063 -0.45313,1.5 v 3.10938 z m 5.03589,2.1875 v -0.70313 h 6.40625 v 0.70313 z m 10.52027,-2.1875 v -0.71875 q -0.53125,0.84375 -1.59375,0.84375 -0.67188,0 -1.25,-0.375 -0.57813,-0.375 -0.89063,-1.04688 -0.3125,-0.67187 -0.3125,-1.54687 0,-0.85938 0.28125,-1.54688 0.29688,-0.70312 0.85938,-1.0625 0.5625,-0.375 1.26562,-0.375 0.51563,0 0.92188,0.21875 0.40625,0.21875 0.65625,0.5625 v -2.82812 h 0.96875 v 7.875 z m -3.04688,-2.84375 q 0,1.09375 0.45313,1.64062 0.46875,0.53125 1.09375,0.53125 0.64062,0 1.07812,-0.51562 0.4375,-0.51563 0.4375,-1.57813 0,-1.17187 -0.45312,-1.71875 -0.4375,-0.54687 -1.10938,-0.54687 -0.64062,0 -1.07812,0.53125 -0.42188,0.51562 -0.42188,1.65625 z m 4.91089,-0.0156 q 0,-1.57812 0.89063,-2.34375 0.73437,-0.625 1.79687,-0.625 1.17188,0 1.90625,0.76563 0.75,0.76562 0.75,2.125 0,1.10937 -0.32812,1.75 -0.32813,0.625 -0.96875,0.96875 -0.625,0.34375 -1.35938,0.34375 -1.20312,0 -1.95312,-0.76563 -0.73438,-0.76562 -0.73438,-2.21875 z m 1,0 q 0,1.10938 0.46875,1.65625 0.48438,0.53125 1.21875,0.53125 0.71875,0 1.1875,-0.54687 0.48438,-0.54688 0.48438,-1.67188 0,-1.04687 -0.48438,-1.59375 -0.48437,-0.54687 -1.1875,-0.54687 -0.73437,0 -1.21875,0.54687 -0.46875,0.53125 -0.46875,1.625 z m 4.92645,0 q 0,-1.57812 0.89063,-2.34375 0.73437,-0.625 1.79687,-0.625 1.17188,0 1.90625,0.76563 0.75,0.76562 0.75,2.125 0,1.10937 -0.32812,1.75 -0.32813,0.625 -0.96875,0.96875 -0.625,0.34375 -1.35938,0.34375 -1.20312,0 -1.95312,-0.76563 -0.73438,-0.76562 -0.73438,-2.21875 z m 1,0 q 0,1.10938 0.46875,1.65625 0.48438,0.53125 1.21875,0.53125 0.71875,0 1.1875,-0.54687 0.48438,-0.54688 0.48438,-1.67188 0,-1.04687 -0.48438,-1.59375 -0.48437,-0.54687 -1.1875,-0.54687 -0.73437,0 -1.21875,0.54687 -0.46875,0.53125 -0.46875,1.625 z m 5.28589,2.85938 v -5.70313 h 0.85938 v 0.85938 q 0.34375,-0.60938 0.625,-0.79688 0.28125,-0.1875 0.60937,-0.1875 0.5,0 1,0.3125 l -0.32812,0.89063 q -0.35938,-0.20313 -0.71875,-0.20313 -0.3125,0 -0.5625,0.1875 -0.25,0.1875 -0.35938,0.53125 -0.15625,0.51563 -0.15625,1.125 v 2.98438 z"
       id="path4845" />
    <path
       inkscape:connector-curvature="0"
       style="fill:#000000;fill-opacity:0;fill-rule:evenodd"
       d="m 460.21362,417.92057 -107.3071,75.33859"
       id="path4847" />
    <path
       inkscape:connector-curvature="0"
       style="fill-rule:evenodd;stroke:#000000;stroke-width:2;stroke-linecap:butt;stroke-linejoin:round"
       d="M 460.21362,417.92057 362.72769,486.3639"
       id="path4849" />
    <path
       inkscape:connector-curvature="0"
       style="fill:#000000;fill-rule:evenodd;stroke:#000000;stroke-width:2;stroke-linecap:butt"
       d="m 360.8295,483.66022 -5.53003,7.91892 9.32642,-2.5116 z"
       id="path4851" />
    <path
       inkscape:connector-curvature="0"
       style="fill:#96ceda;fill-rule:evenodd"
       d="m 275.60806,215.8066 v -14.92567 c 0,1.64863 17.48389,2.98512 39.05136,2.98512 21.56747,0 39.05139,-1.33649 39.05139,-2.98512 v 14.92567 0 c 0,1.64864 -17.48392,2.98514 -39.05139,2.98514 -21.56747,0 -39.05136,-1.3365 -39.05136,-2.98514 z"
       id="path4853" />
    <path
       inkscape:connector-curvature="0"
       style="fill-rule:evenodd;stroke:#000000;stroke-width:2;stroke-linecap:butt;stroke-linejoin:round"
       d="m 275.60806,215.8066 v -14.92567 c 0,1.64863 17.48389,2.98512 39.05136,2.98512 21.56747,0 39.05139,-1.33649 39.05139,-2.98512 v 14.92567 0 c 0,1.64864 -17.48392,2.98514 -39.05139,2.98514 -21.56747,0 -39.05136,-1.3365 -39.05136,-2.98514 z"
       id="path4855" />
    <path
       inkscape:connector-curvature="0"
       style="fill:#000000;fill-opacity:0;fill-rule:evenodd"
       d="m 290.92636,195.11455 h 47.46457 v 17.16534 h -47.46457 z"
       id="path4857" />
    <path
       inkscape:connector-curvature="0"
       style="fill:#000000;fill-rule:nonzero"
       d="m 311.31548,213.5199 h -1.73438 l -0.6875,-1.78125 h -3.14062 l -0.65625,1.78125 h -1.6875 l 3.0625,-7.875 h 1.6875 z m -2.9375,-3.10938 -1.07813,-2.92187 -1.0625,2.92187 z m 3.53934,3.10938 v -7.875 h 1.54687 l 3.23438,5.26562 v -5.26562 h 1.46875 v 7.875 h -1.59375 l -3.17188,-5.14063 v 5.14063 z m 9.75812,0 v -3.3125 l -2.89063,-4.5625 h 1.85938 l 1.85937,3.10937 1.8125,-3.10937 h 1.82813 l -2.89063,4.57812 v 3.29688 z"
       id="path4859" />
    <path
       inkscape:connector-curvature="0"
       style="fill:#96ceda;fill-rule:evenodd"
       d="m 457.44138,335.74097 v -14.92566 c 0,1.64862 17.48392,2.98514 39.05136,2.98514 21.56751,0 39.05139,-1.33652 39.05139,-2.98514 v 14.92566 0 c 0,1.64865 -17.48389,2.98514 -39.05139,2.98514 -21.56744,0 -39.05136,-1.33649 -39.05136,-2.98514 z"
       id="path4861" />
    <path
       inkscape:connector-curvature="0"
       style="fill-rule:evenodd;stroke:#000000;stroke-width:2;stroke-linecap:butt;stroke-linejoin:round"
       d="m 457.44138,335.74097 v -14.92566 c 0,1.64862 17.48392,2.98514 39.05136,2.98514 21.56751,0 39.05139,-1.33652 39.05139,-2.98514 v 14.92566 0 c 0,1.64865 -17.48389,2.98514 -39.05139,2.98514 -21.56744,0 -39.05136,-1.33649 -39.05136,-2.98514 z"
       id="path4863" />
    <path
       inkscape:connector-curvature="0"
       style="fill:#000000;fill-opacity:0;fill-rule:evenodd"
       d="m 472.75971,315.04892 h 47.4646 v 17.16534 h -47.4646 z"
       id="path4865" />
    <path
       inkscape:connector-curvature="0"
       style="fill:#000000;fill-rule:nonzero"
       d="m 493.14878,333.45429 h -1.73438 l -0.6875,-1.78125 h -3.14062 l -0.65625,1.78125 h -1.6875 l 3.0625,-7.875 h 1.6875 z m -2.9375,-3.10937 -1.07813,-2.92188 -1.0625,2.92188 z m 3.53937,3.10937 v -7.875 h 1.54687 l 3.23438,5.26563 v -5.26563 h 1.46875 v 7.875 h -1.59375 l -3.17188,-5.14062 v 5.14062 z m 9.75812,0 v -3.3125 l -2.89063,-4.5625 h 1.85938 l 1.85937,3.10938 1.8125,-3.10938 h 1.82813 l -2.89063,4.57813 v 3.29687 z"
       id="path4867" />
    <path
       inkscape:connector-curvature="0"
       style="fill:#96ceda;fill-rule:evenodd"
       d="m 274.81948,499.22555 v -14.92569 c 0,1.64865 17.48392,2.98514 39.05139,2.98514 21.56747,0 39.05136,-1.33649 39.05136,-2.98514 v 14.92569 0 c 0,1.64865 -17.48389,2.98514 -39.05136,2.98514 -21.56747,0 -39.05139,-1.33649 -39.05139,-2.98514 z"
       id="path4869" />
    <path
       inkscape:connector-curvature="0"
       style="fill-rule:evenodd;stroke:#000000;stroke-width:2;stroke-linecap:butt;stroke-linejoin:round"
       d="m 274.81948,499.22555 v -14.92569 c 0,1.64865 17.48392,2.98514 39.05139,2.98514 21.56747,0 39.05136,-1.33649 39.05136,-2.98514 v 14.92569 0 c 0,1.64865 -17.48389,2.98514 -39.05136,2.98514 -21.56747,0 -39.05139,-1.33649 -39.05139,-2.98514 z"
       id="path4871" />
    <path
       inkscape:connector-curvature="0"
       style="fill:#000000;fill-opacity:0;fill-rule:evenodd"
       d="m 290.13782,478.53351 h 47.46457 v 17.16534 h -47.46457 z"
       id="path4873" />
    <path
       inkscape:connector-curvature="0"
       style="fill:#000000;fill-rule:nonzero"
       d="m 310.52695,496.93888 h -1.73438 l -0.6875,-1.78125 h -3.14062 l -0.65625,1.78125 h -1.6875 l 3.0625,-7.875 h 1.6875 z m -2.9375,-3.10938 -1.07813,-2.92187 -1.0625,2.92187 z m 3.53934,3.10938 v -7.875 h 1.54687 l 3.23438,5.26562 v -5.26562 h 1.46875 v 7.875 h -1.59375 l -3.17188,-5.14063 v 5.14063 z m 9.75812,0 v -3.3125 l -2.89063,-4.5625 h 1.85938 l 1.85937,3.10937 1.8125,-3.10937 h 1.82813 l -2.89063,4.57812 v 3.29688 z"
       id="path4875" />
  </g>
</svg>
