<?xml version="1.0" encoding="UTF-8" standalone="no"?>
<!-- Created with Inkscape (http://www.inkscape.org/) -->

<svg
   xmlns:dc="http://purl.org/dc/elements/1.1/"
   xmlns:cc="http://creativecommons.org/ns#"
   xmlns:rdf="http://www.w3.org/1999/02/22-rdf-syntax-ns#"
   xmlns:svg="http://www.w3.org/2000/svg"
   xmlns="http://www.w3.org/2000/svg"
   xmlns:sodipodi="http://sodipodi.sourceforge.net/DTD/sodipodi-0.dtd"
   xmlns:inkscape="http://www.inkscape.org/namespaces/inkscape"
   width="115.76225mm"
   height="40.117023mm"
   viewBox="0 0 115.76225 40.117023"
   version="1.1"
   id="svg4957"
   inkscape:version="0.92.1 r15371"
   sodipodi:docname="ptaIfExample.svg"
   inkscape:export-filename="/home/alexds9/Thesis/ThesisToLatex/ThesisToLatex/Figures/ptaIfExample.png"
   inkscape:export-xdpi="500"
   inkscape:export-ydpi="500">
  <defs
     id="defs4951" />
  <sodipodi:namedview
     id="base"
     pagecolor="#ffffff"
     bordercolor="#666666"
     borderopacity="1.0"
     inkscape:pageopacity="0.0"
     inkscape:pageshadow="2"
     inkscape:zoom="1.979899"
     inkscape:cx="81.841948"
     inkscape:cy="106.86597"
     inkscape:document-units="mm"
     inkscape:current-layer="layer1"
     showgrid="false"
     fit-margin-top="5"
     fit-margin-left="2"
     fit-margin-right="2"
     fit-margin-bottom="5"
     inkscape:window-width="1535"
     inkscape:window-height="876"
     inkscape:window-x="65"
     inkscape:window-y="24"
     inkscape:window-maximized="1" />
  <metadata
     id="metadata4954">
    <rdf:RDF>
      <cc:Work
         rdf:about="">
        <dc:format>image/svg+xml</dc:format>
        <dc:type
           rdf:resource="http://purl.org/dc/dcmitype/StillImage" />
        <dc:title></dc:title>
      </cc:Work>
    </rdf:RDF>
  </metadata>
  <g
     inkscape:label="Layer 1"
     inkscape:groupmode="layer"
     id="layer1"
     transform="translate(-50.203154,-102.30862)">
    <g
       transform="matrix(0.26458333,0,0,0.26458333,151.66228,86.460281)"
       id="g4721">
      <g
         style="fill:#4242a8;fill-opacity:1;fill-rule:nonzero;stroke:none"
         id="g4719">
        <path
           inkscape:connector-curvature="0"
           d="m -188.1875,187.17187 q 0,-1.375 -0.57031,-2.16406 -0.57031,-0.78906 -1.57031,-0.78906 -1,0 -1.57032,0.78906 -0.57031,0.78906 -0.57031,2.16406 0,1.39063 0.57031,2.17969 0.57032,0.78906 1.57032,0.78906 1,0 1.57031,-0.78906 0.57031,-0.78906 0.57031,-2.17969 z M -192.46875,184.5 q 0.40625,-0.67188 1.00781,-1.00781 0.60157,-0.33594 1.44532,-0.33594 1.39062,0 2.26562,1.10937 0.875,1.10938 0.875,2.90625 0,1.8125 -0.875,2.92188 -0.875,1.10937 -2.26562,1.10937 -0.84375,0 -1.44532,-0.33593 -0.60156,-0.33594 -1.00781,-1.02344 V 191 h -1.26562 v -10.64063 h 1.26562 z m 12.29004,0.14062 h 8.76562 v 1.15625 h -8.76562 z m 0,2.79688 h 8.76562 v 1.15625 h -8.76562 z m 20.38379,-1.9375 q 0.98437,0.20312 1.53906,0.875 0.55469,0.67187 0.55469,1.65625 0,1.51562 -1.03906,2.34375 -1.03907,0.82812 -2.94532,0.82812 -0.64062,0 -1.32031,-0.13281 -0.67969,-0.13281 -1.41406,-0.38281 v -1.32813 q 0.57812,0.32813 1.26562,0.5 0.6875,0.17188 1.42188,0.17188 1.29687,0 1.97656,-0.50781 0.67969,-0.50782 0.67969,-1.49219 0,-0.90625 -0.63281,-1.41406 -0.63282,-0.50782 -1.75782,-0.50782 h -1.1875 v -1.125 h 1.25 q 1.01563,0 1.55469,-0.41406 0.53906,-0.41406 0.53906,-1.17969 0,-0.78125 -0.55468,-1.20312 -0.55469,-0.42188 -1.60157,-0.42188 -0.5625,0 -1.21093,0.125 -0.64844,0.125 -1.42969,0.39063 v -1.23438 q 0.78125,-0.21875 1.46875,-0.32812 0.6875,-0.10938 1.29687,-0.10938 1.57813,0 2.49219,0.71094 0.91406,0.71094 0.91406,1.92969 0,0.85937 -0.48437,1.4375 -0.48438,0.57812 -1.375,0.8125 z m 4.86035,3.76562 h 1.4375 v 1.17188 l -1.10938,2.1875 h -0.89062 l 0.5625,-2.1875 z m 14.08789,-5.625 v 1.17188 q -0.53125,-0.29688 -1.07031,-0.44531 -0.53906,-0.14844 -1.08594,-0.14844 -1.21875,0 -1.89844,0.78125 -0.67968,0.78125 -0.67968,2.17187 0,1.40625 0.67968,2.17969 0.67969,0.77344 1.89844,0.77344 0.54688,0 1.08594,-0.14063 0.53906,-0.14062 1.07031,-0.4375 v 1.15625 q -0.53125,0.25 -1.09375,0.375 -0.5625,0.125 -1.1875,0.125 -1.73437,0 -2.75781,-1.08593 -1.02344,-1.08594 -1.02344,-2.94532 0,-1.85937 1.03125,-2.9375 1.03125,-1.07812 2.82813,-1.07812 0.57812,0 1.13281,0.11719 0.55469,0.11718 1.07031,0.36718 z m 6.80371,1 h 8.76563 v 1.15625 h -8.76563 z m 0,2.79688 h 8.76563 v 1.15625 h -8.76563 z m 20.38379,-1.9375 q 0.98438,0.20312 1.53906,0.875 0.55469,0.67187 0.55469,1.65625 0,1.51562 -1.03906,2.34375 -1.03906,0.82812 -2.94531,0.82812 -0.64063,0 -1.32032,-0.13281 -0.67968,-0.13281 -1.41406,-0.38281 v -1.32813 q 0.57813,0.32813 1.26563,0.5 0.6875,0.17188 1.42187,0.17188 1.29688,0 1.97656,-0.50781 0.67969,-0.50782 0.67969,-1.49219 0,-0.90625 -0.63281,-1.41406 -0.63281,-0.50782 -1.75781,-0.50782 h -1.1875 v -1.125 h 1.25 q 1.01562,0 1.55468,-0.41406 0.53907,-0.41406 0.53907,-1.17969 0,-0.78125 -0.55469,-1.20312 -0.55469,-0.42188 -1.60156,-0.42188 -0.5625,0 -1.21094,0.125 -0.64844,0.125 -1.42969,0.39063 v -1.23438 q 0.78125,-0.21875 1.46875,-0.32812 0.6875,-0.10938 1.29688,-0.10938 1.57812,0 2.49218,0.71094 0.91407,0.71094 0.91407,1.92969 0,0.85937 -0.48438,1.4375 -0.48437,0.57812 -1.375,0.8125 z"
           id="path4717" />
      </g>
      <!-- drawing style -->
    </g>
    <g
       transform="matrix(0.26458333,0,0,0.26458333,151.66228,86.460281)"
       id="g4727">
      <g
         style="fill:#4242a8;fill-opacity:1;fill-rule:nonzero;stroke:none"
         id="g4725">
        <path
           inkscape:connector-curvature="0"
           d="m -188.1875,119.17188 q 0,-1.375 -0.57031,-2.16407 -0.57031,-0.78906 -1.57031,-0.78906 -1,0 -1.57032,0.78906 -0.57031,0.78907 -0.57031,2.16407 0,1.39062 0.57031,2.17968 0.57032,0.78907 1.57032,0.78907 1,0 1.57031,-0.78907 0.57031,-0.78906 0.57031,-2.17968 z M -192.46875,116.5 q 0.40625,-0.67187 1.00781,-1.00781 0.60157,-0.33594 1.44532,-0.33594 1.39062,0 2.26562,1.10938 0.875,1.10937 0.875,2.90625 0,1.8125 -0.875,2.92187 -0.875,1.10938 -2.26562,1.10938 -0.84375,0 -1.44532,-0.33594 -0.60156,-0.33594 -1.00781,-1.02344 V 123 h -1.26562 v -10.64062 h 1.26562 z m 12.29004,0.14063 h 8.76562 v 1.15625 h -8.76562 z m 0,2.79687 h 8.76562 v 1.15625 h -8.76562 z m 17.38379,2.40625 h 4.8125 V 123 h -6.46875 v -1.15625 q 0.78125,-0.8125 2.14062,-2.1875 1.35938,-1.375 1.70313,-1.76562 0.65625,-0.75 0.92187,-1.26563 0.26563,-0.51562 0.26563,-1.01562 0,-0.8125 -0.57031,-1.32813 -0.57032,-0.51562 -1.49219,-0.51562 -0.64063,0 -1.35938,0.22656 -0.71875,0.22656 -1.54687,0.69531 v -1.40625 q 0.82812,-0.32812 1.55469,-0.5 0.72656,-0.17187 1.33593,-0.17187 1.57813,0 2.52344,0.78906 0.94531,0.78906 0.94531,2.11719 0,0.64062 -0.23437,1.20312 -0.23438,0.5625 -0.85938,1.32813 -0.17187,0.1875 -1.08593,1.14062 -0.91407,0.95313 -2.58594,2.65625 z m 7.86035,-0.57812 h 1.4375 v 1.17187 l -1.10938,2.1875 h -0.89062 l 0.5625,-2.1875 z m 14.08789,-5.625 v 1.17187 q -0.53125,-0.29687 -1.07031,-0.44531 -0.53906,-0.14844 -1.08594,-0.14844 -1.21875,0 -1.89844,0.78125 -0.67968,0.78125 -0.67968,2.17188 0,1.40625 0.67968,2.17968 0.67969,0.77344 1.89844,0.77344 0.54688,0 1.08594,-0.14062 0.53906,-0.14063 1.07031,-0.4375 v 1.15625 q -0.53125,0.25 -1.09375,0.375 -0.5625,0.125 -1.1875,0.125 -1.73437,0 -2.75781,-1.08594 -1.02344,-1.08594 -1.02344,-2.94531 0,-1.85938 1.03125,-2.9375 1.03125,-1.07813 2.82813,-1.07813 0.57812,0 1.13281,0.11719 0.55469,0.11719 1.07031,0.36719 z m 6.80371,1 h 8.76563 v 1.15625 h -8.76563 z m 0,2.79687 h 8.76563 v 1.15625 h -8.76563 z m 16.43067,2.40625 h 2.26562 v -7.79687 l -2.46875,0.5 v -1.26563 l 2.45313,-0.48437 h 1.375 v 9.04687 h 2.25 V 123 h -5.875 z"
           id="path4723" />
      </g>
      <!-- drawing style -->
    </g>
    <g
       transform="matrix(0.26458333,0,0,0.26458333,151.66228,86.460281)"
       id="g4781">
      <g
         style="fill:#a5afcd;fill-opacity:1;fill-rule:nonzero;stroke:none"
         id="g4779">
        <path
           inkscape:connector-curvature="0"
           d="m -328,136 c 0,6.62742 -5.37258,12 -12,12 -6.62742,0 -12,-5.37258 -12,-12 0,-6.62742 5.37258,-12 12,-12 6.62742,0 12,5.37258 12,12 z"
           id="path4777" />
      </g>
      <!-- drawing style -->
    </g>
    <g
       transform="matrix(0.26458333,0,0,0.26458333,151.66228,86.460281)"
       id="g4787">
      <g
         style="fill:none;stroke:#000000;stroke-opacity:1"
         id="g4785">
        <path
           inkscape:connector-curvature="0"
           d="m -328,136 c 0,6.62742 -5.37258,12 -12,12 -6.62742,0 -12,-5.37258 -12,-12 0,-6.62742 5.37258,-12 12,-12 6.62742,0 12,5.37258 12,12 z"
           id="path4783" />
      </g>
      <!-- drawing style -->
    </g>
    <g
       transform="matrix(0.26458333,0,0,0.26458333,151.66228,86.460281)"
       id="g4793">
      <g
         style="fill:#a5afcd;fill-opacity:1;fill-rule:nonzero;stroke:none"
         id="g4791">
        <path
           inkscape:connector-curvature="0"
           d="m 46,136 c 0,6.62742 -5.372583,12 -12,12 -6.627417,0 -12,-5.37258 -12,-12 0,-6.62742 5.372583,-12 12,-12 6.627417,0 12,5.37258 12,12 z"
           id="path4789" />
      </g>
      <!-- drawing style -->
    </g>
    <g
       transform="matrix(0.26458333,0,0,0.26458333,151.66228,86.460281)"
       id="g4799">
      <g
         style="fill:none;stroke:#000000;stroke-opacity:1"
         id="g4797">
        <path
           inkscape:connector-curvature="0"
           d="m 46,136 c 0,6.62742 -5.372583,12 -12,12 -6.627417,0 -12,-5.37258 -12,-12 0,-6.62742 5.372583,-12 12,-12 6.627417,0 12,5.37258 12,12 z"
           id="path4795" />
      </g>
      <!-- drawing style -->
    </g>
    <g
       transform="matrix(0.26458333,0,0,0.26458333,151.66228,86.460281)"
       id="g4817">
      <g
         style="fill:#42a848;fill-opacity:1;fill-rule:nonzero;stroke:none"
         id="g4815">
        <path
           inkscape:connector-curvature="0"
           d="M -184.89062,164.26562 H -183.5 V 166 h -1.39062 z m 0,-8.46875 H -183.5 v 4.46875 l -0.14062,2.45313 H -184.75 l -0.14062,-2.45313 z m 7.84667,-0.42187 q -0.92187,1.57812 -1.36718,3.11719 -0.44532,1.53906 -0.44532,3.11718 0,1.57813 0.45313,3.125 0.45312,1.54688 1.35937,3.10938 h -1.09375 q -1.03125,-1.60938 -1.53906,-3.15625 -0.50781,-1.54688 -0.50781,-3.07813 0,-1.53125 0.50781,-3.07812 0.50781,-1.54688 1.53906,-3.15625 z m 2.85254,9.46875 h 2.26563 v -7.79688 l -2.46875,0.5 v -1.26562 l 2.45312,-0.48438 h 1.375 v 9.04688 h 2.25 V 166 h -5.875 z m 13.10743,-5.20313 h 8.76562 v 1.15625 h -8.76562 z m 0,2.79688 h 8.76562 v 1.15625 h -8.76562 z m 11.73046,-2.79688 h 8.76563 v 1.15625 h -8.76563 z m 0,2.79688 h 8.76563 v 1.15625 h -8.76563 z m 19.49317,-0.28125 q -1.51563,0 -2.10938,0.34375 -0.59375,0.34375 -0.59375,1.1875 0,0.67187 0.44532,1.0625 0.44531,0.39062 1.19531,0.39062 1.04687,0 1.67969,-0.74218 0.63281,-0.74219 0.63281,-1.96094 v -0.28125 z m 2.51562,-0.53125 V 166 h -1.26562 v -1.15625 q -0.42188,0.6875 -1.07031,1.02344 -0.64844,0.33593 -1.57032,0.33593 -1.17187,0 -1.86718,-0.66406 -0.69532,-0.66406 -0.69532,-1.77344 0,-1.28125 0.86719,-1.9375 0.86719,-0.65625 2.57031,-0.65625 h 1.76563 v -0.125 q 0,-0.875 -0.57031,-1.35156 -0.57032,-0.47656 -1.60157,-0.47656 -0.65625,0 -1.28125,0.16406 -0.625,0.16406 -1.1875,0.47656 v -1.17187 q 0.6875,-0.26563 1.33594,-0.39844 0.64844,-0.13281 1.25781,-0.13281 1.67188,0 2.49219,0.85937 0.82031,0.85938 0.82031,2.60938 z m 2.3916,-6.25 h 1.09375 q 1.01563,1.60937 1.53125,3.15625 0.51563,1.54687 0.51563,3.07812 0,1.53125 -0.51563,3.07813 -0.51562,1.54687 -1.53125,3.15625 h -1.09375 q 0.90625,-1.5625 1.35157,-3.10938 0.44531,-1.54687 0.44531,-3.125 0,-1.57812 -0.44531,-3.11718 -0.44532,-1.53907 -1.35157,-3.11719 z"
           id="path4813" />
      </g>
      <!-- drawing style -->
    </g>
    <g
       transform="matrix(0.26458333,0,0,0.26458333,151.66228,86.460281)"
       id="g4823">
      <g
         style="fill:#42a848;fill-opacity:1;fill-rule:nonzero;stroke:none"
         id="g4821">
        <path
           inkscape:connector-curvature="0"
           d="M -176.26562,87.84375 H -174 v -7.796875 l -2.46875,0.5 V 79.28125 l 2.45313,-0.484375 h 1.375 v 9.046875 h 2.25 V 89 h -5.875 z m 13.10742,-5.203125 h 8.76562 v 1.15625 h -8.76562 z m 0,2.796875 h 8.76562 v 1.15625 h -8.76562 z m 11.73047,-2.796875 h 8.76562 v 1.15625 h -8.76562 z m 0,2.796875 h 8.76562 v 1.15625 h -8.76562 z m 19.49316,-0.28125 q -1.51563,0 -2.10938,0.34375 -0.59375,0.34375 -0.59375,1.1875 0,0.671875 0.44532,1.0625 0.44531,0.390625 1.19531,0.390625 1.04687,0 1.67969,-0.742188 0.63281,-0.742187 0.63281,-1.960937 v -0.28125 z m 2.51562,-0.53125 V 89 h -1.26562 v -1.15625 q -0.42188,0.6875 -1.07031,1.023437 -0.64844,0.335938 -1.57032,0.335938 -1.17187,0 -1.86718,-0.664063 -0.69532,-0.664062 -0.69532,-1.773437 0,-1.28125 0.86719,-1.9375 0.86719,-0.65625 2.57031,-0.65625 h 1.76563 v -0.125 q 0,-0.875 -0.57031,-1.351563 -0.57032,-0.476562 -1.60157,-0.476562 -0.65625,0 -1.28125,0.164062 -0.625,0.164063 -1.1875,0.476563 V 81.6875 q 0.6875,-0.265625 1.33594,-0.398438 0.64844,-0.132812 1.25781,-0.132812 1.67188,0 2.49219,0.859375 0.82031,0.859375 0.82031,2.609375 z"
           id="path4819" />
      </g>
      <!-- drawing style -->
    </g>
    <g
       transform="matrix(0.26458333,0,0,0.26458333,151.66228,86.460281)"
       id="g4829">
      <g
         style="fill:none;stroke:#000000;stroke-linecap:round;stroke-linejoin:bevel;stroke-opacity:1"
         id="g4827">
        <path
           inkscape:connector-curvature="0"
           d="m -328.37244,141.81378 47.42817,23.71408 Q -272,170 -262,170 h 218 q 10,0 18.944271,-4.47214 l 47.428175,-23.71408"
           id="path4825" />
      </g>
      <!-- drawing style -->
    </g>
    <g
       transform="matrix(0.26458333,0,0,0.26458333,151.66228,86.460281)"
       id="g4835">
      <g
         style="fill:none;stroke:#000000;stroke-linecap:round;stroke-linejoin:bevel;stroke-opacity:1"
         id="g4833">
        <path
           inkscape:connector-curvature="0"
           d="m 14.890417,148.44847 7.482029,-6.63469 -9.796977,2.00479"
           id="path4831" />
      </g>
      <!-- drawing style -->
    </g>
    <g
       transform="matrix(0.26458333,0,0,0.26458333,151.66228,86.460281)"
       id="g4841">
      <g
         style="fill:none;stroke:#000000;stroke-linecap:round;stroke-linejoin:bevel;stroke-opacity:1"
         id="g4839">
        <path
           inkscape:connector-curvature="0"
           d="m -328.37244,130.18622 47.42817,-23.71408 Q -272,102 -262,102 h 218 q 10,0 18.944271,4.47214 l 47.428175,23.71408"
           id="path4837" />
      </g>
      <!-- drawing style -->
    </g>
    <g
       transform="matrix(0.26458333,0,0,0.26458333,151.66228,86.460281)"
       id="g4847">
      <g
         style="fill:none;stroke:#000000;stroke-linecap:round;stroke-linejoin:bevel;stroke-opacity:1"
         id="g4845">
        <path
           inkscape:connector-curvature="0"
           d="m 12.575469,128.18143 9.796977,2.00479 -7.482029,-6.6347"
           id="path4843" />
      </g>
      <!-- drawing style -->
    </g>
    <g
       transform="matrix(0.04194402,0,0,0.26458333,73.070603,86.460281)"
       id="g4877">
      <g
         style="fill:none;stroke:#000000;stroke-linecap:round;stroke-linejoin:bevel;stroke-opacity:1"
         id="g4875">
        <path
           inkscape:connector-curvature="0"
           d="m -497,136 h 144"
           id="path4873" />
      </g>
      <!-- drawing style -->
    </g>
    <g
       transform="matrix(0.26458333,0,0,0.26458333,151.66228,86.460281)"
       id="g4883">
      <g
         style="fill:none;stroke:#000000;stroke-linecap:round;stroke-linejoin:bevel;stroke-opacity:1"
         id="g4881">
        <path
           inkscape:connector-curvature="0"
           d="M -362.65927,138.5882 -353,136 l -9.65927,-2.5882"
           id="path4879" />
      </g>
      <!-- drawing style -->
    </g>
  </g>
</svg>
