<?xml version="1.0" encoding="UTF-8" standalone="no"?>
<svg
   xmlns:dc="http://purl.org/dc/elements/1.1/"
   xmlns:cc="http://creativecommons.org/ns#"
   xmlns:rdf="http://www.w3.org/1999/02/22-rdf-syntax-ns#"
   xmlns:svg="http://www.w3.org/2000/svg"
   xmlns="http://www.w3.org/2000/svg"
   xmlns:sodipodi="http://sodipodi.sourceforge.net/DTD/sodipodi-0.dtd"
   xmlns:inkscape="http://www.inkscape.org/namespaces/inkscape"
   version="1.1"
   viewBox="0 0 808.61151 465.79468"
   stroke-miterlimit="10"
   id="svg137"
   sodipodi:docname="sequenceOfPtasPlp.svg"
   width="808.61151"
   height="465.79468"
   style="fill:none;stroke:none;stroke-linecap:square;stroke-miterlimit:10"
   inkscape:export-filename="/home/alexds9/Thesis/ThesisToLatex/ThesisToLatex/Figures/sequenceOfPtasPlp.png"
   inkscape:export-xdpi="400"
   inkscape:export-ydpi="400"
   inkscape:version="0.92.1 r15371">
  <metadata
     id="metadata143">
    <rdf:RDF>
      <cc:Work
         rdf:about="">
        <dc:format>image/svg+xml</dc:format>
        <dc:type
           rdf:resource="http://purl.org/dc/dcmitype/StillImage" />
        <dc:title></dc:title>
      </cc:Work>
    </rdf:RDF>
  </metadata>
  <defs
     id="defs141" />
  <sodipodi:namedview
     pagecolor="#ffffff"
     bordercolor="#666666"
     borderopacity="1"
     objecttolerance="10"
     gridtolerance="10"
     guidetolerance="10"
     inkscape:pageopacity="0"
     inkscape:pageshadow="2"
     inkscape:window-width="1535"
     inkscape:window-height="876"
     id="namedview139"
     showgrid="false"
     fit-margin-top="5"
     fit-margin-bottom="5"
     fit-margin-right="5"
     fit-margin-left="5"
     inkscape:zoom="0.61041667"
     inkscape:cx="320.01977"
     inkscape:cy="42.49376"
     inkscape:window-x="65"
     inkscape:window-y="24"
     inkscape:window-maximized="1"
     inkscape:current-layer="svg137" />
  <clipPath
     id="p.0">
    <path
       d="M 0,0 H 960 V 720 H 0 Z"
       id="path2"
       inkscape:connector-curvature="0"
       style="clip-rule:nonzero" />
  </clipPath>
  <g
     clip-path="url(#p.0)"
     id="g135"
     transform="translate(-60.950221,-111.94908)">
    <path
       inkscape:connector-curvature="0"
       style="fill:#ffcc00;fill-rule:evenodd"
       d="m 215.5696,361.1401 v 0 c 0,-54.36746 44.07352,-98.44096 98.44093,-98.44096 v 0 c 26.10818,0 51.147,10.37143 69.60828,28.83269 18.46124,18.46127 28.83267,43.50009 28.83267,69.60828 v 0 c 0,54.36743 -44.07352,98.44092 -98.44095,98.44092 v 0 c -54.36741,0 -98.44093,-44.07349 -98.44093,-98.44092 z"
       id="path7" />
    <path
       inkscape:connector-curvature="0"
       style="fill-rule:evenodd;stroke:#000000;stroke-width:2;stroke-linecap:butt;stroke-linejoin:round"
       d="m 215.5696,361.1401 v 0 c 0,-54.36746 44.07352,-98.44096 98.44093,-98.44096 v 0 c 26.10818,0 51.147,10.37143 69.60828,28.83269 18.46124,18.46127 28.83267,43.50009 28.83267,69.60828 v 0 c 0,54.36743 -44.07352,98.44092 -98.44095,98.44092 v 0 c -54.36741,0 -98.44093,-44.07349 -98.44093,-98.44092 z"
       id="path9" />
    <path
       inkscape:connector-curvature="0"
       style="fill:#000000;fill-opacity:0;fill-rule:evenodd"
       d="m 206.10503,327.88287 h 218.45668 v 63.62204 H 206.10503 Z"
       id="path11" />
    <path
       inkscape:connector-curvature="0"
       style="fill:#000000;fill-rule:nonzero"
       d="m 280.93084,354.80288 v -13.59375 h 10.09373 v 2.29687 h -7.34373 v 3.01563 h 6.82811 v 2.28125 h -6.82811 v 3.70312 h 7.60936 v 2.29688 z m 11.17793,0 3.5625,-5.07813 -3.40625,-4.78125 h 3.17188 l 1.75,2.71875 1.82812,-2.71875 h 3.0625 l -3.32812,4.67188 3.64062,5.1875 h -3.20312 l -2,-3.04688 -2.03125,3.04688 z m 17.32886,-3.14063 2.60937,0.4375 q -0.5,1.4375 -1.59375,2.1875 -1.07812,0.73438 -2.70312,0.73438 -2.5625,0 -3.79688,-1.67188 -0.96875,-1.34375 -0.96875,-3.40625 0,-2.4375 1.26563,-3.82812 1.28125,-1.39063 3.25,-1.39063 2.1875,0 3.45312,1.45313 1.28125,1.45312 1.23438,4.45312 h -6.53125 q 0.0156,1.15625 0.625,1.8125 0.60937,0.64063 1.5,0.64063 0.60937,0 1.03125,-0.32813 0.42187,-0.34375 0.625,-1.09375 z m 0.15625,-2.625 q -0.0312,-1.14062 -0.59375,-1.71875 -0.54688,-0.59375 -1.34375,-0.59375 -0.85938,0 -1.40625,0.625 -0.5625,0.60938 -0.54688,1.6875 z m 13.11008,-1.17187 -2.5625,0.46875 q -0.14063,-0.78125 -0.59375,-1.17188 -0.45313,-0.39062 -1.1875,-0.39062 -0.98438,0 -1.5625,0.67187 -0.57813,0.67188 -0.57813,2.25 0,1.76563 0.57813,2.48438 0.59375,0.71875 1.59375,0.71875 0.75,0 1.21875,-0.42188 0.46875,-0.42187 0.67187,-1.45312 l 2.54688,0.4375 q -0.39063,1.76562 -1.53125,2.67187 -1.125,0.89063 -3.03125,0.89063 -2.15625,0 -3.45313,-1.35938 -1.28125,-1.35937 -1.28125,-3.78125 0,-2.4375 1.29688,-3.79687 1.29687,-1.35938 3.48437,-1.35938 1.79688,0 2.85938,0.78125 1.0625,0.76563 1.53125,2.35938 z m 8.26635,6.9375 v -1.46875 q -0.53125,0.78125 -1.40625,1.23437 -0.875,0.45313 -1.85937,0.45313 -0.98438,0 -1.78125,-0.4375 -0.78125,-0.4375 -1.14063,-1.21875 -0.34375,-0.79688 -0.34375,-2.1875 v -6.23438 h 2.60938 v 4.53125 q 0,2.07813 0.14062,2.54688 0.14063,0.46875 0.51563,0.75 0.39062,0.26562 0.96875,0.26562 0.67187,0 1.20312,-0.35937 0.53125,-0.375 0.71875,-0.90625 0.1875,-0.54688 0.1875,-2.67188 v -4.15625 h 2.60938 v 9.85938 z m 9.42725,-9.85938 v 2.07813 h -1.78125 v 3.98437 q 0,1.20313 0.0469,1.40625 0.0625,0.1875 0.23437,0.32813 0.1875,0.125 0.45313,0.125 0.35937,0 1.04687,-0.25 l 0.21875,2.01562 q -0.90625,0.39063 -2.0625,0.39063 -0.70312,0 -1.26562,-0.23438 -0.5625,-0.23437 -0.82813,-0.60937 -0.26562,-0.375 -0.375,-1.01563 -0.0781,-0.45312 -0.0781,-1.84375 v -4.29687 h -1.20313 v -2.07813 h 1.20313 v -1.95312 l 2.60937,-1.51563 v 3.46875 z m 7.40018,6.71875 2.60937,0.4375 q -0.5,1.4375 -1.59375,2.1875 -1.07812,0.73438 -2.70312,0.73438 -2.5625,0 -3.79688,-1.67188 -0.96875,-1.34375 -0.96875,-3.40625 0,-2.4375 1.26563,-3.82812 1.28125,-1.39063 3.25,-1.39063 2.1875,0 3.45312,1.45313 1.28125,1.45312 1.23438,4.45312 h -6.53125 q 0.0156,1.15625 0.625,1.8125 0.60937,0.64063 1.5,0.64063 0.60937,0 1.03125,-0.32813 0.42187,-0.34375 0.625,-1.09375 z m 0.15625,-2.625 q -0.0312,-1.14062 -0.59375,-1.71875 -0.54688,-0.59375 -1.34375,-0.59375 -0.85938,0 -1.40625,0.625 -0.5625,0.60938 -0.54688,1.6875 z"
       id="path13" />
    <path
       inkscape:connector-curvature="0"
       style="fill:#000000;fill-rule:nonzero"
       d="m 222.02776,372.38102 2.67187,-0.26563 q 0.23438,1.34375 0.96875,1.98438 0.75,0.625 2,0.625 1.32813,0 2,-0.5625 0.67188,-0.5625 0.67188,-1.3125 0,-0.48438 -0.28125,-0.8125 -0.28125,-0.34375 -0.98438,-0.59375 -0.48437,-0.17188 -2.20312,-0.59375 -2.20313,-0.54688 -3.09375,-1.34375 -1.26563,-1.125 -1.26563,-2.73438 0,-1.04687 0.59375,-1.95312 0.59375,-0.90625 1.70313,-1.375 1.10937,-0.46875 2.67187,-0.46875 2.5625,0 3.85938,1.125 1.29687,1.10937 1.35937,2.98437 l -2.75,0.125 q -0.17187,-1.04687 -0.75,-1.5 -0.57812,-0.46875 -1.75,-0.46875 -1.1875,0 -1.875,0.5 -0.4375,0.3125 -0.4375,0.84375 0,0.48438 0.42188,0.82813 0.51562,0.42187 2.51562,0.90625 2,0.46875 2.95313,0.98437 0.96875,0.5 1.51562,1.375 0.54688,0.875 0.54688,2.15625 0,1.17188 -0.65625,2.20313 -0.64063,1.01562 -1.82813,1.51562 -1.1875,0.48438 -2.96875,0.48438 -2.57812,0 -3.96875,-1.1875 -1.375,-1.1875 -1.64062,-3.46875 z m 18.81857,1.28125 2.60938,0.4375 q -0.5,1.4375 -1.59375,2.1875 -1.07813,0.73437 -2.70313,0.73437 -2.5625,0 -3.79687,-1.67187 -0.96875,-1.34375 -0.96875,-3.40625 0,-2.4375 1.26562,-3.82813 1.28125,-1.39062 3.25,-1.39062 2.1875,0 3.45313,1.45312 1.28125,1.45313 1.23437,4.45313 h -6.53125 q 0.0156,1.15625 0.625,1.8125 0.60938,0.64062 1.5,0.64062 0.60938,0 1.03125,-0.32812 0.42188,-0.34375 0.625,-1.09375 z m 0.15625,-2.625 q -0.0312,-1.14063 -0.59375,-1.71875 -0.54687,-0.59375 -1.34375,-0.59375 -0.85937,0 -1.40625,0.625 -0.5625,0.60937 -0.54687,1.6875 z m 10.95384,9.51562 v -4.95312 q -0.5,0.65625 -1.26562,1.04687 -0.76563,0.375 -1.64063,0.375 -1.6875,0 -2.76562,-1.26562 -1.28125,-1.46875 -1.28125,-3.98438 0,-2.375 1.20312,-3.70312 1.20313,-1.34375 2.98438,-1.34375 0.98437,0 1.70312,0.42187 0.71875,0.42188 1.26563,1.26563 v -1.46875 h 2.40625 v 13.60937 z m 0.0937,-8.79687 q 0,-1.51563 -0.625,-2.25 -0.60937,-0.73438 -1.54687,-0.73438 -0.9375,0 -1.57813,0.75 -0.64062,0.75 -0.64062,2.375 0,1.625 0.60937,2.34375 0.625,0.71875 1.51563,0.71875 0.90625,0 1.57812,-0.79687 0.6875,-0.8125 0.6875,-2.40625 z m 11.34911,5.04687 v -1.46875 q -0.53125,0.78125 -1.40625,1.23438 -0.875,0.45312 -1.85937,0.45312 -0.98438,0 -1.78125,-0.4375 -0.78125,-0.4375 -1.14063,-1.21875 -0.34375,-0.79687 -0.34375,-2.1875 v -6.23437 h 2.60938 v 4.53125 q 0,2.07812 0.14062,2.54687 0.14063,0.46875 0.51563,0.75 0.39062,0.26563 0.96875,0.26563 0.67187,0 1.20312,-0.35938 0.53125,-0.375 0.71875,-0.90625 0.1875,-0.54687 0.1875,-2.67187 v -4.15625 h 2.60938 v 9.85937 z m 10.61473,-3.14062 2.60938,0.4375 q -0.5,1.4375 -1.59375,2.1875 -1.07813,0.73437 -2.70313,0.73437 -2.5625,0 -3.79687,-1.67187 -0.96875,-1.34375 -0.96875,-3.40625 0,-2.4375 1.26562,-3.82813 1.28125,-1.39062 3.25,-1.39062 2.1875,0 3.45313,1.45312 1.28125,1.45313 1.23437,4.45313 h -6.53125 q 0.0156,1.15625 0.625,1.8125 0.60938,0.64062 1.5,0.64062 0.60938,0 1.03125,-0.32812 0.42188,-0.34375 0.625,-1.09375 z m 0.15625,-2.625 q -0.0312,-1.14063 -0.59375,-1.71875 -0.54687,-0.59375 -1.34375,-0.59375 -0.85937,0 -1.40625,0.625 -0.5625,0.60937 -0.54687,1.6875 z m 13.48509,5.76562 h -2.60937 v -5.03125 q 0,-1.59375 -0.17188,-2.0625 -0.15625,-0.46875 -0.53125,-0.71875 -0.375,-0.26562 -0.90625,-0.26562 -0.6875,0 -1.23437,0.375 -0.53125,0.35937 -0.73438,0.98437 -0.1875,0.60938 -0.1875,2.25 v 4.46875 h -2.60937 v -9.85937 h 2.42187 v 1.45312 q 1.29688,-1.67187 3.25,-1.67187 0.85938,0 1.57813,0.3125 0.71875,0.3125 1.07812,0.79687 0.35938,0.48438 0.5,1.09375 0.15625,0.60938 0.15625,1.75 z m 11.02099,-6.9375 -2.5625,0.46875 q -0.14063,-0.78125 -0.59375,-1.17187 -0.45313,-0.39063 -1.1875,-0.39063 -0.98438,0 -1.5625,0.67188 -0.57813,0.67187 -0.57813,2.25 0,1.76562 0.57813,2.48437 0.59375,0.71875 1.59375,0.71875 0.75,0 1.21875,-0.42187 0.46875,-0.42188 0.67187,-1.45313 l 2.54688,0.4375 q -0.39063,1.76563 -1.53125,2.67188 -1.125,0.89062 -3.03125,0.89062 -2.15625,0 -3.45313,-1.35937 -1.28125,-1.35938 -1.28125,-3.78125 0,-2.4375 1.29688,-3.79688 1.29687,-1.35937 3.48437,-1.35937 1.79688,0 2.85938,0.78125 1.0625,0.76562 1.53125,2.35937 z m 7.48507,3.79688 2.60938,0.4375 q -0.5,1.4375 -1.59375,2.1875 -1.07813,0.73437 -2.70313,0.73437 -2.5625,0 -3.79687,-1.67187 -0.96875,-1.34375 -0.96875,-3.40625 0,-2.4375 1.26562,-3.82813 1.28125,-1.39062 3.25,-1.39062 2.1875,0 3.45313,1.45312 1.28125,1.45313 1.23437,4.45313 h -6.53125 q 0.0156,1.15625 0.625,1.8125 0.60938,0.64062 1.5,0.64062 0.60938,0 1.03125,-0.32812 0.42188,-0.34375 0.625,-1.09375 z m 0.15625,-2.625 q -0.0312,-1.14063 -0.59375,-1.71875 -0.54687,-0.59375 -1.34375,-0.59375 -0.85937,0 -1.40625,0.625 -0.5625,0.60937 -0.54687,1.6875 z m 9.1059,0.70312 q 0,-1.29687 0.64062,-2.51562 0.64063,-1.21875 1.8125,-1.85938 1.17188,-0.64062 2.60938,-0.64062 2.25,0 3.67187,1.45312 1.42188,1.45313 1.42188,3.67188 0,2.23437 -1.4375,3.70312 -1.4375,1.46875 -3.625,1.46875 -1.35938,0 -2.59375,-0.60937 -1.21875,-0.60938 -1.85938,-1.79688 -0.64062,-1.1875 -0.64062,-2.875 z m 2.67187,0.14063 q 0,1.46875 0.6875,2.25 0.70313,0.76562 1.71875,0.76562 1.01563,0 1.70313,-0.76562 0.70312,-0.78125 0.70312,-2.26563 0,-1.45312 -0.70312,-2.23437 -0.6875,-0.78125 -1.70313,-0.78125 -1.01562,0 -1.71875,0.78125 -0.6875,0.78125 -0.6875,2.25 z m 8.17725,-4.9375 h 1.45312 v -0.73438 q 0,-1.25 0.26563,-1.85937 0.26562,-0.60938 0.96875,-0.98438 0.71875,-0.39062 1.79687,-0.39062 1.10938,0 2.1875,0.32812 l -0.35937,1.8125 q -0.625,-0.14062 -1.20313,-0.14062 -0.5625,0 -0.8125,0.26562 -0.23437,0.26563 -0.23437,1.01563 v 0.6875 h 1.9375 v 2.0625 h -1.9375 v 7.79687 h -2.60938 v -7.79687 h -1.45312 z m 12.55225,9.85937 v -13.59375 h 4.42187 q 2.5,0 3.26563,0.20313 1.15625,0.29687 1.9375,1.32812 0.79687,1.01563 0.79687,2.64063 0,1.25 -0.45312,2.10937 -0.45313,0.85938 -1.15625,1.34375 -0.70313,0.48438 -1.42188,0.64063 -0.98437,0.20312 -2.84375,0.20312 h -1.79687 v 5.125 z m 2.75,-11.29687 v 3.85937 h 1.5 q 1.625,0 2.17187,-0.21875 0.54688,-0.21875 0.85938,-0.67187 0.3125,-0.45313 0.3125,-1.04688 0,-0.75 -0.4375,-1.23437 -0.4375,-0.48438 -1.09375,-0.59375 -0.5,-0.0937 -1.98438,-0.0937 z m 12.75607,11.29687 v -11.29687 h -4.0312 v -2.29688 h 10.8125 v 2.29688 H 357.081 v 11.29687 z m 20.59909,0 h -2.98438 l -1.1875,-3.09375 h -5.4375 l -1.125,3.09375 h -2.90625 l 5.29688,-13.59375 h 2.90625 z m -5.04688,-5.375 -1.875,-5.04687 -1.84375,5.04687 z m 5.33234,2.5625 2.60937,-0.39062 q 0.17188,0.75 0.67188,1.15625 0.51562,0.39062 1.4375,0.39062 1,0 1.51562,-0.375 0.34375,-0.26562 0.34375,-0.70312 0,-0.29688 -0.1875,-0.48438 -0.1875,-0.1875 -0.875,-0.34375 -3.14062,-0.70312 -4,-1.26562 -1.15625,-0.79688 -1.15625,-2.21875 0,-1.28125 1,-2.15625 1.01563,-0.875 3.14063,-0.875 2.03125,0 3,0.65625 0.98437,0.65625 1.35937,1.95312 l -2.45312,0.45313 q -0.15625,-0.57813 -0.60938,-0.875 -0.4375,-0.3125 -1.25,-0.3125 -1.03125,0 -1.46875,0.29687 -0.29687,0.20313 -0.29687,0.51563 0,0.28125 0.25,0.48437 0.35937,0.25 2.4375,0.73438 2.07812,0.46875 2.90625,1.15625 0.82812,0.6875 0.82812,1.9375 0,1.35937 -1.14062,2.32812 -1.125,0.96875 -3.34375,0.96875 -2.01563,0 -3.1875,-0.8125 -1.17188,-0.8125 -1.53125,-2.21875 z"
       id="path15" />
    <path
       inkscape:connector-curvature="0"
       style="fill:#000000;fill-rule:nonzero"
       d="m 386.01313,383.80288 v -8.59375 h 2.78125 q 1.57812,0 2.0625,0.125 0.73437,0.20312 1.23437,0.85937 0.5,0.64063 0.5,1.65625 0,0.79688 -0.29687,1.34375 -0.28125,0.53125 -0.71875,0.84375 -0.4375,0.29688 -0.90625,0.40625 -0.60938,0.125 -1.79688,0.125 h -1.125 v 3.23438 z m 1.73437,-7.14063 v 2.4375 h 0.95313 q 1.01562,0 1.35937,-0.125 0.35938,-0.14062 0.54688,-0.42187 0.20312,-0.29688 0.20312,-0.67188 0,-0.46875 -0.28125,-0.76562 -0.28125,-0.3125 -0.70312,-0.39063 -0.29688,-0.0625 -1.23438,-0.0625 z m 6.6081,7.14063 v -8.51563 h 1.73437 v 7.0625 h 4.3125 v 1.45313 z m 7.55032,0 v -8.59375 h 2.78125 q 1.57813,0 2.0625,0.125 0.73438,0.20312 1.23438,0.85937 0.5,0.64063 0.5,1.65625 0,0.79688 -0.29688,1.34375 -0.28125,0.53125 -0.71875,0.84375 -0.4375,0.29688 -0.90625,0.40625 -0.60937,0.125 -1.79687,0.125 h -1.125 v 3.23438 z m 1.73438,-7.14063 v 2.4375 h 0.95312 q 1.01563,0 1.35938,-0.125 0.35937,-0.14062 0.54687,-0.42187 0.20313,-0.29688 0.20313,-0.67188 0,-0.46875 -0.28125,-0.76562 -0.28125,-0.3125 -0.70313,-0.39063 -0.29687,-0.0625 -1.23437,-0.0625 z"
       id="path17" />
    <path
       inkscape:connector-curvature="0"
       style="fill:#000000;fill-opacity:0;fill-rule:evenodd"
       d="m 85.541031,133.45021 h 84.330699 v 65.00297 H 85.541031 Z"
       id="path19" />
    <path
       inkscape:connector-curvature="0"
       style="fill:#000000;fill-rule:nonzero"
       d="m 103.04103,172.59146 2.23437,0.71875 q -0.51562,1.875 -1.71875,2.79687 -1.1875,0.90625 -3.03125,0.90625 -2.281239,0 -3.749989,-1.5625 -1.46875,-1.5625 -1.46875,-4.26562 0,-2.85938 1.46875,-4.4375 1.48437,-1.59375 3.890619,-1.59375 2.09375,0 3.40625,1.25 0.78125,0.73437 1.17187,2.10937 l -2.28125,0.54688 q -0.20312,-0.89063 -0.85937,-1.40625 -0.64063,-0.51563 -1.5625,-0.51563 -1.265629,0 -2.062499,0.92188 -0.79687,0.90625 -0.79687,2.95312 0,2.17188 0.78124,3.09375 0.78125,0.92188 2.031249,0.92188 0.92188,0 1.57813,-0.57813 0.67187,-0.59375 0.96875,-1.85937 z m 5.85156,-1.54688 -2,-0.35937 q 0.34375,-1.20313 1.15625,-1.78125 0.82813,-0.57813 2.4375,-0.57813 1.46875,0 2.1875,0.34375 0.71875,0.34375 1.01563,0.89063 0.29687,0.53125 0.29687,1.95312 l -0.0312,2.5625 q 0,1.09375 0.10938,1.625 0.10937,0.51563 0.39062,1.10938 h -2.17187 q -0.0781,-0.21875 -0.20313,-0.65625 -0.0625,-0.1875 -0.0781,-0.25 -0.5625,0.54687 -1.20312,0.82812 -0.64063,0.26563 -1.375,0.26563 -1.28125,0 -2.01563,-0.6875 -0.73437,-0.70313 -0.73437,-1.76563 0,-0.70312 0.32812,-1.25 0.34375,-0.5625 0.9375,-0.84375 0.60938,-0.29687 1.75,-0.51562 1.54688,-0.29688 2.14063,-0.54688 v -0.21875 q 0,-0.625 -0.3125,-0.89062 -0.3125,-0.28125 -1.1875,-0.28125 -0.57813,0 -0.90625,0.23437 -0.32813,0.23438 -0.53125,0.8125 z m 2.9375,1.78125 q -0.42187,0.14063 -1.34375,0.34375 -0.90625,0.1875 -1.1875,0.375 -0.4375,0.29688 -0.4375,0.76563 0,0.46875 0.34375,0.8125 0.34375,0.32812 0.875,0.32812 0.59375,0 1.14063,-0.39062 0.39062,-0.29688 0.51562,-0.73438 0.0937,-0.28125 0.0937,-1.0625 z m 9.77344,3.98438 v -1.25 q -0.45313,0.67187 -1.1875,1.0625 -0.73438,0.375 -1.5625,0.375 -0.82813,0 -1.5,-0.35938 -0.65625,-0.375 -0.95313,-1.03125 -0.29687,-0.67187 -0.29687,-1.84375 v -5.25 h 2.1875 v 3.8125 q 0,1.75 0.125,2.14063 0.125,0.39062 0.4375,0.625 0.32812,0.23437 0.8125,0.23437 0.5625,0 1,-0.3125 0.45312,-0.3125 0.60937,-0.76562 0.17188,-0.45313 0.17188,-2.23438 v -3.5 h 2.20312 v 8.29688 z m 3.53906,-2.375 2.20313,-0.32813 q 0.14062,0.64063 0.5625,0.96875 0.4375,0.32813 1.21875,0.32813 0.84375,0 1.28125,-0.3125 0.28125,-0.21875 0.28125,-0.57813 0,-0.25 -0.15625,-0.42187 -0.15625,-0.15625 -0.73438,-0.28125 -2.65625,-0.59375 -3.35937,-1.07813 -0.98438,-0.67187 -0.98438,-1.85937 0,-1.07813 0.84375,-1.8125 0.85938,-0.73438 2.64063,-0.73438 1.70312,0 2.53125,0.5625 0.82812,0.54688 1.14062,1.625 l -2.0625,0.39063 q -0.14062,-0.48438 -0.51562,-0.73438 -0.35938,-0.26562 -1.04688,-0.26562 -0.875,0 -1.25,0.23437 -0.25,0.17188 -0.25,0.45313 0,0.23437 0.21875,0.39062 0.29688,0.21875 2.04688,0.625 1.76562,0.39063 2.45312,0.96875 0.6875,0.59375 0.6875,1.64063 0,1.14062 -0.95312,1.96875 -0.95313,0.8125 -2.8125,0.8125 -1.70313,0 -2.6875,-0.6875 -0.98438,-0.6875 -1.29688,-1.875 z m 14.47656,-0.26563 2.1875,0.35938 q -0.42187,1.20312 -1.32812,1.84375 -0.90625,0.625 -2.28125,0.625 -2.15625,0 -3.20313,-1.42188 -0.8125,-1.125 -0.8125,-2.85937 0,-2.0625 1.07813,-3.21875 1.07812,-1.17188 2.71875,-1.17188 1.85937,0 2.92187,1.21875 1.07813,1.21875 1.03125,3.75 h -5.5 q 0.0156,0.96875 0.51563,1.51563 0.51562,0.54687 1.28125,0.54687 0.51562,0 0.85937,-0.28125 0.35938,-0.28125 0.53125,-0.90625 z m 0.125,-2.21875 q -0.0156,-0.95312 -0.48437,-1.45312 -0.46875,-0.5 -1.14063,-0.5 -0.71875,0 -1.1875,0.53125 -0.46875,0.51562 -0.46875,1.42187 z m 3.19532,2.48438 2.20312,-0.32813 q 0.14063,0.64063 0.5625,0.96875 0.4375,0.32813 1.21875,0.32813 0.84375,0 1.28125,-0.3125 0.28125,-0.21875 0.28125,-0.57813 0,-0.25 -0.15625,-0.42187 -0.15625,-0.15625 -0.73437,-0.28125 -2.65625,-0.59375 -3.35938,-1.07813 -0.98437,-0.67187 -0.98437,-1.85937 0,-1.07813 0.84375,-1.8125 0.85937,-0.73438 2.64062,-0.73438 1.70313,0 2.53125,0.5625 0.82813,0.54688 1.14063,1.625 l -2.0625,0.39063 q -0.14063,-0.48438 -0.51563,-0.73438 -0.35937,-0.26562 -1.04687,-0.26562 -0.875,0 -1.25,0.23437 -0.25,0.17188 -0.25,0.45313 0,0.23437 0.21875,0.39062 0.29687,0.21875 2.04687,0.625 1.76563,0.39063 2.45313,0.96875 0.6875,0.59375 0.6875,1.64063 0,1.14062 -0.95313,1.96875 -0.95312,0.8125 -2.8125,0.8125 -1.70312,0 -2.6875,-0.6875 -0.98437,-0.6875 -1.29687,-1.875 z"
       id="path21" />
    <path
       inkscape:connector-curvature="0"
       style="fill:#000000;fill-opacity:0;fill-rule:evenodd"
       d="m 198.82796,213.95431 c -11.15129,0 -20.19118,-1.50659 -20.19118,-3.36507 v -41.27249 c 0,-1.85847 -9.0399,-3.36505 -20.19118,-3.36505 v 0 c 11.15128,0 20.19118,-1.50659 20.19118,-3.36506 v -41.27249 0 c 0,-1.85848 9.03989,-3.36507 20.19118,-3.36507 z"
       id="path23" />
    <path
       inkscape:connector-curvature="0"
       style="fill:#000000;fill-opacity:0;fill-rule:evenodd"
       d="m 198.82796,213.95431 c -11.15129,0 -20.19118,-1.50659 -20.19118,-3.36507 v -41.27249 c 0,-1.85847 -9.0399,-3.36505 -20.19118,-3.36505 v 0 c 11.15128,0 20.19118,-1.50659 20.19118,-3.36506 v -41.27249 0 c 0,-1.85848 9.03989,-3.36507 20.19118,-3.36507"
       id="path25" />
    <path
       inkscape:connector-curvature="0"
       style="fill-rule:evenodd;stroke:#000000;stroke-width:2;stroke-linecap:butt;stroke-linejoin:round"
       d="m 198.82796,213.95431 c -11.15129,0 -20.19118,-1.50659 -20.19118,-3.36507 v -41.27249 c 0,-1.85847 -9.0399,-3.36505 -20.19118,-3.36505 v 0 c 11.15128,0 20.19118,-1.50659 20.19118,-3.36506 v -41.27249 0 c 0,-1.85848 9.03989,-3.36507 20.19118,-3.36507"
       id="path27" />
    <path
       inkscape:connector-curvature="0"
       style="fill:#000000;fill-opacity:0;fill-rule:evenodd"
       d="m 315.33338,459.5784 1.00787,105.16538"
       id="path29" />
    <path
       inkscape:connector-curvature="0"
       style="fill-rule:evenodd;stroke:#000000;stroke-width:2;stroke-linecap:butt;stroke-linejoin:round"
       d="m 315.33338,459.5784 0.89288,93.16592"
       id="path31" />
    <path
       inkscape:connector-curvature="0"
       style="fill:#000000;fill-rule:evenodd;stroke:#000000;stroke-width:2;stroke-linecap:butt"
       d="m 312.92295,552.77602 3.39029,9.04407 3.21634,-9.10742 z"
       id="path33" />
    <path
       inkscape:connector-curvature="0"
       style="fill:#000000;fill-opacity:0;fill-rule:evenodd"
       d="M 65.950221,483.1506 H 179.11327 v 67.21256 H 65.950221 Z"
       id="path35" />
    <path
       inkscape:connector-curvature="0"
       style="fill:#000000;fill-rule:nonzero"
       d="m 75.528351,503.77622 2.25,-0.21875 q 0.20312,1.14062 0.82812,1.67187 0.625,0.53125 1.67188,0.53125 1.125,0 1.6875,-0.46875 0.5625,-0.48437 0.5625,-1.10937 0,-0.40625 -0.23438,-0.6875 -0.23437,-0.29688 -0.82812,-0.5 -0.40625,-0.14063 -1.85938,-0.5 -1.85937,-0.46875 -2.60937,-1.14063 -1.04688,-0.9375 -1.04688,-2.29687 0,-0.875 0.48438,-1.64063 0.5,-0.76562 1.4375,-1.15625 0.9375,-0.40625 2.25,-0.40625 2.15625,0 3.25,0.95313 1.09375,0.9375 1.14062,2.51562 l -2.3125,0.10938 q -0.14062,-0.89063 -0.64062,-1.26563 -0.48438,-0.39062 -1.45313,-0.39062 -1.01562,0 -1.57812,0.40625 -0.375,0.26562 -0.375,0.71875 0,0.40625 0.34375,0.6875 0.4375,0.375 2.125,0.78125 1.6875,0.39062 2.5,0.8125 0.8125,0.42187 1.26562,1.17187 0.45313,0.73438 0.45313,1.8125 0,0.98438 -0.54688,1.84375 -0.54687,0.85938 -1.54687,1.28125 -1,0.42188 -2.48438,0.42188 -2.17187,0 -3.34375,-1 -1.15625,-1.01563 -1.39062,-2.9375 z m 11.25,-5.6875 v -2.03125 h 2.1875 v 2.03125 z m 0,9.42187 v -8.29687 h 2.1875 v 8.29687 z m 11.99218,0 h -2.20312 v -4.23437 q 0,-1.34375 -0.14063,-1.73438 -0.14062,-0.40625 -0.45312,-0.625 -0.3125,-0.21875 -0.76563,-0.21875 -0.5625,0 -1.01562,0.3125 -0.45313,0.3125 -0.625,0.82813 -0.17188,0.51562 -0.17188,1.90625 v 3.76562 h -2.1875 v -8.29687 h 2.03125 v 1.21875 q 1.09375,-1.40625 2.73438,-1.40625 0.73437,0 1.32812,0.26562 0.60938,0.25 0.90625,0.65625 0.3125,0.40625 0.4375,0.92188 0.125,0.51562 0.125,1.48437 z m 2.023439,0.54688 2.5,0.3125 q 0.0625,0.4375 0.29688,0.59375 0.3125,0.23437 0.98437,0.23437 0.85938,0 1.28125,-0.25 0.29688,-0.17187 0.4375,-0.5625 0.10938,-0.26562 0.10938,-1.01562 v -1.20313 q -0.98438,1.34375 -2.48438,1.34375 -1.67187,0 -2.65625,-1.42187 -0.76562,-1.10938 -0.76562,-2.78125 0,-2.07813 1,-3.17188 1.01562,-1.10937 2.5,-1.10937 1.54687,0 2.54687,1.34375 v -1.15625 h 2.04688 v 7.4375 q 0,1.48437 -0.25,2.20312 -0.23438,0.73438 -0.67188,1.14063 -0.4375,0.42187 -1.17187,0.65625 -0.71875,0.23437 -1.84375,0.23437 -2.10938,0 -3,-0.73437 -0.875,-0.71875 -0.875,-1.82813 0,-0.10937 0.0156,-0.26562 z m 1.95313,-4.875 q 0,1.32812 0.51562,1.9375 0.51563,0.60937 1.26563,0.60937 0.79687,0 1.34375,-0.625 0.5625,-0.625 0.5625,-1.85937 0,-1.29688 -0.53125,-1.92188 -0.53125,-0.625 -1.34375,-0.625 -0.78125,0 -1.29688,0.625 -0.51562,0.60938 -0.51562,1.85938 z m 8.02343,4.32812 v -11.45312 h 2.1875 v 11.45312 z m 9.24219,-2.64062 2.1875,0.35937 q -0.42187,1.20313 -1.32812,1.84375 -0.90625,0.625 -2.28125,0.625 -2.15625,0 -3.20313,-1.42187 -0.8125,-1.125 -0.8125,-2.85938 0,-2.0625 1.07813,-3.21875 1.07812,-1.17187 2.71875,-1.17187 1.85937,0 2.92187,1.21875 1.07813,1.21875 1.03125,3.75 h -5.5 q 0.0156,0.96875 0.51563,1.51562 0.51562,0.54688 1.28125,0.54688 0.51562,0 0.85937,-0.28125 0.35938,-0.28125 0.53125,-0.90625 z m 0.125,-2.21875 q -0.0156,-0.95313 -0.48437,-1.45313 -0.46875,-0.5 -1.14063,-0.5 -0.71875,0 -1.1875,0.53125 -0.46875,0.51563 -0.46875,1.42188 z m 8.35938,-3.4375 h 2.04687 v 1.21875 q 0.39063,-0.625 1.0625,-1.01563 0.6875,-0.39062 1.51563,-0.39062 1.45312,0 2.45312,1.14062 1.01563,1.125 1.01563,3.14063 0,2.07812 -1.01563,3.23437 -1.01562,1.15625 -2.46875,1.15625 -0.6875,0 -1.25,-0.26562 -0.54687,-0.28125 -1.17187,-0.95313 v 4.1875 h -2.1875 z m 2.17187,4 q 0,1.40625 0.54688,2.07812 0.5625,0.65625 1.35937,0.65625 0.76563,0 1.26563,-0.60937 0.51562,-0.60938 0.51562,-2.01563 0,-1.29687 -0.53125,-1.92187 -0.51562,-0.64063 -1.29687,-0.64063 -0.79688,0 -1.32813,0.625 -0.53125,0.60938 -0.53125,1.82813 z m 9.30469,-1.46875 -2,-0.35938 q 0.34375,-1.20312 1.15625,-1.78125 0.82813,-0.57812 2.4375,-0.57812 1.46875,0 2.1875,0.34375 0.71875,0.34375 1.01563,0.89062 0.29687,0.53125 0.29687,1.95313 l -0.0312,2.5625 q 0,1.09375 0.10938,1.625 0.10937,0.51562 0.39062,1.10937 h -2.17187 q -0.0781,-0.21875 -0.20313,-0.65625 -0.0625,-0.1875 -0.0781,-0.25 -0.5625,0.54688 -1.20313,0.82813 -0.64062,0.26562 -1.375,0.26562 -1.28125,0 -2.01562,-0.6875 -0.73438,-0.70312 -0.73438,-1.76562 0,-0.70313 0.32813,-1.25 0.34375,-0.5625 0.9375,-0.84375 0.60937,-0.29688 1.75,-0.51563 1.54687,-0.29687 2.14062,-0.54687 v -0.21875 q 0,-0.625 -0.3125,-0.89063 -0.3125,-0.28125 -1.1875,-0.28125 -0.57812,0 -0.90625,0.23438 -0.32812,0.23437 -0.53125,0.8125 z m 2.9375,1.78125 q -0.42187,0.14062 -1.34375,0.34375 -0.90625,0.1875 -1.1875,0.375 -0.4375,0.29687 -0.4375,0.76562 0,0.46875 0.34375,0.8125 0.34375,0.32813 0.875,0.32813 0.59375,0 1.14063,-0.39063 0.39062,-0.29687 0.51562,-0.73437 0.0937,-0.28125 0.0937,-1.0625 z m 8.11719,-4.3125 v 1.75 h -1.5 v 3.34375 q 0,1.01562 0.0469,1.1875 0.0469,0.15625 0.1875,0.26562 0.15625,0.10938 0.375,0.10938 0.3125,0 0.89063,-0.20313 l 0.1875,1.70313 q -0.76563,0.32812 -1.73438,0.32812 -0.59375,0 -1.07812,-0.20312 -0.46875,-0.20313 -0.70313,-0.51563 -0.21875,-0.3125 -0.29687,-0.85937 -0.0781,-0.375 -0.0781,-1.54688 v -3.60937 h -1 v -1.75 h 1 v -1.65625 l 2.20313,-1.28125 v 2.9375 z m 3.71875,-3.15625 v 4.20312 q 1.0625,-1.23437 2.53125,-1.23437 0.76562,0 1.375,0.28125 0.60937,0.28125 0.90625,0.71875 0.3125,0.4375 0.42187,0.96875 0.125,0.53125 0.125,1.64062 v 4.875 h -2.20312 v -4.39062 q 0,-1.29688 -0.125,-1.64063 -0.125,-0.35937 -0.4375,-0.5625 -0.3125,-0.21875 -0.79688,-0.21875 -0.54687,0 -0.98437,0.26563 -0.42188,0.26562 -0.625,0.8125 -0.1875,0.53125 -0.1875,1.57812 v 4.15625 h -2.20313 v -11.45312 z"
       id="path37" />
    <path
       inkscape:connector-curvature="0"
       style="fill:#000000;fill-opacity:0;fill-rule:evenodd"
       d="m 206.10611,562.27917 c -9.70599,0 -17.57425,-1.31128 -17.57425,-2.92889 v -49.10279 c 0,-1.61761 -7.86826,-2.92892 -17.57425,-2.92892 v 0 c 9.70599,0 17.57425,-1.31134 17.57425,-2.92893 v -49.10278 0 c 0,-1.61761 7.86826,-2.92892 17.57425,-2.92892 z"
       id="path39" />
    <path
       inkscape:connector-curvature="0"
       style="fill:#000000;fill-opacity:0;fill-rule:evenodd"
       d="m 206.10611,562.27917 c -9.70599,0 -17.57425,-1.31128 -17.57425,-2.92889 v -49.10279 c 0,-1.61761 -7.86826,-2.92892 -17.57425,-2.92892 v 0 c 9.70599,0 17.57425,-1.31134 17.57425,-2.92893 v -49.10278 0 c 0,-1.61761 7.86826,-2.92892 17.57425,-2.92892"
       id="path41" />
    <path
       inkscape:connector-curvature="0"
       style="fill-rule:evenodd;stroke:#000000;stroke-width:2;stroke-linecap:butt;stroke-linejoin:round"
       d="m 206.10611,562.27917 c -9.70599,0 -17.57425,-1.31128 -17.57425,-2.92889 v -49.10279 c 0,-1.61761 -7.86826,-2.92892 -17.57425,-2.92892 v 0 c 9.70599,0 17.57425,-1.31134 17.57425,-2.92893 v -49.10278 0 c 0,-1.61761 7.86826,-2.92892 17.57425,-2.92892"
       id="path43" />
    <path
       inkscape:connector-curvature="0"
       style="fill:#38ae17;fill-rule:evenodd"
       d="m 394.08927,262.38156 v 23.5433 0 c 0,13.00263 -35.26019,23.54331 -78.75589,23.54331 -43.49568,0 -78.75591,-10.54068 -78.75591,-23.54331 v -23.5433 z"
       id="path45" />
    <path
       inkscape:connector-curvature="0"
       style="fill-rule:evenodd;stroke:#000000;stroke-width:2;stroke-linecap:butt;stroke-linejoin:round"
       d="m 394.08927,262.38156 v 23.5433 0 c 0,13.00263 -35.26019,23.54331 -78.75589,23.54331 -43.49568,0 -78.75591,-10.54068 -78.75591,-23.54331 v -23.5433 z"
       id="path47" />
    <path
       inkscape:connector-curvature="0"
       style="fill:#000000;fill-opacity:0;fill-rule:evenodd"
       d="m 261.27039,240.71226 h 124.22046 v 74.42522 H 261.27039 Z"
       id="path49" />
    <path
       inkscape:connector-curvature="0"
       style="fill:#000000;fill-rule:nonzero"
       d="m 273.06727,284.07226 -2.73438,-11.45313 h 2.35938 l 1.73437,7.85938 2.09375,-7.85938 h 2.75 l 2,8 1.76563,-8 h 2.32812 l -2.78125,11.45313 h -2.45312 l -2.28125,-8.5625 -2.28125,8.5625 z m 15.10156,-5.76563 -2,-0.35937 q 0.34375,-1.20313 1.15625,-1.78125 0.82813,-0.57813 2.4375,-0.57813 1.46875,0 2.1875,0.34375 0.71875,0.34375 1.01563,0.89063 0.29687,0.53125 0.29687,1.95312 l -0.0312,2.5625 q 0,1.09375 0.10938,1.625 0.10937,0.51563 0.39062,1.10938 h -2.17187 q -0.0781,-0.21875 -0.20313,-0.65625 -0.0625,-0.1875 -0.0781,-0.25 -0.5625,0.54687 -1.20313,0.82812 -0.64062,0.26563 -1.375,0.26563 -1.28125,0 -2.01562,-0.6875 -0.73438,-0.70313 -0.73438,-1.76563 0,-0.70312 0.32813,-1.25 0.34375,-0.5625 0.9375,-0.84375 0.60937,-0.29687 1.75,-0.51562 1.54687,-0.29688 2.14062,-0.54688 v -0.21875 q 0,-0.625 -0.3125,-0.89062 -0.3125,-0.28125 -1.1875,-0.28125 -0.57812,0 -0.90625,0.23437 -0.32812,0.23438 -0.53125,0.8125 z m 2.9375,1.78125 q -0.42187,0.14063 -1.34375,0.34375 -0.90625,0.1875 -1.1875,0.375 -0.4375,0.29688 -0.4375,0.76563 0,0.46875 0.34375,0.8125 0.34375,0.32812 0.875,0.32812 0.59375,0 1.14063,-0.39062 0.39062,-0.29688 0.51562,-0.73438 0.0937,-0.28125 0.0937,-1.0625 z m 4.32031,-5.4375 v -2.03125 h 2.1875 v 2.03125 z m 0,9.42188 v -8.29688 h 2.1875 v 8.29688 z m 8.24219,-8.29688 v 1.75 h -1.5 v 3.34375 q 0,1.01563 0.0469,1.1875 0.0469,0.15625 0.1875,0.26563 0.15625,0.10937 0.375,0.10937 0.3125,0 0.89062,-0.20312 l 0.1875,1.70312 q -0.76562,0.32813 -1.73437,0.32813 -0.59375,0 -1.07813,-0.20313 -0.46875,-0.20312 -0.70312,-0.51562 -0.21875,-0.3125 -0.29688,-0.85938 -0.0781,-0.375 -0.0781,-1.54687 v -3.60938 h -1 v -1.75 h 1 v -1.65625 l 2.20312,-1.28125 v 2.9375 z m 5.00781,0 h 1.21875 v -0.625 q 0,-1.04687 0.21875,-1.5625 0.23438,-0.51562 0.82813,-0.84375 0.59375,-0.32812 1.51562,-0.32812 0.9375,0 1.82813,0.28125 l -0.29688,1.53125 q -0.51562,-0.125 -1,-0.125 -0.48437,0 -0.6875,0.23437 -0.20312,0.21875 -0.20312,0.84375 v 0.59375 h 1.64062 v 1.71875 h -1.64062 v 6.57813 h -2.20313 v -6.57813 h -1.21875 z m 5.78125,4.03125 q 0,-1.09375 0.53125,-2.10937 0.54688,-1.03125 1.53125,-1.5625 1,-0.54688 2.21875,-0.54688 1.875,0 3.07813,1.21875 1.20312,1.21875 1.20312,3.09375 0,1.875 -1.21875,3.125 -1.20312,1.23438 -3.04687,1.23438 -1.14063,0 -2.1875,-0.51563 -1.03125,-0.51562 -1.57813,-1.51562 -0.53125,-1 -0.53125,-2.42188 z m 2.25,0.10938 q 0,1.23437 0.57813,1.89062 0.59375,0.65625 1.45312,0.65625 0.85938,0 1.4375,-0.65625 0.59375,-0.65625 0.59375,-1.90625 0,-1.21875 -0.59375,-1.875 -0.57812,-0.65625 -1.4375,-0.65625 -0.85937,0 -1.45312,0.65625 -0.57813,0.65625 -0.57813,1.89063 z m 10.13282,4.15625 h -2.1875 v -8.29688 h 2.03125 v 1.17188 q 0.53125,-0.82813 0.9375,-1.09375 0.42187,-0.26563 0.95312,-0.26563 0.75,0 1.45313,0.40625 l -0.6875,1.92188 q -0.54688,-0.35938 -1.03125,-0.35938 -0.45313,0 -0.78125,0.25 -0.3125,0.25 -0.5,0.92188 -0.1875,0.65625 -0.1875,2.78125 z m 18.92187,0 h -2.51562 l -1,-2.60938 h -4.57813 l -0.95312,2.60938 h -2.45313 l 4.46875,-11.45313 h 2.4375 z m -4.26562,-4.53125 -1.57813,-4.25 -1.54687,4.25 z m 5.55468,4.53125 v -11.35938 h 2.3125 v 9.42188 h 5.75 v 1.9375 z m 9.77344,0 v -11.35938 h 2.3125 v 9.42188 h 5.75 v 1.9375 z"
       id="path51" />
    <path
       inkscape:connector-curvature="0"
       style="fill:#000000;fill-rule:nonzero"
       d="m 334.26258,285.33227 h 31.10156 v 1 h -31.10156 z"
       id="path53" />
    <path
       inkscape:connector-curvature="0"
       style="fill:#000000;fill-opacity:0;fill-rule:evenodd"
       d="M 351.95279,117.15059 V 260.70963"
       id="path55" />
    <path
       inkscape:connector-curvature="0"
       style="fill-rule:evenodd;stroke:#000000;stroke-width:2;stroke-linecap:butt;stroke-linejoin:round"
       d="M 351.95279,117.15059 V 248.70963"
       id="path57" />
    <path
       inkscape:connector-curvature="0"
       style="fill:#000000;fill-rule:evenodd;stroke:#000000;stroke-width:2;stroke-linecap:butt"
       d="m 348.64933,248.70964 3.30347,9.0762 3.30346,-9.0762 z"
       id="path59" />
    <path
       inkscape:connector-curvature="0"
       style="fill:#000000;fill-opacity:0;fill-rule:evenodd"
       d="m 231.28351,531.48392 h 76.40945 v 41.25983 h -76.40945 z"
       id="path61" />
    <path
       inkscape:connector-curvature="0"
       style="fill:#000000;fill-rule:nonzero"
       d="m 241.43976,544.39082 h 2.3125 v 6.20312 q 0,1.46875 0.0781,1.90625 0.15625,0.70313 0.70313,1.14063 0.5625,0.42187 1.53125,0.42187 0.98437,0 1.48437,-0.40625 0.5,-0.40625 0.59375,-0.98437 0.10938,-0.59375 0.10938,-1.95313 v -6.32812 h 2.3125 v 6.01562 q 0,2.0625 -0.1875,2.92188 -0.1875,0.84375 -0.6875,1.4375 -0.5,0.57812 -1.34375,0.9375 -0.84375,0.34375 -2.20313,0.34375 -1.64062,0 -2.5,-0.375 -0.84375,-0.39063 -1.34375,-1 -0.48437,-0.60938 -0.64062,-1.26563 -0.21875,-0.98437 -0.21875,-2.90625 z m 11.49219,3.15625 h 2.04687 v 1.21875 q 0.39063,-0.625 1.0625,-1.01563 0.6875,-0.39062 1.51563,-0.39062 1.45312,0 2.45312,1.14062 1.01563,1.125 1.01563,3.14063 0,2.07812 -1.01563,3.23437 -1.01562,1.15625 -2.46875,1.15625 -0.6875,0 -1.25,-0.26562 -0.54687,-0.28125 -1.17187,-0.95313 v 4.1875 h -2.1875 z m 2.17187,4 q 0,1.40625 0.54688,2.07812 0.5625,0.65625 1.35937,0.65625 0.76563,0 1.26563,-0.60937 0.51562,-0.60938 0.51562,-2.01563 0,-1.29687 -0.53125,-1.92187 -0.51562,-0.64063 -1.29687,-0.64063 -0.79688,0 -1.32813,0.625 -0.53125,0.60938 -0.53125,1.82813 z m 15.27344,4.29687 h -2.04688 v -1.21875 q -0.5,0.70313 -1.20312,1.0625 -0.6875,0.34375 -1.39063,0.34375 -1.42187,0 -2.45312,-1.15625 -1.01563,-1.15625 -1.01563,-3.21875 0,-2.10937 0.98438,-3.20312 1,-1.09375 2.51562,-1.09375 1.39063,0 2.40625,1.15625 v -4.125 h 2.20313 z m -5.85938,-4.32812 q 0,1.32812 0.35938,1.92187 0.53125,0.85938 1.48437,0.85938 0.76563,0 1.29688,-0.64063 0.53125,-0.65625 0.53125,-1.9375 0,-1.42187 -0.51563,-2.04687 -0.51562,-0.64063 -1.32812,-0.64063 -0.78125,0 -1.3125,0.625 -0.51563,0.625 -0.51563,1.85938 z m 9.66407,-1.4375 -2,-0.35938 q 0.34375,-1.20312 1.15625,-1.78125 0.82812,-0.57812 2.4375,-0.57812 1.46875,0 2.1875,0.34375 0.71875,0.34375 1.01562,0.89062 0.29688,0.53125 0.29688,1.95313 l -0.0312,2.5625 q 0,1.09375 0.10937,1.625 0.10938,0.51562 0.39063,1.10937 h -2.17188 q -0.0781,-0.21875 -0.20312,-0.65625 -0.0625,-0.1875 -0.0781,-0.25 -0.5625,0.54688 -1.20312,0.82813 -0.64063,0.26562 -1.375,0.26562 -1.28125,0 -2.01563,-0.6875 -0.73437,-0.70312 -0.73437,-1.76562 0,-0.70313 0.32812,-1.25 0.34375,-0.5625 0.9375,-0.84375 0.60938,-0.29688 1.75,-0.51563 1.54688,-0.29687 2.14063,-0.54687 v -0.21875 q 0,-0.625 -0.3125,-0.89063 -0.3125,-0.28125 -1.1875,-0.28125 -0.57813,0 -0.90625,0.23438 -0.32813,0.23437 -0.53125,0.8125 z m 2.9375,1.78125 q -0.42188,0.14062 -1.34375,0.34375 -0.90625,0.1875 -1.1875,0.375 -0.4375,0.29687 -0.4375,0.76562 0,0.46875 0.34375,0.8125 0.34375,0.32813 0.875,0.32813 0.59375,0 1.14062,-0.39063 0.39063,-0.29687 0.51563,-0.73437 0.0937,-0.28125 0.0937,-1.0625 z m 8.11718,-4.3125 v 1.75 h -1.5 v 3.34375 q 0,1.01562 0.0469,1.1875 0.0469,0.15625 0.1875,0.26562 0.15625,0.10938 0.375,0.10938 0.3125,0 0.89062,-0.20313 l 0.1875,1.70313 q -0.76562,0.32812 -1.73437,0.32812 -0.59375,0 -1.07813,-0.20312 -0.46875,-0.20313 -0.70312,-0.51563 -0.21875,-0.3125 -0.29688,-0.85937 -0.0781,-0.375 -0.0781,-1.54688 v -3.60937 h -1 v -1.75 h 1 v -1.65625 l 2.20312,-1.28125 v 2.9375 z m 6.32813,5.65625 2.1875,0.35937 q -0.42188,1.20313 -1.32813,1.84375 -0.90625,0.625 -2.28125,0.625 -2.15625,0 -3.20312,-1.42187 -0.8125,-1.125 -0.8125,-2.85938 0,-2.0625 1.07812,-3.21875 1.07813,-1.17187 2.71875,-1.17187 1.85938,0 2.92188,1.21875 1.07812,1.21875 1.03125,3.75 h -5.5 q 0.0156,0.96875 0.51562,1.51562 0.51563,0.54688 1.28125,0.54688 0.51563,0 0.85938,-0.28125 0.35937,-0.28125 0.53125,-0.90625 z m 0.125,-2.21875 q -0.0156,-0.95313 -0.48438,-1.45313 -0.46875,-0.5 -1.14062,-0.5 -0.71875,0 -1.1875,0.53125 -0.46875,0.51563 -0.46875,1.42188 z"
       id="path63" />
    <path
       inkscape:connector-curvature="0"
       style="fill:#000000;fill-opacity:0;fill-rule:evenodd"
       d="m 528.74051,133.45021 h 84.33072 v 65.00297 h -84.33072 z"
       id="path65" />
    <path
       inkscape:connector-curvature="0"
       style="fill:#000000;fill-rule:nonzero"
       d="m 546.24051,172.59146 2.23434,0.71875 q -0.51562,1.875 -1.71875,2.79687 -1.18747,0.90625 -3.03122,0.90625 -2.28125,0 -3.75,-1.5625 -1.46875,-1.5625 -1.46875,-4.26562 0,-2.85938 1.46875,-4.4375 1.48438,-1.59375 3.89063,-1.59375 2.09375,0 3.40622,1.25 0.78125,0.73437 1.17187,2.10937 l -2.28122,0.54688 q -0.20312,-0.89063 -0.85937,-1.40625 -0.64063,-0.51563 -1.5625,-0.51563 -1.26563,0 -2.0625,0.92188 -0.79688,0.90625 -0.79688,2.95312 0,2.17188 0.78125,3.09375 0.78125,0.92188 2.03125,0.92188 0.92188,0 1.57813,-0.57813 0.67187,-0.59375 0.96875,-1.85937 z m 5.85153,-1.54688 -2,-0.35937 q 0.34375,-1.20313 1.15625,-1.78125 0.82813,-0.57813 2.4375,-0.57813 1.46875,0 2.1875,0.34375 0.71875,0.34375 1.01563,0.89063 0.29687,0.53125 0.29687,1.95312 l -0.0312,2.5625 q 0,1.09375 0.10938,1.625 0.10937,0.51563 0.39062,1.10938 h -2.17187 q -0.0781,-0.21875 -0.20313,-0.65625 -0.0625,-0.1875 -0.0781,-0.25 -0.5625,0.54687 -1.20313,0.82812 -0.64062,0.26563 -1.375,0.26563 -1.28125,0 -2.01562,-0.6875 -0.73438,-0.70313 -0.73438,-1.76563 0,-0.70312 0.32813,-1.25 0.34375,-0.5625 0.9375,-0.84375 0.60937,-0.29687 1.75,-0.51562 1.54687,-0.29688 2.14062,-0.54688 v -0.21875 q 0,-0.625 -0.3125,-0.89062 -0.3125,-0.28125 -1.1875,-0.28125 -0.57812,0 -0.90625,0.23437 -0.32812,0.23438 -0.53125,0.8125 z m 2.9375,1.78125 q -0.42187,0.14063 -1.34375,0.34375 -0.90625,0.1875 -1.1875,0.375 -0.4375,0.29688 -0.4375,0.76563 0,0.46875 0.34375,0.8125 0.34375,0.32812 0.875,0.32812 0.59375,0 1.14063,-0.39062 0.39062,-0.29688 0.51562,-0.73438 0.0937,-0.28125 0.0937,-1.0625 z m 9.77344,3.98438 v -1.25 q -0.45313,0.67187 -1.1875,1.0625 -0.73438,0.375 -1.5625,0.375 -0.82813,0 -1.5,-0.35938 -0.65625,-0.375 -0.95313,-1.03125 -0.29687,-0.67187 -0.29687,-1.84375 v -5.25 h 2.1875 v 3.8125 q 0,1.75 0.125,2.14063 0.125,0.39062 0.4375,0.625 0.32812,0.23437 0.8125,0.23437 0.5625,0 1,-0.3125 0.45312,-0.3125 0.60937,-0.76562 0.17188,-0.45313 0.17188,-2.23438 v -3.5 h 2.20312 v 8.29688 z m 3.53906,-2.375 2.20313,-0.32813 q 0.14062,0.64063 0.5625,0.96875 0.4375,0.32813 1.21875,0.32813 0.84375,0 1.28125,-0.3125 0.28125,-0.21875 0.28125,-0.57813 0,-0.25 -0.15625,-0.42187 -0.15625,-0.15625 -0.73438,-0.28125 -2.65625,-0.59375 -3.35937,-1.07813 -0.98438,-0.67187 -0.98438,-1.85937 0,-1.07813 0.84375,-1.8125 0.85938,-0.73438 2.64063,-0.73438 1.70312,0 2.53125,0.5625 0.82812,0.54688 1.14062,1.625 l -2.0625,0.39063 q -0.14062,-0.48438 -0.51562,-0.73438 -0.35938,-0.26562 -1.04688,-0.26562 -0.875,0 -1.25,0.23437 -0.25,0.17188 -0.25,0.45313 0,0.23437 0.21875,0.39062 0.29688,0.21875 2.04688,0.625 1.76562,0.39063 2.45312,0.96875 0.6875,0.59375 0.6875,1.64063 0,1.14062 -0.95312,1.96875 -0.95313,0.8125 -2.8125,0.8125 -1.70313,0 -2.6875,-0.6875 -0.98438,-0.6875 -1.29688,-1.875 z m 14.47656,-0.26563 2.1875,0.35938 q -0.42187,1.20312 -1.32812,1.84375 -0.90625,0.625 -2.28125,0.625 -2.15625,0 -3.20313,-1.42188 -0.8125,-1.125 -0.8125,-2.85937 0,-2.0625 1.07813,-3.21875 1.07812,-1.17188 2.71875,-1.17188 1.85937,0 2.92187,1.21875 1.07813,1.21875 1.03125,3.75 h -5.5 q 0.0156,0.96875 0.51563,1.51563 0.51562,0.54687 1.28125,0.54687 0.51562,0 0.85937,-0.28125 0.35938,-0.28125 0.53125,-0.90625 z m 0.125,-2.21875 q -0.0156,-0.95312 -0.48437,-1.45312 -0.46875,-0.5 -1.14063,-0.5 -0.71875,0 -1.1875,0.53125 -0.46875,0.51562 -0.46875,1.42187 z m 3.19532,2.48438 2.20312,-0.32813 q 0.14063,0.64063 0.5625,0.96875 0.4375,0.32813 1.21875,0.32813 0.84375,0 1.28125,-0.3125 0.28125,-0.21875 0.28125,-0.57813 0,-0.25 -0.15625,-0.42187 -0.15625,-0.15625 -0.73437,-0.28125 -2.65625,-0.59375 -3.35938,-1.07813 -0.98437,-0.67187 -0.98437,-1.85937 0,-1.07813 0.84375,-1.8125 0.85937,-0.73438 2.64062,-0.73438 1.70313,0 2.53125,0.5625 0.82813,0.54688 1.14063,1.625 l -2.0625,0.39063 q -0.14063,-0.48438 -0.51563,-0.73438 -0.35937,-0.26562 -1.04687,-0.26562 -0.875,0 -1.25,0.23437 -0.25,0.17188 -0.25,0.45313 0,0.23437 0.21875,0.39062 0.29687,0.21875 2.04687,0.625 1.76563,0.39063 2.45313,0.96875 0.6875,0.59375 0.6875,1.64063 0,1.14062 -0.95313,1.96875 -0.95312,0.8125 -2.8125,0.8125 -1.70312,0 -2.6875,-0.6875 -0.98437,-0.6875 -1.29687,-1.875 z"
       id="path67" />
    <path
       inkscape:connector-curvature="0"
       style="fill:#000000;fill-opacity:0;fill-rule:evenodd"
       d="m 642.02741,213.95431 c -11.15125,0 -20.19116,-1.50659 -20.19116,-3.36507 v -41.27249 c 0,-1.85847 -9.03992,-3.36505 -20.19116,-3.36505 v 0 c 11.15124,0 20.19116,-1.50659 20.19116,-3.36506 v -41.27249 0 c 0,-1.85848 9.03991,-3.36507 20.19116,-3.36507 z"
       id="path69" />
    <path
       inkscape:connector-curvature="0"
       style="fill:#000000;fill-opacity:0;fill-rule:evenodd"
       d="m 642.02741,213.95431 c -11.15125,0 -20.19116,-1.50659 -20.19116,-3.36507 v -41.27249 c 0,-1.85847 -9.03992,-3.36505 -20.19116,-3.36505 v 0 c 11.15124,0 20.19116,-1.50659 20.19116,-3.36506 v -41.27249 0 c 0,-1.85848 9.03991,-3.36507 20.19116,-3.36507"
       id="path71" />
    <path
       inkscape:connector-curvature="0"
       style="fill-rule:evenodd;stroke:#000000;stroke-width:2;stroke-linecap:butt;stroke-linejoin:round"
       d="m 642.02741,213.95431 c -11.15125,0 -20.19116,-1.50659 -20.19116,-3.36507 v -41.27249 c 0,-1.85847 -9.03992,-3.36505 -20.19116,-3.36505 v 0 c 11.15124,0 20.19116,-1.50659 20.19116,-3.36506 v -41.27249 0 c 0,-1.85848 9.03991,-3.36507 20.19116,-3.36507"
       id="path73" />
    <path
       inkscape:connector-curvature="0"
       style="fill:#000000;fill-opacity:0;fill-rule:evenodd"
       d="m 758.53285,459.5784 0.62994,100.37796"
       id="path75" />
    <path
       inkscape:connector-curvature="0"
       style="fill-rule:evenodd;stroke:#000000;stroke-width:2;stroke-linecap:butt;stroke-linejoin:round"
       d="m 758.53285,459.5784 0.55463,88.3782"
       id="path77" />
    <path
       inkscape:connector-curvature="0"
       style="fill:#000000;fill-rule:evenodd;stroke:#000000;stroke-width:2;stroke-linecap:butt"
       d="m 755.78405,547.97735 3.36035,9.05524 3.24646,-9.09674 z"
       id="path79" />
    <path
       inkscape:connector-curvature="0"
       style="fill:#000000;fill-opacity:0;fill-rule:evenodd"
       d="m 795.15229,125.15058 1.3858,135.55905"
       id="path81" />
    <path
       inkscape:connector-curvature="0"
       style="fill-rule:evenodd;stroke:#000000;stroke-width:2;stroke-linecap:butt;stroke-linejoin:round"
       d="m 795.15229,125.15058 1.26312,123.55969"
       id="path83" />
    <path
       inkscape:connector-curvature="0"
       style="fill:#000000;fill-rule:evenodd;stroke:#000000;stroke-width:2;stroke-linecap:butt"
       d="m 793.11215,248.74404 3.39606,9.04195 3.21051,-9.1095 z"
       id="path85" />
    <path
       inkscape:connector-curvature="0"
       style="fill:#ffcc00;fill-rule:evenodd"
       d="m 655.56958,361.1401 v 0 c 0,-54.36746 44.07355,-98.44096 98.44098,-98.44096 v 0 c 26.10815,0 51.14697,10.37143 69.60821,28.83269 18.46131,18.46127 28.83271,43.50009 28.83271,69.60828 v 0 c 0,54.36743 -44.07349,98.44092 -98.44092,98.44092 v 0 c -54.36743,0 -98.44098,-44.07349 -98.44098,-98.44092 z"
       id="path87" />
    <path
       inkscape:connector-curvature="0"
       style="fill-rule:evenodd;stroke:#000000;stroke-width:2;stroke-linecap:butt;stroke-linejoin:round"
       d="m 655.56958,361.1401 v 0 c 0,-54.36746 44.07355,-98.44096 98.44098,-98.44096 v 0 c 26.10815,0 51.14697,10.37143 69.60821,28.83269 18.46131,18.46127 28.83271,43.50009 28.83271,69.60828 v 0 c 0,54.36743 -44.07349,98.44092 -98.44092,98.44092 v 0 c -54.36743,0 -98.44098,-44.07349 -98.44098,-98.44092 z"
       id="path89" />
    <path
       inkscape:connector-curvature="0"
       style="fill:#000000;fill-opacity:0;fill-rule:evenodd"
       d="m 646.10505,319.88287 h 218.45667 v 63.62204 H 646.10505 Z"
       id="path91" />
    <path
       inkscape:connector-curvature="0"
       style="fill:#000000;fill-rule:nonzero"
       d="m 720.93085,346.80288 v -13.59375 h 10.09375 v 2.29687 h -7.34375 v 3.01563 h 6.82813 v 2.28125 h -6.82813 v 3.70312 h 7.60938 v 2.29688 z m 11.17792,0 3.5625,-5.07813 -3.40625,-4.78125 h 3.17187 l 1.75,2.71875 1.82813,-2.71875 h 3.0625 l -3.32813,4.67188 3.64063,5.1875 h -3.20313 l -2,-3.04688 -2.03125,3.04688 z m 17.32885,-3.14063 2.60938,0.4375 q -0.5,1.4375 -1.59375,2.1875 -1.07813,0.73438 -2.70313,0.73438 -2.5625,0 -3.79687,-1.67188 -0.96875,-1.34375 -0.96875,-3.40625 0,-2.4375 1.26562,-3.82812 1.28125,-1.39063 3.25,-1.39063 2.1875,0 3.45313,1.45313 1.28125,1.45312 1.23437,4.45312 h -6.53125 q 0.0156,1.15625 0.625,1.8125 0.60938,0.64063 1.5,0.64063 0.60938,0 1.03125,-0.32813 0.42188,-0.34375 0.625,-1.09375 z m 0.15625,-2.625 q -0.0312,-1.14062 -0.59375,-1.71875 -0.54687,-0.59375 -1.34375,-0.59375 -0.85937,0 -1.40625,0.625 -0.5625,0.60938 -0.54687,1.6875 z m 13.11011,-1.17187 -2.5625,0.46875 q -0.14062,-0.78125 -0.59375,-1.17188 -0.45312,-0.39062 -1.1875,-0.39062 -0.98437,0 -1.5625,0.67187 -0.57812,0.67188 -0.57812,2.25 0,1.76563 0.57812,2.48438 0.59375,0.71875 1.59375,0.71875 0.75,0 1.21875,-0.42188 0.46875,-0.42187 0.67188,-1.45312 l 2.54687,0.4375 q -0.39062,1.76562 -1.53125,2.67187 -1.125,0.89063 -3.03125,0.89063 -2.15625,0 -3.45312,-1.35938 -1.28125,-1.35937 -1.28125,-3.78125 0,-2.4375 1.29687,-3.79687 1.29688,-1.35938 3.48438,-1.35938 1.79687,0 2.85937,0.78125 1.0625,0.76563 1.53125,2.35938 z m 8.2663,6.9375 v -1.46875 q -0.53125,0.78125 -1.40625,1.23437 -0.875,0.45313 -1.85938,0.45313 -0.98437,0 -1.78125,-0.4375 -0.78125,-0.4375 -1.14062,-1.21875 -0.34375,-0.79688 -0.34375,-2.1875 v -6.23438 h 2.60937 v 4.53125 q 0,2.07813 0.14063,2.54688 0.14062,0.46875 0.51562,0.75 0.39063,0.26562 0.96875,0.26562 0.67188,0 1.20313,-0.35937 0.53125,-0.375 0.71875,-0.90625 0.1875,-0.54688 0.1875,-2.67188 v -4.15625 h 2.60937 v 9.85938 z m 9.42724,-9.85938 v 2.07813 h -1.78125 v 3.98437 q 0,1.20313 0.0469,1.40625 0.0625,0.1875 0.23437,0.32813 0.1875,0.125 0.45313,0.125 0.35937,0 1.04687,-0.25 l 0.21875,2.01562 q -0.90625,0.39063 -2.0625,0.39063 -0.70312,0 -1.26562,-0.23438 -0.5625,-0.23437 -0.82813,-0.60937 -0.26562,-0.375 -0.375,-1.01563 -0.0781,-0.45312 -0.0781,-1.84375 v -4.29687 h -1.20313 v -2.07813 h 1.20313 v -1.95312 l 2.60937,-1.51563 v 3.46875 z m 7.40021,6.71875 2.60938,0.4375 q -0.5,1.4375 -1.59375,2.1875 -1.07813,0.73438 -2.70313,0.73438 -2.5625,0 -3.79687,-1.67188 -0.96875,-1.34375 -0.96875,-3.40625 0,-2.4375 1.26562,-3.82812 1.28125,-1.39063 3.25,-1.39063 2.1875,0 3.45313,1.45313 1.28125,1.45312 1.23437,4.45312 h -6.53125 q 0.0156,1.15625 0.625,1.8125 0.60938,0.64063 1.5,0.64063 0.60938,0 1.03125,-0.32813 0.42188,-0.34375 0.625,-1.09375 z m 0.15625,-2.625 q -0.0312,-1.14062 -0.59375,-1.71875 -0.54687,-0.59375 -1.34375,-0.59375 -0.85937,0 -1.40625,0.625 -0.5625,0.60938 -0.54687,1.6875 z"
       id="path93" />
    <path
       inkscape:connector-curvature="0"
       style="fill:#000000;fill-rule:nonzero"
       d="m 662.02775,364.38102 2.67188,-0.26563 q 0.23437,1.34375 0.96875,1.98438 0.75,0.625 2,0.625 1.32812,0 2,-0.5625 0.67187,-0.5625 0.67187,-1.3125 0,-0.48438 -0.28125,-0.8125 -0.28125,-0.34375 -0.98437,-0.59375 -0.48438,-0.17188 -2.20313,-0.59375 -2.20312,-0.54688 -3.09375,-1.34375 -1.26562,-1.125 -1.26562,-2.73438 0,-1.04687 0.59375,-1.95312 0.59375,-0.90625 1.70312,-1.375 1.10938,-0.46875 2.67188,-0.46875 2.5625,0 3.85937,1.125 1.29688,1.10937 1.35938,2.98437 l -2.75,0.125 q -0.17188,-1.04687 -0.75,-1.5 -0.57813,-0.46875 -1.75,-0.46875 -1.1875,0 -1.875,0.5 -0.4375,0.3125 -0.4375,0.84375 0,0.48438 0.42187,0.82813 0.51563,0.42187 2.51563,0.90625 2,0.46875 2.95312,0.98437 0.96875,0.5 1.51563,1.375 0.54687,0.875 0.54687,2.15625 0,1.17188 -0.65625,2.20313 -0.64062,1.01562 -1.82812,1.51562 -1.1875,0.48438 -2.96875,0.48438 -2.57813,0 -3.96875,-1.1875 -1.375,-1.1875 -1.64063,-3.46875 z m 18.81854,1.28125 2.60938,0.4375 q -0.5,1.4375 -1.59375,2.1875 -1.07813,0.73437 -2.70313,0.73437 -2.5625,0 -3.79687,-1.67187 -0.96875,-1.34375 -0.96875,-3.40625 0,-2.4375 1.26562,-3.82813 1.28125,-1.39062 3.25,-1.39062 2.1875,0 3.45313,1.45312 1.28125,1.45313 1.23437,4.45313 h -6.53125 q 0.0156,1.15625 0.625,1.8125 0.60938,0.64062 1.5,0.64062 0.60938,0 1.03125,-0.32812 0.42188,-0.34375 0.625,-1.09375 z m 0.15625,-2.625 q -0.0312,-1.14063 -0.59375,-1.71875 -0.54687,-0.59375 -1.34375,-0.59375 -0.85937,0 -1.40625,0.625 -0.5625,0.60937 -0.54687,1.6875 z m 10.95386,9.51562 v -4.95312 q -0.5,0.65625 -1.26563,1.04687 -0.76562,0.375 -1.64062,0.375 -1.6875,0 -2.76563,-1.26562 -1.28125,-1.46875 -1.28125,-3.98438 0,-2.375 1.20313,-3.70312 1.20312,-1.34375 2.98437,-1.34375 0.98438,0 1.70313,0.42187 0.71875,0.42188 1.26562,1.26563 v -1.46875 h 2.40625 v 13.60937 z m 0.0937,-8.79687 q 0,-1.51563 -0.625,-2.25 -0.60938,-0.73438 -1.54688,-0.73438 -0.9375,0 -1.57812,0.75 -0.64063,0.75 -0.64063,2.375 0,1.625 0.60938,2.34375 0.625,0.71875 1.51562,0.71875 0.90625,0 1.57813,-0.79687 0.6875,-0.8125 0.6875,-2.40625 z m 11.34912,5.04687 v -1.46875 q -0.53125,0.78125 -1.40625,1.23438 -0.875,0.45312 -1.85938,0.45312 -0.98437,0 -1.78125,-0.4375 -0.78125,-0.4375 -1.14062,-1.21875 -0.34375,-0.79687 -0.34375,-2.1875 v -6.23437 h 2.60937 v 4.53125 q 0,2.07812 0.14063,2.54687 0.14062,0.46875 0.51562,0.75 0.39063,0.26563 0.96875,0.26563 0.67188,0 1.20313,-0.35938 0.53125,-0.375 0.71875,-0.90625 0.1875,-0.54687 0.1875,-2.67187 v -4.15625 h 2.60937 v 9.85937 z m 10.61468,-3.14062 2.60938,0.4375 q -0.5,1.4375 -1.59375,2.1875 -1.07813,0.73437 -2.70313,0.73437 -2.5625,0 -3.79687,-1.67187 -0.96875,-1.34375 -0.96875,-3.40625 0,-2.4375 1.26562,-3.82813 1.28125,-1.39062 3.25,-1.39062 2.1875,0 3.45313,1.45312 1.28125,1.45313 1.23437,4.45313 h -6.53125 q 0.0156,1.15625 0.625,1.8125 0.60938,0.64062 1.5,0.64062 0.60938,0 1.03125,-0.32812 0.42188,-0.34375 0.625,-1.09375 z m 0.15625,-2.625 q -0.0312,-1.14063 -0.59375,-1.71875 -0.54687,-0.59375 -1.34375,-0.59375 -0.85937,0 -1.40625,0.625 -0.5625,0.60937 -0.54687,1.6875 z m 13.48511,5.76562 h -2.60937 v -5.03125 q 0,-1.59375 -0.17188,-2.0625 -0.15625,-0.46875 -0.53125,-0.71875 -0.375,-0.26562 -0.90625,-0.26562 -0.6875,0 -1.23437,0.375 -0.53125,0.35937 -0.73438,0.98437 -0.1875,0.60938 -0.1875,2.25 v 4.46875 h -2.60937 v -9.85937 h 2.42187 v 1.45312 q 1.29688,-1.67187 3.25,-1.67187 0.85938,0 1.57813,0.3125 0.71875,0.3125 1.07812,0.79687 0.35938,0.48438 0.5,1.09375 0.15625,0.60938 0.15625,1.75 z m 11.021,-6.9375 -2.5625,0.46875 q -0.14063,-0.78125 -0.59375,-1.17187 -0.45313,-0.39063 -1.1875,-0.39063 -0.98438,0 -1.5625,0.67188 -0.57813,0.67187 -0.57813,2.25 0,1.76562 0.57813,2.48437 0.59375,0.71875 1.59375,0.71875 0.75,0 1.21875,-0.42187 0.46875,-0.42188 0.67187,-1.45313 l 2.54688,0.4375 q -0.39063,1.76563 -1.53125,2.67188 -1.125,0.89062 -3.03125,0.89062 -2.15625,0 -3.45313,-1.35937 -1.28125,-1.35938 -1.28125,-3.78125 0,-2.4375 1.29688,-3.79688 1.29687,-1.35937 3.48437,-1.35937 1.79688,0 2.85938,0.78125 1.0625,0.76562 1.53125,2.35937 z m 7.48511,3.79688 2.60937,0.4375 q -0.5,1.4375 -1.59375,2.1875 -1.07812,0.73437 -2.70312,0.73437 -2.5625,0 -3.79688,-1.67187 -0.96875,-1.34375 -0.96875,-3.40625 0,-2.4375 1.26563,-3.82813 1.28125,-1.39062 3.25,-1.39062 2.1875,0 3.45312,1.45312 1.28125,1.45313 1.23438,4.45313 h -6.53125 q 0.0156,1.15625 0.625,1.8125 0.60937,0.64062 1.5,0.64062 0.60937,0 1.03125,-0.32812 0.42187,-0.34375 0.625,-1.09375 z m 0.15625,-2.625 q -0.0312,-1.14063 -0.59375,-1.71875 -0.54688,-0.59375 -1.34375,-0.59375 -0.85938,0 -1.40625,0.625 -0.5625,0.60937 -0.54688,1.6875 z m 9.10589,0.70312 q 0,-1.29687 0.64063,-2.51562 0.64062,-1.21875 1.8125,-1.85938 1.17187,-0.64062 2.60937,-0.64062 2.25,0 3.67188,1.45312 1.42187,1.45313 1.42187,3.67188 0,2.23437 -1.4375,3.70312 -1.4375,1.46875 -3.625,1.46875 -1.35937,0 -2.59375,-0.60937 -1.21875,-0.60938 -1.85937,-1.79688 -0.64063,-1.1875 -0.64063,-2.875 z m 2.67188,0.14063 q 0,1.46875 0.6875,2.25 0.70312,0.76562 1.71875,0.76562 1.01562,0 1.70312,-0.76562 0.70313,-0.78125 0.70313,-2.26563 0,-1.45312 -0.70313,-2.23437 -0.6875,-0.78125 -1.70312,-0.78125 -1.01563,0 -1.71875,0.78125 -0.6875,0.78125 -0.6875,2.25 z m 8.17718,-4.9375 h 1.45313 v -0.73438 q 0,-1.25 0.26562,-1.85937 0.26563,-0.60938 0.96875,-0.98438 0.71875,-0.39062 1.79688,-0.39062 1.10937,0 2.1875,0.32812 l -0.35938,1.8125 q -0.625,-0.14062 -1.20312,-0.14062 -0.5625,0 -0.8125,0.26562 -0.23438,0.26563 -0.23438,1.01563 v 0.6875 h 1.9375 v 2.0625 h -1.9375 v 7.79687 h -2.60932 v -7.79687 h -1.45313 z m 12.55225,9.85937 v -13.59375 h 4.42187 q 2.5,0 3.26563,0.20313 1.15625,0.29687 1.9375,1.32812 0.79687,1.01563 0.79687,2.64063 0,1.25 -0.45312,2.10937 -0.45313,0.85938 -1.15625,1.34375 -0.70313,0.48438 -1.42188,0.64063 -0.98437,0.20312 -2.84375,0.20312 h -1.79687 v 5.125 z m 2.75,-11.29687 v 3.85937 h 1.5 q 1.625,0 2.17187,-0.21875 0.54688,-0.21875 0.85938,-0.67187 0.3125,-0.45313 0.3125,-1.04688 0,-0.75 -0.4375,-1.23437 -0.4375,-0.48438 -1.09375,-0.59375 -0.5,-0.0937 -1.98438,-0.0937 z m 12.7561,11.29687 v -11.29687 h -4.03125 v -2.29688 h 10.8125 v 2.29688 h -4.03125 v 11.29687 z m 20.59906,0 h -2.98437 l -1.1875,-3.09375 h -5.4375 l -1.125,3.09375 h -2.90625 l 5.29687,-13.59375 h 2.90625 z m -5.04687,-5.375 -1.875,-5.04687 -1.84375,5.04687 z m 5.33233,2.5625 2.60938,-0.39062 q 0.17187,0.75 0.67187,1.15625 0.51563,0.39062 1.4375,0.39062 1,0 1.51563,-0.375 0.34375,-0.26562 0.34375,-0.70312 0,-0.29688 -0.1875,-0.48438 -0.1875,-0.1875 -0.875,-0.34375 -3.14063,-0.70312 -4,-1.26562 -1.15625,-0.79688 -1.15625,-2.21875 0,-1.28125 1,-2.15625 1.01562,-0.875 3.14062,-0.875 2.03125,0 3,0.65625 0.98438,0.65625 1.35938,1.95312 l -2.45313,0.45313 q -0.15625,-0.57813 -0.60937,-0.875 -0.4375,-0.3125 -1.25,-0.3125 -1.03125,0 -1.46875,0.29687 -0.29688,0.20313 -0.29688,0.51563 0,0.28125 0.25,0.48437 0.35938,0.25 2.4375,0.73438 2.07813,0.46875 2.90625,1.15625 0.82813,0.6875 0.82813,1.9375 0,1.35937 -1.14063,2.32812 -1.125,0.96875 -3.34375,0.96875 -2.01562,0 -3.1875,-0.8125 -1.17187,-0.8125 -1.53125,-2.21875 z"
       id="path95" />
    <path
       inkscape:connector-curvature="0"
       style="fill:#000000;fill-rule:nonzero"
       d="m 826.01315,375.80288 v -8.59375 h 2.78125 q 1.57812,0 2.0625,0.125 0.73437,0.20312 1.23437,0.85937 0.5,0.64063 0.5,1.65625 0,0.79688 -0.29687,1.34375 -0.28125,0.53125 -0.71875,0.84375 -0.4375,0.29688 -0.90625,0.40625 -0.60938,0.125 -1.79688,0.125 h -1.125 v 3.23438 z m 1.73437,-7.14063 v 2.4375 h 0.95313 q 1.01562,0 1.35937,-0.125 0.35938,-0.14062 0.54688,-0.42187 0.20312,-0.29688 0.20312,-0.67188 0,-0.46875 -0.28125,-0.76562 -0.28125,-0.3125 -0.70312,-0.39063 -0.29688,-0.0625 -1.23438,-0.0625 z m 6.6081,7.14063 v -8.51563 h 1.73437 v 7.0625 h 4.3125 v 1.45313 z m 7.55029,0 v -8.59375 h 2.78125 q 1.57813,0 2.0625,0.125 0.73438,0.20312 1.23438,0.85937 0.5,0.64063 0.5,1.65625 0,0.79688 -0.29688,1.34375 -0.28125,0.53125 -0.71875,0.84375 -0.4375,0.29688 -0.90625,0.40625 -0.60937,0.125 -1.79687,0.125 h -1.125 v 3.23438 z m 1.73438,-7.14063 v 2.4375 h 0.95312 q 1.01563,0 1.35938,-0.125 0.35937,-0.14062 0.54687,-0.42187 0.20313,-0.29688 0.20313,-0.67188 0,-0.46875 -0.28125,-0.76562 -0.28125,-0.3125 -0.70313,-0.39063 -0.29687,-0.0625 -1.23437,-0.0625 z"
       id="path97" />
    <path
       inkscape:connector-curvature="0"
       style="fill:#000000;fill-opacity:0;fill-rule:evenodd"
       d="m 505.95023,483.1506 h 113.16305 v 67.21256 H 505.95023 Z"
       id="path99" />
    <path
       inkscape:connector-curvature="0"
       style="fill:#000000;fill-rule:nonzero"
       d="m 515.52835,503.77622 2.25,-0.21875 q 0.20312,1.14062 0.82812,1.67187 0.625,0.53125 1.67188,0.53125 1.125,0 1.6875,-0.46875 0.5625,-0.48437 0.5625,-1.10937 0,-0.40625 -0.23438,-0.6875 -0.23437,-0.29688 -0.82812,-0.5 -0.40625,-0.14063 -1.85938,-0.5 -1.85937,-0.46875 -2.60937,-1.14063 -1.04688,-0.9375 -1.04688,-2.29687 0,-0.875 0.48438,-1.64063 0.5,-0.76562 1.4375,-1.15625 0.9375,-0.40625 2.25,-0.40625 2.15625,0 3.25,0.95313 1.09375,0.9375 1.14062,2.51562 l -2.3125,0.10938 q -0.14062,-0.89063 -0.64062,-1.26563 -0.48438,-0.39062 -1.45313,-0.39062 -1.01562,0 -1.57812,0.40625 -0.375,0.26562 -0.375,0.71875 0,0.40625 0.34375,0.6875 0.4375,0.375 2.125,0.78125 1.6875,0.39062 2.5,0.8125 0.8125,0.42187 1.26562,1.17187 0.45313,0.73438 0.45313,1.8125 0,0.98438 -0.54688,1.84375 -0.54687,0.85938 -1.54687,1.28125 -1,0.42188 -2.48438,0.42188 -2.17187,0 -3.34375,-1 -1.15625,-1.01563 -1.39062,-2.9375 z m 11.25,-5.6875 v -2.03125 h 2.1875 v 2.03125 z m 0,9.42187 v -8.29687 h 2.1875 v 8.29687 z m 11.99219,0 h -2.20313 v -4.23437 q 0,-1.34375 -0.14062,-1.73438 -0.14063,-0.40625 -0.45313,-0.625 -0.3125,-0.21875 -0.76562,-0.21875 -0.5625,0 -1.01563,0.3125 -0.45312,0.3125 -0.625,0.82813 -0.17187,0.51562 -0.17187,1.90625 v 3.76562 h -2.1875 v -8.29687 h 2.03125 v 1.21875 q 1.09375,-1.40625 2.73437,-1.40625 0.73438,0 1.32813,0.26562 0.60937,0.25 0.90625,0.65625 0.3125,0.40625 0.4375,0.92188 0.125,0.51562 0.125,1.48437 z m 2.02343,0.54688 2.5,0.3125 q 0.0625,0.4375 0.29688,0.59375 0.3125,0.23437 0.98437,0.23437 0.85938,0 1.28125,-0.25 0.29688,-0.17187 0.4375,-0.5625 0.10935,-0.26562 0.10935,-1.01562 v -1.20313 q -0.98435,1.34375 -2.48435,1.34375 -1.67187,0 -2.65625,-1.42187 -0.76562,-1.10938 -0.76562,-2.78125 0,-2.07813 1,-3.17188 1.01562,-1.10937 2.5,-1.10937 1.54687,0 2.54684,1.34375 v -1.15625 h 2.04688 v 7.4375 q 0,1.48437 -0.25,2.20312 -0.23438,0.73438 -0.67188,1.14063 -0.4375,0.42187 -1.17187,0.65625 -0.71872,0.23437 -1.84372,0.23437 -2.10938,0 -3,-0.73437 -0.875,-0.71875 -0.875,-1.82813 0,-0.10937 0.0156,-0.26562 z m 1.95313,-4.875 q 0,1.32812 0.51562,1.9375 0.51563,0.60937 1.26563,0.60937 0.79687,0 1.34375,-0.625 0.56247,-0.625 0.56247,-1.85937 0,-1.29688 -0.53122,-1.92188 -0.53125,-0.625 -1.34375,-0.625 -0.78125,0 -1.29688,0.625 -0.51562,0.60938 -0.51562,1.85938 z m 8.02341,4.32812 v -11.45312 h 2.1875 v 11.45312 z m 9.24218,-2.64062 2.1875,0.35937 q -0.42187,1.20313 -1.32812,1.84375 -0.90625,0.625 -2.28125,0.625 -2.15625,0 -3.20313,-1.42187 -0.8125,-1.125 -0.8125,-2.85938 0,-2.0625 1.07813,-3.21875 1.07812,-1.17187 2.71875,-1.17187 1.85937,0 2.92187,1.21875 1.07813,1.21875 1.03125,3.75 h -5.5 q 0.0156,0.96875 0.51563,1.51562 0.51562,0.54688 1.28125,0.54688 0.51562,0 0.85937,-0.28125 0.35938,-0.28125 0.53125,-0.90625 z m 0.125,-2.21875 q -0.0156,-0.95313 -0.48437,-1.45313 -0.46875,-0.5 -1.14063,-0.5 -0.71875,0 -1.1875,0.53125 -0.46875,0.51563 -0.46875,1.42188 z m 8.35938,-3.4375 h 2.04687 v 1.21875 q 0.39063,-0.625 1.0625,-1.01563 0.6875,-0.39062 1.51563,-0.39062 1.45312,0 2.45312,1.14062 1.01563,1.125 1.01563,3.14063 0,2.07812 -1.01563,3.23437 -1.01562,1.15625 -2.46875,1.15625 -0.6875,0 -1.25,-0.26562 -0.54687,-0.28125 -1.17187,-0.95313 v 4.1875 h -2.1875 z m 2.17187,4 q 0,1.40625 0.54688,2.07812 0.5625,0.65625 1.35937,0.65625 0.76563,0 1.26563,-0.60937 0.51562,-0.60938 0.51562,-2.01563 0,-1.29687 -0.53125,-1.92187 -0.51562,-0.64063 -1.29687,-0.64063 -0.79688,0 -1.32813,0.625 -0.53125,0.60938 -0.53125,1.82813 z m 9.30469,-1.46875 -2,-0.35938 q 0.34375,-1.20312 1.15625,-1.78125 0.82813,-0.57812 2.4375,-0.57812 1.46875,0 2.1875,0.34375 0.71875,0.34375 1.01563,0.89062 0.29687,0.53125 0.29687,1.95313 l -0.0312,2.5625 q 0,1.09375 0.10938,1.625 0.10937,0.51562 0.39062,1.10937 h -2.17187 q -0.0781,-0.21875 -0.20313,-0.65625 -0.0625,-0.1875 -0.0781,-0.25 -0.5625,0.54688 -1.20313,0.82813 -0.64062,0.26562 -1.375,0.26562 -1.28125,0 -2.01562,-0.6875 -0.73438,-0.70312 -0.73438,-1.76562 0,-0.70313 0.32813,-1.25 0.34375,-0.5625 0.9375,-0.84375 0.60937,-0.29688 1.75,-0.51563 1.54687,-0.29687 2.14062,-0.54687 v -0.21875 q 0,-0.625 -0.3125,-0.89063 -0.3125,-0.28125 -1.1875,-0.28125 -0.57812,0 -0.90625,0.23438 -0.32812,0.23437 -0.53125,0.8125 z m 2.9375,1.78125 q -0.42187,0.14062 -1.34375,0.34375 -0.90625,0.1875 -1.1875,0.375 -0.4375,0.29687 -0.4375,0.76562 0,0.46875 0.34375,0.8125 0.34375,0.32813 0.875,0.32813 0.59375,0 1.14063,-0.39063 0.39062,-0.29687 0.51562,-0.73437 0.0937,-0.28125 0.0937,-1.0625 z m 8.11719,-4.3125 v 1.75 h -1.5 v 3.34375 q 0,1.01562 0.0469,1.1875 0.0469,0.15625 0.1875,0.26562 0.15625,0.10938 0.375,0.10938 0.3125,0 0.89063,-0.20313 l 0.1875,1.70313 q -0.76563,0.32812 -1.73438,0.32812 -0.59375,0 -1.07812,-0.20312 -0.46875,-0.20313 -0.70313,-0.51563 -0.21875,-0.3125 -0.29687,-0.85937 -0.0781,-0.375 -0.0781,-1.54688 v -3.60937 h -1 v -1.75 h 1 v -1.65625 l 2.20313,-1.28125 v 2.9375 z m 3.71875,-3.15625 v 4.20312 q 1.0625,-1.23437 2.53125,-1.23437 0.76562,0 1.375,0.28125 0.60937,0.28125 0.90625,0.71875 0.3125,0.4375 0.42187,0.96875 0.125,0.53125 0.125,1.64062 v 4.875 h -2.20312 v -4.39062 q 0,-1.29688 -0.125,-1.64063 -0.125,-0.35937 -0.4375,-0.5625 -0.3125,-0.21875 -0.79688,-0.21875 -0.54687,0 -0.98437,0.26563 -0.42188,0.26562 -0.625,0.8125 -0.1875,0.53125 -0.1875,1.57812 v 4.15625 h -2.20313 v -11.45312 z"
       id="path101" />
    <path
       inkscape:connector-curvature="0"
       style="fill:#000000;fill-opacity:0;fill-rule:evenodd"
       d="m 646.10608,562.27917 c -9.70593,0 -17.57422,-1.31128 -17.57422,-2.92889 v -49.10279 c 0,-1.61761 -7.86822,-2.92892 -17.57422,-2.92892 v 0 c 9.706,0 17.57422,-1.31134 17.57422,-2.92893 v -49.10278 0 c 0,-1.61761 7.86829,-2.92892 17.57422,-2.92892 z"
       id="path103" />
    <path
       inkscape:connector-curvature="0"
       style="fill:#000000;fill-opacity:0;fill-rule:evenodd"
       d="m 646.10608,562.27917 c -9.70593,0 -17.57422,-1.31128 -17.57422,-2.92889 v -49.10279 c 0,-1.61761 -7.86822,-2.92892 -17.57422,-2.92892 v 0 c 9.706,0 17.57422,-1.31134 17.57422,-2.92893 v -49.10278 0 c 0,-1.61761 7.86829,-2.92892 17.57422,-2.92892"
       id="path105" />
    <path
       inkscape:connector-curvature="0"
       style="fill-rule:evenodd;stroke:#000000;stroke-width:2;stroke-linecap:butt;stroke-linejoin:round"
       d="m 646.10608,562.27917 c -9.70593,0 -17.57422,-1.31128 -17.57422,-2.92889 v -49.10279 c 0,-1.61761 -7.86822,-2.92892 -17.57422,-2.92892 v 0 c 9.706,0 17.57422,-1.31134 17.57422,-2.92893 v -49.10278 0 c 0,-1.61761 7.86829,-2.92892 17.57422,-2.92892"
       id="path107" />
    <path
       inkscape:connector-curvature="0"
       style="fill:#000000;fill-opacity:0;fill-rule:evenodd"
       d="m 676.61685,531.48392 h 76.40948 v 41.25983 h -76.40948 z"
       id="path109" />
    <path
       inkscape:connector-curvature="0"
       style="fill:#000000;fill-rule:nonzero"
       d="m 686.77305,544.39082 h 2.3125 v 6.20312 q 0,1.46875 0.0781,1.90625 0.15625,0.70313 0.70313,1.14063 0.5625,0.42187 1.53125,0.42187 0.98437,0 1.48437,-0.40625 0.5,-0.40625 0.59375,-0.98437 0.10938,-0.59375 0.10938,-1.95313 v -6.32812 h 2.3125 v 6.01562 q 0,2.0625 -0.1875,2.92188 -0.1875,0.84375 -0.6875,1.4375 -0.5,0.57812 -1.34375,0.9375 -0.84375,0.34375 -2.20313,0.34375 -1.64062,0 -2.5,-0.375 -0.84375,-0.39063 -1.34375,-1 -0.48437,-0.60938 -0.64062,-1.26563 -0.21875,-0.98437 -0.21875,-2.90625 z m 11.49219,3.15625 h 2.04687 v 1.21875 q 0.39063,-0.625 1.0625,-1.01563 0.6875,-0.39062 1.51563,-0.39062 1.45312,0 2.45312,1.14062 1.01563,1.125 1.01563,3.14063 0,2.07812 -1.01563,3.23437 -1.01562,1.15625 -2.46875,1.15625 -0.6875,0 -1.25,-0.26562 -0.54687,-0.28125 -1.17187,-0.95313 v 4.1875 h -2.1875 z m 2.17187,4 q 0,1.40625 0.54688,2.07812 0.5625,0.65625 1.35937,0.65625 0.76563,0 1.26563,-0.60937 0.51562,-0.60938 0.51562,-2.01563 0,-1.29687 -0.53125,-1.92187 -0.51562,-0.64063 -1.29687,-0.64063 -0.79688,0 -1.32813,0.625 -0.53125,0.60938 -0.53125,1.82813 z m 15.27344,4.29687 h -2.04688 v -1.21875 q -0.5,0.70313 -1.20312,1.0625 -0.6875,0.34375 -1.39063,0.34375 -1.42187,0 -2.45312,-1.15625 -1.01563,-1.15625 -1.01563,-3.21875 0,-2.10937 0.98438,-3.20312 1,-1.09375 2.51562,-1.09375 1.39063,0 2.40625,1.15625 v -4.125 h 2.20313 z m -5.85938,-4.32812 q 0,1.32812 0.35938,1.92187 0.53125,0.85938 1.48437,0.85938 0.76563,0 1.29688,-0.64063 0.53125,-0.65625 0.53125,-1.9375 0,-1.42187 -0.51563,-2.04687 -0.51562,-0.64063 -1.32812,-0.64063 -0.78125,0 -1.3125,0.625 -0.51563,0.625 -0.51563,1.85938 z m 9.66407,-1.4375 -2,-0.35938 q 0.34375,-1.20312 1.15625,-1.78125 0.82812,-0.57812 2.4375,-0.57812 1.46875,0 2.1875,0.34375 0.71875,0.34375 1.01562,0.89062 0.29688,0.53125 0.29688,1.95313 l -0.0312,2.5625 q 0,1.09375 0.10937,1.625 0.10938,0.51562 0.39063,1.10937 h -2.17188 q -0.0781,-0.21875 -0.20312,-0.65625 -0.0625,-0.1875 -0.0781,-0.25 -0.5625,0.54688 -1.20312,0.82813 -0.64063,0.26562 -1.375,0.26562 -1.28125,0 -2.01563,-0.6875 -0.73437,-0.70312 -0.73437,-1.76562 0,-0.70313 0.32812,-1.25 0.34375,-0.5625 0.9375,-0.84375 0.60938,-0.29688 1.75,-0.51563 1.54688,-0.29687 2.14063,-0.54687 v -0.21875 q 0,-0.625 -0.3125,-0.89063 -0.3125,-0.28125 -1.1875,-0.28125 -0.57813,0 -0.90625,0.23438 -0.32813,0.23437 -0.53125,0.8125 z m 2.9375,1.78125 q -0.42188,0.14062 -1.34375,0.34375 -0.90625,0.1875 -1.1875,0.375 -0.4375,0.29687 -0.4375,0.76562 0,0.46875 0.34375,0.8125 0.34375,0.32813 0.875,0.32813 0.59375,0 1.14062,-0.39063 0.39063,-0.29687 0.51563,-0.73437 0.0937,-0.28125 0.0937,-1.0625 z m 8.11718,-4.3125 v 1.75 h -1.5 v 3.34375 q 0,1.01562 0.0469,1.1875 0.0469,0.15625 0.1875,0.26562 0.15625,0.10938 0.375,0.10938 0.3125,0 0.89062,-0.20313 l 0.1875,1.70313 q -0.76562,0.32812 -1.73437,0.32812 -0.59375,0 -1.07813,-0.20312 -0.46875,-0.20313 -0.70312,-0.51563 -0.21875,-0.3125 -0.29688,-0.85937 -0.0781,-0.375 -0.0781,-1.54688 v -3.60937 h -1 v -1.75 h 1 v -1.65625 l 2.20312,-1.28125 v 2.9375 z m 6.32813,5.65625 2.1875,0.35937 q -0.42188,1.20313 -1.32813,1.84375 -0.90625,0.625 -2.28125,0.625 -2.15625,0 -3.20312,-1.42187 -0.8125,-1.125 -0.8125,-2.85938 0,-2.0625 1.07812,-3.21875 1.07813,-1.17187 2.71875,-1.17187 1.85938,0 2.92188,1.21875 1.07812,1.21875 1.03125,3.75 h -5.5 q 0.0156,0.96875 0.51562,1.51562 0.51563,0.54688 1.28125,0.54688 0.51563,0 0.85938,-0.28125 0.35937,-0.28125 0.53125,-0.90625 z m 0.125,-2.21875 q -0.0156,-0.95313 -0.48438,-1.45313 -0.46875,-0.5 -1.14062,-0.5 -0.71875,0 -1.1875,0.53125 -0.46875,0.51563 -0.46875,1.42188 z"
       id="path111" />
    <path
       inkscape:connector-curvature="0"
       style="fill:#96ceda;fill-rule:evenodd"
       d="m 680.82415,293.52505 v -39.00044 c 0,4.30786 34.79138,7.80008 77.70868,7.80008 42.9173,0 77.70868,-3.49222 77.70868,-7.80008 v 39.00044 0 c 0,4.30786 -34.79138,7.80008 -77.70868,7.80008 -42.9173,0 -77.70868,-3.49222 -77.70868,-7.80008 z"
       id="path113" />
    <path
       inkscape:connector-curvature="0"
       style="fill-rule:evenodd;stroke:#000000;stroke-width:2;stroke-linecap:butt;stroke-linejoin:round"
       d="m 680.82415,293.52505 v -39.00044 c 0,4.30786 34.79138,7.80008 77.70868,7.80008 42.9173,0 77.70868,-3.49222 77.70868,-7.80008 v 39.00044 0 c 0,4.30786 -34.79138,7.80008 -77.70868,7.80008 -42.9173,0 -77.70868,-3.49222 -77.70868,-7.80008 z"
       id="path115" />
    <path
       inkscape:connector-curvature="0"
       style="fill:#000000;fill-opacity:0;fill-rule:evenodd"
       d="m 697.5066,240.71226 h 123.08661 v 74.42522 H 697.5066 Z"
       id="path117" />
    <path
       inkscape:connector-curvature="0"
       style="fill:#000000;fill-rule:nonzero"
       d="m 709.30345,284.07226 -2.73438,-11.45313 h 2.35938 l 1.73437,7.85938 2.09375,-7.85938 h 2.75 l 2,8 1.76563,-8 h 2.32812 l -2.78125,11.45313 h -2.45312 l -2.28125,-8.5625 -2.28125,8.5625 z m 15.10156,-5.76563 -2,-0.35937 q 0.34375,-1.20313 1.15625,-1.78125 0.82813,-0.57813 2.4375,-0.57813 1.46875,0 2.1875,0.34375 0.71875,0.34375 1.01563,0.89063 0.29687,0.53125 0.29687,1.95312 l -0.0312,2.5625 q 0,1.09375 0.10938,1.625 0.10937,0.51563 0.39062,1.10938 h -2.17187 q -0.0781,-0.21875 -0.20313,-0.65625 -0.0625,-0.1875 -0.0781,-0.25 -0.5625,0.54687 -1.20313,0.82812 -0.64062,0.26563 -1.375,0.26563 -1.28125,0 -2.01562,-0.6875 -0.73438,-0.70313 -0.73438,-1.76563 0,-0.70312 0.32813,-1.25 0.34375,-0.5625 0.9375,-0.84375 0.60937,-0.29687 1.75,-0.51562 1.54687,-0.29688 2.14062,-0.54688 v -0.21875 q 0,-0.625 -0.3125,-0.89062 -0.3125,-0.28125 -1.1875,-0.28125 -0.57812,0 -0.90625,0.23437 -0.32812,0.23438 -0.53125,0.8125 z m 2.9375,1.78125 q -0.42187,0.14063 -1.34375,0.34375 -0.90625,0.1875 -1.1875,0.375 -0.4375,0.29688 -0.4375,0.76563 0,0.46875 0.34375,0.8125 0.34375,0.32812 0.875,0.32812 0.59375,0 1.14063,-0.39062 0.39062,-0.29688 0.51562,-0.73438 0.0937,-0.28125 0.0937,-1.0625 z m 4.32031,-5.4375 v -2.03125 h 2.1875 v 2.03125 z m 0,9.42188 v -8.29688 h 2.1875 v 8.29688 z m 8.24219,-8.29688 v 1.75 h -1.5 v 3.34375 q 0,1.01563 0.0469,1.1875 0.0469,0.15625 0.1875,0.26563 0.15625,0.10937 0.375,0.10937 0.3125,0 0.89062,-0.20312 l 0.1875,1.70312 q -0.76562,0.32813 -1.73437,0.32813 -0.59375,0 -1.07813,-0.20313 -0.46875,-0.20312 -0.70312,-0.51562 -0.21875,-0.3125 -0.29688,-0.85938 -0.0781,-0.375 -0.0781,-1.54687 v -3.60938 h -1 v -1.75 h 1 v -1.65625 l 2.20312,-1.28125 v 2.9375 z m 5.00781,0 h 1.21875 v -0.625 q 0,-1.04687 0.21875,-1.5625 0.23438,-0.51562 0.82813,-0.84375 0.59375,-0.32812 1.51562,-0.32812 0.9375,0 1.82813,0.28125 l -0.29688,1.53125 q -0.51562,-0.125 -1,-0.125 -0.48437,0 -0.6875,0.23437 -0.20312,0.21875 -0.20312,0.84375 v 0.59375 h 1.64062 v 1.71875 h -1.64062 v 6.57813 h -2.20313 v -6.57813 h -1.21875 z m 5.78125,4.03125 q 0,-1.09375 0.53125,-2.10937 0.54688,-1.03125 1.53125,-1.5625 1,-0.54688 2.21875,-0.54688 1.875,0 3.07813,1.21875 1.20312,1.21875 1.20312,3.09375 0,1.875 -1.21875,3.125 -1.20312,1.23438 -3.04687,1.23438 -1.14063,0 -2.1875,-0.51563 -1.03125,-0.51562 -1.57813,-1.51562 -0.53125,-1 -0.53125,-2.42188 z m 2.25,0.10938 q 0,1.23437 0.57813,1.89062 0.59375,0.65625 1.45312,0.65625 0.85938,0 1.4375,-0.65625 0.59375,-0.65625 0.59375,-1.90625 0,-1.21875 -0.59375,-1.875 -0.57812,-0.65625 -1.4375,-0.65625 -0.85937,0 -1.45312,0.65625 -0.57813,0.65625 -0.57813,1.89063 z m 10.13282,4.15625 h -2.1875 v -8.29688 h 2.03125 v 1.17188 q 0.53125,-0.82813 0.9375,-1.09375 0.42187,-0.26563 0.95312,-0.26563 0.75,0 1.45313,0.40625 l -0.6875,1.92188 q -0.54688,-0.35938 -1.03125,-0.35938 -0.45313,0 -0.78125,0.25 -0.3125,0.25 -0.5,0.92188 -0.1875,0.65625 -0.1875,2.78125 z m 18.92187,0 h -2.51562 l -1,-2.60938 h -4.57813 l -0.95312,2.60938 h -2.45313 l 4.46875,-11.45313 h 2.4375 z m -4.26562,-4.53125 -1.57813,-4.25 -1.54687,4.25 z m 5.50781,4.53125 v -11.45313 h 2.25 l 4.6875,7.64063 v -7.64063 h 2.15625 v 11.45313 h -2.32813 l -4.60937,-7.46875 v 7.46875 z m 14.53906,0 v -4.82813 l -4.20312,-6.625 h 2.71875 l 2.70312,4.53125 2.64063,-4.53125 h 2.65625 l -4.20313,6.64063 v 4.8125 z"
       id="path119" />
    <path
       inkscape:connector-curvature="0"
       style="fill:#000000;fill-rule:nonzero"
       d="m 770.49878,285.33227 h 33.78125 v 1 h -33.78125 z"
       id="path121" />
    <path
       inkscape:connector-curvature="0"
       style="fill:#000000;fill-opacity:0;fill-rule:evenodd"
       d="m 723.15229,125.15058 1.3858,135.55905"
       id="path123" />
    <path
       inkscape:connector-curvature="0"
       style="fill-rule:evenodd;stroke:#000000;stroke-width:2;stroke-linecap:butt;stroke-linejoin:round"
       d="m 723.15229,125.15058 1.26312,123.55969"
       id="path125" />
    <path
       inkscape:connector-curvature="0"
       style="fill:#000000;fill-rule:evenodd;stroke:#000000;stroke-width:2;stroke-linecap:butt"
       d="m 721.11215,248.74404 3.39606,9.04195 3.21051,-9.1095 z"
       id="path127" />
    <path
       inkscape:connector-curvature="0"
       style="fill:#000000;fill-opacity:0;fill-rule:evenodd"
       d="M 279.95279,117.15059 V 260.70963"
       id="path129" />
    <path
       inkscape:connector-curvature="0"
       style="fill-rule:evenodd;stroke:#000000;stroke-width:2;stroke-linecap:butt;stroke-linejoin:round"
       d="M 279.95279,117.15059 V 248.70963"
       id="path131" />
    <path
       inkscape:connector-curvature="0"
       style="fill:#000000;fill-rule:evenodd;stroke:#000000;stroke-width:2;stroke-linecap:butt"
       d="m 276.64934,248.70964 3.30345,9.0762 3.30347,-9.0762 z"
       id="path133" />
  </g>
</svg>
